G04*
G04 #@! TF.GenerationSoftware,Altium Limited,Altium Designer,22.10.1 (41)*
G04*
G04 Layer_Physical_Order=3*
G04 Layer_Color=128*
%FSLAX44Y44*%
%MOMM*%
G71*
G04*
G04 #@! TF.SameCoordinates,FF558BA5-466A-4189-8B58-D4AB7027BDE0*
G04*
G04*
G04 #@! TF.FilePolarity,Negative*
G04*
G01*
G75*
%ADD140C,0.7620*%
%ADD145C,1.2700*%
%ADD163C,1.0160*%
%ADD175C,2.3940*%
%ADD177C,2.0240*%
%ADD178C,3.2740*%
%ADD179C,2.8240*%
%ADD180C,3.6240*%
%ADD184C,2.5240*%
%ADD186C,2.4240*%
%ADD188C,2.3240*%
%ADD192C,2.6240*%
%ADD193C,1.8240*%
G04:AMPARAMS|DCode=194|XSize=1.62mm|YSize=1.62mm|CornerRadius=0mm|HoleSize=0mm|Usage=FLASHONLY|Rotation=0.000|XOffset=0mm|YOffset=0mm|HoleType=Round|Shape=Relief|Width=0.381mm|Gap=0.254mm|Entries=4|*
%AMTHD194*
7,0,0,1.6200,1.1120,0.3810,45*
%
%ADD194THD194*%
%ADD195C,1.8740*%
G04:AMPARAMS|DCode=196|XSize=1.57mm|YSize=1.57mm|CornerRadius=0mm|HoleSize=0mm|Usage=FLASHONLY|Rotation=0.000|XOffset=0mm|YOffset=0mm|HoleType=Round|Shape=Relief|Width=0.381mm|Gap=0.254mm|Entries=4|*
%AMTHD196*
7,0,0,1.5700,1.0620,0.3810,45*
%
%ADD196THD196*%
%ADD197C,0.5588*%
%ADD198R,2.1647X1.9145*%
%ADD199R,8.7630X15.0114*%
%ADD200R,37.6682X15.0368*%
%ADD201R,71.7042X24.5110*%
G04:AMPARAMS|DCode=202|XSize=2.14mm|YSize=2.14mm|CornerRadius=0mm|HoleSize=0mm|Usage=FLASHONLY|Rotation=0.000|XOffset=0mm|YOffset=0mm|HoleType=Round|Shape=Relief|Width=0.381mm|Gap=0.254mm|Entries=4|*
%AMTHD202*
7,0,0,2.1400,1.6320,0.3810,45*
%
%ADD202THD202*%
G04:AMPARAMS|DCode=203|XSize=2.57mm|YSize=2.57mm|CornerRadius=0mm|HoleSize=0mm|Usage=FLASHONLY|Rotation=0.000|XOffset=0mm|YOffset=0mm|HoleType=Round|Shape=Relief|Width=0.381mm|Gap=0.254mm|Entries=4|*
%AMTHD203*
7,0,0,2.5700,2.0620,0.3810,45*
%
%ADD203THD203*%
%AMTHOVALD204*
21,1,0.3000,2.4700,0,0,0.0*
1,1,2.4700,-0.1500,0.0000*
1,1,2.4700,0.1500,0.0000*
21,0,0.3000,1.9620,0,0,0.0*
1,0,1.9620,-0.1500,0.0000*
1,0,1.9620,0.1500,0.0000*
4,0,4,-0.0153,-0.1347,-0.8886,-1.0080,-1.1580,-0.7386,-0.2847,0.1347,-0.0153,-0.1347,0.0*
4,0,4,0.2847,-0.1347,1.1580,0.7386,0.8886,1.0080,0.0153,0.1347,0.2847,-0.1347,0.0*
4,0,4,-0.2847,-0.1347,-1.1580,0.7386,-0.8886,1.0080,-0.0153,0.1347,-0.2847,-0.1347,0.0*
4,0,4,0.0153,-0.1347,0.8886,-1.0080,1.1580,-0.7386,0.2847,0.1347,0.0153,-0.1347,0.0*
%
%ADD204THOVALD204*%

%ADD205O,2.7240X4.5240*%
%ADD206O,4.5240X2.5240*%
%ADD207C,1.7240*%
%AMTHOVALD208*
21,1,0.3000,2.4700,0,0,270.0*
1,1,2.4700,0.0000,0.1500*
1,1,2.4700,0.0000,-0.1500*
21,0,0.3000,1.9620,0,0,270.0*
1,0,1.9620,0.0000,0.1500*
1,0,1.9620,0.0000,-0.1500*
4,0,4,-0.1347,0.0153,-1.0080,0.8886,-0.7386,1.1580,0.1347,0.2847,-0.1347,0.0153,0.0*
4,0,4,-0.1347,-0.2847,0.7386,-1.1580,1.0080,-0.8886,0.1347,-0.0153,-0.1347,-0.2847,0.0*
4,0,4,-0.1347,0.2847,0.7386,1.1580,1.0080,0.8886,0.1347,0.0153,-0.1347,0.2847,0.0*
4,0,4,-0.1347,-0.0153,-1.0080,-0.8886,-0.7386,-1.1580,0.1347,-0.2847,-0.1347,-0.0153,0.0*
%
%ADD208THOVALD208*%

%ADD209O,4.5240X2.7240*%
%ADD210O,2.5240X4.5240*%
D140*
X304800Y352552D02*
X306578Y350774D01*
X270002Y352552D02*
X304800D01*
X254254Y336804D02*
X270002Y352552D01*
X254254Y326390D02*
Y336804D01*
Y145288D02*
Y326390D01*
Y145288D02*
X300990Y98552D01*
X303784Y95758D01*
X350520D01*
X378460Y123698D01*
X415036D01*
X417830Y126492D01*
Y162814D01*
X364998Y215646D02*
X417830Y162814D01*
X329946Y215646D02*
X364998D01*
X290068Y255524D02*
X329946Y215646D01*
X290068Y255524D02*
Y272288D01*
Y283464D01*
X324358Y317754D01*
Y332994D01*
X306578Y350774D02*
X324358Y332994D01*
D145*
X713994Y356108D02*
X720598Y362712D01*
X713994Y0D02*
Y356108D01*
D163*
X718743Y374047D02*
G03*
X732790Y360000I14047J0D01*
G01*
X718561Y988763D02*
G03*
X707324Y1000000I-11237J0D01*
G01*
X12702D02*
G03*
X0Y987298I0J-12702D01*
G01*
X907300Y0D02*
G03*
X920000Y12700I0J12700D01*
G01*
Y347300D02*
G03*
X907300Y360000I-12700J0D01*
G01*
X732790Y360000D02*
X907300Y360000D01*
X718561Y988763D02*
X718743Y374047D01*
X12702Y1000000D02*
X707324D01*
X0Y0D02*
Y987298D01*
Y0D02*
X907300D01*
X920000Y12700D02*
Y347300D01*
D175*
X739000Y128500D02*
D03*
Y113500D02*
D03*
Y98500D02*
D03*
Y83500D02*
D03*
Y68500D02*
D03*
Y53500D02*
D03*
X688376Y53253D02*
D03*
Y68253D02*
D03*
Y83253D02*
D03*
Y98253D02*
D03*
Y113253D02*
D03*
D177*
X801000Y283000D02*
D03*
X837000D02*
D03*
Y247000D02*
D03*
D178*
X680300Y936500D02*
D03*
X629500D02*
D03*
X550500D02*
D03*
X499700D02*
D03*
X60000Y944400D02*
D03*
Y893600D02*
D03*
D179*
X617800Y890900D02*
D03*
X694000Y865500D02*
D03*
X617800Y814700D02*
D03*
Y713100D02*
D03*
X488400Y891400D02*
D03*
X564600Y866000D02*
D03*
Y713600D02*
D03*
X488400Y815200D02*
D03*
D180*
X399000Y40000D02*
D03*
X40000Y504500D02*
D03*
D184*
X381279Y277647D02*
D03*
X345923Y242291D02*
D03*
X88000Y661000D02*
D03*
X38000D02*
D03*
X88000Y776000D02*
D03*
X38000D02*
D03*
X240000Y644000D02*
D03*
X340000D02*
D03*
X190000Y844000D02*
D03*
X390000D02*
D03*
D186*
X226000Y21000D02*
D03*
X256000D02*
D03*
D188*
X64000Y373500D02*
D03*
Y323500D02*
D03*
D192*
X140000Y944000D02*
D03*
X440000D02*
D03*
D193*
X734657Y144037D02*
D03*
X529844Y230049D02*
D03*
Y222509D02*
D03*
X758825Y144208D02*
D03*
X558038Y521716D02*
D03*
X550418Y137668D02*
D03*
X164401Y58928D02*
D03*
X635889Y241871D02*
D03*
X636207Y314643D02*
D03*
X631127Y351600D02*
D03*
X609664Y318516D02*
D03*
X604931Y51214D02*
D03*
X673735Y455168D02*
D03*
X674406Y446957D02*
D03*
X557276Y286512D02*
D03*
X549656Y514096D02*
D03*
X145288Y373380D02*
D03*
D194*
X499000Y428500D02*
D03*
X600640Y384880D02*
D03*
X656201Y517652D02*
D03*
X425704Y497840D02*
D03*
X415544Y487680D02*
D03*
X405384Y477520D02*
D03*
X395224Y467360D02*
D03*
X390144Y455422D02*
D03*
Y443992D02*
D03*
X516064Y257493D02*
D03*
X137922Y17844D02*
D03*
Y27369D02*
D03*
X128397D02*
D03*
Y17844D02*
D03*
X118872D02*
D03*
Y27369D02*
D03*
X544576Y302133D02*
D03*
X659066Y144844D02*
D03*
X646367D02*
D03*
X633666D02*
D03*
X475540Y318790D02*
D03*
X468030Y325120D02*
D03*
X292100Y334518D02*
D03*
Y314198D02*
D03*
X305054Y324358D02*
D03*
X186944Y369824D02*
D03*
X194564D02*
D03*
X202184D02*
D03*
X209804D02*
D03*
X176530Y493776D02*
D03*
X163830D02*
D03*
Y503936D02*
D03*
X176530D02*
D03*
Y514096D02*
D03*
X163830D02*
D03*
D195*
X419354Y391414D02*
D03*
X422402Y339852D02*
D03*
X342900Y134874D02*
D03*
X463804Y556768D02*
D03*
X37846Y618744D02*
D03*
X306324Y521970D02*
D03*
X235204Y501142D02*
D03*
X197866Y429514D02*
D03*
X162560Y431546D02*
D03*
X161036Y402336D02*
D03*
X330200Y288798D02*
D03*
X362966Y322834D02*
D03*
X307594Y261620D02*
D03*
X318516Y187198D02*
D03*
X293878Y176276D02*
D03*
X305816Y212598D02*
D03*
X293624Y158242D02*
D03*
X411480Y254762D02*
D03*
X472694Y192532D02*
D03*
X515366Y147828D02*
D03*
X487680Y151892D02*
D03*
X515620Y87630D02*
D03*
X656844Y47244D02*
D03*
X588010Y192278D02*
D03*
X613156Y200660D02*
D03*
X685292Y172466D02*
D03*
X659638Y208788D02*
D03*
X559054Y457708D02*
D03*
X572008Y443992D02*
D03*
X583184Y432054D02*
D03*
X562102Y418084D02*
D03*
X536448Y437896D02*
D03*
X441960Y391922D02*
D03*
X469646Y414782D02*
D03*
X435864Y479298D02*
D03*
X429768Y454406D02*
D03*
X475996Y500380D02*
D03*
X536194Y557784D02*
D03*
X496824Y584708D02*
D03*
X530098Y606298D02*
D03*
X675386Y358648D02*
D03*
X670560Y399796D02*
D03*
X686562Y487680D02*
D03*
X656844Y542798D02*
D03*
X686308Y578612D02*
D03*
X655828Y611632D02*
D03*
X516636Y344932D02*
D03*
Y332232D02*
D03*
Y306832D02*
D03*
Y319532D02*
D03*
X573024Y686562D02*
D03*
X67310Y77470D02*
D03*
Y64770D02*
D03*
Y52070D02*
D03*
Y39370D02*
D03*
Y26607D02*
D03*
X564515Y273431D02*
D03*
X646938Y404495D02*
D03*
X189992Y348742D02*
D03*
D196*
X674897Y310655D02*
D03*
X550418Y87884D02*
D03*
D197*
X470408Y594551D02*
X491490Y615633D01*
Y631444D01*
Y671068D01*
X470408Y692150D02*
X491490Y671068D01*
X470408Y692150D02*
Y726440D01*
X206375Y356616D02*
X218186D01*
X181864D02*
X206375D01*
X166370Y372110D02*
X181864Y356616D01*
X510032Y702564D02*
X543814Y668782D01*
X510032Y722947D02*
Y732282D01*
X470408Y726440D02*
X484378Y740410D01*
X501904D01*
X182563Y594551D02*
X470408D01*
X131064Y543052D02*
X182563Y594551D01*
X501904Y740410D02*
X510032Y732282D01*
Y702564D02*
Y722947D01*
X543814Y668782D02*
X643128D01*
X676656Y702310D01*
Y728980D01*
X683768Y736092D01*
X701802D01*
X710438Y727456D01*
Y669290D02*
Y727456D01*
X582359Y541211D02*
X710438Y669290D01*
X237680Y541211D02*
X582359D01*
X195072Y498602D02*
X237680Y541211D01*
X195072Y471170D02*
Y498602D01*
Y471170D02*
X225552Y440690D01*
Y363982D02*
Y440690D01*
X218186Y356616D02*
X225552Y363982D01*
X166370Y372110D02*
Y455168D01*
X131064Y490474D02*
X166370Y455168D01*
X131064Y490474D02*
Y543052D01*
D198*
X738775Y130083D02*
D03*
D199*
X420751Y680085D02*
D03*
D200*
X189865Y679196D02*
D03*
D201*
X360807Y873379D02*
D03*
D202*
X688376Y128253D02*
D03*
D203*
X694000Y713100D02*
D03*
X488400Y713600D02*
D03*
D204*
X388000Y148000D02*
D03*
D205*
X447000Y117000D02*
D03*
D206*
X399000Y85000D02*
D03*
D207*
X149050Y146325D02*
D03*
Y164675D02*
D03*
X158225Y137150D02*
D03*
Y155500D02*
D03*
Y173850D02*
D03*
X167400Y146325D02*
D03*
Y164675D02*
D03*
X176575Y137150D02*
D03*
Y155500D02*
D03*
Y173850D02*
D03*
X185750Y146325D02*
D03*
Y164675D02*
D03*
D208*
X148000Y515500D02*
D03*
D209*
X117000Y456500D02*
D03*
D210*
X85000Y504500D02*
D03*
M02*
