G04*
G04 #@! TF.GenerationSoftware,Altium Limited,Altium Designer,22.10.1 (41)*
G04*
G04 Layer_Color=16711935*
%FSLAX44Y44*%
%MOMM*%
G71*
G04*
G04 #@! TF.SameCoordinates,FF558BA5-466A-4189-8B58-D4AB7027BDE0*
G04*
G04*
G04 #@! TF.FilePolarity,Negative*
G04*
G01*
G75*
%ADD56R,0.8000X1.4000*%
%ADD57R,1.0652X0.8874*%
%ADD62R,1.4000X0.8000*%
%ADD65R,0.8874X1.0652*%
%ADD91O,1.8000X1.3000*%
%ADD92C,1.1000*%
%ADD93C,3.1000*%
%ADD94C,2.6000*%
%ADD95C,2.2000*%
%ADD96O,3.7000X1.9000*%
%ADD97O,2.1000X4.1000*%
%ADD98O,4.1000X2.1000*%
%ADD99C,2.1000*%
%ADD100C,0.1000*%
%ADD101C,0.4000*%
%ADD102O,1.9000X3.7000*%
%ADD215R,1.2800X0.6800*%
%ADD216R,1.7000X1.0000*%
%ADD217R,1.0000X1.7000*%
%ADD218R,1.2000X0.7000*%
D56*
X737635Y168732D02*
D03*
X756635D02*
D03*
X769000Y50500D02*
D03*
X788000D02*
D03*
X791414Y262636D02*
D03*
X772414D02*
D03*
D57*
X736998Y203000D02*
D03*
X753000D02*
D03*
X736998Y191000D02*
D03*
X753000D02*
D03*
X827000Y143000D02*
D03*
X810998D02*
D03*
X829501Y64500D02*
D03*
X813499D02*
D03*
X772400Y247396D02*
D03*
X788402D02*
D03*
D62*
X766826Y109500D02*
D03*
Y128500D02*
D03*
X783590Y109626D02*
D03*
Y128626D02*
D03*
X800100D02*
D03*
Y109626D02*
D03*
X855218Y33020D02*
D03*
Y52020D02*
D03*
X771906Y83566D02*
D03*
Y64566D02*
D03*
D65*
X841000Y215998D02*
D03*
Y232000D02*
D03*
X854000Y215998D02*
D03*
Y232000D02*
D03*
X867000D02*
D03*
Y215998D02*
D03*
X861868Y201931D02*
D03*
Y185929D02*
D03*
X848868Y185928D02*
D03*
Y201930D02*
D03*
X861360Y155956D02*
D03*
Y171958D02*
D03*
X848360Y155956D02*
D03*
Y171958D02*
D03*
X785468Y65835D02*
D03*
Y81837D02*
D03*
X797968Y65835D02*
D03*
Y81837D02*
D03*
X800000Y34498D02*
D03*
Y50500D02*
D03*
X726967Y179749D02*
D03*
Y163747D02*
D03*
X741000Y232002D02*
D03*
Y216000D02*
D03*
X754000Y232000D02*
D03*
Y215998D02*
D03*
X901700Y157099D02*
D03*
Y173101D02*
D03*
D91*
X739000Y128500D02*
D03*
Y113500D02*
D03*
Y98500D02*
D03*
Y83500D02*
D03*
Y68500D02*
D03*
Y53500D02*
D03*
X688376Y53253D02*
D03*
Y68253D02*
D03*
Y83253D02*
D03*
Y98253D02*
D03*
Y128253D02*
D03*
Y113253D02*
D03*
D92*
X801000Y283000D02*
D03*
X837000D02*
D03*
Y247000D02*
D03*
D93*
X680300Y936500D02*
D03*
X629500D02*
D03*
X550500D02*
D03*
X499700D02*
D03*
X60000Y944400D02*
D03*
Y893600D02*
D03*
D94*
X617800Y890900D02*
D03*
X694000Y865500D02*
D03*
Y713100D02*
D03*
X617800Y814700D02*
D03*
Y713100D02*
D03*
X488400Y891400D02*
D03*
X564600Y866000D02*
D03*
Y713600D02*
D03*
X488400Y815200D02*
D03*
Y713600D02*
D03*
D95*
X399000Y40000D02*
D03*
X40000Y504500D02*
D03*
D96*
X388000Y148000D02*
D03*
D97*
X447000Y117000D02*
D03*
X85000Y504500D02*
D03*
D98*
X399000Y85000D02*
D03*
X117000Y456500D02*
D03*
D99*
X381279Y277647D02*
D03*
X345923Y242291D02*
D03*
X64000Y373500D02*
D03*
Y323500D02*
D03*
X88000Y661000D02*
D03*
X38000D02*
D03*
X88000Y776000D02*
D03*
X38000D02*
D03*
X240000Y644000D02*
D03*
X340000D02*
D03*
X190000Y844000D02*
D03*
X390000D02*
D03*
X140000Y944000D02*
D03*
X440000D02*
D03*
D100*
X226000Y21000D02*
D03*
X256000D02*
D03*
D101*
X149050Y146325D02*
D03*
Y164675D02*
D03*
X158225Y137150D02*
D03*
Y155500D02*
D03*
Y173850D02*
D03*
X167400Y146325D02*
D03*
Y164675D02*
D03*
X176575Y137150D02*
D03*
Y155500D02*
D03*
Y173850D02*
D03*
X185750Y146325D02*
D03*
Y164675D02*
D03*
D102*
X148000Y515500D02*
D03*
D215*
X772400Y155900D02*
D03*
Y168600D02*
D03*
Y181300D02*
D03*
Y194000D02*
D03*
Y206700D02*
D03*
Y219400D02*
D03*
Y232100D02*
D03*
X825600Y155900D02*
D03*
Y168600D02*
D03*
Y181300D02*
D03*
Y194000D02*
D03*
Y206700D02*
D03*
Y219400D02*
D03*
Y232100D02*
D03*
D216*
X884000Y203000D02*
D03*
Y232000D02*
D03*
X878920Y186000D02*
D03*
Y157000D02*
D03*
D217*
X813500Y80500D02*
D03*
X842500D02*
D03*
D218*
X814000Y33000D02*
D03*
Y42500D02*
D03*
Y52000D02*
D03*
X840000D02*
D03*
Y33000D02*
D03*
M02*
