M48
;Layer_Color=9474304
;FILE_FORMAT=2:5
INCH,LZ
;TYPE=PLATED
T1F00S00C0.00787
T2F00S00C0.01181
T3F00S00C0.01378
T4F00S00C0.01968
T5F00S00C0.03150
T6F00S00C0.03425
T7F00S00C0.03543
T8F00S00C0.03937
T10F00S00C0.04331
T12F00S00C0.05118
T13F00S00C0.06890
;TYPE=NON_PLATED
T14F00S00C0.08268
%
T01
X0062293Y0053996
X0069518
X0065905Y0057608
X0069518Y0061221
X0062293
X0058681Y0057608
Y0064833
X0062293Y0068445
X0065905Y0064833
X0069518Y0068445
X007313Y0064833
Y0057608
T02
X0064725Y00232
X02167Y00346
Y00542
X0238162Y0020163
X025035Y0095225
X0250475Y0123875
X0240025Y01254
X0248475Y0138425
X0265707Y0122305
X0265514Y0175967
X026525Y01792
X02197Y02054
X02164Y02024
X02194Y01128
X0289235Y0056708
X029875Y0056775
X02086Y0087602
Y0090571
X00572Y0147
T03
X00265Y0010475
Y00155
Y00205
Y00255
Y00305
X00468Y0010775
X005055
X00543
Y0007025
X005055
X00468
X0135Y00531
X0203Y00345
X02586Y00186
X0259475Y0057025
X0254475
X0249475
X02414Y0079
X02315Y00757
X02597Y00822
X02698Y00679
X02659Y01412
X0264Y01574
X02547Y015925
X0236473Y0151527
X02296Y01701
X02252Y01748
X02201Y01802
X02213Y01646
X02144Y011895
X022225Y010765
X0258347Y02038
X02703Y0192
X02112Y01724
X0196457Y0168701
X01849Y01633
X0174Y01543
X01651Y01541
X01663Y01338
X0184264Y0128
X0187221Y0125508
X02034Y01258
Y01308
Y01358
Y01208
X0203175Y0101375
X0162Y01003
X01211Y0103
X013Y01137
X01201Y01277
X0115Y01317
Y01237
X01429Y01271
X01536Y01748
Y01793
X01556Y0184
X01596Y0188
X01636Y0192
X01676Y0196
X01716Y01887
X01692Y01789
X01874Y0197
X01206Y02055
X00926Y01973
X00695Y01984
Y01944
X00645
Y01984
Y02024
X00695
X0064Y01699
X00634Y01584
X00736Y01456
X00766
X00796
X00826
X00748Y01373
X00779Y01691
X01204Y00837
X01254Y00737
X01157Y00694
X01156Y00623
X0192Y00598
X02029Y00582
X01861Y00758
X00149Y02436
X01826Y02192
X01956Y02302
X02087Y02387
X02111Y02196
X02586Y02137
X02702Y02278
X02582Y02408
X02256Y02703
T04
X0315354Y0111417
X0329528
Y0097244
T05
X0025197Y0127362
Y0147047
T06
X0271014Y0020966
Y0026871
Y0032777
Y0038682
Y0044588
Y0050494
X0290945Y0050591
Y0044685
Y003878
Y0032874
Y0026969
Y0021063
T07
X0088976Y0008268
X0100787
T08
X013619Y009539
X015011Y010931
X0034646Y0260236
X0014961
Y0305512
X0034646
X0074803Y0332283
X0153543
X0133858Y0253543
X0094488
T10
X0173228Y0371654
X0055118
T12
X0192283Y0280945
Y0320945
Y0350945
X0222284Y0340945
X0243228Y0350748
Y0320748
Y0280748
X0222284Y0280945
X0273228Y0280748
Y0340748
T13
X0023622Y0351811
X0196732Y0368701
X0216732
X0247835
X0267835
X0023622Y0371811
T14
X0157087Y0015748
X0015748Y0198622
M30
