G04*
G04 #@! TF.GenerationSoftware,Altium Limited,Altium Designer,22.10.1 (41)*
G04*
G04 Layer_Color=128*
%FSLAX44Y44*%
%MOMM*%
G71*
G04*
G04 #@! TF.SameCoordinates,FF558BA5-466A-4189-8B58-D4AB7027BDE0*
G04*
G04*
G04 #@! TF.FilePolarity,Positive*
G04*
G01*
G75*
%ADD21R,0.9540X1.5540*%
%ADD22R,1.2192X1.0414*%
%ADD27R,1.5540X0.9540*%
%ADD30R,1.0414X1.2192*%
%ADD219R,1.4340X0.8340*%
%ADD220R,1.8540X1.1540*%
%ADD221R,1.1540X1.8540*%
%ADD222R,1.3540X0.8540*%
D21*
X737635Y168732D02*
D03*
X756635D02*
D03*
X769000Y50500D02*
D03*
X788000D02*
D03*
X791414Y262636D02*
D03*
X772414D02*
D03*
D22*
X736998Y203000D02*
D03*
X753000D02*
D03*
X736998Y191000D02*
D03*
X753000D02*
D03*
X827000Y143000D02*
D03*
X810998D02*
D03*
X829501Y64500D02*
D03*
X813499D02*
D03*
X772400Y247396D02*
D03*
X788402D02*
D03*
D27*
X766826Y109500D02*
D03*
Y128500D02*
D03*
X783590Y109626D02*
D03*
Y128626D02*
D03*
X800100D02*
D03*
Y109626D02*
D03*
X855218Y33020D02*
D03*
Y52020D02*
D03*
X771906Y83566D02*
D03*
Y64566D02*
D03*
D30*
X841000Y215998D02*
D03*
Y232000D02*
D03*
X854000Y215998D02*
D03*
Y232000D02*
D03*
X867000D02*
D03*
Y215998D02*
D03*
X861868Y201931D02*
D03*
Y185929D02*
D03*
X848868Y185928D02*
D03*
Y201930D02*
D03*
X861360Y155956D02*
D03*
Y171958D02*
D03*
X848360Y155956D02*
D03*
Y171958D02*
D03*
X785468Y65835D02*
D03*
Y81837D02*
D03*
X797968Y65835D02*
D03*
Y81837D02*
D03*
X800000Y34498D02*
D03*
Y50500D02*
D03*
X726967Y179749D02*
D03*
Y163747D02*
D03*
X741000Y232002D02*
D03*
Y216000D02*
D03*
X754000Y232000D02*
D03*
Y215998D02*
D03*
X901700Y157099D02*
D03*
Y173101D02*
D03*
D219*
X772400Y155900D02*
D03*
Y168600D02*
D03*
Y181300D02*
D03*
Y194000D02*
D03*
Y206700D02*
D03*
Y219400D02*
D03*
Y232100D02*
D03*
X825600Y155900D02*
D03*
Y168600D02*
D03*
Y181300D02*
D03*
Y194000D02*
D03*
Y206700D02*
D03*
Y219400D02*
D03*
Y232100D02*
D03*
D220*
X884000Y203000D02*
D03*
Y232000D02*
D03*
X878920Y186000D02*
D03*
Y157000D02*
D03*
D221*
X813500Y80500D02*
D03*
X842500D02*
D03*
D222*
X814000Y33000D02*
D03*
Y42500D02*
D03*
Y52000D02*
D03*
X840000D02*
D03*
Y33000D02*
D03*
M02*
