G04*
G04 #@! TF.GenerationSoftware,Altium Limited,Altium Designer,22.10.1 (41)*
G04*
G04 Layer_Physical_Order=4*
G04 Layer_Color=16711680*
%FSLAX44Y44*%
%MOMM*%
G71*
G04*
G04 #@! TF.SameCoordinates,FF558BA5-466A-4189-8B58-D4AB7027BDE0*
G04*
G04*
G04 #@! TF.FilePolarity,Positive*
G04*
G01*
G75*
%ADD19C,0.2540*%
%ADD67R,1.1000X0.6000*%
%ADD99C,2.1000*%
%ADD103R,0.7000X1.3000*%
%ADD104R,0.9652X0.7874*%
%ADD109R,1.3000X0.7000*%
%ADD112R,0.7874X0.9652*%
%ADD138C,0.3810*%
%ADD139C,0.3741*%
%ADD140C,0.7620*%
%ADD141C,0.3048*%
%ADD143C,0.5080*%
%ADD144C,0.3493*%
%ADD149C,1.7780*%
%ADD150O,1.7000X1.2000*%
%ADD151C,1.0000*%
%ADD152C,3.0000*%
%ADD153C,2.5000*%
%ADD154O,3.6000X1.8000*%
%ADD155O,2.0000X4.0000*%
%ADD156O,4.0000X2.0000*%
%ADD157C,2.0000*%
%ADD158C,0.3000*%
%ADD159O,1.8000X3.6000*%
%ADD160C,0.5000*%
%ADD161C,0.4500*%
%ADD162C,0.6000*%
%ADD211R,1.1800X0.5800*%
%ADD212R,1.6000X0.9000*%
%ADD213R,0.9000X1.6000*%
%ADD214C,0.3510*%
G36*
X302006Y339090D02*
X306832D01*
X310896Y335026D01*
Y313436D01*
X303276Y305816D01*
X296958D01*
X294367Y302768D01*
X289833D01*
X286785Y305816D01*
X271018D01*
X268732Y308102D01*
Y319487D01*
X265684Y321818D01*
Y326898D01*
X268732Y328870D01*
Y337566D01*
X270510Y338582D01*
X272161Y339725D01*
X302006Y339090D01*
D02*
G37*
G36*
X911962Y347408D02*
Y12967D01*
X906475Y7480D01*
X728650D01*
X722154Y13976D01*
X722042Y66052D01*
X723311Y66579D01*
X724412Y65478D01*
X725798Y64552D01*
X727434Y64227D01*
X729335D01*
X730590Y62590D01*
X731654Y61774D01*
Y60226D01*
X730590Y59410D01*
X729262Y57679D01*
X728427Y55663D01*
X728142Y53500D01*
X728427Y51337D01*
X729262Y49321D01*
X730590Y47590D01*
X732321Y46262D01*
X734337Y45427D01*
X736500Y45142D01*
X741500D01*
X743663Y45427D01*
X745679Y46262D01*
X747410Y47590D01*
X748738Y49321D01*
X749573Y51337D01*
X749857Y53500D01*
X749573Y55663D01*
X748738Y57679D01*
X747410Y59410D01*
X746346Y60226D01*
Y61774D01*
X747410Y62590D01*
X748738Y64321D01*
X749573Y66337D01*
X749857Y68500D01*
X749573Y70663D01*
X748738Y72679D01*
X747817Y73879D01*
X748443Y75149D01*
X781291D01*
X800330Y74895D01*
X800342Y74898D01*
X800354Y74895D01*
X801878D01*
X802572Y75033D01*
X802871Y75233D01*
X803683D01*
Y75957D01*
X804061Y76522D01*
X804199Y77216D01*
Y86360D01*
X804061Y87054D01*
X803683Y87619D01*
Y88441D01*
X802850D01*
X802318Y88797D01*
X801624Y88935D01*
X747774D01*
X747410Y89410D01*
X746346Y90226D01*
Y91774D01*
X747410Y92590D01*
X748738Y94321D01*
X749573Y96337D01*
X749857Y98500D01*
X749573Y100663D01*
X748738Y102679D01*
X747410Y104410D01*
X746589Y105040D01*
Y106640D01*
X747284Y107174D01*
X732282D01*
X729996Y109460D01*
Y117842D01*
X731774Y119620D01*
X745490D01*
X749705Y115405D01*
X749863D01*
X749820Y115729D01*
X748960Y117807D01*
X747591Y119591D01*
X746589Y120360D01*
Y121960D01*
X747410Y122590D01*
X748738Y124321D01*
X748762Y124380D01*
X758548D01*
Y123222D01*
X775104D01*
Y123222D01*
X775312Y123348D01*
X797027D01*
X797721Y122884D01*
X800100Y122411D01*
X826125D01*
X836285Y112252D01*
Y90278D01*
X836222D01*
Y71725D01*
X836222Y70977D01*
X835703Y70977D01*
X831406D01*
Y66405D01*
X836867D01*
Y69974D01*
X836867Y70722D01*
X837386Y70722D01*
X848778D01*
Y75003D01*
X850048Y75542D01*
X851046Y75343D01*
X858514D01*
X878745Y55112D01*
Y43186D01*
X873500Y37940D01*
X863496D01*
Y38298D01*
X846940D01*
Y37778D01*
X837045D01*
X836559Y38951D01*
X838732Y41124D01*
X838732Y41124D01*
X839518Y42301D01*
X839794Y43688D01*
X839794Y43688D01*
Y47222D01*
X846178D01*
Y45980D01*
X853313D01*
Y52020D01*
Y58060D01*
X846178D01*
Y56778D01*
X836927D01*
X836867Y58023D01*
X836867D01*
Y62595D01*
X831406D01*
Y58023D01*
X832662D01*
X832722Y56778D01*
X832722D01*
Y51173D01*
X832542Y50270D01*
X832542Y50270D01*
Y45190D01*
X823978Y36626D01*
X823171D01*
X822040Y36960D01*
Y40595D01*
X814000D01*
Y44405D01*
X822040D01*
Y48040D01*
X821278D01*
Y56778D01*
X818423D01*
Y58785D01*
X820103D01*
Y70215D01*
X820103D01*
X819778Y70722D01*
Y90278D01*
X807222D01*
Y70722D01*
X806895Y70215D01*
X806895D01*
Y58785D01*
X808058D01*
X808286Y57515D01*
X807549Y56778D01*
X806850Y56778D01*
X805715Y57104D01*
X805587Y57104D01*
X803183D01*
Y59231D01*
X803683D01*
Y72439D01*
X792253D01*
Y72439D01*
X791183D01*
Y72439D01*
X779753D01*
Y70606D01*
X773811D01*
Y64566D01*
X771906D01*
Y63500D01*
X772160D01*
Y54356D01*
X765810D01*
Y62661D01*
X762866D01*
Y58526D01*
X762960D01*
Y52405D01*
X769000D01*
X775040D01*
Y58526D01*
X780946D01*
Y58526D01*
X781452Y58711D01*
X782722Y57861D01*
Y42222D01*
X793278D01*
Y43261D01*
X794285Y43896D01*
X805715Y43896D01*
X805960Y42727D01*
Y42270D01*
X805715Y41102D01*
X794285D01*
Y27894D01*
X805588D01*
X805715Y27894D01*
X805715Y27894D01*
X806722Y28222D01*
X806722Y28222D01*
X821278D01*
Y29374D01*
X825480D01*
X825480Y29374D01*
X826868Y29650D01*
X828044Y30436D01*
X831549Y33941D01*
X832722Y33455D01*
Y28222D01*
X846940D01*
Y27742D01*
X863496D01*
Y28100D01*
X875538D01*
X877421Y28474D01*
X879017Y29541D01*
X887145Y37669D01*
X888212Y39265D01*
X888587Y41148D01*
Y57150D01*
X888212Y59033D01*
X887145Y60629D01*
X864031Y83743D01*
X862435Y84810D01*
X860552Y85184D01*
X851996D01*
X850810Y85421D01*
X848778D01*
Y90278D01*
X848715D01*
Y114826D01*
X848242Y117205D01*
X846895Y119221D01*
X833095Y133021D01*
X831079Y134368D01*
X828700Y134841D01*
X800100D01*
X797721Y134368D01*
X797027Y133904D01*
X775312D01*
Y133904D01*
X775104Y133778D01*
X758548D01*
Y132620D01*
X748762D01*
X748738Y132679D01*
X747410Y134410D01*
X745679Y135738D01*
X745226Y135926D01*
X744978Y137171D01*
X748156Y140349D01*
X749049Y141686D01*
X749362Y143262D01*
Y176333D01*
X749049Y177910D01*
X748156Y179246D01*
X744149Y183253D01*
X744364Y184523D01*
X744364D01*
X744364Y184523D01*
Y189095D01*
X736998D01*
Y192905D01*
X744364D01*
Y196523D01*
Y201095D01*
X736998D01*
Y204905D01*
X744364D01*
Y208850D01*
X745301Y209138D01*
X746396Y208348D01*
Y197985D01*
X746396Y197285D01*
X746396Y195827D01*
X746355Y195766D01*
X746217Y195072D01*
Y186944D01*
X746355Y186250D01*
X746396Y186189D01*
Y185285D01*
X747313D01*
X747336Y185269D01*
X748030Y185131D01*
X756677D01*
X764722Y177086D01*
Y176622D01*
X765426D01*
X766064Y176495D01*
X778510D01*
X779148Y176622D01*
X780078D01*
Y177454D01*
X780185Y177614D01*
X780323Y178308D01*
Y184658D01*
X780185Y185352D01*
X780078Y185512D01*
Y185978D01*
X779735D01*
X779204Y186333D01*
X778510Y186471D01*
X766815Y186471D01*
X765234Y188052D01*
X765760Y189322D01*
X780078D01*
Y198678D01*
X764722D01*
Y190360D01*
X763452Y189834D01*
X759749Y193537D01*
Y195072D01*
X759611Y195766D01*
X759604Y195776D01*
X759604Y196715D01*
X759604Y197985D01*
Y200713D01*
X760918Y201895D01*
X778256D01*
X778894Y202022D01*
X780078D01*
Y211378D01*
X764722D01*
Y210362D01*
X764643Y210244D01*
X764578Y209915D01*
X763082Y208569D01*
X760643D01*
X759715Y209394D01*
X759715Y209939D01*
Y211296D01*
X763408Y214989D01*
X764722D01*
Y214722D01*
X780078D01*
Y224078D01*
X764722D01*
Y221618D01*
X759715D01*
Y222602D01*
X748285D01*
Y220761D01*
X746715D01*
Y222604D01*
X735285D01*
Y209477D01*
X729632D01*
X729284Y210603D01*
Y237526D01*
X734271Y242514D01*
X746295D01*
X748091Y240718D01*
X747705Y239308D01*
X747589Y239278D01*
X747477Y239368D01*
X747331Y239368D01*
X742905D01*
Y232002D01*
Y224636D01*
X747477D01*
X748432Y225396D01*
X748747Y225396D01*
X759715D01*
Y238604D01*
X758120D01*
Y240636D01*
X757806Y242213D01*
X756913Y243549D01*
X754599Y245864D01*
Y247404D01*
X765711Y258516D01*
X767136D01*
Y254358D01*
X767136D01*
X767081Y253111D01*
X765796D01*
Y241681D01*
X768127D01*
Y236778D01*
X764722D01*
Y227422D01*
X780078D01*
Y236778D01*
X776673D01*
Y241681D01*
X779004D01*
Y253111D01*
X777747D01*
X777692Y254358D01*
X777692D01*
Y270914D01*
X767136D01*
Y266756D01*
X764004D01*
X762427Y266443D01*
X761091Y265549D01*
X746295Y250754D01*
X732565D01*
X730988Y250441D01*
X729651Y249547D01*
X722933Y242829D01*
X721662Y243354D01*
X721436Y348660D01*
X725799Y353022D01*
X906348D01*
X911962Y347408D01*
D02*
G37*
G36*
X775462Y249682D02*
X769112D01*
Y258826D01*
X775462D01*
Y249682D01*
D02*
G37*
G36*
X752786Y242411D02*
X752361Y241986D01*
X750183Y244164D01*
Y247948D01*
X752786Y249250D01*
Y242411D01*
D02*
G37*
G36*
X777615Y216802D02*
X762657D01*
X757819Y211963D01*
X750675D01*
Y212598D01*
X742442D01*
Y218948D01*
X750675D01*
Y219551D01*
X750929Y219805D01*
X765661D01*
X767185Y221329D01*
X777615D01*
X777615Y216802D01*
D02*
G37*
G36*
X778256Y203708D02*
X760222D01*
X757682Y201422D01*
Y199136D01*
X748284D01*
Y206756D01*
X763778D01*
X766318Y209042D01*
Y209550D01*
X778256D01*
X778256Y203708D01*
D02*
G37*
G36*
X57658Y785876D02*
Y602025D01*
X96174Y557276D01*
X413766D01*
X487172Y630682D01*
X695706D01*
Y630174D01*
X713486Y612394D01*
X711962Y37084D01*
X684784Y9906D01*
X591666D01*
X591281Y11176D01*
X591870Y11570D01*
X608410Y28110D01*
X609477Y29706D01*
X609851Y31590D01*
Y51214D01*
X609477Y53098D01*
X608410Y54694D01*
X606814Y55760D01*
X604931Y56135D01*
X603048Y55760D01*
X601452Y54694D01*
X600385Y53098D01*
X600010Y51214D01*
Y33628D01*
X586353Y19970D01*
X518865D01*
X493108Y45726D01*
Y123897D01*
X492734Y125780D01*
X491667Y127376D01*
X488691Y130352D01*
X488691Y130352D01*
X467565Y151479D01*
X465968Y152546D01*
X464085Y152921D01*
X408584D01*
X403666Y158433D01*
X403624Y158464D01*
X403595Y158508D01*
X403343Y158676D01*
X403101Y158859D01*
X403051Y158872D01*
X403007Y158901D01*
X402710Y158960D01*
X402417Y159036D01*
X402365Y159029D01*
X402313Y159039D01*
X399617D01*
X397000Y159383D01*
X379000D01*
X376383Y159039D01*
X373732D01*
X373674Y159027D01*
X373616Y159035D01*
X373329Y158959D01*
X373038Y158901D01*
X372989Y158868D01*
X372932Y158853D01*
X372696Y158673D01*
X372450Y158508D01*
X372417Y158459D01*
X372370Y158423D01*
X367531Y152921D01*
X345020D01*
X317480Y180461D01*
X318106Y181631D01*
X318516Y181549D01*
X320678Y181979D01*
X322510Y183204D01*
X323735Y185036D01*
X323786Y185293D01*
X318516D01*
Y187198D01*
X316611D01*
Y192468D01*
X316354Y192417D01*
X314522Y191192D01*
X313297Y189360D01*
X312868Y187198D01*
X312949Y186788D01*
X311779Y186162D01*
X297020Y200920D01*
Y303091D01*
X297796Y304003D01*
X303276D01*
X303970Y304141D01*
X304558Y304534D01*
X312178Y312154D01*
X312571Y312742D01*
X312709Y313436D01*
Y335026D01*
X312571Y335720D01*
X312178Y336308D01*
X308114Y340372D01*
X307526Y340765D01*
X306832Y340903D01*
X302026D01*
X272200Y341537D01*
X271990Y341500D01*
X271778Y341497D01*
X271645Y341439D01*
X271503Y341414D01*
X271324Y341300D01*
X271129Y341216D01*
X269543Y340117D01*
X267833Y339140D01*
X267651Y338982D01*
X267450Y338848D01*
X267386Y338752D01*
X267299Y338676D01*
X267191Y338460D01*
X267057Y338260D01*
X267035Y338146D01*
X266983Y338043D01*
X266966Y337803D01*
X266919Y337566D01*
Y329856D01*
X266026Y329278D01*
X196348D01*
X148767Y376859D01*
X147171Y377926D01*
X145288Y378301D01*
X143405Y377926D01*
X141809Y376859D01*
X140742Y375263D01*
X140367Y373380D01*
X140742Y371497D01*
X141809Y369901D01*
X190831Y320879D01*
X192427Y319812D01*
X194310Y319438D01*
X265813D01*
X266919Y318591D01*
Y308102D01*
X267057Y307408D01*
X267450Y306820D01*
X269736Y304534D01*
X270324Y304141D01*
X271018Y304003D01*
X286034D01*
X287180Y302858D01*
Y198882D01*
X287554Y196999D01*
X288621Y195403D01*
X339503Y144521D01*
X341099Y143454D01*
X342982Y143079D01*
X365913D01*
X371590Y137402D01*
X372178Y137009D01*
X372872Y136871D01*
X377066D01*
X379000Y136617D01*
X397000D01*
X398933Y136871D01*
X403220D01*
X403341Y136895D01*
X403465Y136888D01*
X403685Y136964D01*
X403914Y137009D01*
X404017Y137078D01*
X404134Y137118D01*
X404308Y137273D01*
X404502Y137402D01*
X404571Y137505D01*
X404663Y137587D01*
X408837Y143079D01*
X462047D01*
X481733Y123394D01*
X481733Y123394D01*
X483268Y121859D01*
Y43688D01*
X483642Y41805D01*
X484709Y40209D01*
X513347Y11570D01*
X513937Y11176D01*
X513552Y9906D01*
X68834D01*
X56134Y22606D01*
Y53594D01*
X61366Y58826D01*
X58382D01*
X56928Y60280D01*
Y111081D01*
X130505Y184658D01*
Y188849D01*
X90049Y229305D01*
Y234442D01*
X86760Y237731D01*
Y240392D01*
X86862Y240494D01*
Y247580D01*
X89224Y249942D01*
X95491D01*
X98260Y247174D01*
Y235261D01*
X98057Y235058D01*
X138230Y196574D01*
X140412Y195858D01*
X140964Y195961D01*
X142151Y196183D01*
X192246D01*
X203810Y184620D01*
Y122161D01*
X215500Y110471D01*
X253244D01*
X256584Y113811D01*
X280924D01*
Y253238D01*
X269240Y264922D01*
Y266700D01*
X207264D01*
X14224Y459740D01*
Y789940D01*
X19812Y795528D01*
X47752Y795782D01*
X57658Y785876D01*
D02*
G37*
G36*
X757936Y192786D02*
X766064Y184658D01*
X778510Y184658D01*
Y178308D01*
X766064D01*
X757428Y186944D01*
X748030D01*
Y195072D01*
X757936D01*
Y192786D01*
D02*
G37*
G36*
X737108Y163081D02*
X727964D01*
Y167564D01*
X737108D01*
Y163081D01*
D02*
G37*
G36*
X741122Y145616D02*
X740616Y145239D01*
X739150Y145695D01*
X738714Y146748D01*
X737368Y148094D01*
X735609Y148823D01*
X733705D01*
X732467Y148310D01*
X727900D01*
X726265Y147985D01*
X724879Y147059D01*
X723142Y145322D01*
X721871Y145847D01*
X721849Y156244D01*
X722746Y157143D01*
X732682D01*
Y160454D01*
X741122D01*
Y145616D01*
D02*
G37*
G36*
X408432Y150368D02*
Y145542D01*
X403220Y138684D01*
X372872D01*
X367030Y144526D01*
Y149606D01*
X373732Y157226D01*
X402313D01*
X408432Y150368D01*
D02*
G37*
G36*
X746506Y87122D02*
X801624D01*
X802386Y86360D01*
Y77216D01*
X801878Y76708D01*
X800354D01*
X781304Y76962D01*
X733806D01*
X730250Y80518D01*
Y87630D01*
X732282Y89662D01*
X743966D01*
X746506Y87122D01*
D02*
G37*
G36*
X816743Y65824D02*
X810393D01*
Y74968D01*
X816743D01*
Y65824D01*
D02*
G37*
G36*
X796036Y62484D02*
X786892D01*
Y68834D01*
X796036D01*
Y62484D01*
D02*
G37*
G36*
X816610Y53340D02*
X810260D01*
Y62484D01*
X816610D01*
Y53340D01*
D02*
G37*
G36*
X801370D02*
X798068D01*
Y46990D01*
X788924D01*
Y53340D01*
X796544D01*
Y62484D01*
X801370D01*
Y53340D01*
D02*
G37*
G36*
X810260Y30480D02*
X801116D01*
Y35306D01*
X810260D01*
Y30480D01*
D02*
G37*
G36*
X851408Y30226D02*
X842264D01*
Y35560D01*
X851408D01*
Y30226D01*
D02*
G37*
%LPC*%
G36*
X802905Y290296D02*
Y284905D01*
X808296D01*
X808026Y285910D01*
X807033Y287630D01*
X805630Y289034D01*
X803910Y290026D01*
X802905Y290296D01*
D02*
G37*
G36*
X799095D02*
X798090Y290026D01*
X796370Y289034D01*
X794967Y287630D01*
X793974Y285910D01*
X793705Y284905D01*
X799095D01*
Y290296D01*
D02*
G37*
G36*
X808296Y281095D02*
X802905D01*
Y275704D01*
X803910Y275974D01*
X805630Y276966D01*
X807033Y278370D01*
X808026Y280090D01*
X808296Y281095D01*
D02*
G37*
G36*
X799095D02*
X793705D01*
X793974Y280090D01*
X794967Y278370D01*
X796370Y276966D01*
X798090Y275974D01*
X799095Y275704D01*
Y281095D01*
D02*
G37*
G36*
X797454Y271676D02*
X793319D01*
Y264541D01*
X797454D01*
Y271676D01*
D02*
G37*
G36*
X789509D02*
X785374D01*
Y264541D01*
X789509D01*
Y271676D01*
D02*
G37*
G36*
X797454Y260731D02*
X791414D01*
X785374D01*
Y253873D01*
X781036D01*
Y249301D01*
X788402D01*
X795768D01*
Y253596D01*
X797454D01*
Y260731D01*
D02*
G37*
G36*
X795768Y245491D02*
X790307D01*
Y240919D01*
X795768D01*
Y245491D01*
D02*
G37*
G36*
X786497D02*
X781036D01*
Y240919D01*
X786497D01*
Y245491D01*
D02*
G37*
G36*
X837959Y290286D02*
X836041D01*
X834188Y289789D01*
X832526Y288830D01*
X831170Y287474D01*
X830211Y285812D01*
X829714Y283959D01*
Y282041D01*
X830211Y280188D01*
X831170Y278526D01*
X832526Y277170D01*
X834188Y276210D01*
X836041Y275714D01*
X837959D01*
X839812Y276210D01*
X841474Y277170D01*
X842830Y278526D01*
X843441Y279584D01*
X861844D01*
X892486Y248942D01*
Y238278D01*
X874222D01*
Y236763D01*
X872715D01*
Y238604D01*
X861285D01*
Y225396D01*
X872715D01*
Y226787D01*
X874222D01*
Y225722D01*
X892486D01*
Y209278D01*
X874222D01*
Y207299D01*
X868481D01*
X868233Y207547D01*
X868253Y209109D01*
X868543Y209394D01*
X872715D01*
Y222602D01*
X861285D01*
Y220761D01*
X859715D01*
Y222602D01*
X848285D01*
Y220761D01*
X846715D01*
Y222602D01*
X835285D01*
Y222602D01*
X835055Y222382D01*
X833278Y222453D01*
Y224078D01*
X817922D01*
Y214722D01*
X830611D01*
X833204Y212648D01*
X832758Y211378D01*
X817922D01*
Y202022D01*
X833278D01*
Y202022D01*
X834517Y201947D01*
X838486Y199679D01*
X838148Y198409D01*
X833278D01*
Y198678D01*
X817922D01*
Y189322D01*
X833278D01*
Y189449D01*
X834655D01*
X837714Y186390D01*
X837261Y185375D01*
X837107Y185201D01*
X833278D01*
Y185978D01*
X817922D01*
Y180065D01*
X816749Y179579D01*
X814648Y181680D01*
Y233448D01*
X816749Y235549D01*
X817922Y235063D01*
Y227422D01*
X833278D01*
Y227549D01*
X835285D01*
Y225396D01*
X846715D01*
Y226787D01*
X848285D01*
Y225396D01*
X859715D01*
Y238604D01*
X848285D01*
Y236763D01*
X846715D01*
Y238604D01*
X838724D01*
X838556Y239874D01*
X839812Y240210D01*
X841474Y241170D01*
X842830Y242526D01*
X843789Y244188D01*
X844286Y246041D01*
Y247959D01*
X843789Y249812D01*
X842830Y251474D01*
X841474Y252830D01*
X839812Y253789D01*
X837959Y254286D01*
X836041D01*
X834188Y253789D01*
X832526Y252830D01*
X831170Y251474D01*
X830680Y250626D01*
X823072D01*
X823072Y250626D01*
X821684Y250350D01*
X820508Y249564D01*
X820508Y249564D01*
X808458Y237514D01*
X807672Y236338D01*
X807396Y234950D01*
X807396Y234950D01*
Y180178D01*
X807396Y180178D01*
X807672Y178790D01*
X808458Y177614D01*
X814442Y171630D01*
X817511Y168562D01*
X808434Y159486D01*
X807648Y158310D01*
X807372Y156922D01*
X807372Y156922D01*
Y148715D01*
X804394D01*
Y137285D01*
X817602D01*
Y148715D01*
X814624D01*
Y155420D01*
X815987Y156783D01*
X817160Y156297D01*
Y150460D01*
X818941D01*
X819634Y149477D01*
X819634Y149190D01*
Y144905D01*
X827000D01*
X834366D01*
Y149325D01*
X834366Y149477D01*
X834040Y150612D01*
X834040Y150747D01*
Y153162D01*
X830402D01*
Y145332D01*
X824052D01*
Y153162D01*
X820166D01*
X819912Y153416D01*
Y158496D01*
X823695D01*
Y161340D01*
X822203D01*
X821717Y162513D01*
X823125Y163922D01*
X833278D01*
Y172266D01*
X834548Y172792D01*
X841236Y166104D01*
X841824Y165711D01*
X842518Y165573D01*
X842645D01*
Y165354D01*
X854075D01*
Y165573D01*
X855645D01*
Y165354D01*
X867075D01*
Y168332D01*
X869107D01*
X869107Y168332D01*
X870495Y168608D01*
X871671Y169394D01*
X874419Y172142D01*
X887476D01*
X887476Y172142D01*
X888864Y172418D01*
X890040Y173204D01*
X894050Y177214D01*
X895223Y176728D01*
Y175006D01*
X899795D01*
Y180467D01*
X898962D01*
X898476Y181640D01*
X898676Y181840D01*
X898676Y181840D01*
X899462Y183016D01*
X899738Y184404D01*
X899738Y184404D01*
Y250444D01*
X899462Y251831D01*
X898676Y253008D01*
X898676Y253008D01*
X865910Y285774D01*
X864734Y286560D01*
X863346Y286836D01*
X863346Y286836D01*
X843199D01*
X842830Y287474D01*
X841474Y288830D01*
X839812Y289789D01*
X837959Y290286D01*
D02*
G37*
G36*
X739095Y239368D02*
X734523D01*
Y233907D01*
X739095D01*
Y239368D01*
D02*
G37*
G36*
Y230097D02*
X734523D01*
Y224636D01*
X739095D01*
Y230097D01*
D02*
G37*
G36*
X908177Y180467D02*
X903605D01*
Y175006D01*
X908177D01*
Y180467D01*
D02*
G37*
G36*
Y171196D02*
X903605D01*
Y165735D01*
X908177D01*
Y171196D01*
D02*
G37*
G36*
X899795D02*
X895223D01*
Y165735D01*
X899795D01*
Y171196D01*
D02*
G37*
G36*
X761913Y177010D02*
X751357D01*
Y160454D01*
X758714D01*
X759100Y159184D01*
X758707Y158922D01*
X755803Y156018D01*
X754877Y154632D01*
X754552Y152997D01*
Y146399D01*
X754039Y145161D01*
Y143257D01*
X754768Y141497D01*
X756114Y140151D01*
X757873Y139423D01*
X759777D01*
X761536Y140151D01*
X762882Y141497D01*
X763611Y143257D01*
Y145161D01*
X763098Y146399D01*
Y150450D01*
X763581Y150911D01*
X764722Y151222D01*
Y151222D01*
X780078D01*
Y160578D01*
X764722D01*
Y160173D01*
X763066D01*
X761913Y160454D01*
X761913Y161443D01*
Y164459D01*
X764722D01*
Y163922D01*
X780078D01*
Y173278D01*
X764722D01*
Y173005D01*
X761913D01*
Y177010D01*
D02*
G37*
G36*
X907415Y163703D02*
X895985D01*
Y161706D01*
X888698D01*
Y163278D01*
X869142D01*
Y150722D01*
X888698D01*
Y151730D01*
X895985D01*
Y150495D01*
X907415D01*
Y163703D01*
D02*
G37*
G36*
X854883Y163322D02*
X853613Y163322D01*
X850265D01*
Y160528D01*
X859455D01*
Y163322D01*
X854883D01*
D02*
G37*
G36*
X846455Y163322D02*
X841883D01*
Y158496D01*
X842518D01*
X844550Y160528D01*
X846455D01*
Y163322D01*
D02*
G37*
G36*
X834040Y161340D02*
X827505D01*
Y158496D01*
X834040D01*
Y161340D01*
D02*
G37*
G36*
X863265Y163322D02*
Y160528D01*
X865124D01*
Y157861D01*
X867837D01*
Y163322D01*
X863265D01*
D02*
G37*
G36*
X867837Y154051D02*
X865124D01*
Y151384D01*
X863265D01*
Y148590D01*
X867837D01*
Y154051D01*
D02*
G37*
G36*
X843026Y153162D02*
X841883D01*
Y148590D01*
X846455D01*
Y151384D01*
X844804D01*
X843026Y153162D01*
D02*
G37*
G36*
X859455Y151384D02*
X850265D01*
Y148590D01*
X853613D01*
X854837Y148590D01*
X856107Y148590D01*
X859455D01*
Y151384D01*
D02*
G37*
G36*
X834366Y141095D02*
X828905D01*
Y136523D01*
X834366D01*
Y141095D01*
D02*
G37*
G36*
X825095D02*
X819634D01*
Y136523D01*
X825095D01*
Y141095D01*
D02*
G37*
G36*
X798195Y115666D02*
X785495D01*
Y113538D01*
X798195D01*
Y115666D01*
D02*
G37*
G36*
X781685D02*
X774550D01*
Y115540D01*
X768731D01*
Y113538D01*
X781685D01*
Y115666D01*
D02*
G37*
G36*
X764921Y115540D02*
X757786D01*
Y113538D01*
X764921D01*
Y115540D01*
D02*
G37*
G36*
X809140Y115666D02*
X802005D01*
Y113538D01*
X805942D01*
X807212Y112268D01*
Y111531D01*
X809140D01*
Y115666D01*
D02*
G37*
G36*
Y107721D02*
X807212D01*
Y106426D01*
X806196Y105410D01*
X802005Y105457D01*
Y103586D01*
X809140D01*
Y107721D01*
D02*
G37*
G36*
X785495Y105640D02*
Y103586D01*
X798195D01*
Y105499D01*
X785495Y105640D01*
D02*
G37*
G36*
X768731Y105826D02*
Y103460D01*
X775866D01*
Y103586D01*
X781685D01*
Y105682D01*
X768731Y105826D01*
D02*
G37*
G36*
X758190Y107174D02*
X757786D01*
Y103460D01*
X764921D01*
Y105869D01*
X760476Y105918D01*
X758190Y107174D01*
D02*
G37*
G36*
X770001Y70606D02*
X762866D01*
Y66471D01*
X770001D01*
Y70606D01*
D02*
G37*
G36*
X827596Y70977D02*
X822135D01*
Y66405D01*
X827596D01*
Y70977D01*
D02*
G37*
G36*
Y62595D02*
X822135D01*
Y58023D01*
X827596D01*
Y62595D01*
D02*
G37*
G36*
X864258Y58060D02*
X857123D01*
Y53925D01*
X864258D01*
Y58060D01*
D02*
G37*
G36*
Y50115D02*
X857123D01*
Y45980D01*
X864258D01*
Y50115D01*
D02*
G37*
G36*
X775040Y48595D02*
X770905D01*
Y41460D01*
X775040D01*
Y48595D01*
D02*
G37*
G36*
X767095D02*
X762960D01*
Y41460D01*
X767095D01*
Y48595D01*
D02*
G37*
%LPD*%
G36*
X839724Y229362D02*
X830580D01*
Y234696D01*
X839724D01*
Y229362D01*
D02*
G37*
G36*
X878078Y228600D02*
X868934D01*
Y234950D01*
X878078D01*
Y228600D01*
D02*
G37*
G36*
X851662D02*
X842518D01*
Y234950D01*
X851662D01*
Y228600D01*
D02*
G37*
G36*
X866140Y212598D02*
X856996D01*
Y218948D01*
X866140D01*
Y212598D01*
D02*
G37*
G36*
X851662D02*
X842518D01*
Y218948D01*
X851662D01*
Y212598D01*
D02*
G37*
G36*
X837438Y220472D02*
Y219202D01*
Y211836D01*
X834898Y213614D01*
X831088Y216662D01*
Y220726D01*
X837438Y220472D01*
D02*
G37*
G36*
X876554Y199136D02*
X864616D01*
Y205486D01*
X876554D01*
Y199136D01*
D02*
G37*
G36*
X860298Y198882D02*
X851154D01*
Y205232D01*
X860298D01*
Y198882D01*
D02*
G37*
G36*
X845312Y205740D02*
Y197866D01*
X834644Y203962D01*
X830072D01*
Y209296D01*
X838200D01*
X845312Y205740D01*
D02*
G37*
G36*
X874222Y196722D02*
X892486D01*
Y185906D01*
X889871Y183291D01*
X888698Y183777D01*
Y192278D01*
X869142D01*
Y190789D01*
X867583D01*
Y192533D01*
X856153D01*
Y190535D01*
X854583D01*
Y192532D01*
X845590D01*
X844066Y194056D01*
X844592Y195326D01*
X854583D01*
Y197069D01*
X856153D01*
Y195327D01*
X867583D01*
Y197323D01*
X874222D01*
Y196722D01*
D02*
G37*
G36*
X872744Y182626D02*
X863600D01*
Y188976D01*
X872744D01*
Y182626D01*
D02*
G37*
G36*
X859790Y182372D02*
X850646D01*
Y188722D01*
X859790D01*
Y182372D01*
D02*
G37*
G36*
X845312Y190246D02*
Y181356D01*
X835406Y191262D01*
X830834D01*
Y196596D01*
X838962D01*
X845312Y190246D01*
D02*
G37*
G36*
X844550Y176022D02*
X864870D01*
Y167386D01*
X842518D01*
X831088Y178816D01*
X820420D01*
Y183134D01*
X820166Y183388D01*
X837184D01*
X844550Y176022D01*
D02*
G37*
G36*
X899160Y153543D02*
X885952D01*
Y159893D01*
X899160D01*
Y153543D01*
D02*
G37*
%LPC*%
G36*
X39905Y788397D02*
Y777905D01*
X50397D01*
X50217Y779274D01*
X48954Y782324D01*
X46944Y784944D01*
X44324Y786954D01*
X41274Y788217D01*
X39905Y788397D01*
D02*
G37*
G36*
X36095D02*
X34726Y788217D01*
X31676Y786954D01*
X29056Y784944D01*
X27046Y782324D01*
X25783Y779274D01*
X25603Y777905D01*
X36095D01*
Y788397D01*
D02*
G37*
G36*
Y774095D02*
X25603D01*
X25783Y772726D01*
X27046Y769676D01*
X29056Y767056D01*
X31676Y765046D01*
X34726Y763783D01*
X36095Y763603D01*
Y774095D01*
D02*
G37*
G36*
X50397D02*
X39905D01*
Y763603D01*
X41274Y763783D01*
X44324Y765046D01*
X46944Y767056D01*
X48954Y769676D01*
X50217Y772726D01*
X50397Y774095D01*
D02*
G37*
G36*
X39905Y673397D02*
Y662905D01*
X50397D01*
X50217Y664274D01*
X48954Y667324D01*
X46944Y669944D01*
X44324Y671954D01*
X41274Y673217D01*
X39905Y673397D01*
D02*
G37*
G36*
X36095D02*
X34726Y673217D01*
X31676Y671954D01*
X29056Y669944D01*
X27046Y667324D01*
X25783Y664274D01*
X25603Y662905D01*
X36095D01*
Y673397D01*
D02*
G37*
G36*
Y659095D02*
X25603D01*
X25783Y657726D01*
X27046Y654676D01*
X29056Y652056D01*
X31676Y650046D01*
X34726Y648783D01*
X36095Y648603D01*
Y659095D01*
D02*
G37*
G36*
X50397D02*
X39905D01*
Y648603D01*
X41274Y648783D01*
X44324Y650046D01*
X46944Y652056D01*
X48954Y654676D01*
X50217Y657726D01*
X50397Y659095D01*
D02*
G37*
G36*
X39751Y624014D02*
Y620649D01*
X43116D01*
X43065Y620906D01*
X41840Y622738D01*
X40008Y623963D01*
X39751Y624014D01*
D02*
G37*
G36*
X35941D02*
X35684Y623963D01*
X33852Y622738D01*
X32627Y620906D01*
X32576Y620649D01*
X35941D01*
Y624014D01*
D02*
G37*
G36*
X657733Y616902D02*
Y613537D01*
X661098D01*
X661047Y613794D01*
X659822Y615626D01*
X657990Y616851D01*
X657733Y616902D01*
D02*
G37*
G36*
X653923D02*
X653666Y616851D01*
X651834Y615626D01*
X650609Y613794D01*
X650558Y613537D01*
X653923D01*
Y616902D01*
D02*
G37*
G36*
X43116Y616839D02*
X39751D01*
Y613474D01*
X40008Y613525D01*
X41840Y614750D01*
X43065Y616582D01*
X43116Y616839D01*
D02*
G37*
G36*
X35941D02*
X32576D01*
X32627Y616582D01*
X33852Y614750D01*
X35684Y613525D01*
X35941Y613474D01*
Y616839D01*
D02*
G37*
G36*
X532003Y611568D02*
Y608203D01*
X535368D01*
X535317Y608460D01*
X534092Y610292D01*
X532260Y611517D01*
X532003Y611568D01*
D02*
G37*
G36*
X528193D02*
X527936Y611517D01*
X526104Y610292D01*
X524879Y608460D01*
X524828Y608203D01*
X528193D01*
Y611568D01*
D02*
G37*
G36*
X661098Y609727D02*
X657733D01*
Y606362D01*
X657990Y606413D01*
X659822Y607638D01*
X661047Y609470D01*
X661098Y609727D01*
D02*
G37*
G36*
X653923D02*
X650558D01*
X650609Y609470D01*
X651834Y607638D01*
X653666Y606413D01*
X653923Y606362D01*
Y609727D01*
D02*
G37*
G36*
X535368Y604393D02*
X532003D01*
Y601028D01*
X532260Y601079D01*
X534092Y602304D01*
X535317Y604136D01*
X535368Y604393D01*
D02*
G37*
G36*
X528193D02*
X524828D01*
X524879Y604136D01*
X526104Y602304D01*
X527936Y601079D01*
X528193Y601028D01*
Y604393D01*
D02*
G37*
G36*
X498729Y589978D02*
Y586613D01*
X502094D01*
X502043Y586870D01*
X500818Y588702D01*
X498986Y589927D01*
X498729Y589978D01*
D02*
G37*
G36*
X494919D02*
X494662Y589927D01*
X492830Y588702D01*
X491605Y586870D01*
X491554Y586613D01*
X494919D01*
Y589978D01*
D02*
G37*
G36*
X688213Y583882D02*
Y580517D01*
X691578D01*
X691527Y580774D01*
X690302Y582606D01*
X688470Y583831D01*
X688213Y583882D01*
D02*
G37*
G36*
X684403D02*
X684146Y583831D01*
X682314Y582606D01*
X681089Y580774D01*
X681038Y580517D01*
X684403D01*
Y583882D01*
D02*
G37*
G36*
X502094Y582803D02*
X498729D01*
Y579438D01*
X498986Y579489D01*
X500818Y580714D01*
X502043Y582546D01*
X502094Y582803D01*
D02*
G37*
G36*
X494919D02*
X491554D01*
X491605Y582546D01*
X492830Y580714D01*
X494662Y579489D01*
X494919Y579438D01*
Y582803D01*
D02*
G37*
G36*
X691578Y576707D02*
X688213D01*
Y573342D01*
X688470Y573393D01*
X690302Y574618D01*
X691527Y576450D01*
X691578Y576707D01*
D02*
G37*
G36*
X684403D02*
X681038D01*
X681089Y576450D01*
X682314Y574618D01*
X684146Y573393D01*
X684403Y573342D01*
Y576707D01*
D02*
G37*
G36*
X538099Y563054D02*
Y559689D01*
X541464D01*
X541413Y559946D01*
X540188Y561778D01*
X538356Y563003D01*
X538099Y563054D01*
D02*
G37*
G36*
X534289D02*
X534032Y563003D01*
X532200Y561778D01*
X530975Y559946D01*
X530924Y559689D01*
X534289D01*
Y563054D01*
D02*
G37*
G36*
X465709Y562038D02*
Y558673D01*
X469074D01*
X469023Y558930D01*
X467798Y560762D01*
X465966Y561987D01*
X465709Y562038D01*
D02*
G37*
G36*
X461899D02*
X461642Y561987D01*
X459810Y560762D01*
X458585Y558930D01*
X458534Y558673D01*
X461899D01*
Y562038D01*
D02*
G37*
G36*
X541464Y555879D02*
X538099D01*
Y552514D01*
X538356Y552565D01*
X540188Y553790D01*
X541413Y555622D01*
X541464Y555879D01*
D02*
G37*
G36*
X534289D02*
X530924D01*
X530975Y555622D01*
X532200Y553790D01*
X534032Y552565D01*
X534289Y552514D01*
Y555879D01*
D02*
G37*
G36*
X658749Y548068D02*
Y544703D01*
X662114D01*
X662063Y544960D01*
X660838Y546792D01*
X659006Y548017D01*
X658749Y548068D01*
D02*
G37*
G36*
X654939D02*
X654682Y548017D01*
X652850Y546792D01*
X651625Y544960D01*
X651574Y544703D01*
X654939D01*
Y548068D01*
D02*
G37*
G36*
X662114Y540893D02*
X658749D01*
Y537528D01*
X659006Y537579D01*
X660838Y538804D01*
X662063Y540636D01*
X662114Y540893D01*
D02*
G37*
G36*
X654939D02*
X651574D01*
X651625Y540636D01*
X652850Y538804D01*
X654682Y537579D01*
X654939Y537528D01*
Y540893D01*
D02*
G37*
G36*
X308229Y527240D02*
Y523875D01*
X311594D01*
X311543Y524132D01*
X310318Y525964D01*
X308486Y527189D01*
X308229Y527240D01*
D02*
G37*
G36*
X304419D02*
X304162Y527189D01*
X302330Y525964D01*
X301105Y524132D01*
X301054Y523875D01*
X304419D01*
Y527240D01*
D02*
G37*
G36*
X558038Y526596D02*
X556171Y526224D01*
X555576Y525827D01*
X548756D01*
X547183Y525514D01*
X545849Y524623D01*
X540725Y519498D01*
X539833Y518165D01*
X539520Y516591D01*
Y443917D01*
X538353Y443245D01*
Y437896D01*
Y432547D01*
X539520Y431875D01*
Y408578D01*
X539833Y407005D01*
X540725Y405671D01*
X553165Y393231D01*
Y288974D01*
X552768Y288379D01*
X552396Y286512D01*
X552768Y284645D01*
X553825Y283062D01*
X555409Y282004D01*
X557276Y281632D01*
X559143Y282004D01*
X559284Y282097D01*
X560404Y281499D01*
Y276793D01*
X559536Y275494D01*
X559126Y273431D01*
X559536Y271369D01*
X560704Y269620D01*
X562453Y268452D01*
X564515Y268041D01*
X566577Y268452D01*
X568326Y269620D01*
X569494Y271369D01*
X569905Y273431D01*
X569494Y275494D01*
X568626Y276793D01*
Y371602D01*
Y377541D01*
X569068Y377628D01*
X570402Y378520D01*
X571608Y379726D01*
X572500Y381060D01*
X572812Y382633D01*
Y386253D01*
X572500Y387826D01*
X571608Y389160D01*
X570402Y390366D01*
X569068Y391258D01*
X568626Y391345D01*
Y395986D01*
X568313Y397559D01*
X567422Y398893D01*
X553767Y412548D01*
Y453363D01*
X555037Y453748D01*
X555060Y453714D01*
X556892Y452489D01*
X557149Y452438D01*
Y457708D01*
Y462978D01*
X556892Y462927D01*
X555060Y461702D01*
X555037Y461668D01*
X553767Y462053D01*
Y511634D01*
X554164Y512229D01*
X554536Y514096D01*
X554164Y515963D01*
X554058Y516123D01*
X554609Y517283D01*
X555762Y517481D01*
X556171Y517208D01*
X558038Y516836D01*
X559905Y517208D01*
X561488Y518265D01*
X562546Y519849D01*
X562918Y521716D01*
X562546Y523583D01*
X561488Y525167D01*
X559905Y526224D01*
X558038Y526596D01*
D02*
G37*
G36*
X311594Y520065D02*
X308229D01*
Y516700D01*
X308486Y516751D01*
X310318Y517976D01*
X311543Y519808D01*
X311594Y520065D01*
D02*
G37*
G36*
X304419D02*
X301054D01*
X301105Y519808D01*
X302330Y517976D01*
X304162Y516751D01*
X304419Y516700D01*
Y520065D01*
D02*
G37*
G36*
X656201Y523041D02*
X654139Y522631D01*
X652390Y521463D01*
X651222Y519715D01*
X650812Y517652D01*
X651222Y515589D01*
X652390Y513841D01*
X654139Y512673D01*
X656201Y512262D01*
X658264Y512673D01*
X660012Y513841D01*
X661181Y515589D01*
X661591Y517652D01*
X661181Y519715D01*
X660012Y521463D01*
X658264Y522631D01*
X656201Y523041D01*
D02*
G37*
G36*
X86905Y526897D02*
Y506405D01*
X97648D01*
Y514500D01*
X97217Y517774D01*
X95954Y520824D01*
X93944Y523444D01*
X91324Y525454D01*
X88274Y526717D01*
X86905Y526897D01*
D02*
G37*
G36*
X83095D02*
X81726Y526717D01*
X78676Y525454D01*
X76056Y523444D01*
X74046Y520824D01*
X72783Y517774D01*
X72352Y514500D01*
Y506405D01*
X83095D01*
Y526897D01*
D02*
G37*
G36*
X237109Y506412D02*
Y503047D01*
X240474D01*
X240423Y503304D01*
X239198Y505136D01*
X237366Y506361D01*
X237109Y506412D01*
D02*
G37*
G36*
X233299D02*
X233042Y506361D01*
X231210Y505136D01*
X229985Y503304D01*
X229934Y503047D01*
X233299D01*
Y506412D01*
D02*
G37*
G36*
X477901Y505650D02*
Y502285D01*
X481266D01*
X481215Y502542D01*
X479990Y504374D01*
X478158Y505599D01*
X477901Y505650D01*
D02*
G37*
G36*
X474091D02*
X473834Y505599D01*
X472002Y504374D01*
X470777Y502542D01*
X470726Y502285D01*
X474091D01*
Y505650D01*
D02*
G37*
G36*
X240474Y499237D02*
X237109D01*
Y495872D01*
X237366Y495923D01*
X239198Y497148D01*
X240423Y498980D01*
X240474Y499237D01*
D02*
G37*
G36*
X233299D02*
X229934D01*
X229985Y498980D01*
X231210Y497148D01*
X233042Y495923D01*
X233299Y495872D01*
Y499237D01*
D02*
G37*
G36*
X481266Y498475D02*
X477901D01*
Y495110D01*
X478158Y495161D01*
X479990Y496386D01*
X481215Y498218D01*
X481266Y498475D01*
D02*
G37*
G36*
X474091D02*
X470726D01*
X470777Y498218D01*
X472002Y496386D01*
X473834Y495161D01*
X474091Y495110D01*
Y498475D01*
D02*
G37*
G36*
X425704Y503229D02*
X423642Y502819D01*
X421893Y501651D01*
X420725Y499902D01*
X420314Y497840D01*
X420725Y495778D01*
X421893Y494029D01*
X423642Y492861D01*
X425704Y492450D01*
X427766Y492861D01*
X429515Y494029D01*
X430683Y495778D01*
X431093Y497840D01*
X430683Y499902D01*
X429515Y501651D01*
X427766Y502819D01*
X425704Y503229D01*
D02*
G37*
G36*
X40000Y517396D02*
X36662Y516957D01*
X33552Y515669D01*
X30881Y513619D01*
X28831Y510948D01*
X27543Y507838D01*
X27104Y504500D01*
X27543Y501162D01*
X28831Y498052D01*
X30881Y495381D01*
X33552Y493331D01*
X36662Y492043D01*
X40000Y491604D01*
X43338Y492043D01*
X46448Y493331D01*
X49119Y495381D01*
X51169Y498052D01*
X52457Y501162D01*
X52896Y504500D01*
X52457Y507838D01*
X51169Y510948D01*
X49119Y513619D01*
X46448Y515669D01*
X43338Y516957D01*
X40000Y517396D01*
D02*
G37*
G36*
X688467Y492950D02*
Y489585D01*
X691832D01*
X691781Y489842D01*
X690556Y491674D01*
X688724Y492899D01*
X688467Y492950D01*
D02*
G37*
G36*
X684657D02*
X684400Y492899D01*
X682568Y491674D01*
X681343Y489842D01*
X681292Y489585D01*
X684657D01*
Y492950D01*
D02*
G37*
G36*
X176530Y519486D02*
X174468Y519075D01*
X172719Y517907D01*
X171551Y516158D01*
X171140Y514096D01*
X171551Y512034D01*
X172719Y510285D01*
X173475Y509780D01*
Y508252D01*
X172719Y507747D01*
X171551Y505998D01*
X171140Y503936D01*
X171551Y501874D01*
X172719Y500125D01*
X173475Y499620D01*
Y498092D01*
X172719Y497587D01*
X171551Y495839D01*
X171140Y493776D01*
X171551Y491713D01*
X172719Y489965D01*
X174468Y488797D01*
X176530Y488386D01*
X178592Y488797D01*
X180341Y489965D01*
X181509Y491713D01*
X181919Y493776D01*
X181509Y495839D01*
X180341Y497587D01*
X179585Y498092D01*
Y499620D01*
X180341Y500125D01*
X181509Y501874D01*
X181919Y503936D01*
X181509Y505998D01*
X180341Y507747D01*
X179585Y508252D01*
Y509780D01*
X180341Y510285D01*
X181509Y512034D01*
X181919Y514096D01*
X181509Y516158D01*
X180341Y517907D01*
X178592Y519075D01*
X176530Y519486D01*
D02*
G37*
G36*
X148000Y535883D02*
X145054Y535495D01*
X142308Y534358D01*
X139951Y532549D01*
X138142Y530192D01*
X137004Y527446D01*
X136617Y524500D01*
Y506500D01*
X137004Y503554D01*
X138142Y500808D01*
X139951Y498451D01*
X142308Y496642D01*
X145054Y495504D01*
X148000Y495117D01*
X150946Y495504D01*
X153692Y496642D01*
X156049Y498451D01*
X157858Y500808D01*
X157926Y500972D01*
X159359Y501113D01*
X160019Y500125D01*
X160775Y499620D01*
Y498092D01*
X160019Y497587D01*
X158851Y495839D01*
X158441Y493776D01*
X158851Y491713D01*
X160019Y489965D01*
X161768Y488797D01*
X163830Y488386D01*
X165893Y488797D01*
X167641Y489965D01*
X168809Y491713D01*
X169219Y493776D01*
X168809Y495839D01*
X167641Y497587D01*
X166885Y498092D01*
Y499620D01*
X167641Y500125D01*
X168809Y501874D01*
X169219Y503936D01*
X168809Y505998D01*
X167641Y507747D01*
X166885Y508252D01*
Y509780D01*
X167641Y510285D01*
X168809Y512034D01*
X169219Y514096D01*
X168809Y516158D01*
X167641Y517907D01*
X165893Y519075D01*
X163830Y519486D01*
X161768Y519075D01*
X160653Y518331D01*
X159383Y519010D01*
Y524500D01*
X158996Y527446D01*
X157858Y530192D01*
X156049Y532549D01*
X153692Y534358D01*
X150946Y535495D01*
X148000Y535883D01*
D02*
G37*
G36*
X691832Y485775D02*
X688467D01*
Y482410D01*
X688724Y482461D01*
X690556Y483686D01*
X691781Y485518D01*
X691832Y485775D01*
D02*
G37*
G36*
X684657D02*
X681292D01*
X681343Y485518D01*
X682568Y483686D01*
X684400Y482461D01*
X684657Y482410D01*
Y485775D01*
D02*
G37*
G36*
X415544Y493069D02*
X413481Y492659D01*
X411733Y491491D01*
X410565Y489743D01*
X410154Y487680D01*
X410565Y485617D01*
X411733Y483869D01*
X413481Y482701D01*
X415544Y482290D01*
X417607Y482701D01*
X419355Y483869D01*
X420523Y485617D01*
X420933Y487680D01*
X420523Y489743D01*
X419355Y491491D01*
X417607Y492659D01*
X415544Y493069D01*
D02*
G37*
G36*
X83095Y502595D02*
X72352D01*
Y494500D01*
X72783Y491226D01*
X74046Y488176D01*
X76056Y485556D01*
X78676Y483546D01*
X81726Y482283D01*
X83095Y482103D01*
Y502595D01*
D02*
G37*
G36*
X97648D02*
X86905D01*
Y482103D01*
X88274Y482283D01*
X91324Y483546D01*
X93944Y485556D01*
X95954Y488176D01*
X97217Y491226D01*
X97648Y494500D01*
Y502595D01*
D02*
G37*
G36*
X437769Y484568D02*
Y481203D01*
X441134D01*
X441083Y481460D01*
X439858Y483292D01*
X438026Y484517D01*
X437769Y484568D01*
D02*
G37*
G36*
X433959D02*
X433702Y484517D01*
X431870Y483292D01*
X430645Y481460D01*
X430594Y481203D01*
X433959D01*
Y484568D01*
D02*
G37*
G36*
X441134Y477393D02*
X437769D01*
Y474028D01*
X438026Y474079D01*
X439858Y475304D01*
X441083Y477136D01*
X441134Y477393D01*
D02*
G37*
G36*
X433959D02*
X430594D01*
X430645Y477136D01*
X431870Y475304D01*
X433702Y474079D01*
X433959Y474028D01*
Y477393D01*
D02*
G37*
G36*
X405384Y482910D02*
X403321Y482499D01*
X401573Y481331D01*
X400405Y479582D01*
X399995Y477520D01*
X400405Y475457D01*
X401573Y473709D01*
X403321Y472541D01*
X405384Y472131D01*
X407447Y472541D01*
X409195Y473709D01*
X410363Y475457D01*
X410774Y477520D01*
X410363Y479582D01*
X409195Y481331D01*
X407447Y482499D01*
X405384Y482910D01*
D02*
G37*
G36*
X395224Y472749D02*
X393162Y472339D01*
X391413Y471171D01*
X390245Y469422D01*
X389835Y467360D01*
X390245Y465298D01*
X391413Y463549D01*
X393162Y462381D01*
X395224Y461970D01*
X397286Y462381D01*
X399035Y463549D01*
X400203Y465298D01*
X400614Y467360D01*
X400203Y469422D01*
X399035Y471171D01*
X397286Y472339D01*
X395224Y472749D01*
D02*
G37*
G36*
X560959Y462978D02*
Y459613D01*
X564324D01*
X564273Y459870D01*
X563048Y461702D01*
X561216Y462927D01*
X560959Y462978D01*
D02*
G37*
G36*
X127000Y469148D02*
X118905D01*
Y458405D01*
X139397D01*
X139217Y459774D01*
X137954Y462824D01*
X135944Y465444D01*
X133324Y467454D01*
X130274Y468717D01*
X127000Y469148D01*
D02*
G37*
G36*
X115095D02*
X107000D01*
X103726Y468717D01*
X100676Y467454D01*
X98056Y465444D01*
X96046Y462824D01*
X94783Y459774D01*
X94603Y458405D01*
X115095D01*
Y469148D01*
D02*
G37*
G36*
X431673Y459676D02*
Y456311D01*
X435038D01*
X434987Y456568D01*
X433762Y458400D01*
X431930Y459625D01*
X431673Y459676D01*
D02*
G37*
G36*
X427863D02*
X427606Y459625D01*
X425774Y458400D01*
X424549Y456568D01*
X424498Y456311D01*
X427863D01*
Y459676D01*
D02*
G37*
G36*
X564324Y455803D02*
X560959D01*
Y452438D01*
X561216Y452489D01*
X563048Y453714D01*
X564273Y455546D01*
X564324Y455803D01*
D02*
G37*
G36*
X435038Y452501D02*
X431673D01*
Y449136D01*
X431930Y449187D01*
X433762Y450412D01*
X434987Y452244D01*
X435038Y452501D01*
D02*
G37*
G36*
X427863D02*
X424498D01*
X424549Y452244D01*
X425774Y450412D01*
X427606Y449187D01*
X427863Y449136D01*
Y452501D01*
D02*
G37*
G36*
X573913Y449262D02*
Y445897D01*
X577278D01*
X577227Y446154D01*
X576002Y447986D01*
X574170Y449211D01*
X573913Y449262D01*
D02*
G37*
G36*
X570103D02*
X569846Y449211D01*
X568014Y447986D01*
X566789Y446154D01*
X566738Y445897D01*
X570103D01*
Y449262D01*
D02*
G37*
G36*
X139397Y454595D02*
X118905D01*
Y443852D01*
X127000D01*
X130274Y444283D01*
X133324Y445546D01*
X135944Y447556D01*
X137954Y450176D01*
X139217Y453226D01*
X139397Y454595D01*
D02*
G37*
G36*
X115095D02*
X94603D01*
X94783Y453226D01*
X96046Y450176D01*
X98056Y447556D01*
X100676Y445546D01*
X103726Y444283D01*
X107000Y443852D01*
X115095D01*
Y454595D01*
D02*
G37*
G36*
X534543Y443166D02*
X534286Y443115D01*
X532454Y441890D01*
X531229Y440058D01*
X531178Y439801D01*
X534543D01*
Y443166D01*
D02*
G37*
G36*
X577278Y442087D02*
X573913D01*
Y438722D01*
X574170Y438773D01*
X576002Y439998D01*
X577227Y441830D01*
X577278Y442087D01*
D02*
G37*
G36*
X570103D02*
X566738D01*
X566789Y441830D01*
X568014Y439998D01*
X569846Y438773D01*
X570103Y438722D01*
Y442087D01*
D02*
G37*
G36*
X390144Y460812D02*
X388082Y460401D01*
X386333Y459233D01*
X385165Y457485D01*
X384754Y455422D01*
X385165Y453359D01*
X386333Y451611D01*
X388082Y450443D01*
X388525Y450354D01*
Y449060D01*
X388082Y448971D01*
X386333Y447803D01*
X385165Y446054D01*
X384754Y443992D01*
X385165Y441930D01*
X386333Y440181D01*
X388082Y439013D01*
X390144Y438602D01*
X392206Y439013D01*
X393955Y440181D01*
X395123Y441930D01*
X395533Y443992D01*
X395123Y446054D01*
X393955Y447803D01*
X392206Y448971D01*
X391763Y449060D01*
Y450354D01*
X392206Y450443D01*
X393955Y451611D01*
X395123Y453359D01*
X395533Y455422D01*
X395123Y457485D01*
X393955Y459233D01*
X392206Y460401D01*
X390144Y460812D01*
D02*
G37*
G36*
X585089Y437324D02*
Y433959D01*
X588454D01*
X588403Y434216D01*
X587178Y436048D01*
X585346Y437273D01*
X585089Y437324D01*
D02*
G37*
G36*
X581279D02*
X581022Y437273D01*
X579190Y436048D01*
X577965Y434216D01*
X577914Y433959D01*
X581279D01*
Y437324D01*
D02*
G37*
G36*
X164465Y436816D02*
Y433451D01*
X167830D01*
X167779Y433708D01*
X166554Y435540D01*
X164722Y436765D01*
X164465Y436816D01*
D02*
G37*
G36*
X160655D02*
X160398Y436765D01*
X158566Y435540D01*
X157341Y433708D01*
X157290Y433451D01*
X160655D01*
Y436816D01*
D02*
G37*
G36*
X534543Y435991D02*
X531178D01*
X531229Y435734D01*
X532454Y433902D01*
X534286Y432677D01*
X534543Y432626D01*
Y435991D01*
D02*
G37*
G36*
X199771Y434784D02*
Y431419D01*
X203136D01*
X203085Y431676D01*
X201860Y433508D01*
X200028Y434733D01*
X199771Y434784D01*
D02*
G37*
G36*
X195961D02*
X195704Y434733D01*
X193872Y433508D01*
X192647Y431676D01*
X192596Y431419D01*
X195961D01*
Y434784D01*
D02*
G37*
G36*
X588454Y430149D02*
X585089D01*
Y426784D01*
X585346Y426835D01*
X587178Y428060D01*
X588403Y429892D01*
X588454Y430149D01*
D02*
G37*
G36*
X581279D02*
X577914D01*
X577965Y429892D01*
X579190Y428060D01*
X581022Y426835D01*
X581279Y426784D01*
Y430149D01*
D02*
G37*
G36*
X167830Y429641D02*
X164465D01*
Y426276D01*
X164722Y426327D01*
X166554Y427552D01*
X167779Y429384D01*
X167830Y429641D01*
D02*
G37*
G36*
X160655D02*
X157290D01*
X157341Y429384D01*
X158566Y427552D01*
X160398Y426327D01*
X160655Y426276D01*
Y429641D01*
D02*
G37*
G36*
X203136Y427609D02*
X199771D01*
Y424244D01*
X200028Y424295D01*
X201860Y425520D01*
X203085Y427352D01*
X203136Y427609D01*
D02*
G37*
G36*
X195961D02*
X192596D01*
X192647Y427352D01*
X193872Y425520D01*
X195704Y424295D01*
X195961Y424244D01*
Y427609D01*
D02*
G37*
G36*
X564007Y423354D02*
Y419989D01*
X567372D01*
X567321Y420246D01*
X566096Y422078D01*
X564264Y423303D01*
X564007Y423354D01*
D02*
G37*
G36*
X560197D02*
X559940Y423303D01*
X558108Y422078D01*
X556883Y420246D01*
X556832Y419989D01*
X560197D01*
Y423354D01*
D02*
G37*
G36*
X471551Y420052D02*
Y416687D01*
X474916D01*
X474865Y416944D01*
X473640Y418776D01*
X471808Y420001D01*
X471551Y420052D01*
D02*
G37*
G36*
X467741D02*
X467484Y420001D01*
X465652Y418776D01*
X464427Y416944D01*
X464376Y416687D01*
X467741D01*
Y420052D01*
D02*
G37*
G36*
X567372Y416179D02*
X564007D01*
Y412814D01*
X564264Y412865D01*
X566096Y414090D01*
X567321Y415922D01*
X567372Y416179D01*
D02*
G37*
G36*
X560197D02*
X556832D01*
X556883Y415922D01*
X558108Y414090D01*
X559940Y412865D01*
X560197Y412814D01*
Y416179D01*
D02*
G37*
G36*
X474916Y412877D02*
X471551D01*
Y409512D01*
X471808Y409563D01*
X473640Y410788D01*
X474865Y412620D01*
X474916Y412877D01*
D02*
G37*
G36*
X467741D02*
X464376D01*
X464427Y412620D01*
X465652Y410788D01*
X467484Y409563D01*
X467741Y409512D01*
Y412877D01*
D02*
G37*
G36*
X162941Y407606D02*
Y404241D01*
X166306D01*
X166255Y404498D01*
X165030Y406330D01*
X163198Y407555D01*
X162941Y407606D01*
D02*
G37*
G36*
X159131D02*
X158874Y407555D01*
X157042Y406330D01*
X155817Y404498D01*
X155766Y404241D01*
X159131D01*
Y407606D01*
D02*
G37*
G36*
X672465Y405066D02*
Y401701D01*
X675830D01*
X675779Y401958D01*
X674554Y403790D01*
X672722Y405015D01*
X672465Y405066D01*
D02*
G37*
G36*
X668655D02*
X668398Y405015D01*
X666566Y403790D01*
X665341Y401958D01*
X665290Y401701D01*
X668655D01*
Y405066D01*
D02*
G37*
G36*
X469074Y554863D02*
X458534D01*
X458585Y554606D01*
X459810Y552774D01*
X461592Y551583D01*
X461610Y551488D01*
X461279Y550313D01*
X445444D01*
X443561Y549939D01*
X441964Y548872D01*
X246755Y353662D01*
X192142D01*
X192055Y353721D01*
X189992Y354132D01*
X187929Y353721D01*
X186181Y352553D01*
X185013Y350804D01*
X184603Y348742D01*
X185013Y346679D01*
X186181Y344931D01*
X187929Y343763D01*
X189992Y343353D01*
X192055Y343763D01*
X192142Y343821D01*
X248793D01*
X250676Y344196D01*
X252272Y345263D01*
X447482Y540472D01*
X575376D01*
X642018Y473831D01*
Y406645D01*
X641959Y406558D01*
X641548Y404495D01*
X641959Y402433D01*
X643127Y400684D01*
X644875Y399516D01*
X646938Y399105D01*
X649000Y399516D01*
X650749Y400684D01*
X651917Y402433D01*
X652327Y404495D01*
X651917Y406558D01*
X651859Y406645D01*
Y475869D01*
X651484Y477752D01*
X650417Y479348D01*
X580894Y548872D01*
X579297Y549939D01*
X577414Y550313D01*
X466329D01*
X465998Y551488D01*
X466016Y551583D01*
X467798Y552774D01*
X469023Y554606D01*
X469074Y554863D01*
D02*
G37*
G36*
X166306Y400431D02*
X162941D01*
Y397066D01*
X163198Y397117D01*
X165030Y398342D01*
X166255Y400174D01*
X166306Y400431D01*
D02*
G37*
G36*
X159131D02*
X155766D01*
X155817Y400174D01*
X157042Y398342D01*
X158874Y397117D01*
X159131Y397066D01*
Y400431D01*
D02*
G37*
G36*
X675830Y397891D02*
X672465D01*
Y394526D01*
X672722Y394577D01*
X674554Y395802D01*
X675779Y397634D01*
X675830Y397891D01*
D02*
G37*
G36*
X668655D02*
X665290D01*
X665341Y397634D01*
X666566Y395802D01*
X668398Y394577D01*
X668655Y394526D01*
Y397891D01*
D02*
G37*
G36*
X443865Y397192D02*
Y393827D01*
X447230D01*
X447179Y394084D01*
X445954Y395916D01*
X444122Y397141D01*
X443865Y397192D01*
D02*
G37*
G36*
X440055D02*
X439798Y397141D01*
X437966Y395916D01*
X436741Y394084D01*
X436690Y393827D01*
X440055D01*
Y397192D01*
D02*
G37*
G36*
X421259Y396684D02*
Y393319D01*
X424624D01*
X424573Y393576D01*
X423348Y395408D01*
X421516Y396633D01*
X421259Y396684D01*
D02*
G37*
G36*
X417449D02*
X417192Y396633D01*
X415360Y395408D01*
X414135Y393576D01*
X414084Y393319D01*
X417449D01*
Y396684D01*
D02*
G37*
G36*
X447230Y390017D02*
X443865D01*
Y386652D01*
X444122Y386703D01*
X445954Y387928D01*
X447179Y389760D01*
X447230Y390017D01*
D02*
G37*
G36*
X440055D02*
X436690D01*
X436741Y389760D01*
X437966Y387928D01*
X439798Y386703D01*
X440055Y386652D01*
Y390017D01*
D02*
G37*
G36*
X424624Y389509D02*
X421259D01*
Y386144D01*
X421516Y386195D01*
X423348Y387420D01*
X424573Y389252D01*
X424624Y389509D01*
D02*
G37*
G36*
X417449D02*
X414084D01*
X414135Y389252D01*
X415360Y387420D01*
X417192Y386195D01*
X417449Y386144D01*
Y389509D01*
D02*
G37*
G36*
X600640Y390269D02*
X598578Y389859D01*
X596829Y388691D01*
X595661Y386942D01*
X595251Y384880D01*
X595661Y382817D01*
X596829Y381069D01*
X598578Y379900D01*
X600640Y379490D01*
X602703Y379900D01*
X604451Y381069D01*
X605620Y382817D01*
X606030Y384880D01*
X605620Y386942D01*
X604451Y388691D01*
X602703Y389859D01*
X600640Y390269D01*
D02*
G37*
G36*
X209804Y375214D02*
X207742Y374803D01*
X205994Y373636D01*
X204247Y374803D01*
X202184Y375214D01*
X200121Y374803D01*
X198374Y373636D01*
X196626Y374803D01*
X194564Y375214D01*
X192502Y374803D01*
X190754Y373636D01*
X189007Y374803D01*
X186944Y375214D01*
X184881Y374803D01*
X183133Y373635D01*
X181965Y371886D01*
X181555Y369824D01*
X181965Y367761D01*
X183133Y366013D01*
X184881Y364845D01*
X186944Y364435D01*
X189007Y364845D01*
X190754Y366012D01*
X192502Y364845D01*
X194564Y364435D01*
X196626Y364845D01*
X198374Y366012D01*
X200121Y364845D01*
X202184Y364435D01*
X204247Y364845D01*
X205994Y366012D01*
X207742Y364845D01*
X209804Y364435D01*
X211866Y364845D01*
X213615Y366013D01*
X214783Y367761D01*
X215194Y369824D01*
X214783Y371886D01*
X213615Y373635D01*
X211866Y374803D01*
X209804Y375214D01*
D02*
G37*
G36*
X677291Y363918D02*
Y360553D01*
X680656D01*
X680605Y360810D01*
X679380Y362642D01*
X677548Y363867D01*
X677291Y363918D01*
D02*
G37*
G36*
X673481D02*
X673224Y363867D01*
X671392Y362642D01*
X670167Y360810D01*
X670116Y360553D01*
X673481D01*
Y363918D01*
D02*
G37*
G36*
X680656Y356743D02*
X677291D01*
Y353378D01*
X677548Y353429D01*
X679380Y354654D01*
X680605Y356486D01*
X680656Y356743D01*
D02*
G37*
G36*
X673481D02*
X670116D01*
X670167Y356486D01*
X671392Y354654D01*
X673224Y353429D01*
X673481Y353378D01*
Y356743D01*
D02*
G37*
G36*
X518541Y350202D02*
Y346837D01*
X521906D01*
X521855Y347094D01*
X520630Y348926D01*
X518798Y350151D01*
X518541Y350202D01*
D02*
G37*
G36*
X514731D02*
X514474Y350151D01*
X512642Y348926D01*
X511417Y347094D01*
X511366Y346837D01*
X514731D01*
Y350202D01*
D02*
G37*
G36*
X566483Y536332D02*
X526479D01*
X524992Y536036D01*
X523732Y535194D01*
X502205Y513668D01*
X501363Y512408D01*
X501067Y510921D01*
Y434263D01*
X499797Y433221D01*
X499000Y433380D01*
X497133Y433008D01*
X495550Y431950D01*
X494492Y430367D01*
X494120Y428500D01*
X494492Y426633D01*
X495550Y425050D01*
X497133Y423992D01*
X499000Y423620D01*
X499797Y423779D01*
X501067Y422737D01*
Y325523D01*
X480996Y305451D01*
X480154Y304191D01*
X479858Y302705D01*
Y189611D01*
X480154Y188124D01*
X480996Y186864D01*
X503729Y164131D01*
X504989Y163289D01*
X506476Y162993D01*
X559286D01*
X579490Y142790D01*
Y115316D01*
X579786Y113829D01*
X580628Y112569D01*
X627690Y65507D01*
X628950Y64665D01*
X630437Y64369D01*
X678517D01*
X678639Y64075D01*
X679967Y62344D01*
X681031Y61527D01*
Y59980D01*
X679967Y59163D01*
X678639Y57432D01*
X677804Y55417D01*
X677519Y53253D01*
X677804Y51090D01*
X678639Y49075D01*
X679967Y47344D01*
X681698Y46016D01*
X683713Y45181D01*
X685876Y44896D01*
X690876D01*
X693040Y45181D01*
X695055Y46016D01*
X696786Y47344D01*
X698114Y49075D01*
X698949Y51090D01*
X699234Y53253D01*
X698949Y55417D01*
X698114Y57432D01*
X696786Y59163D01*
X695722Y59980D01*
Y61527D01*
X696786Y62344D01*
X698114Y64075D01*
X698949Y66090D01*
X699234Y68253D01*
X698949Y70417D01*
X698114Y72432D01*
X696786Y74163D01*
X695722Y74980D01*
Y76527D01*
X696786Y77344D01*
X698114Y79075D01*
X698949Y81090D01*
X699234Y83253D01*
X698949Y85417D01*
X698114Y87432D01*
X696786Y89163D01*
X695722Y89980D01*
Y91527D01*
X696786Y92344D01*
X698114Y94075D01*
X698949Y96090D01*
X699234Y98253D01*
X698949Y100417D01*
X698114Y102432D01*
X696786Y104163D01*
X695965Y104793D01*
Y106394D01*
X696967Y107163D01*
X698336Y108947D01*
X699197Y111024D01*
X699239Y111348D01*
X688376D01*
X677514D01*
X677556Y111024D01*
X678417Y108947D01*
X679786Y107163D01*
X680788Y106394D01*
Y104793D01*
X679967Y104163D01*
X678639Y102432D01*
X677804Y100417D01*
X677519Y98253D01*
X677804Y96090D01*
X678639Y94075D01*
X679967Y92344D01*
X681031Y91527D01*
Y89980D01*
X679967Y89163D01*
X678639Y87432D01*
X678517Y87138D01*
X638573D01*
X608913Y116798D01*
Y148590D01*
X608617Y150077D01*
X607775Y151337D01*
X572659Y186452D01*
X571399Y187294D01*
X569912Y187590D01*
X524659D01*
X504582Y207667D01*
Y230102D01*
X513165Y238685D01*
X569595D01*
X571082Y238981D01*
X572342Y239823D01*
X584915Y252396D01*
X585757Y253656D01*
X586053Y255143D01*
Y297730D01*
X602954Y314631D01*
X606863D01*
X607796Y314008D01*
X609664Y313636D01*
X611531Y314008D01*
X613114Y315065D01*
X614172Y316649D01*
X614543Y318516D01*
X614172Y320383D01*
X613114Y321967D01*
X611531Y323024D01*
X609664Y323396D01*
X607796Y323024D01*
X606863Y322401D01*
X601345D01*
X599858Y322105D01*
X598598Y321263D01*
X579421Y302086D01*
X578579Y300826D01*
X578283Y299339D01*
Y256752D01*
X567986Y246455D01*
X511556D01*
X510069Y246159D01*
X508809Y245317D01*
X497951Y234458D01*
X497109Y233198D01*
X496813Y231712D01*
Y206057D01*
X497109Y204571D01*
X497951Y203311D01*
X520303Y180959D01*
X521563Y180117D01*
X523050Y179821D01*
X568303D01*
X601143Y146981D01*
Y115189D01*
X601439Y113702D01*
X602281Y112442D01*
X634217Y80507D01*
X635477Y79665D01*
X636964Y79369D01*
X678517D01*
X678639Y79075D01*
X679967Y77344D01*
X681031Y76527D01*
Y74980D01*
X679967Y74163D01*
X678639Y72432D01*
X678517Y72138D01*
X632046D01*
X587259Y116925D01*
Y144399D01*
X586963Y145886D01*
X586121Y147146D01*
X563642Y169625D01*
X562382Y170467D01*
X560896Y170763D01*
X508085D01*
X487628Y191220D01*
Y301095D01*
X507699Y321167D01*
X508541Y322427D01*
X508837Y323913D01*
Y509312D01*
X528088Y528563D01*
X564874D01*
X627877Y465560D01*
Y355184D01*
X627676Y355050D01*
X626618Y353467D01*
X626247Y351600D01*
X626618Y349732D01*
X627676Y348149D01*
X629259Y347091D01*
X631127Y346720D01*
X632994Y347091D01*
X634577Y348149D01*
X635635Y349732D01*
X636006Y351600D01*
X635637Y353457D01*
X635646Y353504D01*
Y467169D01*
X635350Y468656D01*
X634508Y469916D01*
X569230Y535194D01*
X567970Y536036D01*
X566483Y536332D01*
D02*
G37*
G36*
X424307Y345122D02*
Y341757D01*
X427672D01*
X427621Y342014D01*
X426396Y343846D01*
X424564Y345071D01*
X424307Y345122D01*
D02*
G37*
G36*
X420497D02*
X420240Y345071D01*
X418408Y343846D01*
X417183Y342014D01*
X417132Y341757D01*
X420497D01*
Y345122D01*
D02*
G37*
G36*
X521906Y343027D02*
X518541D01*
Y339662D01*
X518798Y339713D01*
X520630Y340938D01*
X521855Y342770D01*
X521906Y343027D01*
D02*
G37*
G36*
X514731D02*
X511366D01*
X511417Y342770D01*
X512642Y340938D01*
X514474Y339713D01*
X514731Y339662D01*
Y343027D01*
D02*
G37*
G36*
X427672Y337947D02*
X424307D01*
Y334582D01*
X424564Y334633D01*
X426396Y335858D01*
X427621Y337690D01*
X427672Y337947D01*
D02*
G37*
G36*
X420497D02*
X417132D01*
X417183Y337690D01*
X418408Y335858D01*
X420240Y334633D01*
X420497Y334582D01*
Y337947D01*
D02*
G37*
G36*
X518541Y337502D02*
Y334137D01*
X521906D01*
X521855Y334394D01*
X520630Y336226D01*
X518798Y337451D01*
X518541Y337502D01*
D02*
G37*
G36*
X514731D02*
X514474Y337451D01*
X512642Y336226D01*
X511417Y334394D01*
X511366Y334137D01*
X514731D01*
Y337502D01*
D02*
G37*
G36*
X521906Y330327D02*
X518541D01*
Y326962D01*
X518798Y327013D01*
X520630Y328238D01*
X521855Y330070D01*
X521906Y330327D01*
D02*
G37*
G36*
X514731D02*
X511366D01*
X511417Y330070D01*
X512642Y328238D01*
X514474Y327013D01*
X514731Y326962D01*
Y330327D01*
D02*
G37*
G36*
X364871Y328104D02*
Y324739D01*
X368236D01*
X368185Y324996D01*
X366960Y326828D01*
X365128Y328053D01*
X364871Y328104D01*
D02*
G37*
G36*
X361061D02*
X360804Y328053D01*
X358972Y326828D01*
X357747Y324996D01*
X357696Y324739D01*
X361061D01*
Y328104D01*
D02*
G37*
G36*
X518541Y324802D02*
Y321437D01*
X521906D01*
X521855Y321694D01*
X520630Y323526D01*
X518798Y324751D01*
X518541Y324802D01*
D02*
G37*
G36*
X514731D02*
X514474Y324751D01*
X512642Y323526D01*
X511417Y321694D01*
X511366Y321437D01*
X514731D01*
Y324802D01*
D02*
G37*
G36*
X368236Y320929D02*
X364871D01*
Y317564D01*
X365128Y317615D01*
X366960Y318840D01*
X368185Y320672D01*
X368236Y320929D01*
D02*
G37*
G36*
X361061D02*
X357696D01*
X357747Y320672D01*
X358972Y318840D01*
X360804Y317615D01*
X361061Y317564D01*
Y320929D01*
D02*
G37*
G36*
X521906Y317627D02*
X518541D01*
Y314262D01*
X518798Y314313D01*
X520630Y315538D01*
X521855Y317370D01*
X521906Y317627D01*
D02*
G37*
G36*
X514731D02*
X511366D01*
X511417Y317370D01*
X512642Y315538D01*
X514474Y314313D01*
X514731Y314262D01*
Y317627D01*
D02*
G37*
G36*
X468030Y330509D02*
X465967Y330099D01*
X464219Y328931D01*
X463051Y327183D01*
X462640Y325120D01*
X463051Y323058D01*
X464219Y321309D01*
X465967Y320141D01*
X468030Y319730D01*
X469084Y319940D01*
X470164Y318860D01*
X470150Y318790D01*
X470561Y316728D01*
X471729Y314979D01*
X473478Y313811D01*
X475540Y313400D01*
X477603Y313811D01*
X479351Y314979D01*
X480519Y316728D01*
X480929Y318790D01*
X480519Y320853D01*
X479351Y322601D01*
X477603Y323769D01*
X475540Y324179D01*
X474486Y323970D01*
X473406Y325050D01*
X473420Y325120D01*
X473009Y327183D01*
X471841Y328931D01*
X470093Y330099D01*
X468030Y330509D01*
D02*
G37*
G36*
X518541Y312102D02*
Y308737D01*
X521906D01*
X521855Y308994D01*
X520630Y310826D01*
X518798Y312051D01*
X518541Y312102D01*
D02*
G37*
G36*
X514731D02*
X514474Y312051D01*
X512642Y310826D01*
X511417Y308994D01*
X511366Y308737D01*
X514731D01*
Y312102D01*
D02*
G37*
G36*
X674897Y315534D02*
X673030Y315163D01*
X671447Y314105D01*
X670389Y312522D01*
X670017Y310655D01*
X670389Y308787D01*
X671447Y307204D01*
X673030Y306146D01*
X674897Y305775D01*
X676765Y306146D01*
X678348Y307204D01*
X679405Y308787D01*
X679777Y310655D01*
X679405Y312522D01*
X678348Y314105D01*
X676765Y315163D01*
X674897Y315534D01*
D02*
G37*
G36*
X521906Y304927D02*
X518541D01*
Y301562D01*
X518798Y301613D01*
X520630Y302838D01*
X521855Y304670D01*
X521906Y304927D01*
D02*
G37*
G36*
X514731D02*
X511366D01*
X511417Y304670D01*
X512642Y302838D01*
X514474Y301613D01*
X514731Y301562D01*
Y304927D01*
D02*
G37*
G36*
X544576Y307523D02*
X542514Y307112D01*
X540765Y305944D01*
X539597Y304195D01*
X539187Y302133D01*
X539597Y300070D01*
X540765Y298322D01*
X542514Y297154D01*
X544576Y296744D01*
X546638Y297154D01*
X548387Y298322D01*
X549555Y300070D01*
X549966Y302133D01*
X549555Y304195D01*
X548387Y305944D01*
X546638Y307112D01*
X544576Y307523D01*
D02*
G37*
G36*
X332105Y294068D02*
Y290703D01*
X335470D01*
X335419Y290960D01*
X334194Y292792D01*
X332362Y294017D01*
X332105Y294068D01*
D02*
G37*
G36*
X328295D02*
X328038Y294017D01*
X326206Y292792D01*
X324981Y290960D01*
X324930Y290703D01*
X328295D01*
Y294068D01*
D02*
G37*
G36*
X335470Y286893D02*
X332105D01*
Y283528D01*
X332362Y283579D01*
X334194Y284804D01*
X335419Y286636D01*
X335470Y286893D01*
D02*
G37*
G36*
X328295D02*
X324930D01*
X324981Y286636D01*
X326206Y284804D01*
X328038Y283579D01*
X328295Y283528D01*
Y286893D01*
D02*
G37*
G36*
X381279Y290039D02*
X378071Y289616D01*
X375083Y288379D01*
X372516Y286409D01*
X370547Y283843D01*
X369309Y280854D01*
X368887Y277647D01*
X369309Y274439D01*
X370547Y271451D01*
X372516Y268884D01*
X375083Y266915D01*
X378071Y265677D01*
X381279Y265255D01*
X384486Y265677D01*
X387475Y266915D01*
X390041Y268884D01*
X392010Y271451D01*
X393248Y274439D01*
X393671Y277647D01*
X393248Y280854D01*
X392010Y283843D01*
X390041Y286409D01*
X387475Y288379D01*
X384486Y289616D01*
X381279Y290039D01*
D02*
G37*
G36*
X309499Y266890D02*
Y263525D01*
X312864D01*
X312813Y263782D01*
X311588Y265614D01*
X309756Y266839D01*
X309499Y266890D01*
D02*
G37*
G36*
X305689D02*
X305432Y266839D01*
X303600Y265614D01*
X302375Y263782D01*
X302324Y263525D01*
X305689D01*
Y266890D01*
D02*
G37*
G36*
X413385Y260032D02*
Y256667D01*
X416750D01*
X416699Y256924D01*
X415474Y258756D01*
X413642Y259981D01*
X413385Y260032D01*
D02*
G37*
G36*
X409575D02*
X409318Y259981D01*
X407486Y258756D01*
X406261Y256924D01*
X406210Y256667D01*
X409575D01*
Y260032D01*
D02*
G37*
G36*
X312864Y259715D02*
X309499D01*
Y256350D01*
X309756Y256401D01*
X311588Y257626D01*
X312813Y259458D01*
X312864Y259715D01*
D02*
G37*
G36*
X305689D02*
X302324D01*
X302375Y259458D01*
X303600Y257626D01*
X305432Y256401D01*
X305689Y256350D01*
Y259715D01*
D02*
G37*
G36*
X516064Y262882D02*
X514002Y262472D01*
X512253Y261304D01*
X511085Y259555D01*
X510675Y257493D01*
X511085Y255430D01*
X512253Y253682D01*
X514002Y252513D01*
X516064Y252103D01*
X518127Y252513D01*
X519875Y253682D01*
X521044Y255430D01*
X521454Y257493D01*
X521044Y259555D01*
X519875Y261304D01*
X518127Y262472D01*
X516064Y262882D01*
D02*
G37*
G36*
X416750Y252857D02*
X413385D01*
Y249492D01*
X413642Y249543D01*
X415474Y250768D01*
X416699Y252600D01*
X416750Y252857D01*
D02*
G37*
G36*
X409575D02*
X406210D01*
X406261Y252600D01*
X407486Y250768D01*
X409318Y249543D01*
X409575Y249492D01*
Y252857D01*
D02*
G37*
G36*
X345923Y254940D02*
X342650Y254509D01*
X339599Y253245D01*
X338504Y252405D01*
X345923Y244985D01*
X353343Y252405D01*
X352247Y253245D01*
X349197Y254509D01*
X345923Y254940D01*
D02*
G37*
G36*
X636207Y319522D02*
X634339Y319151D01*
X632756Y318093D01*
X631698Y316510D01*
X631327Y314643D01*
X631698Y312775D01*
X632004Y312317D01*
Y244672D01*
X631381Y243739D01*
X631009Y241871D01*
X631381Y240004D01*
X632439Y238421D01*
X634022Y237363D01*
X635889Y236992D01*
X637756Y237363D01*
X639339Y238421D01*
X640397Y240004D01*
X640769Y241871D01*
X640397Y243739D01*
X639774Y244672D01*
Y311367D01*
X640715Y312775D01*
X641086Y314643D01*
X640715Y316510D01*
X639657Y318093D01*
X638074Y319151D01*
X636207Y319522D01*
D02*
G37*
G36*
X356037Y249711D02*
X348617Y242291D01*
X356037Y234872D01*
X356877Y235967D01*
X358141Y239018D01*
X358572Y242291D01*
X358141Y245565D01*
X356877Y248615D01*
X356037Y249711D01*
D02*
G37*
G36*
X335810D02*
X334970Y248615D01*
X333706Y245565D01*
X333275Y242291D01*
X333706Y239018D01*
X334970Y235967D01*
X335810Y234872D01*
X343229Y242291D01*
X335810Y249711D01*
D02*
G37*
G36*
X673735Y459793D02*
X671965Y459441D01*
X670465Y458438D01*
X669462Y456938D01*
X669110Y455168D01*
X669462Y453398D01*
X670465Y451898D01*
X670907Y451602D01*
X671136Y450227D01*
X670133Y448727D01*
X669781Y446957D01*
X670133Y445187D01*
X671136Y443687D01*
X672636Y442684D01*
X674406Y442332D01*
X676176Y442684D01*
X677233Y443390D01*
X681183D01*
X684610Y439963D01*
Y431800D01*
X682377D01*
X682103Y431746D01*
X680472Y431531D01*
X678697Y430796D01*
X677173Y429627D01*
X676003Y428102D01*
X675268Y426327D01*
X675017Y424422D01*
X675268Y422518D01*
X676003Y420743D01*
X677173Y419218D01*
X678697Y418049D01*
X680472Y417314D01*
X682103Y417099D01*
X682377Y417044D01*
X684610D01*
Y415671D01*
Y252001D01*
X666896Y234287D01*
X531666D01*
X531614Y234322D01*
X529844Y234674D01*
X528074Y234322D01*
X526574Y233320D01*
X525571Y231819D01*
X525219Y230049D01*
X525571Y228279D01*
X526574Y226779D01*
Y225780D01*
X525571Y224279D01*
X525219Y222509D01*
X525571Y220739D01*
X526574Y219239D01*
X528074Y218237D01*
X529844Y217885D01*
X531614Y218237D01*
X533114Y219239D01*
X533309Y219531D01*
X671253D01*
X672875Y219853D01*
X674250Y220772D01*
X698125Y244648D01*
X699044Y246022D01*
X699366Y247644D01*
Y444320D01*
X699044Y445941D01*
X698125Y447316D01*
X687277Y458164D01*
X685902Y459083D01*
X684280Y459406D01*
X675557D01*
X675505Y459441D01*
X673735Y459793D01*
D02*
G37*
G36*
X345923Y239597D02*
X338504Y232178D01*
X339599Y231338D01*
X342650Y230074D01*
X345923Y229643D01*
X349197Y230074D01*
X352247Y231338D01*
X353343Y232178D01*
X345923Y239597D01*
D02*
G37*
G36*
X307721Y217868D02*
Y214503D01*
X311086D01*
X311035Y214760D01*
X309810Y216592D01*
X307978Y217817D01*
X307721Y217868D01*
D02*
G37*
G36*
X303911D02*
X303654Y217817D01*
X301822Y216592D01*
X300597Y214760D01*
X300546Y214503D01*
X303911D01*
Y217868D01*
D02*
G37*
G36*
X661543Y214058D02*
Y210693D01*
X664908D01*
X664857Y210950D01*
X663632Y212782D01*
X661800Y214007D01*
X661543Y214058D01*
D02*
G37*
G36*
X657733D02*
X657476Y214007D01*
X655644Y212782D01*
X654419Y210950D01*
X654368Y210693D01*
X657733D01*
Y214058D01*
D02*
G37*
G36*
X311086Y210693D02*
X307721D01*
Y207328D01*
X307978Y207379D01*
X309810Y208604D01*
X311035Y210436D01*
X311086Y210693D01*
D02*
G37*
G36*
X303911D02*
X300546D01*
X300597Y210436D01*
X301822Y208604D01*
X303654Y207379D01*
X303911Y207328D01*
Y210693D01*
D02*
G37*
G36*
X664908Y206883D02*
X661543D01*
Y203518D01*
X661800Y203569D01*
X663632Y204794D01*
X664857Y206626D01*
X664908Y206883D01*
D02*
G37*
G36*
X657733D02*
X654368D01*
X654419Y206626D01*
X655644Y204794D01*
X657476Y203569D01*
X657733Y203518D01*
Y206883D01*
D02*
G37*
G36*
X615061Y205930D02*
Y202565D01*
X618426D01*
X618375Y202822D01*
X617150Y204654D01*
X615318Y205879D01*
X615061Y205930D01*
D02*
G37*
G36*
X611251D02*
X610994Y205879D01*
X609162Y204654D01*
X607937Y202822D01*
X607886Y202565D01*
X611251D01*
Y205930D01*
D02*
G37*
G36*
X618426Y198755D02*
X615061D01*
Y195390D01*
X615318Y195441D01*
X617150Y196666D01*
X618375Y198498D01*
X618426Y198755D01*
D02*
G37*
G36*
X611251D02*
X607886D01*
X607937Y198498D01*
X609162Y196666D01*
X610994Y195441D01*
X611251Y195390D01*
Y198755D01*
D02*
G37*
G36*
X474599Y197802D02*
Y194437D01*
X477964D01*
X477913Y194694D01*
X476688Y196526D01*
X474856Y197751D01*
X474599Y197802D01*
D02*
G37*
G36*
X470789D02*
X470532Y197751D01*
X468700Y196526D01*
X467475Y194694D01*
X467424Y194437D01*
X470789D01*
Y197802D01*
D02*
G37*
G36*
X589915Y197548D02*
Y194183D01*
X593280D01*
X593229Y194440D01*
X592004Y196272D01*
X590172Y197497D01*
X589915Y197548D01*
D02*
G37*
G36*
X586105D02*
X585848Y197497D01*
X584016Y196272D01*
X582791Y194440D01*
X582740Y194183D01*
X586105D01*
Y197548D01*
D02*
G37*
G36*
X320421Y192468D02*
Y189103D01*
X323786D01*
X323735Y189360D01*
X322510Y191192D01*
X320678Y192417D01*
X320421Y192468D01*
D02*
G37*
G36*
X477964Y190627D02*
X474599D01*
Y187262D01*
X474856Y187313D01*
X476688Y188538D01*
X477913Y190370D01*
X477964Y190627D01*
D02*
G37*
G36*
X470789D02*
X467424D01*
X467475Y190370D01*
X468700Y188538D01*
X470532Y187313D01*
X470789Y187262D01*
Y190627D01*
D02*
G37*
G36*
X593280Y190373D02*
X589915D01*
Y187008D01*
X590172Y187059D01*
X592004Y188284D01*
X593229Y190116D01*
X593280Y190373D01*
D02*
G37*
G36*
X586105D02*
X582740D01*
X582791Y190116D01*
X584016Y188284D01*
X585848Y187059D01*
X586105Y187008D01*
Y190373D01*
D02*
G37*
G36*
X295783Y181546D02*
Y178181D01*
X299148D01*
X299097Y178438D01*
X297872Y180270D01*
X296040Y181495D01*
X295783Y181546D01*
D02*
G37*
G36*
X291973D02*
X291716Y181495D01*
X289884Y180270D01*
X288659Y178438D01*
X288608Y178181D01*
X291973D01*
Y181546D01*
D02*
G37*
G36*
X687197Y177736D02*
Y174371D01*
X690562D01*
X690511Y174628D01*
X689286Y176460D01*
X687454Y177685D01*
X687197Y177736D01*
D02*
G37*
G36*
X683387D02*
X683130Y177685D01*
X681298Y176460D01*
X680073Y174628D01*
X680022Y174371D01*
X683387D01*
Y177736D01*
D02*
G37*
G36*
X299148Y174371D02*
X295783D01*
Y171006D01*
X296040Y171057D01*
X297872Y172282D01*
X299097Y174114D01*
X299148Y174371D01*
D02*
G37*
G36*
X291973D02*
X288608D01*
X288659Y174114D01*
X289884Y172282D01*
X291716Y171057D01*
X291973Y171006D01*
Y174371D01*
D02*
G37*
G36*
X690562Y170561D02*
X687197D01*
Y167196D01*
X687454Y167247D01*
X689286Y168472D01*
X690511Y170304D01*
X690562Y170561D01*
D02*
G37*
G36*
X683387D02*
X680022D01*
X680073Y170304D01*
X681298Y168472D01*
X683130Y167247D01*
X683387Y167196D01*
Y170561D01*
D02*
G37*
G36*
X295529Y163512D02*
Y160147D01*
X298894D01*
X298843Y160404D01*
X297618Y162236D01*
X295786Y163461D01*
X295529Y163512D01*
D02*
G37*
G36*
X291719D02*
X291462Y163461D01*
X289630Y162236D01*
X288405Y160404D01*
X288354Y160147D01*
X291719D01*
Y163512D01*
D02*
G37*
G36*
X489585Y157162D02*
Y153797D01*
X492950D01*
X492899Y154054D01*
X491674Y155886D01*
X489842Y157111D01*
X489585Y157162D01*
D02*
G37*
G36*
X485775D02*
X485518Y157111D01*
X483686Y155886D01*
X482461Y154054D01*
X482410Y153797D01*
X485775D01*
Y157162D01*
D02*
G37*
G36*
X298894Y156337D02*
X295529D01*
Y152972D01*
X295786Y153023D01*
X297618Y154248D01*
X298843Y156080D01*
X298894Y156337D01*
D02*
G37*
G36*
X291719D02*
X288354D01*
X288405Y156080D01*
X289630Y154248D01*
X291462Y153023D01*
X291719Y152972D01*
Y156337D01*
D02*
G37*
G36*
X517271Y153098D02*
Y149733D01*
X520636D01*
X520585Y149990D01*
X519360Y151822D01*
X517528Y153047D01*
X517271Y153098D01*
D02*
G37*
G36*
X513461D02*
X513204Y153047D01*
X511372Y151822D01*
X510147Y149990D01*
X510096Y149733D01*
X513461D01*
Y153098D01*
D02*
G37*
G36*
X492950Y149987D02*
X489585D01*
Y146622D01*
X489842Y146673D01*
X491674Y147898D01*
X492899Y149730D01*
X492950Y149987D01*
D02*
G37*
G36*
X485775D02*
X482410D01*
X482461Y149730D01*
X483686Y147898D01*
X485518Y146673D01*
X485775Y146622D01*
Y149987D01*
D02*
G37*
G36*
X520636Y145923D02*
X517271D01*
Y142558D01*
X517528Y142609D01*
X519360Y143834D01*
X520585Y145666D01*
X520636Y145923D01*
D02*
G37*
G36*
X513461D02*
X510096D01*
X510147Y145666D01*
X511372Y143834D01*
X513204Y142609D01*
X513461Y142558D01*
Y145923D01*
D02*
G37*
G36*
X552323Y142156D02*
Y139573D01*
X554906D01*
X553871Y141121D01*
X552323Y142156D01*
D02*
G37*
G36*
X548513D02*
X546965Y141121D01*
X545930Y139573D01*
X548513D01*
Y142156D01*
D02*
G37*
G36*
X659066Y150233D02*
X657004Y149823D01*
X655256Y148654D01*
X654087Y146906D01*
X653677Y144844D01*
X654087Y142781D01*
X655256Y141032D01*
X657004Y139864D01*
X659066Y139454D01*
X661129Y139864D01*
X662878Y141032D01*
X664046Y142781D01*
X664456Y144844D01*
X664046Y146906D01*
X662878Y148654D01*
X661129Y149823D01*
X659066Y150233D01*
D02*
G37*
G36*
X646367D02*
X644304Y149823D01*
X642555Y148654D01*
X641387Y146906D01*
X640977Y144844D01*
X641387Y142781D01*
X642555Y141032D01*
X644304Y139864D01*
X646367Y139454D01*
X648429Y139864D01*
X650178Y141032D01*
X651346Y142781D01*
X651756Y144844D01*
X651346Y146906D01*
X650178Y148654D01*
X648429Y149823D01*
X646367Y150233D01*
D02*
G37*
G36*
X633666D02*
X631604Y149823D01*
X629855Y148654D01*
X628687Y146906D01*
X628277Y144844D01*
X628687Y142781D01*
X629855Y141032D01*
X631604Y139864D01*
X633666Y139454D01*
X635729Y139864D01*
X637477Y141032D01*
X638646Y142781D01*
X639056Y144844D01*
X638646Y146906D01*
X637477Y148654D01*
X635729Y149823D01*
X633666Y150233D01*
D02*
G37*
G36*
X344805Y140144D02*
Y136779D01*
X348170D01*
X348119Y137036D01*
X346894Y138868D01*
X345062Y140093D01*
X344805Y140144D01*
D02*
G37*
G36*
X340995D02*
X340738Y140093D01*
X338906Y138868D01*
X337681Y137036D01*
X337630Y136779D01*
X340995D01*
Y140144D01*
D02*
G37*
G36*
X554906Y135763D02*
X552323D01*
Y133180D01*
X553871Y134215D01*
X554906Y135763D01*
D02*
G37*
G36*
X548513D02*
X545930D01*
X546965Y134215D01*
X548513Y133180D01*
Y135763D01*
D02*
G37*
G36*
X348170Y132969D02*
X344805D01*
Y129604D01*
X345062Y129655D01*
X346894Y130880D01*
X348119Y132712D01*
X348170Y132969D01*
D02*
G37*
G36*
X340995D02*
X337630D01*
X337681Y132712D01*
X338906Y130880D01*
X340738Y129655D01*
X340995Y129604D01*
Y132969D01*
D02*
G37*
G36*
X448905Y139397D02*
Y118905D01*
X459648D01*
Y127000D01*
X459217Y130274D01*
X457954Y133324D01*
X455944Y135944D01*
X453324Y137954D01*
X450274Y139217D01*
X448905Y139397D01*
D02*
G37*
G36*
X445095D02*
X443726Y139217D01*
X440676Y137954D01*
X438056Y135944D01*
X436046Y133324D01*
X434783Y130274D01*
X434352Y127000D01*
Y118905D01*
X445095D01*
Y139397D01*
D02*
G37*
G36*
X690876Y136611D02*
X685876D01*
X683713Y136326D01*
X681698Y135491D01*
X679967Y134163D01*
X678639Y132432D01*
X677804Y130417D01*
X677519Y128253D01*
X677804Y126090D01*
X678639Y124075D01*
X679967Y122344D01*
X680788Y121714D01*
Y120113D01*
X679786Y119344D01*
X678417Y117560D01*
X677556Y115483D01*
X677514Y115159D01*
X688376D01*
X699239D01*
X699197Y115483D01*
X698336Y117560D01*
X696967Y119344D01*
X695965Y120113D01*
Y121714D01*
X696786Y122344D01*
X698114Y124075D01*
X698949Y126090D01*
X699234Y128253D01*
X698949Y130417D01*
X698114Y132432D01*
X696786Y134163D01*
X695055Y135491D01*
X693040Y136326D01*
X690876Y136611D01*
D02*
G37*
G36*
X459648Y115095D02*
X448905D01*
Y94603D01*
X450274Y94783D01*
X453324Y96046D01*
X455944Y98056D01*
X457954Y100676D01*
X459217Y103726D01*
X459648Y107000D01*
Y115095D01*
D02*
G37*
G36*
X445095D02*
X434352D01*
Y107000D01*
X434783Y103726D01*
X436046Y100676D01*
X438056Y98056D01*
X440676Y96046D01*
X443726Y94783D01*
X445095Y94603D01*
Y115095D01*
D02*
G37*
G36*
X517525Y92900D02*
Y89535D01*
X520890D01*
X520839Y89792D01*
X519614Y91624D01*
X517782Y92849D01*
X517525Y92900D01*
D02*
G37*
G36*
X513715D02*
X513458Y92849D01*
X511626Y91624D01*
X510401Y89792D01*
X510350Y89535D01*
X513715D01*
Y92900D01*
D02*
G37*
G36*
X409000Y97648D02*
X400905D01*
Y86905D01*
X421397D01*
X421217Y88274D01*
X419954Y91324D01*
X417944Y93944D01*
X415324Y95954D01*
X412273Y97217D01*
X409000Y97648D01*
D02*
G37*
G36*
X397095D02*
X389000D01*
X385726Y97217D01*
X382676Y95954D01*
X380056Y93944D01*
X378046Y91324D01*
X376783Y88274D01*
X376603Y86905D01*
X397095D01*
Y97648D01*
D02*
G37*
G36*
X550418Y92509D02*
X548648Y92157D01*
X547148Y91154D01*
X546145Y89654D01*
X545793Y87884D01*
X546145Y86114D01*
X547148Y84614D01*
X548648Y83611D01*
X550418Y83259D01*
X552188Y83611D01*
X553688Y84614D01*
X554691Y86114D01*
X555043Y87884D01*
X554691Y89654D01*
X553688Y91154D01*
X552188Y92157D01*
X550418Y92509D01*
D02*
G37*
G36*
X520890Y85725D02*
X517525D01*
Y82360D01*
X517782Y82411D01*
X519614Y83636D01*
X520839Y85468D01*
X520890Y85725D01*
D02*
G37*
G36*
X513715D02*
X510350D01*
X510401Y85468D01*
X511626Y83636D01*
X513458Y82411D01*
X513715Y82360D01*
Y85725D01*
D02*
G37*
G36*
X421397Y83095D02*
X400905D01*
Y72352D01*
X409000D01*
X412273Y72783D01*
X415324Y74046D01*
X417944Y76056D01*
X419954Y78676D01*
X421217Y81726D01*
X421397Y83095D01*
D02*
G37*
G36*
X397095D02*
X376603D01*
X376783Y81726D01*
X378046Y78676D01*
X380056Y76056D01*
X382676Y74046D01*
X385726Y72783D01*
X389000Y72352D01*
X397095D01*
Y83095D01*
D02*
G37*
G36*
X200323Y119266D02*
X106775D01*
X75203Y87694D01*
Y63500D01*
X160060D01*
X160546Y62230D01*
X159654Y60894D01*
X159642Y60833D01*
X169161D01*
X169149Y60894D01*
X168257Y62230D01*
X168743Y63500D01*
X280924Y63500D01*
Y102394D01*
X256686D01*
X256629Y102451D01*
X251949D01*
X248349Y106051D01*
X248228Y105931D01*
X213360D01*
Y106229D01*
X200323Y119266D01*
D02*
G37*
G36*
X169161Y57023D02*
X166306D01*
Y54168D01*
X166368Y54180D01*
X168035Y55294D01*
X169149Y56961D01*
X169161Y57023D01*
D02*
G37*
G36*
X162496D02*
X159642D01*
X159654Y56961D01*
X160768Y55294D01*
X162435Y54180D01*
X162496Y54168D01*
Y57023D01*
D02*
G37*
G36*
X69215Y57340D02*
Y53975D01*
X72580D01*
X72529Y54232D01*
X71304Y56064D01*
X69472Y57289D01*
X69215Y57340D01*
D02*
G37*
G36*
X65405D02*
X65148Y57289D01*
X63316Y56064D01*
X62091Y54232D01*
X62040Y53975D01*
X65405D01*
Y57340D01*
D02*
G37*
G36*
X658749Y52514D02*
Y49149D01*
X662114D01*
X662063Y49406D01*
X660838Y51238D01*
X659006Y52463D01*
X658749Y52514D01*
D02*
G37*
G36*
X654939D02*
X654682Y52463D01*
X652850Y51238D01*
X651625Y49406D01*
X651574Y49149D01*
X654939D01*
Y52514D01*
D02*
G37*
G36*
X72580Y50165D02*
X69215D01*
Y46800D01*
X69472Y46851D01*
X71304Y48076D01*
X72529Y49908D01*
X72580Y50165D01*
D02*
G37*
G36*
X65405D02*
X62040D01*
X62091Y49908D01*
X63316Y48076D01*
X65148Y46851D01*
X65405Y46800D01*
Y50165D01*
D02*
G37*
G36*
X662114Y45339D02*
X658749D01*
Y41974D01*
X659006Y42025D01*
X660838Y43250D01*
X662063Y45082D01*
X662114Y45339D01*
D02*
G37*
G36*
X654939D02*
X651574D01*
X651625Y45082D01*
X652850Y43250D01*
X654682Y42025D01*
X654939Y41974D01*
Y45339D01*
D02*
G37*
G36*
X69215Y44640D02*
Y41275D01*
X72580D01*
X72529Y41532D01*
X71304Y43364D01*
X69472Y44589D01*
X69215Y44640D01*
D02*
G37*
G36*
X65405D02*
X65148Y44589D01*
X63316Y43364D01*
X62091Y41532D01*
X62040Y41275D01*
X65405D01*
Y44640D01*
D02*
G37*
G36*
X72580Y37465D02*
X69215D01*
Y34100D01*
X69472Y34151D01*
X71304Y35376D01*
X72529Y37208D01*
X72580Y37465D01*
D02*
G37*
G36*
X65405D02*
X62040D01*
X62091Y37208D01*
X63316Y35376D01*
X65148Y34151D01*
X65405Y34100D01*
Y37465D01*
D02*
G37*
G36*
X137922Y32758D02*
X135859Y32348D01*
X134111Y31179D01*
X133794Y30706D01*
X132524D01*
X132208Y31179D01*
X130459Y32348D01*
X128397Y32758D01*
X126334Y32348D01*
X124586Y31179D01*
X124270Y30706D01*
X122999D01*
X122683Y31179D01*
X120934Y32348D01*
X118872Y32758D01*
X116810Y32348D01*
X115061Y31179D01*
X113893Y29431D01*
X113483Y27369D01*
X113893Y25306D01*
X115061Y23558D01*
X115535Y23241D01*
Y21971D01*
X115061Y21655D01*
X113893Y19906D01*
X113483Y17844D01*
X113893Y15781D01*
X115061Y14032D01*
X116810Y12864D01*
X118872Y12454D01*
X120934Y12864D01*
X122683Y14032D01*
X122999Y14506D01*
X124270D01*
X124586Y14032D01*
X126334Y12864D01*
X128397Y12454D01*
X130459Y12864D01*
X132208Y14032D01*
X132524Y14506D01*
X133794D01*
X134111Y14032D01*
X135859Y12864D01*
X137922Y12454D01*
X139985Y12864D01*
X141733Y14032D01*
X142901Y15781D01*
X143312Y17844D01*
X142901Y19906D01*
X141733Y21655D01*
X141259Y21971D01*
Y23241D01*
X141733Y23558D01*
X142901Y25306D01*
X143312Y27369D01*
X142901Y29431D01*
X141733Y31179D01*
X139985Y32348D01*
X137922Y32758D01*
D02*
G37*
G36*
X69215Y31876D02*
Y28512D01*
X72580D01*
X72529Y28768D01*
X71304Y30601D01*
X69472Y31825D01*
X69215Y31876D01*
D02*
G37*
G36*
X65405D02*
X65148Y31825D01*
X63316Y30601D01*
X62091Y28768D01*
X62040Y28512D01*
X65405D01*
Y31876D01*
D02*
G37*
G36*
X399000Y52896D02*
X395662Y52457D01*
X392552Y51169D01*
X389881Y49119D01*
X387831Y46448D01*
X386543Y43338D01*
X386104Y40000D01*
X386543Y36662D01*
X387831Y33552D01*
X389881Y30881D01*
X392552Y28831D01*
X395662Y27543D01*
X399000Y27104D01*
X402338Y27543D01*
X405448Y28831D01*
X408119Y30881D01*
X410168Y33552D01*
X411457Y36662D01*
X411896Y40000D01*
X411457Y43338D01*
X410168Y46448D01*
X408119Y49119D01*
X405448Y51169D01*
X402338Y52457D01*
X399000Y52896D01*
D02*
G37*
G36*
X72580Y24701D02*
X69215D01*
Y21337D01*
X69472Y21388D01*
X71304Y22612D01*
X72529Y24445D01*
X72580Y24701D01*
D02*
G37*
G36*
X65405D02*
X62040D01*
X62091Y24445D01*
X63316Y22612D01*
X65148Y21388D01*
X65405Y21337D01*
Y24701D01*
D02*
G37*
G36*
X256000Y27845D02*
X254228Y27611D01*
X252578Y26928D01*
X251160Y25840D01*
X250072Y24422D01*
X249389Y22771D01*
X249156Y21000D01*
X249389Y19229D01*
X250072Y17578D01*
X251160Y16160D01*
X252578Y15072D01*
X254228Y14389D01*
X256000Y14155D01*
X257771Y14389D01*
X259422Y15072D01*
X260840Y16160D01*
X261928Y17578D01*
X262611Y19229D01*
X262845Y21000D01*
X262611Y22771D01*
X261928Y24422D01*
X260840Y25840D01*
X259422Y26928D01*
X257771Y27611D01*
X256000Y27845D01*
D02*
G37*
G36*
X226000D02*
X224228Y27611D01*
X222578Y26928D01*
X221160Y25840D01*
X220072Y24422D01*
X219389Y22771D01*
X219156Y21000D01*
X219389Y19229D01*
X220072Y17578D01*
X221160Y16160D01*
X222578Y15072D01*
X224228Y14389D01*
X226000Y14155D01*
X227771Y14389D01*
X229422Y15072D01*
X230840Y16160D01*
X231928Y17578D01*
X232611Y19229D01*
X232845Y21000D01*
X232611Y22771D01*
X231928Y24422D01*
X230840Y25840D01*
X229422Y26928D01*
X227771Y27611D01*
X226000Y27845D01*
D02*
G37*
%LPD*%
D19*
X896112Y184404D02*
Y250444D01*
X887476Y175768D02*
X896112Y184404D01*
X863346Y283210D02*
X896112Y250444D01*
X817006Y174194D02*
X822600Y168600D01*
X811022Y180178D02*
Y234950D01*
Y180178D02*
X817006Y174194D01*
X822600Y168600D02*
X825600D01*
X820970Y166970D02*
X822600Y168600D01*
X810998Y156922D02*
X820970Y166894D01*
Y166970D01*
X810998Y143000D02*
Y156922D01*
X823072Y247000D02*
X837000D01*
X811022Y234950D02*
X823072Y247000D01*
X837000Y283000D02*
X837210Y283210D01*
X863346D01*
X872917Y175768D02*
X887476D01*
X869107Y171958D02*
X872917Y175768D01*
X861360Y171958D02*
X869107D01*
X769000Y39482D02*
Y50500D01*
X771906Y36576D02*
X788387D01*
X769000Y39482D02*
X771906Y36576D01*
X788387D02*
X794183Y42372D01*
X804562D01*
X804690Y42500D01*
X814000D01*
X823310D02*
X829501Y48691D01*
Y64500D01*
X814000Y42500D02*
X823310D01*
X837898Y52000D02*
X840000D01*
X836168Y50270D02*
X837898Y52000D01*
X836168Y43688D02*
Y50270D01*
X825480Y33000D02*
X836168Y43688D01*
X814000Y33000D02*
X825480D01*
D67*
X814000D02*
D03*
Y42500D02*
D03*
Y52000D02*
D03*
X840000D02*
D03*
Y33000D02*
D03*
D99*
X399000Y40000D02*
D03*
X40000Y504500D02*
D03*
D103*
X737635Y168732D02*
D03*
X756635D02*
D03*
X769000Y50500D02*
D03*
X788000D02*
D03*
X791414Y262636D02*
D03*
X772414D02*
D03*
D104*
X736998Y203000D02*
D03*
X753000D02*
D03*
X736998Y191000D02*
D03*
X753000D02*
D03*
X827000Y143000D02*
D03*
X810998D02*
D03*
X829501Y64500D02*
D03*
X813499D02*
D03*
X772400Y247396D02*
D03*
X788402D02*
D03*
D109*
X766826Y109500D02*
D03*
Y128500D02*
D03*
X783590Y109626D02*
D03*
Y128626D02*
D03*
X800100D02*
D03*
Y109626D02*
D03*
X855218Y33020D02*
D03*
Y52020D02*
D03*
X771906Y83566D02*
D03*
Y64566D02*
D03*
D112*
X841000Y215998D02*
D03*
Y232000D02*
D03*
X854000Y215998D02*
D03*
Y232000D02*
D03*
X867000D02*
D03*
Y215998D02*
D03*
X861868Y201931D02*
D03*
Y185929D02*
D03*
X848868Y185928D02*
D03*
Y201930D02*
D03*
X861360Y155956D02*
D03*
Y171958D02*
D03*
X848360Y155956D02*
D03*
Y171958D02*
D03*
X785468Y65835D02*
D03*
Y81837D02*
D03*
X797968Y65835D02*
D03*
Y81837D02*
D03*
X800000Y34498D02*
D03*
Y50500D02*
D03*
X726967Y179749D02*
D03*
Y163747D02*
D03*
X741000Y232002D02*
D03*
Y216000D02*
D03*
X754000Y232000D02*
D03*
Y215998D02*
D03*
X901700Y157099D02*
D03*
Y173101D02*
D03*
D138*
X725202Y70732D02*
Y141338D01*
X727900Y144037D01*
X734657D01*
X732155Y214192D02*
X732314Y214033D01*
Y207684D02*
X736998Y203000D01*
X732314Y207684D02*
Y214033D01*
X736998Y191000D02*
Y203000D01*
X772268Y168732D02*
X772400Y168600D01*
X756635Y168732D02*
X772268D01*
X727434Y68500D02*
X739000D01*
X725202Y70732D02*
X727434Y68500D01*
X758825Y152997D02*
X761728Y155900D01*
X758825Y144208D02*
Y152997D01*
X761728Y155900D02*
X772400D01*
Y232100D02*
Y247396D01*
D139*
X685107Y427563D02*
G03*
X688848Y431303I0J3741D01*
G01*
X682377Y427563D02*
G03*
X682377Y421282I0J-3140D01*
G01*
X688848Y417542D02*
G03*
X685107Y421282I-3741J0D01*
G01*
X531444Y223769D02*
X671253D01*
X668652Y230049D02*
X688848Y250246D01*
X530185Y230049D02*
X668652D01*
X671253Y223769D02*
X695129Y247644D01*
X530185Y222509D02*
X531444Y223769D01*
X529844Y222509D02*
X530185D01*
X695129Y247644D02*
Y444320D01*
X688848Y431303D02*
Y437071D01*
X682377Y427563D02*
X685107D01*
X682377Y421282D02*
X685107D01*
X688848Y415671D02*
Y417542D01*
Y437071D02*
Y441718D01*
Y250246D02*
Y415671D01*
X674406Y446957D02*
X674747D01*
X684280Y455168D02*
X695129Y444320D01*
X673735Y455168D02*
X684280D01*
X682938Y447628D02*
X688848Y441718D01*
X674747Y446957D02*
X675418Y447628D01*
X682938D01*
D140*
X800100Y128626D02*
X828700D01*
X842500Y114826D01*
Y80500D02*
Y114826D01*
X829501Y64500D02*
Y95059D01*
X814934Y109626D02*
X829501Y95059D01*
X800100Y109626D02*
X814934D01*
D141*
X504952Y510921D02*
X526479Y532448D01*
X483743Y302705D02*
X504952Y323913D01*
Y510921D01*
X635889Y314325D02*
X636207Y314643D01*
X635889Y241871D02*
Y314325D01*
X631500Y351973D02*
Y353243D01*
X631127Y351600D02*
X631500Y351973D01*
Y353243D02*
X631762Y353504D01*
Y467169D01*
X566483Y532448D02*
X631762Y467169D01*
X526479Y532448D02*
X566483D01*
X483743Y189611D02*
Y302705D01*
Y189611D02*
X506476Y166878D01*
X560896D01*
X583374Y115316D02*
Y144399D01*
X560896Y166878D02*
X583374Y144399D01*
Y115316D02*
X630437Y68253D01*
X688376D01*
X636964Y83253D02*
X688376D01*
X605028Y115189D02*
X636964Y83253D01*
X605028Y115189D02*
Y148590D01*
X523050Y183706D02*
X569912D01*
X605028Y148590D01*
X500698Y206057D02*
X523050Y183706D01*
X500698Y206057D02*
Y231712D01*
X511556Y242570D01*
X569595D01*
X582168Y255143D01*
Y299339D01*
X601345Y318516D01*
X609664D01*
D143*
X829501Y64500D02*
X850048D01*
X855218Y59330D01*
Y52020D02*
Y59330D01*
X851046Y80264D02*
X860552D01*
X850810Y80500D02*
X851046Y80264D01*
X842500Y80500D02*
X850810D01*
X860552Y80264D02*
X883666Y57150D01*
Y41148D02*
Y57150D01*
X875538Y33020D02*
X883666Y41148D01*
X855218Y33020D02*
X875538D01*
X604931Y31590D02*
Y51214D01*
X588391Y15050D02*
X604931Y31590D01*
X516827Y15050D02*
X588391D01*
X488188Y43688D02*
X516827Y15050D01*
X342982Y148000D02*
X464085D01*
X292100Y198882D02*
X342982Y148000D01*
X292100Y198882D02*
Y314198D01*
X488188Y43688D02*
Y123897D01*
X464085Y148000D02*
X485212Y126873D01*
X485212D01*
X488188Y123897D01*
X189992Y348742D02*
X248793D01*
X445444Y545393D01*
X577414D01*
X646938Y475869D01*
Y404495D02*
Y475869D01*
X145288Y373380D02*
X194310Y324358D01*
X305054D01*
D144*
X548756Y521716D02*
X558038D01*
X543632Y408578D02*
X557276Y394934D01*
X543632Y516591D02*
X548756Y521716D01*
X549656Y410845D02*
Y514096D01*
X543632Y408578D02*
Y516591D01*
X549656Y410845D02*
X564515Y395986D01*
Y389505D02*
Y395986D01*
Y389505D02*
X566561Y387459D01*
X567495D01*
X568701Y386253D01*
Y382633D02*
Y386253D01*
X567495Y381427D02*
X568701Y382633D01*
X566561Y381427D02*
X567495D01*
X564515Y379381D02*
X566561Y381427D01*
X564515Y371602D02*
Y379381D01*
Y273431D02*
Y371602D01*
X557276Y286512D02*
Y394934D01*
D149*
X629500Y902600D02*
Y935140D01*
X629158Y935482D02*
X629500Y935140D01*
X617800Y890900D02*
X629500Y902600D01*
Y935824D02*
Y936500D01*
X629158Y935482D02*
X629500Y935824D01*
X499700Y903166D02*
Y936500D01*
X488400Y891866D02*
X499700Y903166D01*
X488400Y891400D02*
Y891866D01*
D150*
X739000Y128500D02*
D03*
Y113500D02*
D03*
Y98500D02*
D03*
Y83500D02*
D03*
Y68500D02*
D03*
Y53500D02*
D03*
X688376Y53253D02*
D03*
Y68253D02*
D03*
Y83253D02*
D03*
Y98253D02*
D03*
Y128253D02*
D03*
Y113253D02*
D03*
D151*
X801000Y283000D02*
D03*
X837000D02*
D03*
Y247000D02*
D03*
D152*
X680300Y936500D02*
D03*
X629500D02*
D03*
X550500D02*
D03*
X499700D02*
D03*
X60000Y944400D02*
D03*
Y893600D02*
D03*
D153*
X617800Y890900D02*
D03*
X694000Y865500D02*
D03*
Y713100D02*
D03*
X617800Y814700D02*
D03*
Y713100D02*
D03*
X488400Y891400D02*
D03*
X564600Y866000D02*
D03*
Y713600D02*
D03*
X488400Y815200D02*
D03*
Y713600D02*
D03*
D154*
X388000Y148000D02*
D03*
D155*
X447000Y117000D02*
D03*
X85000Y504500D02*
D03*
D156*
X399000Y85000D02*
D03*
X117000Y456500D02*
D03*
D157*
X381279Y277647D02*
D03*
X345923Y242291D02*
D03*
X64000Y373500D02*
D03*
Y323500D02*
D03*
X88000Y661000D02*
D03*
X38000D02*
D03*
X88000Y776000D02*
D03*
X38000D02*
D03*
X240000Y644000D02*
D03*
X340000D02*
D03*
X190000Y844000D02*
D03*
X390000D02*
D03*
X140000Y944000D02*
D03*
X440000D02*
D03*
D158*
X149050Y146325D02*
D03*
Y164675D02*
D03*
X158225Y137150D02*
D03*
Y155500D02*
D03*
Y173850D02*
D03*
X167400Y146325D02*
D03*
Y164675D02*
D03*
X176575Y137150D02*
D03*
Y155500D02*
D03*
Y173850D02*
D03*
X185750Y146325D02*
D03*
Y164675D02*
D03*
D159*
X148000Y515500D02*
D03*
D160*
X734657Y144037D02*
D03*
X674897Y310655D02*
D03*
X758825Y144208D02*
D03*
X499000Y428500D02*
D03*
X558038Y521716D02*
D03*
X164401Y58928D02*
D03*
X635889Y241871D02*
D03*
X636207Y314643D02*
D03*
X631127Y351600D02*
D03*
X609664Y318516D02*
D03*
X604931Y51214D02*
D03*
X557276Y286512D02*
D03*
X549656Y514096D02*
D03*
X145288Y373380D02*
D03*
D161*
X529844Y230049D02*
D03*
Y222509D02*
D03*
X550418Y137668D02*
D03*
Y87884D02*
D03*
X673735Y455168D02*
D03*
X674406Y446957D02*
D03*
D162*
X419354Y391414D02*
D03*
X422402Y339852D02*
D03*
X342900Y134874D02*
D03*
X463804Y556768D02*
D03*
X37846Y618744D02*
D03*
X306324Y521970D02*
D03*
X235204Y501142D02*
D03*
X197866Y429514D02*
D03*
X162560Y431546D02*
D03*
X161036Y402336D02*
D03*
X330200Y288798D02*
D03*
X362966Y322834D02*
D03*
X307594Y261620D02*
D03*
X318516Y187198D02*
D03*
X293878Y176276D02*
D03*
X305816Y212598D02*
D03*
X293624Y158242D02*
D03*
X411480Y254762D02*
D03*
X472694Y192532D02*
D03*
X515366Y147828D02*
D03*
X487680Y151892D02*
D03*
X515620Y87630D02*
D03*
X656844Y47244D02*
D03*
X588010Y192278D02*
D03*
X613156Y200660D02*
D03*
X685292Y172466D02*
D03*
X659638Y208788D02*
D03*
X559054Y457708D02*
D03*
X572008Y443992D02*
D03*
X583184Y432054D02*
D03*
X562102Y418084D02*
D03*
X536448Y437896D02*
D03*
X441960Y391922D02*
D03*
X469646Y414782D02*
D03*
X435864Y479298D02*
D03*
X429768Y454406D02*
D03*
X475996Y500380D02*
D03*
X536194Y557784D02*
D03*
X496824Y584708D02*
D03*
X530098Y606298D02*
D03*
X675386Y358648D02*
D03*
X670560Y399796D02*
D03*
X686562Y487680D02*
D03*
X656844Y542798D02*
D03*
X686308Y578612D02*
D03*
X655828Y611632D02*
D03*
X600640Y384880D02*
D03*
X516636Y344932D02*
D03*
Y332232D02*
D03*
Y306832D02*
D03*
Y319532D02*
D03*
X656201Y517652D02*
D03*
X425704Y497840D02*
D03*
X415544Y487680D02*
D03*
X405384Y477520D02*
D03*
X395224Y467360D02*
D03*
X390144Y455422D02*
D03*
Y443992D02*
D03*
X573024Y686562D02*
D03*
X67310Y77470D02*
D03*
Y64770D02*
D03*
Y52070D02*
D03*
Y39370D02*
D03*
Y26607D02*
D03*
X516064Y257493D02*
D03*
X137922Y17844D02*
D03*
Y27369D02*
D03*
X128397D02*
D03*
Y17844D02*
D03*
X118872D02*
D03*
Y27369D02*
D03*
X544576Y302133D02*
D03*
X564515Y273431D02*
D03*
X646938Y404495D02*
D03*
X189992Y348742D02*
D03*
X659066Y144844D02*
D03*
X646367D02*
D03*
X633666D02*
D03*
X475540Y318790D02*
D03*
X468030Y325120D02*
D03*
X292100Y334518D02*
D03*
Y314198D02*
D03*
X305054Y324358D02*
D03*
X186944Y369824D02*
D03*
X194564D02*
D03*
X202184D02*
D03*
X209804D02*
D03*
X176530Y493776D02*
D03*
X163830D02*
D03*
Y503936D02*
D03*
X176530D02*
D03*
Y514096D02*
D03*
X163830D02*
D03*
D211*
X772400Y155900D02*
D03*
Y168600D02*
D03*
Y181300D02*
D03*
Y194000D02*
D03*
Y206700D02*
D03*
Y219400D02*
D03*
Y232100D02*
D03*
X825600Y155900D02*
D03*
Y168600D02*
D03*
Y181300D02*
D03*
Y194000D02*
D03*
Y206700D02*
D03*
Y219400D02*
D03*
Y232100D02*
D03*
D212*
X884000Y203000D02*
D03*
Y232000D02*
D03*
X878920Y186000D02*
D03*
Y157000D02*
D03*
D213*
X813500Y80500D02*
D03*
X842500D02*
D03*
D214*
X783590Y128626D02*
X800100D01*
X783464Y128500D02*
X783590Y128626D01*
X766826Y128500D02*
X783464D01*
X739000D02*
X766826D01*
X740423Y181153D02*
X745242Y176333D01*
X739000Y128500D02*
Y137020D01*
X745242Y143262D02*
Y176333D01*
X739000Y137020D02*
X745242Y143262D01*
X726980Y181153D02*
X740423D01*
X725164Y182969D02*
X726980Y181153D01*
X725164Y182969D02*
Y239233D01*
X732565Y246634D01*
X748002D01*
X764004Y262636D01*
X772414D01*
X748002Y246634D02*
X754000Y240636D01*
Y232000D02*
Y240636D01*
M02*
