G04*
G04 #@! TF.GenerationSoftware,Altium Limited,Altium Designer,22.10.1 (41)*
G04*
G04 Layer_Color=8421504*
%FSLAX44Y44*%
%MOMM*%
G71*
G04*
G04 #@! TF.SameCoordinates,FF558BA5-466A-4189-8B58-D4AB7027BDE0*
G04*
G04*
G04 #@! TF.FilePolarity,Positive*
G04*
G01*
G75*
%ADD21R,0.9540X1.5540*%
%ADD22R,1.2192X1.0414*%
%ADD23R,1.3540X1.0540*%
G04:AMPARAMS|DCode=24|XSize=1.0414mm|YSize=1.2192mm|CornerRadius=0mm|HoleSize=0mm|Usage=FLASHONLY|Rotation=225.000|XOffset=0mm|YOffset=0mm|HoleType=Round|Shape=Rectangle|*
%AMROTATEDRECTD24*
4,1,4,-0.0629,0.7992,0.7992,-0.0629,0.0629,-0.7992,-0.7992,0.0629,-0.0629,0.7992,0.0*
%
%ADD24ROTATEDRECTD24*%

%ADD25R,0.5540X1.4540*%
%ADD26R,1.4540X0.5540*%
%ADD27R,1.5540X0.9540*%
G04:AMPARAMS|DCode=28|XSize=1.0414mm|YSize=1.2192mm|CornerRadius=0mm|HoleSize=0mm|Usage=FLASHONLY|Rotation=315.000|XOffset=0mm|YOffset=0mm|HoleType=Round|Shape=Rectangle|*
%AMROTATEDRECTD28*
4,1,4,-0.7992,-0.0629,0.0629,0.7992,0.7992,0.0629,-0.0629,-0.7992,-0.7992,-0.0629,0.0*
%
%ADD28ROTATEDRECTD28*%

G04:AMPARAMS|DCode=29|XSize=1.854mm|YSize=1.504mm|CornerRadius=0mm|HoleSize=0mm|Usage=FLASHONLY|Rotation=225.000|XOffset=0mm|YOffset=0mm|HoleType=Round|Shape=Rectangle|*
%AMROTATEDRECTD29*
4,1,4,0.1237,1.1872,1.1872,0.1237,-0.1237,-1.1872,-1.1872,-0.1237,0.1237,1.1872,0.0*
%
%ADD29ROTATEDRECTD29*%

%ADD30R,1.0414X1.2192*%
%ADD31R,1.7540X0.7540*%
%ADD32R,1.2540X0.7540*%
%ADD33R,1.3040X0.8040*%
%ADD34R,0.8540X1.6140*%
%ADD35R,0.6540X1.6040*%
%ADD36R,2.3540X1.8540*%
%ADD37R,2.1540X2.0540*%
%ADD38R,2.2540X1.3540*%
%ADD39R,3.5540X4.6540*%
%ADD40R,4.1540X6.4540*%
%ADD41R,0.8040X1.3040*%
%ADD42R,1.4540X1.8540*%
%ADD43R,3.5540X1.8540*%
%ADD44R,1.8040X1.4540*%
%ADD45R,1.8540X1.8540*%
%ADD46R,3.2540X2.2540*%
%ADD47R,1.5540X3.6540*%
%ADD48R,2.5040X2.3740*%
%ADD49R,0.9540X1.7540*%
%ADD50R,1.2540X1.0540*%
%ADD51R,1.1540X2.2540*%
%ADD52R,2.2540X1.1540*%
%ADD53R,1.5840X1.5840*%
%ADD54R,4.6540X3.5540*%
%ADD55R,6.4540X4.1540*%
D21*
X818388Y180594D02*
D03*
X837388D02*
D03*
X615760Y474027D02*
D03*
X634759D02*
D03*
X481500Y397500D02*
D03*
X462500D02*
D03*
X604931Y74168D02*
D03*
X623931D02*
D03*
X389128Y406146D02*
D03*
X370128D02*
D03*
X104000Y56500D02*
D03*
X85000D02*
D03*
X104000Y37500D02*
D03*
X85000D02*
D03*
X104000Y19500D02*
D03*
X85000D02*
D03*
D22*
X834390Y152654D02*
D03*
X818388D02*
D03*
X835152Y98552D02*
D03*
X819150D02*
D03*
X530500Y501396D02*
D03*
X514498D02*
D03*
X616758Y489027D02*
D03*
X632760D02*
D03*
X640588Y457073D02*
D03*
X624586D02*
D03*
X640588Y444881D02*
D03*
X624586D02*
D03*
X646938Y423500D02*
D03*
X630936D02*
D03*
X481500Y382270D02*
D03*
X465498D02*
D03*
X656498Y258000D02*
D03*
X672500D02*
D03*
X636001Y650000D02*
D03*
X619999D02*
D03*
X581002Y653000D02*
D03*
X565000D02*
D03*
X270001Y349500D02*
D03*
X253999D02*
D03*
D23*
X816356Y121158D02*
D03*
X835256Y130658D02*
D03*
Y111658D02*
D03*
X639450Y675000D02*
D03*
X620550Y684500D02*
D03*
Y665500D02*
D03*
X546100Y677500D02*
D03*
X565000Y668000D02*
D03*
Y687000D02*
D03*
X127550Y323500D02*
D03*
X146450Y314000D02*
D03*
Y333000D02*
D03*
X133550Y49500D02*
D03*
X152450Y40000D02*
D03*
Y59000D02*
D03*
D24*
X537591Y516001D02*
D03*
X526276Y527316D02*
D03*
X600640Y384880D02*
D03*
X611956Y373564D02*
D03*
X445579Y414655D02*
D03*
X434264Y425970D02*
D03*
D25*
X530500Y483500D02*
D03*
X540500D02*
D03*
X545500D02*
D03*
X550500D02*
D03*
X555500D02*
D03*
X560500D02*
D03*
X565500D02*
D03*
X570500D02*
D03*
X575500D02*
D03*
X580500D02*
D03*
X585500D02*
D03*
Y398500D02*
D03*
X575500D02*
D03*
X570500D02*
D03*
X565500D02*
D03*
X560500D02*
D03*
X555500D02*
D03*
X550500D02*
D03*
X545500D02*
D03*
X540500D02*
D03*
X535500D02*
D03*
X530500D02*
D03*
X535500Y483500D02*
D03*
X580500Y398500D02*
D03*
D26*
X600500Y468500D02*
D03*
Y458500D02*
D03*
Y448500D02*
D03*
Y443500D02*
D03*
Y438500D02*
D03*
Y433500D02*
D03*
Y428500D02*
D03*
Y423500D02*
D03*
Y418500D02*
D03*
Y413500D02*
D03*
X515500D02*
D03*
Y418500D02*
D03*
Y423500D02*
D03*
Y428500D02*
D03*
Y438500D02*
D03*
Y443500D02*
D03*
Y448500D02*
D03*
Y453500D02*
D03*
Y458500D02*
D03*
Y463500D02*
D03*
Y468500D02*
D03*
X600500Y453500D02*
D03*
Y463500D02*
D03*
X515500Y433500D02*
D03*
D27*
X493268Y519024D02*
D03*
Y500024D02*
D03*
X413512Y466192D02*
D03*
Y447192D02*
D03*
X499000Y325360D02*
D03*
Y344360D02*
D03*
X481500Y325360D02*
D03*
Y344360D02*
D03*
X657000Y296000D02*
D03*
Y277000D02*
D03*
X675000Y296000D02*
D03*
Y277000D02*
D03*
X655947Y128253D02*
D03*
Y109254D02*
D03*
X637947Y128253D02*
D03*
Y109254D02*
D03*
X620447Y128253D02*
D03*
Y109254D02*
D03*
X303000Y464500D02*
D03*
Y483500D02*
D03*
X321000Y464500D02*
D03*
Y483500D02*
D03*
X193934Y378206D02*
D03*
Y397206D02*
D03*
X211582Y378206D02*
D03*
Y397206D02*
D03*
D28*
X457454Y477965D02*
D03*
X446139Y466649D02*
D03*
D29*
X467615Y467803D02*
D03*
X457009Y426084D02*
D03*
X483172Y452247D02*
D03*
X441452Y441640D02*
D03*
D30*
X570000Y343498D02*
D03*
Y359500D02*
D03*
X556500Y343498D02*
D03*
Y359500D02*
D03*
X543500Y343498D02*
D03*
Y359500D02*
D03*
X529500Y343498D02*
D03*
Y359500D02*
D03*
X499000Y428500D02*
D03*
Y412498D02*
D03*
X532003Y302133D02*
D03*
Y286131D02*
D03*
Y257429D02*
D03*
Y273431D02*
D03*
X606000Y683001D02*
D03*
Y666999D02*
D03*
X580263Y668020D02*
D03*
Y684022D02*
D03*
X127550Y373498D02*
D03*
Y389500D02*
D03*
X161798Y313944D02*
D03*
Y329946D02*
D03*
X299500Y66499D02*
D03*
Y82501D02*
D03*
X188500Y38500D02*
D03*
Y22498D02*
D03*
X175704Y40195D02*
D03*
Y56198D02*
D03*
X118000Y58501D02*
D03*
Y42499D02*
D03*
D31*
X444000Y311550D02*
D03*
Y298850D02*
D03*
Y286150D02*
D03*
X499000Y273450D02*
D03*
Y286150D02*
D03*
Y298850D02*
D03*
Y311550D02*
D03*
X444000Y273450D02*
D03*
X582000Y296050D02*
D03*
Y283350D02*
D03*
Y270650D02*
D03*
X637000Y257950D02*
D03*
Y270650D02*
D03*
Y283350D02*
D03*
Y296050D02*
D03*
X582000Y257950D02*
D03*
X234500Y365450D02*
D03*
Y378150D02*
D03*
Y403550D02*
D03*
X289500D02*
D03*
Y390850D02*
D03*
Y378150D02*
D03*
Y365450D02*
D03*
X234500Y390850D02*
D03*
D32*
X427500Y300000D02*
D03*
Y311000D02*
D03*
D33*
X604931Y91313D02*
D03*
X576931D02*
D03*
X682500Y675000D02*
D03*
X654500D02*
D03*
X503000Y677500D02*
D03*
X531000D02*
D03*
D34*
X559918Y98425D02*
D03*
X550418D02*
D03*
X540918D02*
D03*
Y121925D02*
D03*
X559918D02*
D03*
X550418D02*
D03*
D35*
X560500Y62000D02*
D03*
X554000D02*
D03*
X547500D02*
D03*
X541000D02*
D03*
X534500D02*
D03*
D36*
X516500Y60775D02*
D03*
X578500D02*
D03*
D37*
X509500Y33500D02*
D03*
X585500D02*
D03*
D38*
X621538Y517779D02*
D03*
Y543179D02*
D03*
Y568579D02*
D03*
Y593979D02*
D03*
Y619379D02*
D03*
D39*
X405500Y167500D02*
D03*
D40*
X334500Y78000D02*
D03*
X463500D02*
D03*
D41*
X389128Y385318D02*
D03*
Y357318D02*
D03*
X205994Y517876D02*
D03*
Y545876D02*
D03*
D42*
X343000Y428500D02*
D03*
X389000D02*
D03*
X366000D02*
D03*
D43*
Y492500D02*
D03*
D44*
X265000Y574550D02*
D03*
X353000D02*
D03*
Y522450D02*
D03*
X265000D02*
D03*
D45*
X206062Y574548D02*
D03*
X242062D02*
D03*
D46*
X274000Y464500D02*
D03*
X214000D02*
D03*
D47*
X254168Y322580D02*
D03*
X275168D02*
D03*
D48*
X227076D02*
D03*
X183376D02*
D03*
D49*
X218500Y38500D02*
D03*
X248500D02*
D03*
X263500D02*
D03*
D50*
X277500Y31000D02*
D03*
X204500D02*
D03*
X277500Y11000D02*
D03*
X204500D02*
D03*
D51*
X105100Y250500D02*
D03*
X117800D02*
D03*
X130500D02*
D03*
X143200D02*
D03*
X155900D02*
D03*
X168600D02*
D03*
X181300D02*
D03*
X194000D02*
D03*
X206700D02*
D03*
X219400D02*
D03*
X232100D02*
D03*
X244800D02*
D03*
X257500D02*
D03*
Y80500D02*
D03*
X244800D02*
D03*
X232100D02*
D03*
X219400D02*
D03*
X206700D02*
D03*
X194000D02*
D03*
X181300D02*
D03*
X168600D02*
D03*
X155900D02*
D03*
X143200D02*
D03*
X130500D02*
D03*
X117800D02*
D03*
X105100D02*
D03*
X92400D02*
D03*
Y250500D02*
D03*
D52*
X267500Y222650D02*
D03*
Y209950D02*
D03*
Y197250D02*
D03*
Y184550D02*
D03*
Y171850D02*
D03*
Y159150D02*
D03*
Y146450D02*
D03*
Y133750D02*
D03*
Y121050D02*
D03*
Y108350D02*
D03*
D53*
X149050Y137150D02*
D03*
Y155500D02*
D03*
Y173850D02*
D03*
X167400Y137150D02*
D03*
Y155500D02*
D03*
Y173850D02*
D03*
X185750Y137150D02*
D03*
Y155500D02*
D03*
Y173850D02*
D03*
D54*
X167500Y498000D02*
D03*
D55*
X78000Y569000D02*
D03*
Y440000D02*
D03*
M02*
