G04*
G04 #@! TF.GenerationSoftware,Altium Limited,Altium Designer,22.10.1 (41)*
G04*
G04 Layer_Color=65535*
%FSLAX44Y44*%
%MOMM*%
G71*
G04*
G04 #@! TF.SameCoordinates,FF558BA5-466A-4189-8B58-D4AB7027BDE0*
G04*
G04*
G04 #@! TF.FilePolarity,Positive*
G04*
G01*
G75*
%ADD10C,0.2000*%
%ADD11C,0.5000*%
%ADD12C,0.0083*%
%ADD13C,0.0094*%
%ADD14C,0.1000*%
%ADD15C,0.2500*%
%ADD16C,0.3000*%
%ADD17C,0.4000*%
%ADD18C,0.1500*%
%ADD19C,0.2540*%
%ADD20R,0.6000X3.8000*%
G36*
X830888Y180594D02*
X824888Y174594D01*
Y186594D01*
X830888Y180594D01*
D02*
G37*
D10*
X865000Y265000D02*
G03*
X865000Y265000I-46000J0D01*
G01*
X464792Y317500D02*
G03*
X478208Y317500I6708J0D01*
G01*
X602792Y302000D02*
G03*
X616208Y302000I6708J0D01*
G01*
X568418Y127175D02*
G03*
X568418Y127175I-1000J0D01*
G01*
X268708Y359500D02*
G03*
X255292Y359500I-6708J0D01*
G01*
X415601Y259969D02*
G03*
X415601Y259969I-52000J0D01*
G01*
X114000Y348500D02*
G03*
X114000Y348500I-50000J0D01*
G01*
X115000Y661000D02*
G03*
X115000Y661000I-52000J0D01*
G01*
Y776000D02*
G03*
X115000Y776000I-52000J0D01*
G01*
X826000Y215000D02*
Y218000D01*
X812000Y215000D02*
X826000D01*
X812000D02*
Y218000D01*
X817806Y127158D02*
Y136158D01*
X826806D01*
X817806Y106158D02*
Y115158D01*
Y106158D02*
X826806D01*
X538000Y471000D02*
X588000D01*
X528000Y461000D02*
X538000Y471000D01*
X528000Y411000D02*
Y461000D01*
Y411000D02*
X588000D01*
Y471000D01*
X467969Y428559D02*
X479990Y440580D01*
X444634Y453308D02*
X455948Y464621D01*
X488500Y268500D02*
Y317500D01*
X454500Y268500D02*
X488500D01*
X454500D02*
Y317500D01*
X478208D02*
X488500D01*
X454500D02*
X464792D01*
X626500Y253000D02*
Y302000D01*
X592500Y253000D02*
X626500D01*
X592500D02*
Y302000D01*
X616208D02*
X626500D01*
X592500D02*
X602792D01*
X583931Y84313D02*
X597931D01*
X583931Y98313D02*
X597931D01*
X595931Y84313D02*
Y97313D01*
X509500Y15000D02*
X596500D01*
Y71000D01*
X498500D02*
X596500D01*
X498500Y15000D02*
Y71000D01*
Y15000D02*
X509500D01*
X638000Y660000D02*
Y669000D01*
X629000Y660000D02*
X638000D01*
Y681000D02*
Y690000D01*
X629000D02*
X638000D01*
X661500Y668000D02*
X675500D01*
X661500Y682000D02*
X675500D01*
X673500Y668000D02*
Y681000D01*
X616538Y501579D02*
Y508579D01*
Y501579D02*
X737538D01*
Y635579D01*
X616538D02*
X737538D01*
X616538Y628579D02*
Y635579D01*
X547550Y683500D02*
Y692500D01*
X556550D01*
X547550Y662500D02*
Y671500D01*
Y662500D02*
X556550D01*
X510000Y684500D02*
X524000D01*
X510000Y670500D02*
X524000D01*
X512000Y671500D02*
Y684500D01*
X714900Y915500D02*
Y990500D01*
X594900D02*
X714900D01*
X594900Y958500D02*
Y990500D01*
Y915500D02*
Y958500D01*
Y915500D02*
X714900D01*
X585100D02*
Y990500D01*
X465100D02*
X585100D01*
X465100Y958500D02*
Y990500D01*
Y915500D02*
Y958500D01*
Y915500D02*
X585100D01*
X319000Y113750D02*
Y183750D01*
X379000D01*
X429000D02*
X479000D01*
Y113750D02*
Y183750D01*
X382128Y366318D02*
X395128D01*
X396128Y364318D02*
Y378318D01*
X382128Y364318D02*
Y378318D01*
X333000Y478500D02*
X358000D01*
X333000Y442500D02*
Y478500D01*
Y442500D02*
X399000D01*
Y478500D01*
X358000D02*
X399000D01*
X276000Y507500D02*
Y589500D01*
X342000D01*
Y507500D02*
Y589500D01*
X276000Y507500D02*
X342000D01*
X283000Y515500D02*
Y528500D01*
Y569000D02*
Y582000D01*
X276500Y575500D02*
X289500D01*
X198994Y524876D02*
Y538876D01*
X212994Y524876D02*
Y538876D01*
X198994Y526876D02*
X211994D01*
X205000Y429500D02*
Y452500D01*
Y429500D02*
X259000D01*
X262000D01*
X276500Y444000D01*
X205000Y476500D02*
Y499500D01*
X259000D01*
X262000D01*
X276500Y485000D01*
X282000Y430500D02*
Y441500D01*
X276500Y436000D02*
X287500D01*
X268708Y359500D02*
X279000D01*
X245000D02*
X255292D01*
X279000D02*
Y408500D01*
X245000D02*
X279000D01*
X245000Y359500D02*
Y408500D01*
X396128Y269869D02*
X406027Y279768D01*
X396128D02*
X406027Y269869D01*
X233226Y335580D02*
Y341580D01*
X177226D02*
X233226D01*
X177226Y335580D02*
Y341580D01*
X233226Y303580D02*
Y309580D01*
X177226Y303580D02*
X233226D01*
X177226D02*
Y309580D01*
X129000Y329500D02*
Y338500D01*
X138000D01*
X129000Y308500D02*
Y317500D01*
Y308500D02*
X138000D01*
X201500Y36500D02*
Y48500D01*
X280500D01*
Y36500D02*
Y48500D01*
Y16500D02*
Y25500D01*
X201500Y16500D02*
Y25500D01*
X135000Y55500D02*
Y64500D01*
X144000D01*
X135000Y34500D02*
Y43500D01*
Y34500D02*
X144000D01*
X113750Y584500D02*
X183750D01*
Y524500D02*
Y584500D01*
Y424500D02*
Y474500D01*
X113750Y424500D02*
X183750D01*
X93000Y645000D02*
X107000D01*
X100000Y638000D02*
Y652000D01*
X93000Y760000D02*
X107000D01*
X100000Y753000D02*
Y767000D01*
X6000Y979000D02*
X81000D01*
X6000Y859000D02*
Y979000D01*
Y859000D02*
X38000D01*
X81000D01*
Y979000D01*
X694156Y181591D02*
X704153D01*
Y186589D01*
X702487Y188255D01*
X695823D01*
X694156Y186589D01*
Y181591D01*
X704153Y196586D02*
Y193254D01*
X702487Y191588D01*
X699155D01*
X697489Y193254D01*
Y196586D01*
X699155Y198252D01*
X700821D01*
Y191588D01*
X704153Y201584D02*
Y206583D01*
X702487Y208249D01*
X700821Y206583D01*
Y203250D01*
X699155Y201584D01*
X697489Y203250D01*
Y208249D01*
X704153Y211581D02*
Y214913D01*
Y213247D01*
X697489D01*
Y211581D01*
X707486Y223244D02*
Y224910D01*
X705819Y226576D01*
X697489D01*
Y221578D01*
X699155Y219912D01*
X702487D01*
X704153Y221578D01*
Y226576D01*
Y229909D02*
X697489D01*
Y234907D01*
X699155Y236573D01*
X704153D01*
Y244904D02*
Y241571D01*
X702487Y239905D01*
X699155D01*
X697489Y241571D01*
Y244904D01*
X699155Y246570D01*
X700821D01*
Y239905D01*
X694156Y256567D02*
X704153D01*
Y251568D01*
X702487Y249902D01*
X699155D01*
X697489Y251568D01*
Y256567D01*
X694156Y269896D02*
X704153D01*
Y274894D01*
X702487Y276560D01*
X700821D01*
X699155D01*
X697489Y274894D01*
Y269896D01*
Y279892D02*
X702487D01*
X704153Y281558D01*
Y286557D01*
X705819D01*
X707486Y284891D01*
Y283225D01*
X704153Y286557D02*
X697489D01*
X704153Y299886D02*
X694156D01*
X697489Y303218D01*
X694156Y306550D01*
X704153D01*
Y309883D02*
X702487D01*
Y311549D01*
X704153D01*
Y309883D01*
X694156Y324878D02*
Y318213D01*
X699155D01*
Y321546D01*
Y318213D01*
X704153D01*
X697489Y329876D02*
Y333209D01*
X699155Y334875D01*
X704153D01*
Y329876D01*
X702487Y328210D01*
X700821Y329876D01*
Y334875D01*
X695823Y339873D02*
X697489D01*
Y338207D01*
Y341539D01*
Y339873D01*
X702487D01*
X704153Y341539D01*
Y346538D02*
Y349870D01*
Y348204D01*
X697489D01*
Y346538D01*
X694156Y354868D02*
X704153D01*
X699155D01*
X697489Y356534D01*
Y359867D01*
X699155Y361533D01*
X704153D01*
Y374862D02*
X697489D01*
X694156Y378194D01*
X697489Y381526D01*
X704153D01*
X699155D01*
Y374862D01*
X707486Y388191D02*
Y389857D01*
X705819Y391523D01*
X697489D01*
Y386525D01*
X699155Y384859D01*
X702487D01*
X704153Y386525D01*
Y391523D01*
X697489Y396521D02*
Y399854D01*
X699155Y401520D01*
X704153D01*
Y396521D01*
X702487Y394855D01*
X700821Y396521D01*
Y401520D01*
X704153Y406518D02*
Y409851D01*
X702487Y411517D01*
X699155D01*
X697489Y409851D01*
Y406518D01*
X699155Y404852D01*
X702487D01*
X704153Y406518D01*
X707486Y418181D02*
Y419847D01*
X705819Y421513D01*
X697489D01*
Y416515D01*
X699155Y414849D01*
X702487D01*
X704153Y416515D01*
Y421513D01*
Y424846D02*
Y428178D01*
Y426512D01*
X694156D01*
Y424846D01*
X697489Y433176D02*
X702487D01*
X704153Y434842D01*
Y439841D01*
X697489D01*
D11*
X520000Y481000D02*
G03*
X520000Y481000I-2000J0D01*
G01*
D12*
X12691Y35963D02*
Y37791D01*
X12774Y35048D02*
Y38706D01*
X12857Y34467D02*
Y39287D01*
X12940Y33968D02*
Y39786D01*
X13023Y33552D02*
Y40202D01*
X13106Y33220D02*
Y40534D01*
X13190Y32887D02*
Y40867D01*
X13273Y32638D02*
Y41116D01*
X13356Y32389D02*
Y41448D01*
X13439Y32056D02*
Y41698D01*
X13522Y31807D02*
Y41947D01*
X13605Y31641D02*
Y42113D01*
X13688Y31391D02*
Y42363D01*
X13771Y31142D02*
Y42612D01*
X13854Y30976D02*
Y42778D01*
X13937Y30810D02*
Y42945D01*
X14021Y30643D02*
Y43194D01*
X14104Y30394D02*
Y43360D01*
X14187Y30228D02*
Y43526D01*
X14270Y30061D02*
Y43693D01*
X14353Y29895D02*
Y43859D01*
X14436Y29729D02*
Y44025D01*
X14519Y29563D02*
Y44191D01*
X14603Y29480D02*
Y44275D01*
X14686Y29313D02*
Y44441D01*
X14769Y29147D02*
Y44607D01*
X14852Y29064D02*
Y44773D01*
X14935Y28898D02*
Y44856D01*
X15018Y28732D02*
Y45023D01*
X15101Y28648D02*
Y45106D01*
X15184Y28482D02*
Y45272D01*
X15267Y28399D02*
Y45355D01*
X15351Y28233D02*
Y45521D01*
X15434Y28150D02*
Y45604D01*
X15517Y27984D02*
Y45771D01*
X15600Y27900D02*
Y45854D01*
X15683Y27817D02*
Y45937D01*
X15766Y27651D02*
Y46103D01*
X15849Y27568D02*
Y46186D01*
X15932Y27485D02*
Y46269D01*
X16015Y27402D02*
Y46352D01*
X16099Y27236D02*
Y46519D01*
X16182Y27152D02*
Y46602D01*
X16265Y27069D02*
Y46685D01*
X16348Y26986D02*
Y46768D01*
X16431Y26903D02*
Y46851D01*
X16514Y26737D02*
Y47017D01*
X16597Y26654D02*
Y47100D01*
X16680Y26570D02*
Y47183D01*
X16763Y26487D02*
Y47267D01*
X16847Y26404D02*
Y47350D01*
X16930Y26321D02*
Y47433D01*
X17013Y26238D02*
Y47516D01*
X17096Y26155D02*
Y47599D01*
X17179Y26072D02*
Y47682D01*
X17262Y25989D02*
Y47765D01*
X17345Y25906D02*
Y47849D01*
X17428Y25823D02*
Y47932D01*
X17512Y25739D02*
Y48015D01*
X17595Y25656D02*
Y48098D01*
X17678Y25573D02*
Y48181D01*
X17761Y25490D02*
Y48264D01*
X17844Y25407D02*
Y48347D01*
X17927Y25324D02*
Y48430D01*
X18010Y22082D02*
Y51672D01*
X18093Y21417D02*
Y52337D01*
X18176Y21002D02*
Y52752D01*
X18260Y20669D02*
Y53085D01*
X18343Y20420D02*
Y53334D01*
X18426Y20171D02*
Y53584D01*
X18509Y20004D02*
Y53750D01*
X18592Y19755D02*
Y53999D01*
X18675Y19589D02*
Y54165D01*
X18758Y19422D02*
Y54332D01*
X18841Y19256D02*
Y54498D01*
X18924Y19090D02*
Y54664D01*
X19008Y19007D02*
Y54747D01*
X19091Y18841D02*
Y54914D01*
X19174Y18757D02*
Y54997D01*
X19257Y18591D02*
Y55163D01*
X19340Y18508D02*
Y55246D01*
X19423Y18342D02*
Y55412D01*
X19506Y18259D02*
Y55495D01*
X19590Y18176D02*
Y55578D01*
X19673Y18093D02*
Y55662D01*
X19756Y17926D02*
Y55828D01*
X19839Y17843D02*
Y41698D01*
Y51173D02*
Y55911D01*
X19922Y17760D02*
Y40950D01*
Y52004D02*
Y55994D01*
X20005Y17677D02*
Y40617D01*
Y52337D02*
Y56077D01*
X20088Y17594D02*
Y40368D01*
Y52669D02*
Y56160D01*
X20171Y17511D02*
Y40202D01*
Y52919D02*
Y56243D01*
X20254Y17428D02*
Y40036D01*
Y53085D02*
Y56326D01*
X20338Y17344D02*
Y39869D01*
Y53334D02*
Y56410D01*
X20421Y17344D02*
Y39703D01*
Y53500D02*
Y56410D01*
X20504Y17261D02*
Y39537D01*
Y53584D02*
Y56493D01*
X20587Y17178D02*
Y39454D01*
Y53750D02*
Y56576D01*
X20670Y17095D02*
Y39371D01*
Y53916D02*
Y56659D01*
X20753Y17012D02*
Y39204D01*
Y53999D02*
Y56742D01*
X20836Y16929D02*
Y39121D01*
Y54165D02*
Y56742D01*
X20919Y16929D02*
Y39038D01*
Y54248D02*
Y56825D01*
X21003Y16846D02*
Y38955D01*
Y54332D02*
Y56908D01*
X21086Y16763D02*
Y38872D01*
Y54498D02*
Y56991D01*
X21169Y16763D02*
Y38789D01*
Y54581D02*
Y56991D01*
X21252Y16680D02*
Y38706D01*
Y54664D02*
Y57074D01*
X21335Y16596D02*
Y38706D01*
Y54747D02*
Y57158D01*
X21418Y16596D02*
Y38623D01*
Y54830D02*
Y57158D01*
X21501Y16513D02*
Y38539D01*
Y54914D02*
Y57241D01*
X21584Y16513D02*
Y38456D01*
Y54997D02*
Y57241D01*
X21667Y16430D02*
Y38456D01*
Y55080D02*
Y57324D01*
X21751Y16347D02*
Y38373D01*
Y55163D02*
Y57324D01*
X21834Y16347D02*
Y38373D01*
Y55163D02*
Y57407D01*
X21917Y16264D02*
Y38290D01*
Y55246D02*
Y57407D01*
X22000Y16264D02*
Y38207D01*
Y55329D02*
Y57490D01*
X22083Y16181D02*
Y38207D01*
Y55412D02*
Y57490D01*
X22166Y16181D02*
Y38124D01*
Y55412D02*
Y57573D01*
X22249Y16181D02*
Y38124D01*
Y55495D02*
Y57573D01*
X22332Y16098D02*
Y38124D01*
Y55495D02*
Y57656D01*
X22415Y16098D02*
Y38041D01*
Y55578D02*
Y57656D01*
X22499Y16015D02*
Y33719D01*
Y33802D02*
Y38041D01*
Y41282D02*
Y48513D01*
Y51838D02*
Y52919D01*
Y55662D02*
Y57739D01*
X22582Y16015D02*
Y20254D01*
Y20669D02*
Y24576D01*
Y25241D02*
Y28898D01*
Y29729D02*
Y33303D01*
Y34217D02*
Y38041D01*
Y41116D02*
Y48680D01*
Y51672D02*
Y53085D01*
Y55662D02*
Y57739D01*
X22665Y16015D02*
Y19921D01*
Y20919D02*
Y24326D01*
Y25490D02*
Y28732D01*
Y29978D02*
Y33137D01*
Y34383D02*
Y37958D01*
Y40950D02*
Y48846D01*
Y51506D02*
Y53251D01*
Y55745D02*
Y57739D01*
X22748Y15932D02*
Y19755D01*
Y21085D02*
Y24160D01*
Y25656D02*
Y28565D01*
Y30061D02*
Y32970D01*
Y34550D02*
Y37958D01*
Y40867D02*
Y48929D01*
Y51423D02*
Y53334D01*
Y55745D02*
Y57822D01*
X22831Y15932D02*
Y19672D01*
Y21251D02*
Y24077D01*
Y25739D02*
Y28482D01*
Y30145D02*
Y32887D01*
Y34633D02*
Y37958D01*
Y40784D02*
Y49012D01*
Y51339D02*
Y53417D01*
Y55828D02*
Y57822D01*
X22914Y15932D02*
Y19589D01*
Y21334D02*
Y23994D01*
Y25823D02*
Y28399D01*
Y30228D02*
Y32804D01*
Y34716D02*
Y37874D01*
Y40700D02*
Y49095D01*
Y51256D02*
Y53500D01*
Y55828D02*
Y57822D01*
X22997Y15848D02*
Y19506D01*
Y21417D02*
Y23911D01*
Y25906D02*
Y28316D01*
Y30311D02*
Y32721D01*
Y34799D02*
Y37874D01*
Y40617D02*
Y49095D01*
Y51256D02*
Y53584D01*
Y55911D02*
Y57906D01*
X23080Y15848D02*
Y19422D01*
Y21500D02*
Y23828D01*
Y25989D02*
Y28233D01*
Y30394D02*
Y32721D01*
Y34882D02*
Y37874D01*
Y40534D02*
Y49178D01*
Y51173D02*
Y53584D01*
Y55911D02*
Y57906D01*
X23163Y15848D02*
Y19422D01*
Y21583D02*
Y23744D01*
Y26072D02*
Y28233D01*
Y30394D02*
Y32638D01*
Y34882D02*
Y37874D01*
Y40534D02*
Y49178D01*
Y51173D02*
Y53667D01*
Y55994D02*
Y57906D01*
X23247Y15765D02*
Y19339D01*
Y21667D02*
Y23744D01*
Y26072D02*
Y28150D01*
Y30477D02*
Y32638D01*
Y34965D02*
Y37874D01*
Y40451D02*
Y49261D01*
Y51090D02*
Y53667D01*
Y55994D02*
Y57989D01*
X23330Y15765D02*
Y19339D01*
Y21667D02*
Y23661D01*
Y26155D02*
Y28150D01*
Y30477D02*
Y32555D01*
Y34965D02*
Y37874D01*
Y40451D02*
Y49261D01*
Y51090D02*
Y53667D01*
Y55994D02*
Y57989D01*
X23413Y15765D02*
Y19339D01*
Y21750D02*
Y23661D01*
Y26155D02*
Y28067D01*
Y30477D02*
Y32555D01*
Y34965D02*
Y37791D01*
Y40451D02*
Y49261D01*
Y51090D02*
Y53750D01*
Y56077D02*
Y57989D01*
X23496Y15765D02*
Y19256D01*
Y21750D02*
Y23661D01*
Y26155D02*
Y28067D01*
Y30560D02*
Y32555D01*
Y35048D02*
Y37791D01*
Y40368D02*
Y49345D01*
Y51007D02*
Y53750D01*
Y56077D02*
Y57989D01*
X23579Y15682D02*
Y19256D01*
Y21750D02*
Y23578D01*
Y26238D02*
Y28067D01*
Y30560D02*
Y32472D01*
Y35048D02*
Y37791D01*
Y40368D02*
Y49345D01*
Y51007D02*
Y53750D01*
Y56077D02*
Y58072D01*
X23662Y15682D02*
Y19256D01*
Y21833D02*
Y23578D01*
Y26238D02*
Y27984D01*
Y30560D02*
Y32472D01*
Y35048D02*
Y37791D01*
Y40368D02*
Y49345D01*
Y51007D02*
Y53750D01*
Y56160D02*
Y58072D01*
X23745Y15682D02*
Y19256D01*
Y21833D02*
Y23578D01*
Y26238D02*
Y27984D01*
Y30560D02*
Y32472D01*
Y35048D02*
Y37791D01*
Y40368D02*
Y49345D01*
Y51007D02*
Y53750D01*
Y56160D02*
Y58072D01*
X23828Y15682D02*
Y19256D01*
Y21833D02*
Y23495D01*
Y26321D02*
Y27984D01*
Y30560D02*
Y32472D01*
Y35048D02*
Y37791D01*
Y40368D02*
Y49345D01*
Y51007D02*
Y53750D01*
Y56160D02*
Y58072D01*
X23912Y15682D02*
Y19256D01*
Y21833D02*
Y23495D01*
Y26321D02*
Y27984D01*
Y30560D02*
Y32472D01*
Y35048D02*
Y37791D01*
Y40368D02*
Y49345D01*
Y51007D02*
Y53750D01*
Y56160D02*
Y58072D01*
X23995Y15599D02*
Y19256D01*
Y21916D02*
Y23495D01*
Y26321D02*
Y27900D01*
Y30560D02*
Y32472D01*
Y35048D02*
Y37791D01*
Y40368D02*
Y49345D01*
Y51007D02*
Y53750D01*
Y56243D02*
Y58072D01*
X24078Y15599D02*
Y19256D01*
Y21916D02*
Y23495D01*
Y26321D02*
Y27900D01*
Y30560D02*
Y32555D01*
Y35048D02*
Y37791D01*
Y40368D02*
Y49345D01*
Y51007D02*
Y53750D01*
Y56243D02*
Y58155D01*
X24161Y15599D02*
Y19256D01*
Y21916D02*
Y23412D01*
Y26404D02*
Y27900D01*
Y30560D02*
Y32555D01*
Y34965D02*
Y37791D01*
Y40368D02*
Y49261D01*
Y51090D02*
Y53750D01*
Y56243D02*
Y58155D01*
X24244Y15599D02*
Y19339D01*
Y21999D02*
Y23412D01*
Y26404D02*
Y27817D01*
Y30477D02*
Y32555D01*
Y34965D02*
Y37791D01*
Y40368D02*
Y49261D01*
Y51090D02*
Y53667D01*
Y56243D02*
Y58155D01*
X24327Y15599D02*
Y19339D01*
Y21999D02*
Y23412D01*
Y26404D02*
Y27817D01*
Y30477D02*
Y32638D01*
Y34965D02*
Y37791D01*
Y40368D02*
Y49261D01*
Y51090D02*
Y53667D01*
Y56243D02*
Y58155D01*
X24410Y15599D02*
Y19339D01*
Y21999D02*
Y23412D01*
Y26404D02*
Y27817D01*
Y30477D02*
Y32638D01*
Y34882D02*
Y37791D01*
Y40368D02*
Y49178D01*
Y51173D02*
Y53667D01*
Y56326D02*
Y58155D01*
X24493Y15599D02*
Y19339D01*
Y21999D02*
Y23329D01*
Y26487D02*
Y27817D01*
Y30477D02*
Y32721D01*
Y34882D02*
Y37791D01*
Y40368D02*
Y49178D01*
Y51173D02*
Y53584D01*
Y56326D02*
Y58155D01*
X24576Y15599D02*
Y19422D01*
Y22082D02*
Y23329D01*
Y26487D02*
Y27734D01*
Y30394D02*
Y32721D01*
Y34799D02*
Y37791D01*
Y40368D02*
Y49095D01*
Y51256D02*
Y53584D01*
Y56326D02*
Y58155D01*
X24660Y15599D02*
Y19422D01*
Y22082D02*
Y23329D01*
Y26487D02*
Y27734D01*
Y30394D02*
Y32804D01*
Y34716D02*
Y37791D01*
Y40368D02*
Y49095D01*
Y51256D02*
Y53500D01*
Y56326D02*
Y58155D01*
X24743Y15599D02*
Y19422D01*
Y22082D02*
Y23246D01*
Y26570D02*
Y27734D01*
Y30394D02*
Y32887D01*
Y34633D02*
Y37791D01*
Y40368D02*
Y49012D01*
Y51339D02*
Y53417D01*
Y56326D02*
Y58155D01*
X24826Y15599D02*
Y19506D01*
Y22082D02*
Y23246D01*
Y26570D02*
Y27734D01*
Y30311D02*
Y32970D01*
Y34550D02*
Y37791D01*
Y40368D02*
Y48929D01*
Y51423D02*
Y53334D01*
Y56326D02*
Y58155D01*
X24909Y15599D02*
Y19506D01*
Y22165D02*
Y23246D01*
Y26570D02*
Y27651D01*
Y30311D02*
Y33137D01*
Y34383D02*
Y37791D01*
Y40368D02*
Y48846D01*
Y51506D02*
Y53251D01*
Y56326D02*
Y58155D01*
X24992Y15599D02*
Y19506D01*
Y22165D02*
Y23246D01*
Y26570D02*
Y27651D01*
Y30311D02*
Y33303D01*
Y34217D02*
Y37791D01*
Y40368D02*
Y48680D01*
Y51672D02*
Y53085D01*
Y56326D02*
Y58155D01*
X25075Y15599D02*
Y19506D01*
Y22165D02*
Y23163D01*
Y26654D02*
Y27651D01*
Y30311D02*
Y33719D01*
Y33802D02*
Y37791D01*
Y40368D02*
Y48513D01*
Y51838D02*
Y52919D01*
Y56326D02*
Y58155D01*
X25158Y15599D02*
Y19589D01*
Y22248D02*
Y23163D01*
Y26654D02*
Y27568D01*
Y30228D02*
Y37791D01*
Y40368D02*
Y43111D01*
Y56326D02*
Y58155D01*
X25241Y15599D02*
Y19589D01*
Y22248D02*
Y23163D01*
Y26654D02*
Y27568D01*
Y30228D02*
Y37791D01*
Y40368D02*
Y43111D01*
Y56326D02*
Y58155D01*
X25325Y15599D02*
Y19589D01*
Y22248D02*
Y23163D01*
Y26654D02*
Y27568D01*
Y30228D02*
Y37791D01*
Y40368D02*
Y43111D01*
Y56326D02*
Y58155D01*
X25408Y15599D02*
Y19589D01*
Y22248D02*
Y23080D01*
Y26737D02*
Y27568D01*
Y30228D02*
Y37791D01*
Y40368D02*
Y43111D01*
Y56326D02*
Y58155D01*
X25491Y15599D02*
Y19672D01*
Y22332D02*
Y23080D01*
Y26737D02*
Y27485D01*
Y30145D02*
Y37791D01*
Y40368D02*
Y43111D01*
Y56326D02*
Y58155D01*
X25574Y15599D02*
Y19672D01*
Y22332D02*
Y23080D01*
Y26737D02*
Y27485D01*
Y30145D02*
Y37791D01*
Y40368D02*
Y43111D01*
Y56326D02*
Y58155D01*
X25657Y15599D02*
Y19672D01*
Y22332D02*
Y22996D01*
Y26820D02*
Y27485D01*
Y30145D02*
Y37791D01*
Y40368D02*
Y43111D01*
Y56326D02*
Y58155D01*
X25740Y15599D02*
Y19755D01*
Y22332D02*
Y22996D01*
Y26820D02*
Y27485D01*
Y30061D02*
Y37791D01*
Y40368D02*
Y43111D01*
Y56326D02*
Y58155D01*
X25823Y15599D02*
Y19755D01*
Y22415D02*
Y22996D01*
Y26820D02*
Y27402D01*
Y30061D02*
Y37791D01*
Y40368D02*
Y43111D01*
Y56326D02*
Y58155D01*
X25906Y15599D02*
Y19755D01*
Y22415D02*
Y22996D01*
Y26820D02*
Y27402D01*
Y30061D02*
Y37791D01*
Y40368D02*
Y43111D01*
Y56326D02*
Y58155D01*
X25989Y15599D02*
Y19755D01*
Y22415D02*
Y22913D01*
Y26903D02*
Y27402D01*
Y30061D02*
Y37791D01*
Y40368D02*
Y43111D01*
Y52087D02*
Y52669D01*
Y56326D02*
Y58155D01*
X26073Y15599D02*
Y19838D01*
Y22498D02*
Y22913D01*
Y26903D02*
Y27319D01*
Y29978D02*
Y33552D01*
Y34051D02*
Y37791D01*
Y40368D02*
Y43111D01*
Y51838D02*
Y53002D01*
Y56326D02*
Y58155D01*
X26156Y15599D02*
Y19838D01*
Y22498D02*
Y22913D01*
Y26903D02*
Y27319D01*
Y29978D02*
Y33220D01*
Y34300D02*
Y37791D01*
Y40368D02*
Y43111D01*
Y51672D02*
Y53168D01*
Y56326D02*
Y58155D01*
X26239Y15599D02*
Y19838D01*
Y22498D02*
Y22913D01*
Y26903D02*
Y27319D01*
Y29978D02*
Y33054D01*
Y34467D02*
Y37791D01*
Y40368D02*
Y43111D01*
Y51506D02*
Y53251D01*
Y56326D02*
Y58155D01*
X26322Y15599D02*
Y19838D01*
Y22498D02*
Y22830D01*
Y26986D02*
Y27319D01*
Y29978D02*
Y32970D01*
Y34550D02*
Y37791D01*
Y40368D02*
Y43111D01*
Y51423D02*
Y53334D01*
Y56326D02*
Y58155D01*
X26405Y15599D02*
Y19921D01*
Y22581D02*
Y22830D01*
Y26986D02*
Y27236D01*
Y29895D02*
Y32887D01*
Y34716D02*
Y37791D01*
Y40368D02*
Y43111D01*
Y51339D02*
Y53417D01*
Y56326D02*
Y58155D01*
X26488Y15599D02*
Y19921D01*
Y22581D02*
Y22830D01*
Y26986D02*
Y27236D01*
Y29895D02*
Y32804D01*
Y34799D02*
Y37791D01*
Y40368D02*
Y43111D01*
Y51256D02*
Y53500D01*
Y56326D02*
Y58155D01*
X26571Y15599D02*
Y19921D01*
Y22581D02*
Y22747D01*
Y27069D02*
Y27236D01*
Y29895D02*
Y32721D01*
Y34799D02*
Y37791D01*
Y40368D02*
Y43111D01*
Y51173D02*
Y53584D01*
Y56326D02*
Y58155D01*
X26654Y15599D02*
Y20004D01*
Y22581D02*
Y22747D01*
Y27069D02*
Y27236D01*
Y29812D02*
Y32638D01*
Y34882D02*
Y37791D01*
Y40368D02*
Y43111D01*
Y51173D02*
Y53584D01*
Y56326D02*
Y58155D01*
X26737Y15599D02*
Y20004D01*
Y22664D02*
Y22747D01*
Y27069D02*
Y27152D01*
Y29812D02*
Y32638D01*
Y34965D02*
Y37791D01*
Y40368D02*
Y43111D01*
Y51090D02*
Y53667D01*
Y56326D02*
Y58155D01*
X26821Y15599D02*
Y20004D01*
Y29812D02*
Y32555D01*
Y34965D02*
Y37791D01*
Y40368D02*
Y43111D01*
Y51090D02*
Y53667D01*
Y56326D02*
Y58155D01*
X26904Y15599D02*
Y20004D01*
Y29812D02*
Y32555D01*
Y34965D02*
Y37791D01*
Y40368D02*
Y46602D01*
Y51090D02*
Y53750D01*
Y56326D02*
Y58155D01*
X26987Y15599D02*
Y20087D01*
Y29729D02*
Y32555D01*
Y35048D02*
Y37791D01*
Y40368D02*
Y46851D01*
Y51090D02*
Y53750D01*
Y56326D02*
Y58155D01*
X27070Y15599D02*
Y20087D01*
Y29729D02*
Y32472D01*
Y35048D02*
Y37791D01*
Y40368D02*
Y47017D01*
Y51007D02*
Y53750D01*
Y56326D02*
Y58155D01*
X27153Y15599D02*
Y20087D01*
Y29729D02*
Y32472D01*
Y35048D02*
Y37791D01*
Y40368D02*
Y47100D01*
Y51007D02*
Y53750D01*
Y56326D02*
Y58155D01*
X27236Y15599D02*
Y20087D01*
Y29729D02*
Y32472D01*
Y35048D02*
Y37791D01*
Y40368D02*
Y47183D01*
Y51007D02*
Y53750D01*
Y56326D02*
Y58155D01*
X27319Y15599D02*
Y20171D01*
Y29646D02*
Y32472D01*
Y35048D02*
Y37791D01*
Y40368D02*
Y47267D01*
Y51007D02*
Y53750D01*
Y56326D02*
Y58155D01*
X27403Y15599D02*
Y20171D01*
Y29646D02*
Y32472D01*
Y35048D02*
Y37791D01*
Y40368D02*
Y47350D01*
Y51007D02*
Y53750D01*
Y56326D02*
Y58155D01*
X27486Y15599D02*
Y20171D01*
Y29646D02*
Y32472D01*
Y35048D02*
Y37791D01*
Y40368D02*
Y47350D01*
Y51007D02*
Y53750D01*
Y56326D02*
Y58155D01*
X27569Y15599D02*
Y20254D01*
Y29563D02*
Y32472D01*
Y35048D02*
Y37791D01*
Y40368D02*
Y47433D01*
Y51007D02*
Y53750D01*
Y56326D02*
Y58155D01*
X27652Y15599D02*
Y20254D01*
Y29563D02*
Y32472D01*
Y35048D02*
Y37791D01*
Y40368D02*
Y47433D01*
Y51007D02*
Y53750D01*
Y56326D02*
Y58155D01*
X27735Y15599D02*
Y20254D01*
Y29563D02*
Y32472D01*
Y35048D02*
Y37791D01*
Y40368D02*
Y47516D01*
Y51007D02*
Y53750D01*
Y56326D02*
Y58155D01*
X27818Y15599D02*
Y20254D01*
Y29563D02*
Y32472D01*
Y35048D02*
Y37791D01*
Y40368D02*
Y47516D01*
Y51007D02*
Y53750D01*
Y56326D02*
Y58155D01*
X27901Y15599D02*
Y20337D01*
Y29480D02*
Y32472D01*
Y35048D02*
Y37791D01*
Y40368D02*
Y47516D01*
Y51007D02*
Y53750D01*
Y56326D02*
Y58155D01*
X27984Y15599D02*
Y20337D01*
Y29480D02*
Y32472D01*
Y35048D02*
Y37791D01*
Y40368D02*
Y47516D01*
Y51007D02*
Y53750D01*
Y56326D02*
Y58155D01*
X28067Y15599D02*
Y20337D01*
Y29480D02*
Y32472D01*
Y35048D02*
Y37791D01*
Y40368D02*
Y47516D01*
Y51007D02*
Y53750D01*
Y56326D02*
Y58155D01*
X28150Y15599D02*
Y20420D01*
Y29397D02*
Y32472D01*
Y35048D02*
Y37791D01*
Y40368D02*
Y47516D01*
Y51007D02*
Y53750D01*
Y56326D02*
Y58155D01*
X28234Y15599D02*
Y20420D01*
Y29397D02*
Y32472D01*
Y35048D02*
Y37791D01*
Y40368D02*
Y47516D01*
Y51007D02*
Y53750D01*
Y56326D02*
Y58155D01*
X28317Y15599D02*
Y20420D01*
Y29397D02*
Y32472D01*
Y35048D02*
Y37791D01*
Y40368D02*
Y47516D01*
Y51007D02*
Y53750D01*
Y56326D02*
Y58155D01*
X28400Y15599D02*
Y20420D01*
Y29397D02*
Y32472D01*
Y35048D02*
Y37791D01*
Y40368D02*
Y47516D01*
Y51007D02*
Y53750D01*
Y56326D02*
Y58155D01*
X28483Y15599D02*
Y20503D01*
Y29313D02*
Y32472D01*
Y35048D02*
Y37791D01*
Y40368D02*
Y47516D01*
Y51007D02*
Y53750D01*
Y56326D02*
Y58155D01*
X28566Y15599D02*
Y20503D01*
Y29313D02*
Y32472D01*
Y35048D02*
Y37791D01*
Y40368D02*
Y47516D01*
Y51007D02*
Y53750D01*
Y56326D02*
Y58155D01*
X28649Y15599D02*
Y20503D01*
Y29313D02*
Y32472D01*
Y35048D02*
Y37791D01*
Y40368D02*
Y47516D01*
Y51007D02*
Y53750D01*
Y56326D02*
Y58155D01*
X28732Y15599D02*
Y20503D01*
Y29313D02*
Y32472D01*
Y35048D02*
Y37791D01*
Y40368D02*
Y47516D01*
Y51007D02*
Y53750D01*
Y56326D02*
Y58155D01*
X28816Y15599D02*
Y20586D01*
Y24825D02*
Y24991D01*
Y29230D02*
Y32472D01*
Y35048D02*
Y37791D01*
Y40368D02*
Y47433D01*
Y51007D02*
Y53750D01*
Y56326D02*
Y58155D01*
X28899Y15599D02*
Y20586D01*
Y24825D02*
Y24991D01*
Y29230D02*
Y32472D01*
Y35048D02*
Y37791D01*
Y40368D02*
Y47433D01*
Y51007D02*
Y53750D01*
Y56326D02*
Y58155D01*
X28982Y15599D02*
Y20586D01*
Y24825D02*
Y24991D01*
Y29230D02*
Y32472D01*
Y35048D02*
Y37791D01*
Y40368D02*
Y47350D01*
Y51007D02*
Y53750D01*
Y56326D02*
Y58155D01*
X29065Y15599D02*
Y20669D01*
Y24825D02*
Y24991D01*
Y29147D02*
Y32472D01*
Y35048D02*
Y37791D01*
Y40368D02*
Y47267D01*
Y51007D02*
Y53750D01*
Y56326D02*
Y58155D01*
X29148Y15599D02*
Y20669D01*
Y24742D02*
Y25074D01*
Y29147D02*
Y32472D01*
Y35048D02*
Y37791D01*
Y40368D02*
Y47267D01*
Y51007D02*
Y53750D01*
Y56326D02*
Y58155D01*
X29231Y15599D02*
Y20669D01*
Y24742D02*
Y25074D01*
Y29147D02*
Y32472D01*
Y35048D02*
Y37791D01*
Y40368D02*
Y47183D01*
Y51007D02*
Y53750D01*
Y56326D02*
Y58155D01*
X29314Y15599D02*
Y20669D01*
Y24742D02*
Y25074D01*
Y29147D02*
Y32472D01*
Y35048D02*
Y37791D01*
Y40368D02*
Y47100D01*
Y51007D02*
Y53750D01*
Y56326D02*
Y58155D01*
X29397Y15599D02*
Y20752D01*
Y24659D02*
Y25157D01*
Y29064D02*
Y32472D01*
Y35048D02*
Y37791D01*
Y40368D02*
Y46934D01*
Y51007D02*
Y53750D01*
Y56326D02*
Y58155D01*
X29480Y15599D02*
Y20752D01*
Y24659D02*
Y25157D01*
Y29064D02*
Y32472D01*
Y35048D02*
Y37791D01*
Y40368D02*
Y46768D01*
Y51007D02*
Y53750D01*
Y56326D02*
Y58155D01*
X29564Y15599D02*
Y20752D01*
Y24659D02*
Y25157D01*
Y29064D02*
Y32472D01*
Y35048D02*
Y37791D01*
Y40368D02*
Y46519D01*
Y51007D02*
Y53750D01*
Y56326D02*
Y58155D01*
X29647Y15599D02*
Y20752D01*
Y24659D02*
Y25157D01*
Y29064D02*
Y32472D01*
Y35048D02*
Y37791D01*
Y40368D02*
Y43111D01*
Y51007D02*
Y53750D01*
Y56326D02*
Y58155D01*
X29730Y15599D02*
Y20835D01*
Y24576D02*
Y25241D01*
Y28981D02*
Y32472D01*
Y35048D02*
Y37791D01*
Y40368D02*
Y43111D01*
Y51007D02*
Y53750D01*
Y56326D02*
Y58155D01*
X29813Y15599D02*
Y20835D01*
Y24576D02*
Y25241D01*
Y28981D02*
Y32472D01*
Y35048D02*
Y37791D01*
Y40368D02*
Y43111D01*
Y51007D02*
Y53750D01*
Y56326D02*
Y58155D01*
X29896Y15599D02*
Y20835D01*
Y24576D02*
Y25241D01*
Y28981D02*
Y32472D01*
Y35048D02*
Y37791D01*
Y40368D02*
Y43111D01*
Y51007D02*
Y53750D01*
Y56326D02*
Y58155D01*
X29979Y15599D02*
Y20919D01*
Y24493D02*
Y25324D01*
Y28898D02*
Y32472D01*
Y35048D02*
Y37791D01*
Y40368D02*
Y43111D01*
Y51007D02*
Y53750D01*
Y56326D02*
Y58155D01*
X30062Y15599D02*
Y20919D01*
Y24493D02*
Y25324D01*
Y28898D02*
Y32472D01*
Y35048D02*
Y37791D01*
Y40368D02*
Y43111D01*
Y51007D02*
Y53750D01*
Y56326D02*
Y58155D01*
X30145Y15599D02*
Y20919D01*
Y24493D02*
Y25324D01*
Y28898D02*
Y32472D01*
Y35048D02*
Y37791D01*
Y40368D02*
Y43111D01*
Y51007D02*
Y53750D01*
Y56326D02*
Y58155D01*
X30229Y15599D02*
Y20919D01*
Y24493D02*
Y25324D01*
Y28898D02*
Y32472D01*
Y35048D02*
Y37791D01*
Y40368D02*
Y43111D01*
Y51007D02*
Y53750D01*
Y56326D02*
Y58155D01*
X30312Y15599D02*
Y21002D01*
Y24409D02*
Y25407D01*
Y28815D02*
Y32472D01*
Y35048D02*
Y37791D01*
Y40368D02*
Y43111D01*
Y51007D02*
Y53750D01*
Y56326D02*
Y58155D01*
X30395Y15599D02*
Y21002D01*
Y24409D02*
Y25407D01*
Y28815D02*
Y32472D01*
Y35048D02*
Y37791D01*
Y40368D02*
Y43111D01*
Y51007D02*
Y53750D01*
Y56326D02*
Y58155D01*
X30478Y15599D02*
Y21002D01*
Y24409D02*
Y25407D01*
Y28815D02*
Y32472D01*
Y35048D02*
Y37791D01*
Y40368D02*
Y43111D01*
Y51007D02*
Y53750D01*
Y56326D02*
Y58155D01*
X30561Y15599D02*
Y21002D01*
Y24326D02*
Y25490D01*
Y28815D02*
Y32472D01*
Y35048D02*
Y37791D01*
Y40368D02*
Y43111D01*
Y51007D02*
Y53750D01*
Y56326D02*
Y58155D01*
X30644Y15599D02*
Y21085D01*
Y24326D02*
Y25490D01*
Y28732D02*
Y32472D01*
Y35048D02*
Y37791D01*
Y40368D02*
Y43111D01*
Y51007D02*
Y53750D01*
Y56326D02*
Y58155D01*
X30727Y15599D02*
Y21085D01*
Y24326D02*
Y25490D01*
Y28732D02*
Y32472D01*
Y35048D02*
Y37791D01*
Y40368D02*
Y43111D01*
Y51007D02*
Y53750D01*
Y56326D02*
Y58155D01*
X30810Y15599D02*
Y21085D01*
Y24326D02*
Y25490D01*
Y28732D02*
Y32472D01*
Y35048D02*
Y37791D01*
Y40368D02*
Y43111D01*
Y51007D02*
Y53750D01*
Y56326D02*
Y58155D01*
X30893Y15599D02*
Y21168D01*
Y24243D02*
Y25573D01*
Y28648D02*
Y32472D01*
Y35048D02*
Y37791D01*
Y40368D02*
Y43111D01*
Y51007D02*
Y53750D01*
Y56326D02*
Y58155D01*
X30977Y15599D02*
Y21168D01*
Y24243D02*
Y25573D01*
Y28648D02*
Y32472D01*
Y35048D02*
Y37791D01*
Y40368D02*
Y43111D01*
Y51007D02*
Y53750D01*
Y56326D02*
Y58155D01*
X31060Y15599D02*
Y21168D01*
Y24243D02*
Y25573D01*
Y28648D02*
Y32472D01*
Y35048D02*
Y37791D01*
Y40368D02*
Y43111D01*
Y51007D02*
Y53750D01*
Y56326D02*
Y58155D01*
X31143Y15599D02*
Y21168D01*
Y24160D02*
Y25656D01*
Y28648D02*
Y32472D01*
Y35048D02*
Y37791D01*
Y40368D02*
Y43111D01*
Y51007D02*
Y53750D01*
Y56326D02*
Y58155D01*
X31226Y15599D02*
Y21251D01*
Y24160D02*
Y25656D01*
Y28565D02*
Y32472D01*
Y35048D02*
Y37791D01*
Y40368D02*
Y43111D01*
Y51007D02*
Y53750D01*
Y56243D02*
Y58155D01*
X31309Y15599D02*
Y21251D01*
Y24160D02*
Y25656D01*
Y28565D02*
Y32472D01*
Y35048D02*
Y37791D01*
Y40368D02*
Y43111D01*
Y51007D02*
Y53750D01*
Y56243D02*
Y58155D01*
X31392Y15599D02*
Y21251D01*
Y24160D02*
Y25656D01*
Y28565D02*
Y32472D01*
Y35048D02*
Y37791D01*
Y40368D02*
Y43111D01*
Y51007D02*
Y53750D01*
Y56243D02*
Y58155D01*
X31475Y15599D02*
Y21251D01*
Y24077D02*
Y25739D01*
Y28565D02*
Y32472D01*
Y35048D02*
Y37791D01*
Y40368D02*
Y43111D01*
Y51007D02*
Y53750D01*
Y56243D02*
Y58155D01*
X31558Y15599D02*
Y21334D01*
Y24077D02*
Y25739D01*
Y28482D02*
Y32472D01*
Y35048D02*
Y37791D01*
Y40368D02*
Y43111D01*
Y51007D02*
Y53750D01*
Y56243D02*
Y58072D01*
X31641Y15682D02*
Y21334D01*
Y24077D02*
Y25739D01*
Y28482D02*
Y32472D01*
Y35048D02*
Y37791D01*
Y40368D02*
Y43111D01*
Y51007D02*
Y53750D01*
Y56160D02*
Y58072D01*
X31725Y15682D02*
Y21334D01*
Y23994D02*
Y25823D01*
Y28482D02*
Y32472D01*
Y35048D02*
Y37791D01*
Y40368D02*
Y43111D01*
Y51007D02*
Y53750D01*
Y56160D02*
Y58072D01*
X31808Y15682D02*
Y21417D01*
Y23994D02*
Y25823D01*
Y28399D02*
Y32472D01*
Y35048D02*
Y37791D01*
Y40368D02*
Y43111D01*
Y51007D02*
Y53750D01*
Y56160D02*
Y58072D01*
X31891Y15682D02*
Y21417D01*
Y23994D02*
Y25823D01*
Y28399D02*
Y32472D01*
Y35048D02*
Y37791D01*
Y40368D02*
Y43111D01*
Y51007D02*
Y53750D01*
Y56160D02*
Y58072D01*
X31974Y15682D02*
Y21417D01*
Y23911D02*
Y25906D01*
Y28399D02*
Y32472D01*
Y35048D02*
Y37791D01*
Y40368D02*
Y43111D01*
Y51007D02*
Y53750D01*
Y56077D02*
Y58072D01*
X32057Y15765D02*
Y21500D01*
Y23911D02*
Y25906D01*
Y28316D02*
Y32555D01*
Y35048D02*
Y37791D01*
Y40368D02*
Y43111D01*
Y51007D02*
Y53750D01*
Y56077D02*
Y57989D01*
X32140Y15765D02*
Y21500D01*
Y23911D02*
Y25906D01*
Y28316D02*
Y32555D01*
Y35048D02*
Y37791D01*
Y40451D02*
Y43111D01*
Y51090D02*
Y53750D01*
Y56077D02*
Y57989D01*
X32223Y15765D02*
Y21583D01*
Y23828D02*
Y25989D01*
Y28316D02*
Y32555D01*
Y34965D02*
Y37791D01*
Y40451D02*
Y43028D01*
Y51090D02*
Y53667D01*
Y55994D02*
Y57989D01*
X32306Y15765D02*
Y21583D01*
Y23828D02*
Y25989D01*
Y28233D02*
Y32638D01*
Y34965D02*
Y37791D01*
Y40451D02*
Y43028D01*
Y51090D02*
Y53667D01*
Y55994D02*
Y57989D01*
X32390Y15848D02*
Y21667D01*
Y23744D02*
Y26072D01*
Y28233D02*
Y32638D01*
Y34882D02*
Y37791D01*
Y40534D02*
Y43028D01*
Y51173D02*
Y53667D01*
Y55994D02*
Y57906D01*
X32473Y15848D02*
Y21667D01*
Y23744D02*
Y26072D01*
Y28150D02*
Y32721D01*
Y34882D02*
Y37708D01*
Y40534D02*
Y42945D01*
Y51173D02*
Y53584D01*
Y55911D02*
Y57906D01*
X32556Y15848D02*
Y21750D01*
Y23661D02*
Y26155D01*
Y28067D02*
Y32721D01*
Y34799D02*
Y37708D01*
Y40617D02*
Y42945D01*
Y51256D02*
Y53584D01*
Y55911D02*
Y57906D01*
X32639Y15932D02*
Y21833D01*
Y23578D02*
Y26238D01*
Y27984D02*
Y32804D01*
Y34716D02*
Y37708D01*
Y40617D02*
Y42861D01*
Y51256D02*
Y53500D01*
Y55828D02*
Y57822D01*
X32722Y15932D02*
Y21916D01*
Y23495D02*
Y26321D01*
Y27900D02*
Y32887D01*
Y34633D02*
Y37708D01*
Y40700D02*
Y42778D01*
Y51339D02*
Y53417D01*
Y55828D02*
Y57822D01*
X32805Y15932D02*
Y22082D01*
Y23412D02*
Y26404D01*
Y27817D02*
Y32970D01*
Y34550D02*
Y37708D01*
Y40784D02*
Y42695D01*
Y51423D02*
Y53334D01*
Y55745D02*
Y57822D01*
X32888Y16015D02*
Y22165D01*
Y23246D02*
Y26487D01*
Y27734D02*
Y33137D01*
Y34383D02*
Y37625D01*
Y40950D02*
Y42612D01*
Y51589D02*
Y53251D01*
Y55745D02*
Y57739D01*
X32971Y16015D02*
Y22415D01*
Y23080D02*
Y26654D01*
Y27568D02*
Y33303D01*
Y34217D02*
Y37625D01*
Y41033D02*
Y42446D01*
Y51672D02*
Y53085D01*
Y55662D02*
Y57739D01*
X33054Y16015D02*
Y26903D01*
Y27402D02*
Y37625D01*
Y41199D02*
Y42280D01*
Y51838D02*
Y52919D01*
Y55662D02*
Y57739D01*
X33138Y16098D02*
Y37542D01*
Y55578D02*
Y57656D01*
X33221Y16098D02*
Y37542D01*
Y55578D02*
Y57656D01*
X33304Y16181D02*
Y37542D01*
Y55495D02*
Y57573D01*
X33387Y16181D02*
Y37459D01*
Y55412D02*
Y57573D01*
X33470Y16181D02*
Y37459D01*
Y55329D02*
Y57490D01*
X33553Y16264D02*
Y37376D01*
Y55329D02*
Y57490D01*
X33636Y16264D02*
Y37376D01*
Y55246D02*
Y57407D01*
X33719Y16347D02*
Y37293D01*
Y55163D02*
Y57407D01*
X33802Y16347D02*
Y37293D01*
Y55080D02*
Y57324D01*
X33886Y16430D02*
Y37209D01*
Y55080D02*
Y57324D01*
X33969Y16513D02*
Y37209D01*
Y54997D02*
Y57241D01*
X34052Y16513D02*
Y37126D01*
Y54914D02*
Y57241D01*
X34135Y16596D02*
Y37043D01*
Y54830D02*
Y57158D01*
X34218Y16596D02*
Y36960D01*
Y54747D02*
Y57158D01*
X34301Y16680D02*
Y36960D01*
Y54664D02*
Y57074D01*
X34384Y16763D02*
Y36877D01*
Y54581D02*
Y56991D01*
X34467Y16763D02*
Y36794D01*
Y54498D02*
Y56991D01*
X34551Y16846D02*
Y36711D01*
Y54332D02*
Y56908D01*
X34634Y16929D02*
Y36628D01*
Y54248D02*
Y56825D01*
X34717Y16929D02*
Y36545D01*
Y54165D02*
Y56742D01*
X34800Y17012D02*
Y36461D01*
Y53999D02*
Y56742D01*
X34883Y17095D02*
Y36378D01*
Y53916D02*
Y56659D01*
X34966Y17178D02*
Y36212D01*
Y53750D02*
Y56576D01*
X35049Y17261D02*
Y36129D01*
Y53584D02*
Y56493D01*
X35132Y17344D02*
Y36046D01*
Y53417D02*
Y56410D01*
X35215Y17344D02*
Y35880D01*
Y53251D02*
Y56410D01*
X35299Y17428D02*
Y35713D01*
Y53085D02*
Y56326D01*
X35382Y17511D02*
Y35547D01*
Y52919D02*
Y56243D01*
X35465Y17594D02*
Y35381D01*
Y52669D02*
Y56160D01*
X35548Y17677D02*
Y35132D01*
Y52337D02*
Y56077D01*
X35631Y17760D02*
Y34882D01*
Y52004D02*
Y55994D01*
X35714Y17843D02*
Y34550D01*
Y51090D02*
Y55911D01*
X35797Y18010D02*
Y55745D01*
X35880Y18093D02*
Y55662D01*
X35964Y18176D02*
Y55578D01*
X36047Y18259D02*
Y55495D01*
X36130Y18342D02*
Y55412D01*
X36213Y18508D02*
Y55246D01*
X36296Y18591D02*
Y55163D01*
X36379Y18757D02*
Y54997D01*
X36462Y18841D02*
Y54914D01*
X36545Y19007D02*
Y54747D01*
X36628Y19173D02*
Y54664D01*
X36712Y19256D02*
Y54498D01*
X36795Y19422D02*
Y54332D01*
X36878Y19589D02*
Y54165D01*
X36961Y19755D02*
Y53999D01*
X37044Y20004D02*
Y53750D01*
X37127Y20171D02*
Y53584D01*
X37210Y20420D02*
Y53334D01*
X37293Y20669D02*
Y53085D01*
X37376Y21002D02*
Y52752D01*
X37460Y21417D02*
Y52337D01*
X37543Y22082D02*
Y51672D01*
X37626Y25407D02*
Y48347D01*
X37709Y25407D02*
Y48347D01*
X37792Y25490D02*
Y48264D01*
X37875Y25573D02*
Y48181D01*
X37958Y25656D02*
Y48098D01*
X38042Y25739D02*
Y48015D01*
X38125Y25823D02*
Y47932D01*
X38208Y25906D02*
Y47849D01*
X38291Y25989D02*
Y47765D01*
X38374Y26072D02*
Y47682D01*
X38457Y26155D02*
Y47599D01*
X38540Y26238D02*
Y47516D01*
X38623Y26321D02*
Y47433D01*
X38706Y26404D02*
Y47350D01*
X38790Y26487D02*
Y47267D01*
X38873Y26570D02*
Y47183D01*
X38956Y26654D02*
Y47100D01*
X39039Y26737D02*
Y47017D01*
X39122Y26903D02*
Y46851D01*
X39205Y26986D02*
Y46768D01*
X39288Y27069D02*
Y46685D01*
X39371Y27152D02*
Y46602D01*
X39455Y27236D02*
Y46519D01*
X39538Y27402D02*
Y46352D01*
X39621Y27485D02*
Y46269D01*
X39704Y27568D02*
Y46186D01*
X39787Y27651D02*
Y46103D01*
X39870Y27817D02*
Y45937D01*
X39953Y27900D02*
Y45854D01*
X40036Y27984D02*
Y45771D01*
X40119Y28150D02*
Y45604D01*
X40202Y28233D02*
Y45521D01*
X40286Y28399D02*
Y45355D01*
X40369Y28482D02*
Y45272D01*
X40452Y28648D02*
Y45106D01*
X40535Y28732D02*
Y45023D01*
X40618Y28898D02*
Y44856D01*
X40701Y29064D02*
Y44690D01*
X40784Y29147D02*
Y44607D01*
X40868Y29313D02*
Y44441D01*
X40951Y29480D02*
Y44275D01*
X41034Y29563D02*
Y44108D01*
X41117Y29729D02*
Y44025D01*
X41200Y29895D02*
Y43859D01*
X41283Y30061D02*
Y43693D01*
X41366Y30228D02*
Y43526D01*
X41449Y30394D02*
Y43360D01*
X41532Y30643D02*
Y43111D01*
X41616Y30810D02*
Y42945D01*
X41699Y30976D02*
Y42778D01*
X41782Y31142D02*
Y42612D01*
X41865Y31391D02*
Y42363D01*
X41948Y31641D02*
Y42113D01*
X42031Y31807D02*
Y41947D01*
X42114Y32056D02*
Y41698D01*
X42197Y32389D02*
Y41448D01*
X42280Y32638D02*
Y41116D01*
X42364Y32887D02*
Y40867D01*
X42447Y33220D02*
Y40534D01*
X42530Y33635D02*
Y40202D01*
X42613Y33968D02*
Y39786D01*
X42696Y34467D02*
Y39287D01*
X42779Y35048D02*
Y38706D01*
X42862Y35963D02*
Y37791D01*
D13*
X771756Y338133D02*
X774868D01*
X742140Y323419D02*
X745818D01*
X761003Y329078D02*
X763927D01*
X767134Y315591D02*
X771095D01*
X741196Y336058D02*
X744780D01*
X763078Y340774D02*
X766851D01*
X772039Y337378D02*
X775151D01*
X739970Y332285D02*
X742988D01*
X732708Y315779D02*
X736575D01*
X773170Y330116D02*
X776094D01*
X740725Y325966D02*
X744026D01*
X762607Y319646D02*
X766568D01*
X767040Y328607D02*
X769964D01*
X767134Y331059D02*
X770058D01*
X773170Y331625D02*
X776094D01*
X773170Y331814D02*
X776094D01*
X742045Y323513D02*
X745818D01*
X758645Y339170D02*
X760249D01*
X765436Y337378D02*
X768737D01*
X733839Y331531D02*
X736763D01*
X734500Y325494D02*
X737612D01*
X738178Y318609D02*
X741574D01*
X741008Y335681D02*
X744497D01*
X740064Y328135D02*
X743083D01*
X766379Y325588D02*
X769398D01*
X727803Y332191D02*
X730727D01*
X728086Y334266D02*
X731010D01*
X727897Y333323D02*
X730916D01*
X746478Y332945D02*
X757419D01*
X739027Y343226D02*
X741291D01*
X766285Y335492D02*
X769398D01*
X760532Y327192D02*
X763550D01*
X760720Y333134D02*
X763738D01*
X764776Y322287D02*
X768171D01*
X736197Y339453D02*
X739687D01*
X765153Y322948D02*
X768455D01*
X758268Y337095D02*
X762041D01*
X766568Y334549D02*
X769586D01*
X730916Y342377D02*
X734311D01*
X773170Y329644D02*
X776094D01*
X745912Y330304D02*
X757985D01*
X767040Y332568D02*
X769964D01*
X727803Y328890D02*
X730727D01*
X767889Y344452D02*
X771661D01*
X763456Y340397D02*
X767134D01*
X771190Y321344D02*
X774397D01*
X735537Y338133D02*
X738838D01*
X748270Y325683D02*
X755627D01*
X743083Y322193D02*
X745724D01*
X743271Y338887D02*
X745629D01*
X773076Y332568D02*
X776094D01*
X759588Y325400D02*
X762890D01*
X771756Y338227D02*
X774868D01*
X759023Y324645D02*
X762512D01*
X741102Y325023D02*
X744592D01*
X736009Y339170D02*
X739499D01*
X729784Y320590D02*
X733085D01*
X727897Y328135D02*
X730821D01*
X773170Y331908D02*
X776094D01*
X735066Y337190D02*
X738367D01*
X741196Y324928D02*
X744686D01*
X732236Y316440D02*
X736009D01*
X733085Y345678D02*
X737046D01*
X747516Y326343D02*
X756382D01*
X734688Y347376D02*
X737046D01*
X763173Y340680D02*
X766945D01*
X761098Y331059D02*
X764022D01*
X760249Y326532D02*
X763361D01*
X742234Y323231D02*
X745912D01*
X733273Y315025D02*
X737141D01*
X737046Y340774D02*
X740819D01*
X767134Y331436D02*
X770058D01*
X769303Y318232D02*
X772887D01*
X770529Y340774D02*
X773831D01*
X734500Y347188D02*
X737141D01*
X772510Y325117D02*
X775528D01*
X727803Y331248D02*
X730727D01*
X727992Y334171D02*
X731010D01*
X760249Y334360D02*
X763361D01*
X762890Y317477D02*
X764587D01*
X729218Y338699D02*
X732330D01*
X767889Y344547D02*
X771661D01*
X762890Y343415D02*
X764587D01*
X758079Y323513D02*
X761852D01*
X734594Y335681D02*
X737707D01*
X772887Y326909D02*
X775906D01*
X760720Y332945D02*
X763738D01*
X762324Y342189D02*
X765814D01*
X772416Y324645D02*
X775434D01*
X772887Y333983D02*
X775906D01*
X761098Y330493D02*
X764022D01*
X762324Y318137D02*
X765248D01*
X766757Y315119D02*
X770718D01*
X773170Y330682D02*
X776094D01*
X770435Y320024D02*
X773831D01*
X737046Y320118D02*
X740819D01*
X736103Y339265D02*
X739593D01*
X751477Y324457D02*
X752420D01*
X739876Y331531D02*
X742894D01*
X767606Y316062D02*
X771473D01*
X757985Y322665D02*
X761192D01*
X759494Y325306D02*
X762890D01*
X727803Y331342D02*
X730727D01*
X728369Y325117D02*
X731387D01*
X766757Y347282D02*
X769303D01*
X742800Y322570D02*
X745818D01*
X761098Y330304D02*
X764022D01*
X764493Y321910D02*
X767983D01*
X767134Y329173D02*
X770058D01*
X762607Y343226D02*
X764870D01*
X771378Y339076D02*
X774585D01*
X773076Y332474D02*
X776094D01*
X760909Y332379D02*
X763833D01*
X764776Y338605D02*
X768171D01*
X736763Y340397D02*
X740442D01*
X770058Y341529D02*
X773453D01*
X740253Y327475D02*
X743271D01*
X766757Y347188D02*
X769398D01*
X773170Y331248D02*
X776094D01*
X772982Y333794D02*
X775906D01*
X727803Y330116D02*
X730727D01*
X773170Y331342D02*
X776094D01*
X746478Y328041D02*
X757419D01*
X771661Y322382D02*
X774774D01*
X735914Y322004D02*
X739310D01*
X734500Y313704D02*
X737141D01*
X748176Y335115D02*
X755721D01*
X771001Y339925D02*
X774208D01*
X733934Y332096D02*
X736858D01*
X767134Y329833D02*
X770058D01*
X761098Y330210D02*
X764022D01*
X767134Y329739D02*
X770058D01*
X732990Y345490D02*
X736952D01*
X728275Y325306D02*
X731293D01*
X772605Y325211D02*
X775623D01*
X730538Y341717D02*
X733934D01*
X772605Y325494D02*
X775623D01*
X767417Y315874D02*
X771284D01*
X772982Y327475D02*
X776000D01*
X740442Y326626D02*
X743649D01*
X733839Y314364D02*
X737329D01*
X760343Y326720D02*
X763456D01*
X728558Y324079D02*
X731670D01*
X729312Y338982D02*
X732519D01*
X734028Y332945D02*
X736952D01*
X767134Y331908D02*
X770058D01*
X740913Y335303D02*
X744214D01*
X767134Y329456D02*
X770058D01*
X770247Y341245D02*
X773642D01*
X759117Y336152D02*
X762607D01*
X771284Y321533D02*
X774491D01*
X767040Y332285D02*
X769964D01*
X768737Y317383D02*
X772322D01*
X769209Y318043D02*
X772793D01*
X735254Y337473D02*
X738461D01*
X766474Y325872D02*
X769492D01*
X730161Y341057D02*
X733556D01*
X760909Y328418D02*
X763833D01*
X772605Y325306D02*
X775623D01*
X729312Y339170D02*
X732519D01*
X762324Y342377D02*
X765625D01*
X727803Y329833D02*
X730727D01*
X736669Y340208D02*
X740347D01*
X746195Y332285D02*
X757702D01*
X766379Y335115D02*
X769492D01*
X740536Y334360D02*
X743649D01*
X766285Y325494D02*
X769398D01*
X728369Y325023D02*
X731387D01*
X740442Y334171D02*
X743554D01*
X735066Y323797D02*
X738272D01*
X729124Y338510D02*
X732236D01*
X734122Y333794D02*
X737141D01*
X737423Y341340D02*
X741291D01*
X758174Y322193D02*
X760815D01*
X758079Y338322D02*
X761098D01*
X737801Y341811D02*
X741574D01*
X734688Y313516D02*
X737046D01*
X764870Y338510D02*
X768171D01*
X772039Y323608D02*
X775151D01*
X763927Y321061D02*
X767511D01*
X739310Y343415D02*
X741008D01*
X733839Y330587D02*
X736763D01*
X766002Y324551D02*
X769115D01*
X771001Y339831D02*
X774302D01*
X767134Y329361D02*
X770058D01*
X768360Y343981D02*
X772039D01*
X772322Y324362D02*
X775340D01*
X758079Y323419D02*
X761758D01*
X766757Y313610D02*
X769303D01*
X736480Y340019D02*
X740159D01*
X769681Y318703D02*
X773170D01*
X733085Y315213D02*
X737046D01*
X729312Y321721D02*
X732519D01*
X773170Y329927D02*
X776094D01*
X773170Y329173D02*
X776094D01*
X731764Y343886D02*
X735443D01*
X767040Y332379D02*
X769964D01*
X742611Y322759D02*
X745912D01*
X760626Y333228D02*
X763738D01*
X741385Y324645D02*
X744875D01*
X735631Y322476D02*
X739027D01*
X735631Y338416D02*
X739027D01*
X758928Y336341D02*
X762512D01*
X746195Y328795D02*
X757702D01*
X729501Y339453D02*
X732708D01*
X741857Y323797D02*
X745629D01*
X746290Y328418D02*
X757608D01*
X729595Y339736D02*
X732802D01*
X739876Y330870D02*
X742800D01*
X766191Y325211D02*
X769303D01*
X772887Y333889D02*
X775906D01*
X736009Y321816D02*
X739404D01*
X734594Y325211D02*
X737707D01*
X735820Y322099D02*
X739216D01*
X729218Y338793D02*
X732425D01*
X770813Y340302D02*
X774114D01*
X765059Y338133D02*
X768360D01*
X748648Y325400D02*
X755250D01*
X742705Y322665D02*
X745912D01*
X762418Y342943D02*
X765153D01*
X734688Y336058D02*
X737801D01*
X728180Y334926D02*
X731199D01*
X745912Y330587D02*
X757985D01*
X770624Y320212D02*
X773925D01*
X768643Y317288D02*
X772322D01*
X735160Y323513D02*
X738461D01*
X734877Y324362D02*
X737989D01*
X727803Y331814D02*
X730727D01*
X733839Y331342D02*
X736763D01*
X770907Y340019D02*
X774208D01*
X729029Y338227D02*
X732142D01*
X728463Y336435D02*
X731576D01*
X772793Y334643D02*
X775811D01*
X770718Y320495D02*
X774019D01*
X762324Y318703D02*
X765814D01*
X772510Y335775D02*
X775528D01*
X727897Y333134D02*
X730821D01*
X772510Y335869D02*
X775528D01*
X747421Y334454D02*
X756476D01*
X772605Y335492D02*
X775623D01*
X766568Y346905D02*
X769681D01*
X727803Y330210D02*
X730727D01*
X727803Y330399D02*
X730727D01*
X730444Y319269D02*
X733839D01*
X772605Y325588D02*
X775623D01*
X773170Y329361D02*
X776094D01*
X740064Y328418D02*
X742988D01*
X739310Y317477D02*
X741008D01*
X762418Y342849D02*
X765153D01*
X730727Y342189D02*
X734217D01*
X734783Y336247D02*
X737895D01*
X727803Y329644D02*
X730727D01*
X760154Y326437D02*
X763361D01*
X769775Y342000D02*
X773265D01*
X766285Y325400D02*
X769398D01*
X759117Y324740D02*
X762607D01*
X731010Y318232D02*
X734594D01*
X728369Y324928D02*
X731387D01*
X727803Y328418D02*
X730821D01*
X728463Y324645D02*
X731481D01*
X733934Y314270D02*
X737329D01*
X772699Y334926D02*
X775717D01*
X740347Y327098D02*
X743460D01*
X734122Y327286D02*
X737046D01*
X763550Y340302D02*
X767228D01*
X773076Y327852D02*
X776000D01*
X729406Y321627D02*
X732613D01*
X766851Y315308D02*
X770813D01*
X759117Y324834D02*
X762701D01*
X740159Y333040D02*
X743177D01*
X772982Y327098D02*
X775906D01*
X769303Y318137D02*
X772793D01*
X740064Y332663D02*
X743083D01*
X735066Y337001D02*
X738272D01*
X769964Y319175D02*
X773359D01*
X771661Y322476D02*
X774774D01*
X764305Y321627D02*
X767794D01*
X771190Y339453D02*
X774397D01*
X727803Y332379D02*
X730727D01*
X768171Y344169D02*
X771944D01*
X741291Y336152D02*
X744780D01*
X731576Y343509D02*
X735160D01*
X746007Y331625D02*
X757891D01*
X741196Y335964D02*
X744686D01*
X734877Y324268D02*
X738084D01*
X729029Y322570D02*
X732236D01*
X732990Y315402D02*
X736952D01*
X772793Y326060D02*
X775717D01*
X772322Y336530D02*
X775340D01*
X758551Y336718D02*
X762324D01*
X743177Y338793D02*
X745629D01*
X749591Y335964D02*
X754307D01*
X772416Y324834D02*
X775528D01*
X766945Y333228D02*
X769869D01*
X766757Y345867D02*
X770624D01*
X767134Y345301D02*
X771095D01*
X728275Y335398D02*
X731293D01*
X735443Y322853D02*
X738744D01*
X767134Y330682D02*
X770058D01*
X766662Y313893D02*
X769586D01*
X727897Y327947D02*
X730821D01*
X731104Y342755D02*
X734594D01*
X735726Y338605D02*
X739121D01*
X758079Y323325D02*
X761758D01*
X729124Y338605D02*
X732330D01*
X734594Y313610D02*
X737141D01*
X734405Y347093D02*
X737235D01*
X746007Y329361D02*
X757891D01*
X750723Y336341D02*
X753175D01*
X759305Y335869D02*
X762795D01*
X760815Y328229D02*
X763833D01*
X735726Y322287D02*
X739121D01*
X769398Y318326D02*
X772887D01*
X728463Y324457D02*
X731576D01*
X728558Y336813D02*
X731670D01*
X746478Y332851D02*
X757514D01*
X766568Y334643D02*
X769586D01*
X746101Y331814D02*
X757796D01*
X734122Y334077D02*
X737141D01*
X757985Y337850D02*
X761475D01*
X734971Y336813D02*
X738178D01*
X759400Y335681D02*
X762890D01*
X740725Y325872D02*
X744026D01*
X741479Y336530D02*
X745158D01*
X773170Y328795D02*
X776094D01*
X728558Y324268D02*
X731576D01*
X765248Y337756D02*
X768549D01*
X767134Y329550D02*
X770058D01*
X730067Y320118D02*
X733368D01*
X734122Y333889D02*
X737141D01*
X766568Y314364D02*
X770058D01*
X767134Y329927D02*
X770058D01*
X767511Y315968D02*
X771378D01*
X762324Y342566D02*
X765436D01*
X748082Y335020D02*
X755816D01*
X772793Y326343D02*
X775811D01*
X733179Y315119D02*
X737141D01*
X763927Y321156D02*
X767511D01*
X759494Y335586D02*
X762890D01*
X741951Y323608D02*
X745724D01*
X766002Y336341D02*
X769115D01*
X731293Y317854D02*
X734783D01*
X728463Y324740D02*
X731481D01*
X766568Y346527D02*
X770058D01*
X746007Y331248D02*
X757891D01*
X730727Y318703D02*
X734217D01*
X735254Y323231D02*
X738555D01*
X743083Y338699D02*
X745724D01*
X737612Y319363D02*
X741479D01*
X767040Y315496D02*
X771001D01*
X732142Y316534D02*
X735914D01*
X734217Y334171D02*
X737235D01*
X733934Y332663D02*
X736858D01*
X734594Y347282D02*
X737141D01*
X729972Y340680D02*
X733273D01*
X734971Y323985D02*
X738178D01*
X735254Y323325D02*
X738555D01*
X766945Y332851D02*
X769964D01*
X734028Y333040D02*
X736952D01*
X740253Y327286D02*
X743366D01*
X749119Y335775D02*
X754778D01*
X766945Y345490D02*
X770907D01*
X770058Y319269D02*
X773453D01*
X735537Y322759D02*
X738838D01*
X740064Y328512D02*
X742988D01*
X763078Y320118D02*
X766851D01*
X739404Y317383D02*
X740913D01*
X758079Y322382D02*
X760909D01*
X762890Y340962D02*
X766757D01*
X766096Y335964D02*
X769209D01*
X733839Y331814D02*
X736763D01*
X747138Y334077D02*
X756759D01*
X771095Y339642D02*
X774397D01*
X761003Y328984D02*
X763927D01*
X772322Y324457D02*
X775434D01*
X764305Y339359D02*
X767794D01*
X767134Y330116D02*
X770058D01*
X734028Y333323D02*
X737046D01*
X739876Y330022D02*
X742800D01*
X766191Y335681D02*
X769303D01*
X739404Y343509D02*
X740913D01*
X757985Y337944D02*
X761475D01*
X739121Y317571D02*
X741196D01*
X734594Y335869D02*
X737707D01*
X733651Y314553D02*
X737329D01*
X771661Y338416D02*
X774774D01*
X766945Y347565D02*
X769115D01*
X766191Y335775D02*
X769303D01*
X728086Y326249D02*
X731104D01*
X728275Y335681D02*
X731293D01*
X767134Y330399D02*
X770058D01*
X736480Y339925D02*
X740064D01*
X766002Y336152D02*
X769209D01*
X739876Y330965D02*
X742800D01*
X765248Y323136D02*
X768549D01*
X767417Y313044D02*
X768643D01*
X766568Y346339D02*
X770247D01*
X766474Y335020D02*
X769492D01*
X734122Y327003D02*
X737141D01*
X733556Y346150D02*
X737329D01*
X749025Y325211D02*
X754873D01*
X764305Y339265D02*
X767794D01*
X734594Y325117D02*
X737707D01*
X742705Y338227D02*
X745912D01*
X771850Y323042D02*
X774962D01*
X732896Y315496D02*
X736858D01*
X759966Y326060D02*
X763173D01*
X760437Y327098D02*
X763550D01*
X760909Y328701D02*
X763927D01*
X734500Y335586D02*
X737612D01*
X740913Y325494D02*
X744309D01*
X728275Y335303D02*
X731199D01*
X772039Y337473D02*
X775151D01*
X746195Y328701D02*
X757702D01*
X734028Y314176D02*
X737329D01*
X771850Y337850D02*
X774962D01*
X733839Y329550D02*
X736763D01*
X736292Y321250D02*
X739876D01*
X761098Y329550D02*
X764022D01*
X729501Y321250D02*
X732802D01*
X734311Y326249D02*
X737329D01*
X762324Y341717D02*
X766191D01*
X762418Y318043D02*
X765153D01*
X733934Y328512D02*
X736858D01*
X731387Y317666D02*
X734971D01*
X735066Y313138D02*
X736669D01*
X766662Y346056D02*
X770435D01*
X766945Y327852D02*
X769869D01*
X739970Y328890D02*
X742894D01*
X762607Y341245D02*
X766568D01*
X728935Y337944D02*
X732047D01*
X771756Y322665D02*
X774868D01*
X733745Y314459D02*
X737329D01*
X746855Y333700D02*
X757042D01*
X767134Y331531D02*
X770058D01*
X764399Y321721D02*
X767889D01*
X762984Y340868D02*
X766851D01*
X736009Y339076D02*
X739404D01*
X729218Y338887D02*
X732425D01*
X735537Y322665D02*
X738838D01*
X766568Y314176D02*
X769869D01*
X732425Y316157D02*
X736197D01*
X727897Y333417D02*
X730916D01*
X729124Y322476D02*
X732236D01*
Y316345D02*
X736009D01*
X762418Y341623D02*
X766285D01*
X766379Y335209D02*
X769492D01*
X760815Y332757D02*
X763833D01*
X760060Y334738D02*
X763267D01*
X733462Y346056D02*
X737235D01*
X758834Y336435D02*
X762418D01*
X766474Y326060D02*
X769586D01*
X742422Y323042D02*
X745912D01*
X733934Y346622D02*
X737329D01*
X766568Y314270D02*
X769964D01*
X745912Y330210D02*
X757985D01*
X734971Y347659D02*
X736763D01*
X735443Y338039D02*
X738744D01*
X733839Y330493D02*
X736763D01*
X761003Y329361D02*
X763927D01*
X733556Y346244D02*
X737329D01*
X728369Y336058D02*
X731481D01*
X770152Y319458D02*
X773548D01*
X727803Y331059D02*
X730727D01*
X766379Y325777D02*
X769492D01*
X732236Y344547D02*
X736009D01*
X766851Y327381D02*
X769869D01*
X732236Y344452D02*
X736009D01*
X733839Y330022D02*
X736763D01*
X760343Y333983D02*
X763550D01*
X766757Y334077D02*
X769775D01*
X761098Y331248D02*
X764022D01*
X739970Y328984D02*
X742894D01*
X727992Y333983D02*
X731010D01*
X728746Y337473D02*
X731859D01*
X742611Y338133D02*
X745912D01*
X747044Y326909D02*
X756853D01*
X742517Y338039D02*
X745912D01*
X730632Y342000D02*
X734122D01*
X746855Y327192D02*
X757042D01*
X766851Y333511D02*
X769869D01*
X761003Y328890D02*
X763927D01*
X759588Y325494D02*
X762984D01*
X761098Y329644D02*
X764022D01*
X737423Y319552D02*
X741291D01*
X762418Y341529D02*
X766285D01*
X758362Y322004D02*
X760626D01*
X758645Y321721D02*
X760249D01*
X737235Y319835D02*
X741102D01*
X733839Y329078D02*
X736763D01*
X739970Y329267D02*
X742894D01*
X727992Y327286D02*
X730916D01*
X761003Y331436D02*
X764022D01*
X758268Y338887D02*
X760626D01*
X734783Y336341D02*
X737895D01*
X729029Y338322D02*
X732236D01*
X773076Y332851D02*
X776000D01*
X772793Y326437D02*
X775811D01*
X739027Y317666D02*
X741291D01*
X768926D02*
X772510D01*
X758928Y324551D02*
X762512D01*
X773170Y331531D02*
X776094D01*
X729784Y340302D02*
X733085D01*
X758268Y323797D02*
X762041D01*
X727992Y333794D02*
X730916D01*
X734217Y326720D02*
X737235D01*
X734028Y346716D02*
X737329D01*
X766002Y324740D02*
X769209D01*
X764493Y338982D02*
X767983D01*
X735349Y337850D02*
X738650D01*
X772227Y324079D02*
X775340D01*
X731481Y317477D02*
X735066D01*
X739876Y331248D02*
X742800D01*
X771095Y339736D02*
X774302D01*
X740159Y327663D02*
X743271D01*
X731670Y343698D02*
X735349D01*
X760909Y332285D02*
X763927D01*
X740253Y333606D02*
X743366D01*
X772322Y324268D02*
X775340D01*
X743271Y322004D02*
X745535D01*
X728746Y323608D02*
X731859D01*
X728746Y323419D02*
X731859D01*
X734971Y313233D02*
X736763D01*
X728180Y335020D02*
X731199D01*
X740159Y332945D02*
X743177D01*
X746101Y332002D02*
X757796D01*
X768832Y343321D02*
X772416D01*
X733839Y330210D02*
X736763D01*
X772227Y323985D02*
X775246D01*
X733839Y328984D02*
X736763D01*
X757985Y323042D02*
X761475D01*
X743837Y339265D02*
X745063D01*
X772982Y327381D02*
X776000D01*
X770718Y340491D02*
X774019D01*
X729972Y340585D02*
X733273D01*
X770058Y319363D02*
X773453D01*
X734877Y324174D02*
X738084D01*
X773170Y330210D02*
X776094D01*
X739876Y330399D02*
X742800D01*
X770341Y319741D02*
X773642D01*
X737989Y318798D02*
X741574D01*
X766662Y346999D02*
X769586D01*
X733839Y329267D02*
X736763D01*
X731576Y343604D02*
X735254D01*
X735537Y312950D02*
X736197D01*
X734217Y346905D02*
X737329D01*
X763267Y340585D02*
X767040D01*
X729689Y339925D02*
X732896D01*
X770813Y320590D02*
X774114D01*
X766191Y325117D02*
X769303D01*
X758362Y321910D02*
X760532D01*
X735914D02*
X739404D01*
X762324Y318892D02*
X765908D01*
X727803Y331153D02*
X730727D01*
X767794Y344641D02*
X771567D01*
X766757Y333889D02*
X769775D01*
X733934Y328418D02*
X736858D01*
X736386Y339831D02*
X739970D01*
X762324Y341906D02*
X766002D01*
X736763Y320495D02*
X740442D01*
X760532Y333511D02*
X763644D01*
X769869Y341811D02*
X773359D01*
X769020Y317760D02*
X772605D01*
X751477Y336435D02*
X752420D01*
X767323Y315779D02*
X771190D01*
X741762Y323891D02*
X745535D01*
X729689Y340019D02*
X732990D01*
X773170Y332379D02*
X776094D01*
X733934Y332568D02*
X736858D01*
X767511Y344924D02*
X771378D01*
X747704Y334738D02*
X756193D01*
X765908Y324457D02*
X769115D01*
X772699Y335020D02*
X775717D01*
X772793Y334832D02*
X775717D01*
X737989Y318892D02*
X741574D01*
X760626Y333417D02*
X763644D01*
X773076Y333134D02*
X776000D01*
X734122Y326909D02*
X737141D01*
X764493Y321816D02*
X767889D01*
X758740Y336530D02*
X762418D01*
X767794Y316251D02*
X771567D01*
X736103Y339359D02*
X739593D01*
X758740Y324362D02*
X762418D01*
X771378Y339170D02*
X774585D01*
X729124Y322382D02*
X732236D01*
X729784Y340208D02*
X733085D01*
X757985Y323136D02*
X761569D01*
X773076Y327947D02*
X776000D01*
X769586Y318515D02*
X772982D01*
X772605Y335586D02*
X775623D01*
X743649Y321721D02*
X745252D01*
X730255Y319741D02*
X733556D01*
X757985Y338039D02*
X761381D01*
X742422Y337850D02*
X745912D01*
X769869Y318986D02*
X773265D01*
X761003Y331625D02*
X763927D01*
X746572Y327663D02*
X757325D01*
X766379Y335303D02*
X769398D01*
X767700Y347942D02*
X768360D01*
X741196Y324834D02*
X744780D01*
X739876Y331342D02*
X742800D01*
X763267Y320307D02*
X767040D01*
X762701Y341151D02*
X766568D01*
X765342Y337567D02*
X768643D01*
X739593Y343604D02*
X740725D01*
X744026Y339359D02*
X744875D01*
X740253Y333417D02*
X743271D01*
X772887Y334077D02*
X775906D01*
X740159Y333228D02*
X743271D01*
X746195Y332096D02*
X757702D01*
X727803Y329550D02*
X730727D01*
X760720Y327852D02*
X763738D01*
X747610Y326249D02*
X756287D01*
X772510Y324928D02*
X775528D01*
X741385Y336247D02*
X744875D01*
X767889Y316440D02*
X771661D01*
X732330Y316251D02*
X736103D01*
X733934Y328701D02*
X736858D01*
X767323Y345113D02*
X771190D01*
X746761Y327475D02*
X757136D01*
X734217Y326626D02*
X737235D01*
X741574Y336718D02*
X745346D01*
X762324Y318232D02*
X765342D01*
X732519Y344924D02*
X736386D01*
X727992Y326909D02*
X731010D01*
X730255Y341151D02*
X733556D01*
X733839Y329644D02*
X736763D01*
X738744Y318043D02*
X741479D01*
X734028Y327381D02*
X737046D01*
X749779Y324834D02*
X754118D01*
X766945Y327758D02*
X769869D01*
X745912Y330116D02*
X757985D01*
X772510Y325023D02*
X775528D01*
X729689Y320967D02*
X732896D01*
X734028Y327758D02*
X736952D01*
X735349Y323042D02*
X738650D01*
X773170Y331719D02*
X776094D01*
X766851Y333417D02*
X769869D01*
X747421Y326532D02*
X756476D01*
X762512Y341434D02*
X766379D01*
X773076Y332663D02*
X776000D01*
X767134Y331625D02*
X770058D01*
X746007Y331153D02*
X757891D01*
X728558Y324174D02*
X731670D01*
X741762Y323985D02*
X745535D01*
X763550Y320590D02*
X767228D01*
X733179Y345773D02*
X737141D01*
X731764Y343792D02*
X735443D01*
X772416Y324551D02*
X775434D01*
X764870Y322476D02*
X768266D01*
X727992Y326815D02*
X731010D01*
X773170Y328984D02*
X776094D01*
X737801Y319081D02*
X741574D01*
X771661Y338510D02*
X774774D01*
X760060Y334643D02*
X763267D01*
X767134Y330965D02*
X770058D01*
X734028Y327852D02*
X736952D01*
X764870Y322382D02*
X768171D01*
X764210Y321438D02*
X767700D01*
X733839Y331059D02*
X736763D01*
X766851Y327286D02*
X769775D01*
X734500Y325306D02*
X737612D01*
X766568Y326154D02*
X769586D01*
X734311Y334549D02*
X737329D01*
X741574Y324268D02*
X745252D01*
X733839Y329173D02*
X736763D01*
X758079Y322476D02*
X761003D01*
X766002Y336247D02*
X769115D01*
X767134Y331814D02*
X770058D01*
X758174Y338605D02*
X760909D01*
X729312Y339076D02*
X732519D01*
X766945Y328135D02*
X769964D01*
X734122Y333983D02*
X737141D01*
X727897Y332757D02*
X730821D01*
X738461Y342566D02*
X741574D01*
X745912Y330776D02*
X757985D01*
X727992Y333700D02*
X730916D01*
X746007Y329267D02*
X757891D01*
X728180Y325683D02*
X731199D01*
X768643Y343604D02*
X772322D01*
X728275Y325494D02*
X731293D01*
X727897Y333511D02*
X730916D01*
X728746Y337378D02*
X731859D01*
X727803Y328984D02*
X730727D01*
X739970Y331625D02*
X742894D01*
X737612Y319269D02*
X741479D01*
X767983Y316534D02*
X771756D01*
X758079Y322570D02*
X761098D01*
X772322Y336624D02*
X775340D01*
X758174Y322287D02*
X760909D01*
X741857Y337095D02*
X745629D01*
X735254Y337567D02*
X738555D01*
X735631Y322570D02*
X738933D01*
X740064Y332379D02*
X742988D01*
X733839Y331719D02*
X736763D01*
X739970Y328607D02*
X742988D01*
X740064Y332851D02*
X743083D01*
X728180Y334832D02*
X731104D01*
X762418Y319363D02*
X766285D01*
X741762Y337001D02*
X745535D01*
X761003Y329456D02*
X764022D01*
X733934Y328135D02*
X736952D01*
X765908Y324362D02*
X769020D01*
X731293Y343132D02*
X734877D01*
X740347Y333794D02*
X743460D01*
X771473Y338793D02*
X774680D01*
X761098Y329833D02*
X764022D01*
X727803Y329456D02*
X730727D01*
X729029Y322759D02*
X732142D01*
X737329Y319741D02*
X741196D01*
X733556Y314742D02*
X737329D01*
X730444Y319363D02*
X733839D01*
X734877Y336624D02*
X738084D01*
X727992Y334077D02*
X731010D01*
X746950Y327098D02*
X756948D01*
X740253Y333511D02*
X743366D01*
X758362Y323891D02*
X762135D01*
X741762Y336907D02*
X745535D01*
X749308Y325023D02*
X754590D01*
X749779Y336058D02*
X754118D01*
X731576Y317383D02*
X735160D01*
X733934Y332285D02*
X736858D01*
X727803Y332002D02*
X730727D01*
X727897Y328229D02*
X730821D01*
X735254Y323419D02*
X738461D01*
X770341Y319835D02*
X773736D01*
X767417Y345018D02*
X771284D01*
X728086Y334549D02*
X731104D01*
X757985Y322759D02*
X761286D01*
X740725Y326060D02*
X743932D01*
X769115Y342943D02*
X772699D01*
X740913Y325588D02*
X744214D01*
X773170Y330304D02*
X776094D01*
X766851Y327569D02*
X769869D01*
X731104Y318043D02*
X734688D01*
X765719Y324079D02*
X768926D01*
X734877Y336718D02*
X738084D01*
X736575Y340114D02*
X740253D01*
X746007Y329456D02*
X757891D01*
X767040Y328324D02*
X769964D01*
X746007Y331436D02*
X757891D01*
X746478Y333040D02*
X757419D01*
X766757Y345773D02*
X770718D01*
X734217Y334266D02*
X737235D01*
X735160Y337284D02*
X738367D01*
X773170Y330965D02*
X776094D01*
X738555Y342660D02*
X741574D01*
X728935Y337850D02*
X732047D01*
X764493Y339076D02*
X767889D01*
X734311Y334643D02*
X737329D01*
X765814Y324268D02*
X769020D01*
X771473Y321910D02*
X774585D01*
X767134Y330210D02*
X770058D01*
X733839Y330965D02*
X736763D01*
X746007D02*
X757891D01*
X758268Y338793D02*
X760720D01*
X772510Y335964D02*
X775528D01*
X769115Y317949D02*
X772699D01*
X735631Y338322D02*
X738933D01*
X768832Y317477D02*
X772416D01*
X757985Y337756D02*
X761569D01*
X773076Y328229D02*
X776000D01*
X740536Y334549D02*
X743743D01*
X740442Y326815D02*
X743554D01*
X768077Y344264D02*
X771850D01*
X734311Y334832D02*
X737423D01*
X766757Y315025D02*
X770624D01*
X741291Y324740D02*
X744780D01*
X729595Y321156D02*
X732802D01*
X767134Y330587D02*
X770058D01*
X758362Y337001D02*
X762135D01*
X765908Y336530D02*
X769020D01*
X728086Y326532D02*
X731010D01*
X772039Y337567D02*
X775057D01*
X729784Y340114D02*
X732990D01*
X759777Y335115D02*
X763078D01*
X766757Y313704D02*
X769398D01*
X734688Y336152D02*
X737895D01*
X765342Y323325D02*
X768643D01*
X741008Y335586D02*
X744403D01*
X748553Y335398D02*
X755344D01*
X762324Y342660D02*
X765342D01*
X746290Y332568D02*
X757608D01*
X767228Y347753D02*
X768832D01*
X727803Y328795D02*
X730727D01*
X729218Y322193D02*
X732330D01*
X761098Y330399D02*
X764022D01*
X767040Y347659D02*
X768926D01*
X767040Y328890D02*
X770058D01*
X764210Y339453D02*
X767700D01*
X728086Y334643D02*
X731104D01*
X740630Y334738D02*
X743837D01*
X735914Y338982D02*
X739404D01*
X727992Y327192D02*
X730916D01*
X771001Y321061D02*
X774302D01*
X734783Y313327D02*
X736952D01*
X759966Y334832D02*
X763173D01*
X740064Y328041D02*
X743083D01*
X765059Y322665D02*
X768360D01*
X729784Y320684D02*
X733085D01*
X728840Y323325D02*
X731859D01*
X730538Y319081D02*
X734028D01*
X735726Y338510D02*
X739027D01*
X760154Y326343D02*
X763361D01*
X734877Y336530D02*
X737989D01*
X734500Y325588D02*
X737518D01*
X748082Y325872D02*
X755816D01*
X739970Y329078D02*
X742894D01*
X733934Y332191D02*
X736858D01*
X762324Y318420D02*
X765531D01*
X730538Y341811D02*
X734028D01*
X740253Y327381D02*
X743366D01*
X728935Y322948D02*
X732047D01*
X736103Y321627D02*
X739593D01*
X732425Y344830D02*
X736292D01*
X768171Y316723D02*
X771944D01*
X739876Y329927D02*
X742800D01*
X739876Y330304D02*
X742800D01*
X742894Y338416D02*
X745818D01*
X766662Y334454D02*
X769681D01*
X764022Y339736D02*
X767511D01*
X732613Y345018D02*
X736480D01*
X770247Y341340D02*
X773548D01*
X740253Y327569D02*
X743271D01*
X760437Y327003D02*
X763550D01*
X738933Y343132D02*
X741291D01*
X734500Y325400D02*
X737612D01*
X772982Y333417D02*
X776000D01*
X770718Y320401D02*
X774019D01*
X772699Y335115D02*
X775717D01*
X767040Y332096D02*
X769964D01*
X742328Y323136D02*
X745912D01*
X739970Y329361D02*
X742894D01*
X735254Y347848D02*
X736480D01*
X773170Y329267D02*
X776094D01*
X766945Y327947D02*
X769869D01*
X759023Y336247D02*
X762512D01*
X734783Y324645D02*
X737895D01*
X727897Y327569D02*
X730916D01*
X768737Y343509D02*
X772322D01*
X729124Y338416D02*
X732236D01*
X736952Y320212D02*
X740725D01*
X735066Y337095D02*
X738272D01*
X773170Y329550D02*
X776094D01*
X732802Y345301D02*
X736763D01*
X771473Y338982D02*
X774585D01*
X746101Y329173D02*
X757796D01*
X728558Y336718D02*
X731670D01*
X727897Y327852D02*
X730821D01*
X766662Y347093D02*
X769492D01*
X732896Y345396D02*
X736858D01*
X766662Y326626D02*
X769681D01*
X767040Y328229D02*
X769964D01*
X762512Y317854D02*
X765059D01*
X729501Y339642D02*
X732802D01*
X763833Y320967D02*
X767417D01*
X769398Y342566D02*
X772887D01*
X759023Y339359D02*
X759872D01*
X767040Y332191D02*
X769964D01*
X760909Y328795D02*
X763927D01*
X743649Y339170D02*
X745252D01*
X734122Y327192D02*
X737141D01*
X741385Y336341D02*
X744969D01*
X768077Y316628D02*
X771850D01*
X773170Y332285D02*
X776094D01*
X731953Y344075D02*
X735631D01*
X735820Y338793D02*
X739216D01*
X748553Y325494D02*
X755344D01*
X734311Y326060D02*
X737423D01*
X748648Y335492D02*
X755250D01*
X772793Y326249D02*
X775811D01*
X772887Y326815D02*
X775906D01*
X761098Y330776D02*
X764022D01*
X750345Y336247D02*
X753552D01*
X730538Y319175D02*
X733934D01*
X743177Y322099D02*
X745629D01*
X772887Y326626D02*
X775811D01*
X760343Y334077D02*
X763456D01*
X746855Y333606D02*
X757042D01*
X746101Y328890D02*
X757796D01*
X734311Y326343D02*
X737329D01*
X764870Y338416D02*
X768266D01*
X740536Y326437D02*
X743743D01*
X727803Y329078D02*
X730727D01*
X742988Y338605D02*
X745724D01*
X728086Y334454D02*
X731104D01*
X768266Y344075D02*
X771944D01*
X773076Y327758D02*
X776000D01*
X732613Y315874D02*
X736480D01*
X766096Y324834D02*
X769209D01*
X770813Y340208D02*
X774114D01*
X760815Y328135D02*
X763833D01*
X773076Y333040D02*
X776000D01*
X767134Y331342D02*
X770058D01*
X766662Y326532D02*
X769681D01*
X740159Y327947D02*
X743177D01*
X768455Y343792D02*
X772133D01*
X727992Y326720D02*
X731010D01*
X758457Y321816D02*
X760437D01*
X750723Y324551D02*
X753081D01*
X766851Y315213D02*
X770813D01*
X766568Y314648D02*
X770341D01*
X742140Y337473D02*
X745818D01*
X773170Y330022D02*
X776094D01*
X772982Y327192D02*
X775906D01*
X771567Y322287D02*
X774774D01*
X733556Y314648D02*
X737329D01*
X741008Y325211D02*
X744497D01*
X728180Y325966D02*
X731199D01*
X759872Y335020D02*
X763173D01*
X769303Y342755D02*
X772793D01*
X740819Y325683D02*
X744120D01*
X766568Y326343D02*
X769586D01*
X732708Y345207D02*
X736669D01*
X740819Y335115D02*
X744120D01*
X762512Y343037D02*
X765059D01*
X758174Y323608D02*
X761946D01*
X734783Y336435D02*
X737989D01*
X748836Y335586D02*
X755061D01*
X766568Y334738D02*
X769586D01*
X761003Y331908D02*
X763927D01*
X734405Y335020D02*
X737423D01*
X741102Y335775D02*
X744497D01*
X728652Y323891D02*
X731764D01*
X773170Y331153D02*
X776094D01*
X741479Y336435D02*
X745063D01*
X736197Y339548D02*
X739781D01*
X772887Y326720D02*
X775906D01*
X733839Y329456D02*
X736763D01*
X759588Y335492D02*
X762890D01*
X766945Y328041D02*
X769964D01*
X728180Y325872D02*
X731199D01*
X763644Y320778D02*
X767323D01*
X773170Y330493D02*
X776094D01*
X729972Y320212D02*
X733273D01*
X733839Y329927D02*
X736763D01*
X772982Y333700D02*
X775906D01*
X766568Y314553D02*
X770247D01*
X766945Y313327D02*
X769115D01*
Y343037D02*
X772605D01*
X727803Y330870D02*
X730727D01*
X764682Y322193D02*
X768077D01*
X728275Y325400D02*
X731293D01*
X766757Y327192D02*
X769775D01*
X746667Y327569D02*
X757231D01*
X729689Y320873D02*
X732990D01*
X740064Y332474D02*
X742988D01*
X727803Y328701D02*
X730727D01*
X730067Y340868D02*
X733462D01*
X765719Y323985D02*
X768926D01*
X746290Y328324D02*
X757608D01*
X731764Y317100D02*
X735443D01*
X727803Y330493D02*
X730727D01*
X771095Y321156D02*
X774302D01*
X766945Y332945D02*
X769869D01*
X758174Y337284D02*
X761946D01*
X727803Y330682D02*
X730727D01*
X761098Y329927D02*
X764022D01*
X767700Y316157D02*
X771473D01*
X733839Y329833D02*
X736763D01*
X740347Y326909D02*
X743554D01*
X766568Y346716D02*
X769869D01*
X727897Y328041D02*
X730821D01*
X729784Y320778D02*
X732990D01*
X768455Y343886D02*
X772133D01*
X729501Y321438D02*
X732708D01*
X728275Y335492D02*
X731293D01*
X733839Y346527D02*
X737329D01*
X727803Y332474D02*
X730821D01*
X772699Y325966D02*
X775717D01*
X740819Y335209D02*
X744120D01*
X771756Y322759D02*
X774868D01*
X732425Y316062D02*
X736292D01*
X733839Y328890D02*
X736858D01*
X734122Y333700D02*
X737046D01*
X766568Y313987D02*
X769681D01*
X770435Y340962D02*
X773736D01*
X772416Y336058D02*
X775528D01*
X734028Y333228D02*
X736952D01*
X770718Y340397D02*
X774019D01*
X740630Y326154D02*
X743837D01*
X742422Y322948D02*
X745912D01*
X766568Y314082D02*
X769775D01*
X762512Y319458D02*
X766379D01*
X733934Y332474D02*
X736858D01*
X735066Y323891D02*
X738272D01*
X763456Y320495D02*
X767134D01*
X729972Y320307D02*
X733273D01*
X738838Y317854D02*
X741385D01*
X763550Y320684D02*
X767228D01*
X737707Y341717D02*
X741574D01*
X772133Y337190D02*
X775246D01*
X739876Y330682D02*
X742800D01*
X764965Y322570D02*
X768266D01*
X742894Y322476D02*
X745818D01*
X728180Y335115D02*
X731199D01*
X761098Y330116D02*
X764022D01*
X765625Y323797D02*
X768832D01*
X729312Y321910D02*
X732519D01*
X769775Y342094D02*
X773170D01*
X758174Y323702D02*
X761946D01*
X762607Y319552D02*
X766474D01*
X766568Y326249D02*
X769586D01*
X736858Y340585D02*
X740630D01*
X730821Y318609D02*
X734311D01*
X770624Y320307D02*
X773925D01*
X770624Y340680D02*
X773925D01*
X727897Y333040D02*
X730821D01*
X771944Y337756D02*
X775057D01*
X758268Y322099D02*
X760720D01*
X733745Y346433D02*
X737329D01*
X762607Y317666D02*
X764870D01*
X749119Y325117D02*
X754778D01*
X762795Y319835D02*
X766662D01*
X773076Y332945D02*
X776000D01*
X733839Y329361D02*
X736763D01*
X759400Y325117D02*
X762795D01*
X767228Y313138D02*
X768832D01*
X737141Y340962D02*
X741008D01*
X747138Y326815D02*
X756759D01*
X768832Y317571D02*
X772416D01*
X760815Y328041D02*
X763833D01*
X731010Y342660D02*
X734594D01*
X763550Y340208D02*
X767228D01*
X728652Y323985D02*
X731670D01*
X768360Y316911D02*
X772039D01*
X770247Y319646D02*
X773642D01*
X772322Y336435D02*
X775434D01*
X736197Y321438D02*
X739687D01*
X766568Y346810D02*
X769775D01*
X728558Y324362D02*
X731576D01*
X728180Y325777D02*
X731199D01*
X763173Y320212D02*
X766945D01*
X741479Y324457D02*
X745063D01*
X735254Y337661D02*
X738555D01*
X748836Y325306D02*
X755061D01*
X736386Y339736D02*
X739876D01*
X760815Y332568D02*
X763833D01*
X772416Y336152D02*
X775434D01*
X767040Y313233D02*
X768926D01*
X735066Y323702D02*
X738367D01*
X739970Y328795D02*
X742988D01*
X768926Y343226D02*
X772510D01*
X727803Y331625D02*
X730727D01*
X727803Y328324D02*
X730821D01*
X734217Y334454D02*
X737235D01*
X772887Y327003D02*
X775906D01*
X742140Y323325D02*
X745818D01*
X739970Y329173D02*
X742894D01*
X745912Y330399D02*
X757985D01*
X733934Y328795D02*
X736858D01*
X738650Y318137D02*
X741574D01*
X731199Y317949D02*
X734783D01*
X759872Y334926D02*
X763173D01*
X728369Y335775D02*
X731387D01*
X766285Y335398D02*
X769398D01*
X766662Y334266D02*
X769681D01*
X739876Y330587D02*
X742800D01*
X758174Y337190D02*
X761946D01*
X746761Y327381D02*
X757136D01*
X767134Y330776D02*
X770058D01*
X734783Y313421D02*
X736952D01*
X769492Y342472D02*
X772982D01*
X728652Y336907D02*
X731670D01*
X734028Y333417D02*
X737046D01*
X767040Y328512D02*
X769964D01*
X762607Y341340D02*
X766474D01*
X763173Y343604D02*
X764305D01*
X763738Y340019D02*
X767417D01*
X766757Y327003D02*
X769775D01*
X759305Y325023D02*
X762795D01*
X735537Y347942D02*
X736197D01*
X730161Y340962D02*
X733462D01*
X742045Y337378D02*
X745818D01*
X758362Y323985D02*
X762135D01*
X772416Y336341D02*
X775434D01*
X728746Y337284D02*
X731764D01*
X728463Y336341D02*
X731481D01*
X768266Y316817D02*
X771944D01*
X739121Y343321D02*
X741196D01*
X736009Y321721D02*
X739499D01*
X729501Y339548D02*
X732708D01*
X765625Y323891D02*
X768832D01*
X747610Y334643D02*
X756287D01*
X735160Y323608D02*
X738367D01*
X757985Y323231D02*
X761664D01*
X735820Y338699D02*
X739216D01*
X741574Y336624D02*
X745252D01*
X765719Y336907D02*
X768926D01*
X743837Y321627D02*
X745063D01*
X748364Y325588D02*
X755533D01*
X773170Y328607D02*
X776094D01*
X730350Y341340D02*
X733651D01*
X727803Y330965D02*
X730727D01*
X733462Y314836D02*
X737235D01*
X762607Y317760D02*
X764965D01*
X734028Y327663D02*
X736952D01*
X772227Y324174D02*
X775340D01*
X767134Y330022D02*
X770058D01*
X729312Y321816D02*
X732519D01*
X727803Y332568D02*
X730821D01*
X734028Y333134D02*
X736952D01*
X739970Y328701D02*
X742988D01*
X773170Y331059D02*
X776094D01*
X727897Y332851D02*
X730821D01*
X728275Y325211D02*
X731293D01*
X742422Y337944D02*
X745912D01*
X733839Y331436D02*
X736763D01*
X760815Y332851D02*
X763833D01*
X765436Y323419D02*
X768737D01*
X760720Y333040D02*
X763738D01*
X737612Y341529D02*
X741479D01*
X728558Y336530D02*
X731576D01*
X746478Y327947D02*
X757419D01*
X750062Y336152D02*
X753835D01*
X764116Y339548D02*
X767700D01*
X733839Y330870D02*
X736763D01*
X766474Y334926D02*
X769492D01*
X729218Y322099D02*
X732425D01*
X766568Y314459D02*
X770152D01*
X767040Y332002D02*
X770058D01*
X772699Y325872D02*
X775717D01*
X771567Y338605D02*
X774774D01*
X766568Y346433D02*
X770152D01*
X773076Y328324D02*
X776094D01*
X762701Y317571D02*
X764776D01*
X773076Y333228D02*
X776000D01*
X730632Y318892D02*
X734122D01*
X747233Y334171D02*
X756665D01*
X744026Y321533D02*
X744875D01*
X730350Y319552D02*
X733651D01*
X771284Y339359D02*
X774491D01*
X772699Y325777D02*
X775717D01*
X746950Y333794D02*
X756948D01*
X746007Y331531D02*
X757891D01*
X730444Y341623D02*
X733839D01*
X771567Y338699D02*
X774680D01*
X773170Y332002D02*
X776094D01*
X766851Y345584D02*
X770813D01*
X758645Y324268D02*
X762324D01*
X769303Y342660D02*
X772887D01*
X765153Y338039D02*
X768455D01*
X773170Y330587D02*
X776094D01*
X760060Y326249D02*
X763267D01*
X727803Y329927D02*
X730727D01*
X727803Y329173D02*
X730727D01*
X741102Y325117D02*
X744497D01*
X769964Y341717D02*
X773359D01*
X734311Y346999D02*
X737235D01*
X727803Y331908D02*
X730727D01*
X730067Y340774D02*
X733368D01*
X766757Y333983D02*
X769775D01*
X740159Y333134D02*
X743177D01*
X738933Y317760D02*
X741291D01*
X766474Y334832D02*
X769586D01*
X759211Y324928D02*
X762701D01*
X731576Y317288D02*
X735254D01*
X727992Y327003D02*
X731010D01*
X767700Y312950D02*
X768360D01*
X733085Y315308D02*
X737046D01*
X729878Y320401D02*
X733179D01*
X771190Y339548D02*
X774397D01*
X736386Y321061D02*
X739970D01*
X739876Y329739D02*
X742800D01*
X758079Y338416D02*
X761003D01*
X769115Y317854D02*
X772605D01*
X733273Y345867D02*
X737141D01*
X740253Y333323D02*
X743271D01*
X733934Y332851D02*
X736952D01*
X773076Y328418D02*
X776094D01*
X765342Y337661D02*
X768643D01*
X746290Y328512D02*
X757608D01*
X731953Y344169D02*
X735726D01*
X768549Y343698D02*
X772227D01*
X760909Y332191D02*
X763927D01*
X772887Y334171D02*
X775906D01*
X758457Y324079D02*
X762229D01*
X734122Y346810D02*
X737329D01*
X734217Y334360D02*
X737235D01*
X739970Y331814D02*
X742894D01*
X767040Y332663D02*
X769964D01*
X727897Y327475D02*
X730916D01*
X746101Y329078D02*
X757796D01*
X748176Y325777D02*
X755721D01*
X734405Y313799D02*
X737235D01*
X728369Y335964D02*
X731387D01*
X730821Y342283D02*
X734311D01*
X741951Y337190D02*
X745724D01*
X767134Y330870D02*
X770058D01*
X766662Y314836D02*
X770435D01*
X730916Y342472D02*
X734405D01*
X746572Y333228D02*
X757325D01*
X740819Y325777D02*
X744120D01*
X770624Y340585D02*
X773925D01*
X766002Y324645D02*
X769115D01*
X761098Y329739D02*
X764022D01*
X737329Y319646D02*
X741291D01*
X767228Y345207D02*
X771190D01*
X746101Y331719D02*
X757796D01*
X767606Y344830D02*
X771473D01*
X766096Y336058D02*
X769209D01*
X728086Y326626D02*
X731010D01*
X770058Y341623D02*
X773453D01*
X730255Y341245D02*
X733651D01*
X741008Y325400D02*
X744309D01*
X738744Y342849D02*
X741479D01*
X738367Y318420D02*
X741574D01*
X767134Y331153D02*
X770058D01*
X740064Y332757D02*
X743083D01*
X758834Y339265D02*
X760060D01*
X769020Y343132D02*
X772605D01*
X739876Y331436D02*
X742894D01*
X766662Y334171D02*
X769681D01*
X741668Y324079D02*
X745441D01*
X732330Y344641D02*
X736103D01*
X738461Y318326D02*
X741574D01*
X769586Y342283D02*
X773076D01*
X764587Y338887D02*
X767983D01*
X771378Y321816D02*
X774585D01*
X750345Y324645D02*
X753552D01*
X772982Y327286D02*
X775906D01*
X747799Y326060D02*
X756099D01*
X734688Y335964D02*
X737801D01*
X735066Y347753D02*
X736669D01*
X732425Y344735D02*
X736197D01*
X734122Y327098D02*
X737141D01*
X740064Y332568D02*
X743083D01*
X761003Y331719D02*
X763927D01*
X734405Y325872D02*
X737423D01*
X764022Y321250D02*
X767606D01*
X773170Y328890D02*
X776094D01*
X765153Y337944D02*
X768455D01*
X769869Y319081D02*
X773359D01*
X729878Y340397D02*
X733179D01*
X760626Y327475D02*
X763644D01*
X728652Y323797D02*
X731764D01*
X766851Y347376D02*
X769209D01*
X746007Y329833D02*
X757891D01*
X767983Y344358D02*
X771756D01*
X736669Y340302D02*
X740347D01*
X735443Y322948D02*
X738744D01*
X762984Y317383D02*
X764493D01*
X762324Y318326D02*
X765436D01*
X747421Y334360D02*
X756476D01*
X772793Y334454D02*
X775811D01*
X739876Y330776D02*
X742800D01*
X747893Y325966D02*
X756004D01*
X733839Y330399D02*
X736763D01*
X734971Y336907D02*
X738178D01*
X742894Y338510D02*
X745818D01*
X760060Y326154D02*
X763267D01*
X749591Y324928D02*
X754307D01*
X763738Y320873D02*
X767417D01*
X730161Y319929D02*
X733462D01*
X747327Y326626D02*
X756570D01*
X729878Y320495D02*
X733179D01*
X746007Y329644D02*
X757891D01*
X770813Y320684D02*
X774114D01*
X728935Y338039D02*
X732047D01*
X771850D02*
X774962D01*
X731481Y317571D02*
X735066D01*
X772227Y336718D02*
X775340D01*
X772982Y327569D02*
X776000D01*
X737518Y341434D02*
X741385D01*
X747893Y334926D02*
X756004D01*
X731010Y318326D02*
X734500D01*
X746101Y328984D02*
X757796D01*
X734122Y326815D02*
X737141D01*
X728652Y337095D02*
X731764D01*
X766757Y333700D02*
X769775D01*
X736858Y320401D02*
X740536D01*
X760249Y326626D02*
X763456D01*
X766851Y327475D02*
X769869D01*
X766851Y345678D02*
X770813D01*
X738178Y342283D02*
X741574D01*
X772227Y336907D02*
X775246D01*
X734028Y327947D02*
X736952D01*
X764682Y338793D02*
X768077D01*
X734971Y324079D02*
X738178D01*
X767040Y328418D02*
X769964D01*
X728840Y337661D02*
X731953D01*
X736858Y320307D02*
X740630D01*
X769681Y342189D02*
X773170D01*
Y329833D02*
X776094D01*
X736858Y340491D02*
X740536D01*
X740064Y328324D02*
X743083D01*
X740442Y326720D02*
X743649D01*
X771944Y337661D02*
X775057D01*
X762324Y342283D02*
X765719D01*
X746007Y329550D02*
X757891D01*
X771190Y321438D02*
X774397D01*
X737895Y318986D02*
X741574D01*
X733651Y346339D02*
X737329D01*
X761003Y329173D02*
X763927D01*
X738367Y342472D02*
X741574D01*
X727992Y333606D02*
X730916D01*
X760154Y334454D02*
X763361D01*
X772133Y323891D02*
X775246D01*
X734783Y347565D02*
X736952D01*
X738272Y318515D02*
X741574D01*
X734217Y326532D02*
X737235D01*
X764305Y321533D02*
X767794D01*
X766757Y327098D02*
X769775D01*
X765248Y337850D02*
X768549D01*
X747704Y326154D02*
X756193D01*
X761003Y332002D02*
X763927D01*
X728935Y323042D02*
X732047D01*
X765531Y323608D02*
X768737D01*
X759872Y325966D02*
X763173D01*
X734783Y324457D02*
X737989D01*
X762701Y319741D02*
X766568D01*
X760909Y332474D02*
X763833D01*
X760154Y334549D02*
X763361D01*
X767417Y347848D02*
X768643D01*
X747044Y327003D02*
X756853D01*
X735349Y337756D02*
X738650D01*
X736575Y320778D02*
X740253D01*
X735349Y323136D02*
X738650D01*
X771284Y321627D02*
X774491D01*
X730350Y341434D02*
X733745D01*
X740064Y328229D02*
X743083D01*
X734028Y327569D02*
X737046D01*
X758362Y338982D02*
X760532D01*
X766379Y325683D02*
X769492D01*
X743460Y339076D02*
X745441D01*
X736197Y321344D02*
X739781D01*
X772793Y326154D02*
X775811D01*
X763833Y339925D02*
X767417D01*
X767134Y331248D02*
X770058D01*
X766662Y326720D02*
X769681D01*
X746384Y332663D02*
X757514D01*
X766662Y313799D02*
X769492D01*
X766568Y346150D02*
X770341D01*
X772039Y323325D02*
X775057D01*
X769586Y318609D02*
X773076D01*
X772699Y325683D02*
X775717D01*
X770435Y340868D02*
X773831D01*
X766851Y333323D02*
X769869D01*
X762984Y320024D02*
X766851D01*
X767134Y329267D02*
X770058D01*
X764965Y338322D02*
X768266D01*
X771944Y323231D02*
X775057D01*
X729218Y322004D02*
X732425D01*
X761098Y330965D02*
X764022D01*
X733368Y345961D02*
X737235D01*
X760532Y333700D02*
X763550D01*
X740347Y327192D02*
X743366D01*
X740347Y333700D02*
X743366D01*
X765531Y337190D02*
X768832D01*
X736292Y339642D02*
X739876D01*
X763927Y339831D02*
X767511D01*
X733839Y330304D02*
X736763D01*
X730255Y319646D02*
X733651D01*
X734217Y313987D02*
X737329D01*
X727803Y329739D02*
X730727D01*
X727803Y330022D02*
X730727D01*
X727803Y330304D02*
X730727D01*
X766568Y346622D02*
X769964D01*
X742800Y338322D02*
X745818D01*
X734405Y335209D02*
X737518D01*
X771473Y338887D02*
X774680D01*
X773170Y331436D02*
X776094D01*
X765814Y336718D02*
X769020D01*
X739876Y330210D02*
X742800D01*
X729124Y322287D02*
X732330D01*
X772793Y334738D02*
X775811D01*
X773170Y329456D02*
X776094D01*
X729029Y322665D02*
X732142D01*
X757985Y337661D02*
X761664D01*
X728463Y336152D02*
X731481D01*
X746290Y332474D02*
X757608D01*
X727897Y327663D02*
X730821D01*
X739876Y329644D02*
X742800D01*
X767134Y330493D02*
X770058D01*
X728369Y324834D02*
X731481D01*
X766568Y314742D02*
X770341D01*
X767040Y345396D02*
X771001D01*
X740347Y333983D02*
X743554D01*
X759777Y325683D02*
X763078D01*
X765531Y323702D02*
X768832D01*
X732047Y344264D02*
X735820D01*
X759683Y335303D02*
X762984D01*
X740442Y334266D02*
X743649D01*
X760909Y328607D02*
X763927D01*
X735537Y338227D02*
X738838D01*
X763644Y340114D02*
X767323D01*
X729595Y321061D02*
X732896D01*
X739970Y332002D02*
X742894D01*
X772982Y333511D02*
X776000D01*
X758834Y321627D02*
X760060D01*
X762324Y342755D02*
X765248D01*
X742140Y337567D02*
X745818D01*
X761003Y331814D02*
X763927D01*
X760532Y327381D02*
X763644D01*
X743366Y321910D02*
X745535D01*
X771284Y339265D02*
X774491D01*
X734311Y313893D02*
X737235D01*
X728180Y326060D02*
X731104D01*
X746384Y328229D02*
X757514D01*
X771661Y338322D02*
X774868D01*
X735443Y337944D02*
X738744D01*
X765625Y337095D02*
X768832D01*
X728463Y336247D02*
X731481D01*
X727803Y329267D02*
X730727D01*
X758457Y336813D02*
X762229D01*
X767134Y330304D02*
X770058D01*
X772227Y336813D02*
X775340D01*
X769209Y342849D02*
X772793D01*
X742234Y337661D02*
X745912D01*
X741951Y323702D02*
X745724D01*
X730916Y318420D02*
X734405D01*
X734217Y326437D02*
X737235D01*
X757985Y338227D02*
X761192D01*
X767134Y328984D02*
X770058D01*
X758457Y339076D02*
X760437D01*
X762418Y317949D02*
X765153D01*
X759777Y325777D02*
X763078D01*
X770341Y341057D02*
X773736D01*
X758834Y324457D02*
X762418D01*
X742328Y337756D02*
X745912D01*
X760720Y327947D02*
X763738D01*
X740725Y334832D02*
X743932D01*
X734405Y334926D02*
X737423D01*
X739876Y329550D02*
X742800D01*
X764399Y339170D02*
X767889D01*
X758079Y337378D02*
X761852D01*
X766285Y325306D02*
X769398D01*
X730632Y318986D02*
X734028D01*
X773170Y330870D02*
X776094D01*
X746007Y329927D02*
X757891D01*
X771944Y323136D02*
X775057D01*
X765436Y337473D02*
X768737D01*
X749308Y335869D02*
X754590D01*
X765908Y336435D02*
X769115D01*
X759211Y335964D02*
X762701D01*
X731859Y316911D02*
X735537D01*
X728840Y337567D02*
X731859D01*
X760343Y326815D02*
X763456D01*
X733839Y331248D02*
X736763D01*
X731670Y317194D02*
X735349D01*
X772699Y335209D02*
X775717D01*
X761098Y331153D02*
X764022D01*
X767134Y329078D02*
X770058D01*
X773170Y328512D02*
X776094D01*
X728180Y335209D02*
X731199D01*
X757985Y322948D02*
X761475D01*
X729501Y321344D02*
X732708D01*
X740536Y326532D02*
X743649D01*
X731104Y318137D02*
X734594D01*
X758079Y338510D02*
X760909D01*
X740536Y326343D02*
X743743D01*
X731293Y317760D02*
X734877D01*
X760532Y327286D02*
X763644D01*
X738744Y317949D02*
X741479D01*
X763173Y317288D02*
X764305D01*
X740159Y327758D02*
X743177D01*
X766662Y326437D02*
X769681D01*
X741008Y325306D02*
X744403D01*
X730350Y319458D02*
X733745D01*
X772605Y335681D02*
X775623D01*
X760437Y333889D02*
X763550D01*
X733839Y331625D02*
X736763D01*
X734783Y324551D02*
X737895D01*
X732708Y345113D02*
X736575D01*
X746101Y331908D02*
X757796D01*
X762324Y319175D02*
X766191D01*
X773076Y328135D02*
X776000D01*
X757985Y338133D02*
X761286D01*
X746855Y327286D02*
X757042D01*
X741102Y335869D02*
X744592D01*
X747044Y333983D02*
X756853D01*
X766757Y333794D02*
X769775D01*
X741385Y324551D02*
X744969D01*
X727803Y328607D02*
X730727D01*
X728086Y334738D02*
X731104D01*
X734122Y333606D02*
X737046D01*
X765153Y322853D02*
X768455D01*
X770247Y319552D02*
X773548D01*
X742988Y322287D02*
X745724D01*
X734500Y335303D02*
X737518D01*
X746007Y329739D02*
X757891D01*
X762701Y343321D02*
X764776D01*
X738084Y342189D02*
X741574D01*
X770907Y320873D02*
X774208D01*
X768549Y317194D02*
X772227D01*
X734688Y324834D02*
X737801D01*
X768832Y343415D02*
X772416D01*
X773170Y330399D02*
X776094D01*
X738838Y343037D02*
X741385D01*
X736480Y320873D02*
X740159D01*
X734028Y333511D02*
X737046D01*
X766662Y334360D02*
X769681D01*
X767040Y328795D02*
X769964D01*
X728935Y322853D02*
X732047D01*
X728086Y326343D02*
X731104D01*
X759683Y325588D02*
X762984D01*
X772605Y335303D02*
X775623D01*
X742988Y322382D02*
X745818D01*
X762984Y343509D02*
X764493D01*
X732519Y315968D02*
X736386D01*
X731859Y343981D02*
X735537D01*
X764682Y338699D02*
X768077D01*
X758079Y337567D02*
X761758D01*
X734028Y327475D02*
X737046D01*
X733085Y345584D02*
X737046D01*
X761003Y329267D02*
X763927D01*
X728840Y323231D02*
X731953D01*
X746007Y331342D02*
X757891D01*
X745912Y330682D02*
X757985D01*
X745912Y330493D02*
X757985D01*
X734405Y325777D02*
X737518D01*
X738650Y342755D02*
X741574D01*
X766851Y313516D02*
X769209D01*
X762324Y319081D02*
X766096D01*
X766191Y325023D02*
X769303D01*
X733934Y332757D02*
X736952D01*
X737518Y319458D02*
X741385D01*
X771850Y322948D02*
X774962D01*
X762324Y342000D02*
X765908D01*
X765059Y322759D02*
X768360D01*
X733934Y328041D02*
X736952D01*
X773170Y332096D02*
X776094D01*
X761098Y330682D02*
X764022D01*
X728463Y324551D02*
X731481D01*
X746761Y333417D02*
X757231D01*
X765059Y338227D02*
X768360D01*
X767040Y332474D02*
X769964D01*
X759400Y325211D02*
X762890D01*
X737989Y342000D02*
X741574D01*
X767134Y331719D02*
X770058D01*
X762324Y341811D02*
X766096D01*
X766662Y314930D02*
X770529D01*
X748364Y335303D02*
X755533D01*
X728840Y323136D02*
X731953D01*
X770341Y341151D02*
X773642D01*
X758079Y337473D02*
X761758D01*
X727803Y331719D02*
X730727D01*
X735820Y322193D02*
X739216D01*
X731293Y343037D02*
X734783D01*
X731481Y343321D02*
X735066D01*
X773076Y328041D02*
X776000D01*
X767134Y329644D02*
X770058D01*
X760909Y332096D02*
X763927D01*
X772416Y324740D02*
X775434D01*
X734594Y325023D02*
X737707D01*
X746478Y327852D02*
X757419D01*
X770152Y341434D02*
X773548D01*
X728086Y326437D02*
X731104D01*
X738555Y318232D02*
X741574D01*
X728652Y337190D02*
X731764D01*
X732047Y316628D02*
X735820D01*
X727897Y333228D02*
X730821D01*
X729595Y339831D02*
X732896D01*
X746761Y333511D02*
X757136D01*
X746384Y332757D02*
X757514D01*
X771095Y321250D02*
X774397D01*
X770907Y340114D02*
X774114D01*
X761098Y330022D02*
X764022D01*
X730727Y318798D02*
X734122D01*
X762324Y318986D02*
X766002D01*
X762890Y319929D02*
X766757D01*
X766945Y333040D02*
X769869D01*
X733839Y331153D02*
X736763D01*
X763361Y320401D02*
X767040D01*
X741574Y324174D02*
X745346D01*
X733934Y328229D02*
X736858D01*
X746572Y327758D02*
X757325D01*
X736669Y320590D02*
X740347D01*
X746572Y333134D02*
X757325D01*
X734783Y347471D02*
X737046D01*
X772133Y323702D02*
X775246D01*
X766851Y313421D02*
X769115D01*
X743460Y321816D02*
X745441D01*
X731010Y342566D02*
X734500D01*
X746290Y332379D02*
X757608D01*
X760626Y327663D02*
X763738D01*
X740159Y327852D02*
X743177D01*
X768455Y317006D02*
X772133D01*
Y337001D02*
X775246D01*
X770529Y320118D02*
X773831D01*
X735160Y337378D02*
X738461D01*
X733934Y328607D02*
X736858D01*
X738084Y318703D02*
X741574D01*
X741951Y337284D02*
X745724D01*
X761098Y330870D02*
X764022D01*
X748270Y335209D02*
X755627D01*
X746195Y332191D02*
X757702D01*
X734688Y324740D02*
X737895D01*
X730067Y320024D02*
X733462D01*
X760815Y332663D02*
X763833D01*
X772887Y326532D02*
X775811D01*
X760343Y334171D02*
X763456D01*
X729406Y321533D02*
X732613D01*
X733368Y314930D02*
X737235D01*
X773170Y330776D02*
X776094D01*
X766474Y325966D02*
X769492D01*
X759872Y325872D02*
X763173D01*
X772605Y335398D02*
X775623D01*
X734405Y325683D02*
X737518D01*
X732802Y315591D02*
X736763D01*
X731104Y342849D02*
X734688D01*
X731199Y342943D02*
X734783D01*
X733839Y332002D02*
X736858D01*
X739970Y332191D02*
X742988D01*
X766851Y333606D02*
X769775D01*
X727803Y329361D02*
X730727D01*
X766096Y324928D02*
X769209D01*
X736480Y320967D02*
X740064D01*
X757985Y322853D02*
X761381D01*
X736103Y321533D02*
X739593D01*
X731387Y343226D02*
X734971D01*
X737046Y320024D02*
X740913D01*
X728558Y336624D02*
X731576D01*
X731953Y316723D02*
X735726D01*
X772982Y333606D02*
X775906D01*
X771567Y322193D02*
X774680D01*
X729878Y340491D02*
X733179D01*
X742517Y322853D02*
X745912D01*
X734688Y324928D02*
X737801D01*
X735254Y313044D02*
X736480D01*
X737612Y341623D02*
X741479D01*
X727803Y331436D02*
X730727D01*
X766285Y335586D02*
X769398D01*
X762324Y342472D02*
X765531D01*
X771473Y322099D02*
X774680D01*
X740913Y335398D02*
X744309D01*
X727803Y332285D02*
X730727D01*
X758174Y338699D02*
X760815D01*
X741668Y336813D02*
X745441D01*
X760437Y333794D02*
X763550D01*
X765531Y337284D02*
X768737D01*
X773170Y332191D02*
X776094D01*
X762607Y343132D02*
X764965D01*
X759023Y321533D02*
X759872D01*
X733839Y331908D02*
X736763D01*
X740630Y334643D02*
X743837D01*
X733934Y332379D02*
X736858D01*
X773170Y329078D02*
X776094D01*
X747516Y334549D02*
X756382D01*
X747233Y326720D02*
X756665D01*
X747421Y326437D02*
X756476D01*
X739876Y331059D02*
X742800D01*
X728369Y335869D02*
X731387D01*
X735726Y322382D02*
X739027D01*
X771473Y322004D02*
X774680D01*
X739876Y330116D02*
X742800D01*
X766945Y315402D02*
X770907D01*
X740630Y326249D02*
X743837D01*
X728652Y323702D02*
X731764D01*
X739593Y317288D02*
X740725D01*
X739876Y330493D02*
X742800D01*
X767889Y316345D02*
X771661D01*
X737046Y340868D02*
X740913D01*
X771001Y320967D02*
X774208D01*
X766851Y347471D02*
X769115D01*
X769775Y318798D02*
X773170D01*
X747799Y334832D02*
X756099D01*
X760532Y333606D02*
X763644D01*
X745912Y330022D02*
X757985D01*
X741479Y324362D02*
X745158D01*
X728840Y337756D02*
X731953D01*
X733839Y329739D02*
X736763D01*
X771661Y322570D02*
X774868D01*
X772887Y334266D02*
X775811D01*
X766191Y335869D02*
X769303D01*
X727803Y332096D02*
X730727D01*
X741008Y335492D02*
X744309D01*
X734405Y335115D02*
X737518D01*
X772982Y333323D02*
X776000D01*
X731481Y343415D02*
X735066D01*
X773170Y328701D02*
X776094D01*
X760626Y327569D02*
X763644D01*
X764682Y322099D02*
X768077D01*
X762418Y319269D02*
X766285D01*
X736386Y321156D02*
X739876D01*
X770435Y319929D02*
X773736D01*
X747044Y333889D02*
X756853D01*
X760249Y334266D02*
X763456D01*
X730444Y341529D02*
X733839D01*
X727803Y331531D02*
X730727D01*
X737707Y319175D02*
X741574D01*
X727803Y330776D02*
X730727D01*
X772039Y323513D02*
X775151D01*
X771378Y321721D02*
X774585D01*
X728086Y334360D02*
X731010D01*
X765814Y336624D02*
X769020D01*
X729406Y339265D02*
X732613D01*
X727803Y330587D02*
X730727D01*
X733934Y328324D02*
X736858D01*
X727897Y332945D02*
X730821D01*
X764022Y339642D02*
X767606D01*
X728652Y337001D02*
X731764D01*
X739970Y332096D02*
X742988D01*
X769586Y342377D02*
X772982D01*
X766662Y345961D02*
X770529D01*
X765719Y336813D02*
X768926D01*
X740347Y333889D02*
X743460D01*
X766945Y327663D02*
X769869D01*
X763361Y340491D02*
X767040D01*
X734500Y335398D02*
X737612D01*
X739876Y329833D02*
X742800D01*
X727897Y327758D02*
X730821D01*
X733839Y330682D02*
X736763D01*
X734311Y326154D02*
X737329D01*
X765436Y323513D02*
X768737D01*
X772793Y334549D02*
X775811D01*
X739876Y329456D02*
X742894D01*
X772887Y334360D02*
X775811D01*
X733839Y330776D02*
X736763D01*
X758362Y336907D02*
X762135D01*
X740536Y334454D02*
X743743D01*
X766945Y332757D02*
X769964D01*
X730632Y341906D02*
X734028D01*
X740442Y334077D02*
X743554D01*
X737235Y341057D02*
X741102D01*
X739970Y331908D02*
X742894D01*
X727897Y327381D02*
X730916D01*
X764116Y321344D02*
X767700D01*
X738744Y342943D02*
X741479D01*
X737895Y341906D02*
X741574D01*
X734311Y334738D02*
X737329D01*
Y341151D02*
X741196D01*
X765342Y323231D02*
X768643D01*
X738272Y342377D02*
X741574D01*
X762324Y318515D02*
X765625D01*
X734594Y335775D02*
X737707D01*
X769869Y341906D02*
X773265D01*
X771850Y337944D02*
X774962D01*
X764587Y322004D02*
X767983D01*
X728275Y335586D02*
X731293D01*
X767228Y315685D02*
X771095D01*
X737989Y342094D02*
X741574D01*
X733839Y330116D02*
X736763D01*
X760720Y327758D02*
X763738D01*
X762324Y342094D02*
X765908D01*
X734122Y314082D02*
X737329D01*
X740347Y327003D02*
X743460D01*
X762795Y341057D02*
X766662D01*
X766757Y326909D02*
X769775D01*
X728275Y325588D02*
X731199D01*
X769775Y318892D02*
X773265D01*
X740725Y335020D02*
X744026D01*
X759588Y335398D02*
X762984D01*
X746667Y333323D02*
X757231D01*
X746384Y328135D02*
X757514D01*
X768455Y317100D02*
X772133D01*
X729406Y339359D02*
X732613D01*
X772039Y323419D02*
X775151D01*
X772416Y336247D02*
X775434D01*
X745912Y330870D02*
X757985D01*
X727992Y327098D02*
X730916D01*
X730727Y342094D02*
X734122D01*
X729029Y338133D02*
X732142D01*
X772133Y337095D02*
X775246D01*
X728086Y326154D02*
X731104D01*
X727897Y332663D02*
X730821D01*
X766568Y346244D02*
X770341D01*
X758645Y336624D02*
X762324D01*
X730916Y318515D02*
X734311D01*
X739970Y331719D02*
X742894D01*
X746195Y328607D02*
X757702D01*
X735914Y338887D02*
X739310D01*
X773076Y332757D02*
X776000D01*
X732142Y344358D02*
X735914D01*
X759777Y335209D02*
X763078D01*
X727803Y328512D02*
X730727D01*
X760343Y326909D02*
X763550D01*
X739876Y331153D02*
X742800D01*
X760909Y328512D02*
X763833D01*
X766757Y326815D02*
X769775D01*
X734500Y335492D02*
X737612D01*
X766945Y333134D02*
X769869D01*
X734405Y325966D02*
X737423D01*
X758551Y324174D02*
X762324D01*
X740725Y334926D02*
X744026D01*
X746007Y331059D02*
X757891D01*
X762324Y318798D02*
X765908D01*
X727992Y333889D02*
X731010D01*
X761098Y331342D02*
X764022D01*
X773170Y329739D02*
X776094D01*
X773076Y327663D02*
X776000D01*
X760815Y328324D02*
X763833D01*
X772133Y323797D02*
X775246D01*
X732708Y315685D02*
X736669D01*
X749025Y335681D02*
X754873D01*
X765248Y323042D02*
X768549D01*
X772605Y325400D02*
X775623D01*
X770907Y320778D02*
X774114D01*
X767040Y328701D02*
X769964D01*
X759400Y335775D02*
X762795D01*
X731953Y316817D02*
X735631D01*
X767700Y344735D02*
X771473D01*
X747327Y334266D02*
X756570D01*
X743366Y338982D02*
X745535D01*
X737329Y341245D02*
X741291D01*
X761098Y330587D02*
X764022D01*
X762324Y318609D02*
X765719D01*
X769492Y318420D02*
X772982D01*
X760626Y333323D02*
X763644D01*
X728746Y323513D02*
X731859D01*
X771850Y322853D02*
X774962D01*
X736952Y340680D02*
X740725D01*
X731764Y317006D02*
X735443D01*
X772133Y337284D02*
X775151D01*
X761003Y331531D02*
X763927D01*
X736669Y320684D02*
X740347D01*
X765625Y337001D02*
X768832D01*
X759117Y336058D02*
X762701D01*
X750062Y324740D02*
X753835D01*
X765814Y324174D02*
X769020D01*
X737141Y319929D02*
X741008D01*
X730161Y319835D02*
X733556D01*
D14*
X830888Y175594D02*
Y185594D01*
X812389Y147654D02*
Y157654D01*
Y147654D02*
X840389D01*
Y157654D01*
X812389D02*
X840389D01*
X813151Y93552D02*
Y103552D01*
Y93552D02*
X841151D01*
Y103552D01*
X813151D02*
X841151D01*
X518498Y528022D02*
X525569Y535094D01*
X518498Y528022D02*
X538297Y508223D01*
X545368Y515295D01*
X525569Y535094D02*
X545368Y515295D01*
X508499Y506396D02*
X536499D01*
Y496396D02*
Y506396D01*
X508499Y496396D02*
X536499D01*
X508499D02*
Y506396D01*
X610759Y484027D02*
X638759D01*
X610759D02*
Y494027D01*
X638759D01*
Y484027D02*
Y494027D01*
X627760Y468027D02*
Y480028D01*
X622760Y468027D02*
Y480028D01*
X618587Y452073D02*
Y462073D01*
Y452073D02*
X646587D01*
Y462073D01*
X618587D02*
X646587D01*
X618587Y449881D02*
X646587D01*
Y439881D02*
Y449881D01*
X618587Y439881D02*
X646587D01*
X618587D02*
Y449881D01*
X624937Y418500D02*
Y428500D01*
Y418500D02*
X652937D01*
Y428500D01*
X624937D02*
X652937D01*
X612662Y365787D02*
X619733Y372858D01*
X599934Y392657D02*
X619733Y372858D01*
X592863Y385586D02*
X599934Y392657D01*
X592863Y385586D02*
X612662Y365787D01*
X487268Y512024D02*
X499268D01*
X487268Y507024D02*
X499268D01*
X438361Y465943D02*
X445433Y458872D01*
X465232Y478671D01*
X458160Y485742D02*
X465232Y478671D01*
X438361Y465943D02*
X458160Y485742D01*
X407512Y454192D02*
X419512D01*
X407512Y459192D02*
X419512D01*
X426487Y426676D02*
X433558Y433748D01*
X426487Y426676D02*
X446286Y406878D01*
X453357Y413949D01*
X433558Y433748D02*
X453357Y413949D01*
X565000Y365499D02*
X575000D01*
X565000Y337499D02*
Y365499D01*
Y337499D02*
X575000D01*
Y365499D01*
X551500D02*
X561500D01*
X551500Y337499D02*
Y365499D01*
Y337499D02*
X561500D01*
Y365499D01*
X538500D02*
X548500D01*
X538500Y337499D02*
Y365499D01*
Y337499D02*
X548500D01*
Y365499D01*
X524500Y365499D02*
X534500D01*
X524500Y337499D02*
Y365499D01*
Y337499D02*
X534500D01*
Y365499D01*
X494000Y406499D02*
X504000D01*
Y434499D01*
X494000D02*
X504000D01*
X494000Y406499D02*
Y434499D01*
X474500Y391500D02*
Y403500D01*
X469500Y391500D02*
Y403500D01*
X459499Y377270D02*
Y387270D01*
Y377270D02*
X487499D01*
Y387270D01*
X459499D02*
X487499D01*
X493000Y337360D02*
X505000D01*
X493000Y332360D02*
X505000D01*
X475500Y337360D02*
X487500D01*
X475500Y332360D02*
X487500D01*
X527003Y280132D02*
X537003D01*
Y308132D01*
X527003D02*
X537003D01*
X527003Y280132D02*
Y308132D01*
Y279430D02*
X537003D01*
X527003Y251430D02*
Y279430D01*
Y251430D02*
X537003D01*
Y279430D01*
X651000Y289000D02*
X663000D01*
X651000Y284000D02*
X663000D01*
X669000Y284000D02*
X681000D01*
X669000Y289000D02*
X681000D01*
X678499Y253000D02*
Y263000D01*
X650499D02*
X678499D01*
X650499Y253000D02*
Y263000D01*
Y253000D02*
X678499D01*
X649947Y121253D02*
X661946D01*
X649947Y116253D02*
X661946D01*
X631946Y121253D02*
X643947D01*
X631946Y116253D02*
X643947D01*
X614446Y121253D02*
X626446D01*
X614446Y116253D02*
X626446D01*
X611931Y68168D02*
Y80168D01*
X616931Y68168D02*
Y80168D01*
X565418Y96175D02*
Y123175D01*
X564157Y96175D02*
X565418D01*
Y123175D02*
Y124175D01*
X564028D02*
X565418D01*
X535418Y96175D02*
Y123175D01*
Y96175D02*
X536679D01*
X535418Y123175D02*
Y124175D01*
X536808D01*
X614000Y645000D02*
Y655000D01*
Y645000D02*
X642000D01*
Y655000D01*
X614000D02*
X642000D01*
X601000Y689000D02*
X611000D01*
X601000Y661000D02*
Y689000D01*
Y661000D02*
X611000D01*
Y689000D01*
X575263Y662021D02*
X585263D01*
Y690021D01*
X575263D02*
X585263D01*
X575263Y662021D02*
Y690021D01*
X559001Y648000D02*
Y658000D01*
Y648000D02*
X587001D01*
Y658000D01*
X559001D02*
X587001D01*
X382128Y400146D02*
Y412146D01*
X377128Y400146D02*
Y412146D01*
X297000Y476500D02*
X309000D01*
X297000Y471500D02*
X309000D01*
X315000Y476500D02*
X327000D01*
X315000Y471500D02*
X327000D01*
X216062Y582548D02*
X232062D01*
X216062Y566548D02*
X232062D01*
X122550Y395499D02*
X132550D01*
X122550Y367499D02*
Y395499D01*
Y367499D02*
X132550D01*
Y395499D01*
X187934Y385206D02*
X199934D01*
X187934Y390206D02*
X199934D01*
X205582D02*
X217582D01*
X205582Y385206D02*
X217582D01*
X248000Y344500D02*
X276000D01*
X248000D02*
Y354500D01*
X276000D01*
Y344500D02*
Y354500D01*
X156798Y335945D02*
X166798D01*
X156798Y307945D02*
Y335945D01*
Y307945D02*
X166798D01*
Y335945D01*
X294500Y88500D02*
X304500D01*
X294500Y60500D02*
Y88500D01*
Y60500D02*
X304500D01*
Y88500D01*
X183500Y16499D02*
X193500D01*
Y44499D01*
X183500D02*
X193500D01*
X183500Y16499D02*
Y44499D01*
X170704Y62196D02*
X180704D01*
X170704Y34197D02*
Y62196D01*
Y34197D02*
X180704D01*
Y62196D01*
X113000Y36500D02*
X123000D01*
Y64500D01*
X113000D02*
X123000D01*
X113000Y36500D02*
Y64500D01*
X97000Y50500D02*
Y62500D01*
X92000Y50500D02*
Y62500D01*
X97000Y31500D02*
Y43500D01*
X92000Y31500D02*
Y43500D01*
X97000Y13500D02*
Y25500D01*
X92000Y13500D02*
Y25500D01*
D15*
X710377Y36753D02*
Y144754D01*
X673376Y36753D02*
X710377D01*
X673376D02*
Y144754D01*
X710377D01*
X603900Y699000D02*
X707900D01*
X603900D02*
Y905000D01*
X683900D01*
X707900Y881000D01*
Y699000D02*
Y881000D01*
X474500Y699500D02*
X578500D01*
X474500D02*
Y905500D01*
X554500D01*
X578500Y881500D01*
Y699500D02*
Y881500D01*
X43000Y328500D02*
X43000Y318500D01*
X38000Y323500D02*
X48000D01*
D16*
X15322Y74795D02*
X85322D01*
X15322Y254795D02*
X85322D01*
X15322Y74795D02*
Y254795D01*
D17*
X125000Y604000D02*
Y884000D01*
Y604000D02*
X455000D01*
Y884000D01*
X125000D02*
X455000D01*
D18*
X782980Y310273D02*
X781647Y311605D01*
X778982D01*
X777649Y310273D01*
Y308940D01*
X778982Y307607D01*
X781647D01*
X782980Y306274D01*
Y304941D01*
X781647Y303608D01*
X778982D01*
X777649Y304941D01*
X785646Y303608D02*
X788312D01*
X786979D01*
Y311605D01*
X785646Y310273D01*
X821566Y197934D02*
Y189937D01*
X825565D01*
X826898Y191270D01*
Y196601D01*
X825565Y197934D01*
X821566D01*
X829563D02*
X834895D01*
Y196601D01*
X829563Y191270D01*
Y189937D01*
X843653Y147950D02*
Y155948D01*
X847652D01*
X848985Y154615D01*
Y151949D01*
X847652Y150616D01*
X843653D01*
X846319D02*
X848985Y147950D01*
X856982D02*
X851650D01*
X856982Y153282D01*
Y154615D01*
X855649Y155948D01*
X852983D01*
X851650Y154615D01*
X864979Y155948D02*
X859648D01*
Y151949D01*
X862314Y153282D01*
X863647D01*
X864979Y151949D01*
Y149283D01*
X863647Y147950D01*
X860981D01*
X859648Y149283D01*
X850177Y107589D02*
Y112921D01*
X848844Y114254D01*
X846178D01*
X844845Y112921D01*
Y107589D01*
X846178Y106256D01*
X848844D01*
X847511Y108922D02*
X850177Y106256D01*
X848844D02*
X850177Y107589D01*
X858174Y114254D02*
X852842D01*
Y110255D01*
X855508Y111588D01*
X856841D01*
X858174Y110255D01*
Y107589D01*
X856841Y106256D01*
X854175D01*
X852842Y107589D01*
X844872Y93702D02*
Y101700D01*
X848871D01*
X850204Y100367D01*
Y97701D01*
X848871Y96368D01*
X844872D01*
X847538D02*
X850204Y93702D01*
X858201D02*
X852870D01*
X858201Y99034D01*
Y100367D01*
X856868Y101700D01*
X854203D01*
X852870Y100367D01*
X860867Y95035D02*
X862200Y93702D01*
X864866D01*
X866199Y95035D01*
Y100367D01*
X864866Y101700D01*
X862200D01*
X860867Y100367D01*
Y99034D01*
X862200Y97701D01*
X866199D01*
X529797Y535800D02*
X535452Y541455D01*
X538279Y538627D01*
Y536742D01*
X536394Y534857D01*
X534509Y534857D01*
X531682Y537685D01*
X533567Y535800D02*
Y532030D01*
X535452Y530145D02*
X537337Y528260D01*
X536394Y529202D01*
X542049Y534857D01*
X540164Y534857D01*
X544877Y530145D02*
X546762Y530145D01*
X548647Y528260D01*
Y526375D01*
X547704Y525432D01*
X545819D01*
Y523547D01*
X544877Y522605D01*
X542992Y522605D01*
X541107Y524490D01*
Y526375D01*
X542049Y527317D01*
X543934D01*
Y529202D01*
X544877Y530145D01*
X543934Y527317D02*
X545819Y525432D01*
X545213Y503827D02*
X543881Y505160D01*
X541215D01*
X539882Y503827D01*
Y498495D01*
X541215Y497162D01*
X543881D01*
X545213Y498495D01*
X553211Y497162D02*
X547879D01*
X553211Y502494D01*
Y503827D01*
X551878Y505160D01*
X549212D01*
X547879Y503827D01*
X555877D02*
X557210Y505160D01*
X559875D01*
X561208Y503827D01*
Y502494D01*
X559875Y501161D01*
X561208Y499828D01*
Y498495D01*
X559875Y497162D01*
X557210D01*
X555877Y498495D01*
Y499828D01*
X557210Y501161D01*
X555877Y502494D01*
Y503827D01*
X557210Y501161D02*
X559875D01*
X496421Y485881D02*
Y479217D01*
X497753Y477884D01*
X500419D01*
X501752Y479217D01*
Y485881D01*
X509750D02*
X507084Y484548D01*
X504418Y481883D01*
Y479217D01*
X505751Y477884D01*
X508417D01*
X509750Y479217D01*
Y480550D01*
X508417Y481883D01*
X504418D01*
X646477Y490676D02*
X645144Y492009D01*
X642478D01*
X641145Y490676D01*
Y485344D01*
X642478Y484011D01*
X645144D01*
X646477Y485344D01*
X654474Y484011D02*
X649143D01*
X654474Y489343D01*
Y490676D01*
X653141Y492009D01*
X650476D01*
X649143Y490676D01*
X657140Y492009D02*
X662472D01*
Y490676D01*
X657140Y485344D01*
Y484011D01*
X645772Y475709D02*
X644439Y477042D01*
X641773D01*
X640440Y475709D01*
Y470378D01*
X641773Y469045D01*
X644439D01*
X645772Y470378D01*
X653769Y469045D02*
X648438D01*
X653769Y474376D01*
Y475709D01*
X652437Y477042D01*
X649771D01*
X648438Y475709D01*
X661767Y477042D02*
X656435D01*
Y473043D01*
X659101Y474376D01*
X660434D01*
X661767Y473043D01*
Y470378D01*
X660434Y469045D01*
X657768D01*
X656435Y470378D01*
X649800Y452147D02*
Y460145D01*
X653799D01*
X655132Y458812D01*
Y456146D01*
X653799Y454813D01*
X649800D01*
X652466D02*
X655132Y452147D01*
X657797D02*
X660463D01*
X659130D01*
Y460145D01*
X657797Y458812D01*
X668461Y452147D02*
Y460145D01*
X664462Y456146D01*
X669793D01*
X649476Y439555D02*
Y447553D01*
X653475D01*
X654808Y446220D01*
Y443554D01*
X653475Y442221D01*
X649476D01*
X652142D02*
X654808Y439555D01*
X657474D02*
X660139D01*
X658807D01*
Y447553D01*
X657474Y446220D01*
X664138D02*
X665471Y447553D01*
X668137D01*
X669470Y446220D01*
Y444887D01*
X668137Y443554D01*
X666804D01*
X668137D01*
X669470Y442221D01*
Y440888D01*
X668137Y439555D01*
X665471D01*
X664138Y440888D01*
X627264Y408904D02*
Y416901D01*
X631263D01*
X632595Y415568D01*
Y412902D01*
X631263Y411570D01*
X627264D01*
X629930D02*
X632595Y408904D01*
X635261D02*
X637927D01*
X636594D01*
Y416901D01*
X635261Y415568D01*
X641926Y416901D02*
X647257D01*
Y415568D01*
X641926Y410237D01*
Y408904D01*
X613055Y395018D02*
Y396903D01*
X611170Y398788D01*
X609285Y398788D01*
X605515Y395018D01*
Y393133D01*
X607400Y391248D01*
X609285Y391248D01*
X613998Y384650D02*
X610228Y388420D01*
X617768D01*
X618710Y389363D01*
Y391248D01*
X616825Y393133D01*
X614940Y393133D01*
X625308Y384650D02*
X622480Y385593D01*
X618710D01*
X616825Y383708D01*
Y381823D01*
X618710Y379938D01*
X620595Y379938D01*
X621538Y380880D01*
X621538Y382765D01*
X618710Y385593D01*
X491218Y530367D02*
X489885Y529034D01*
Y526368D01*
X491218Y525036D01*
X496550D01*
X497883Y526368D01*
Y529034D01*
X496550Y530367D01*
X497883Y538364D02*
Y533033D01*
X492551Y538364D01*
X491218D01*
X489885Y537032D01*
Y534366D01*
X491218Y533033D01*
X497883Y545029D02*
X489885D01*
X493884Y541030D01*
Y546362D01*
X437164Y478665D02*
X435279D01*
X433394Y476780D01*
X433394Y474895D01*
X437164Y471125D01*
X439049D01*
X440934Y473010D01*
X440934Y474895D01*
X443761Y475838D02*
X445646Y477723D01*
X444704Y476780D01*
X439049Y482435D01*
X439049Y480550D01*
X443761Y485263D02*
X443761Y487148D01*
X445646Y489033D01*
X447531D01*
X448474Y488090D01*
Y486205D01*
X450359D01*
X451301Y485263D01*
X451301Y483378D01*
X449416Y481493D01*
X447531D01*
X446589Y482435D01*
Y484320D01*
X444704D01*
X443761Y485263D01*
X446589Y484320D02*
X448474Y486205D01*
X411195Y477324D02*
X409863Y475991D01*
Y473325D01*
X411195Y471992D01*
X416527D01*
X417860Y473325D01*
Y475991D01*
X416527Y477324D01*
Y479990D02*
X417860Y481323D01*
Y483988D01*
X416527Y485321D01*
X411195D01*
X409863Y483988D01*
Y481323D01*
X411195Y479990D01*
X412528D01*
X413861Y481323D01*
Y485321D01*
X423104Y449232D02*
X432529Y447347D01*
X426874Y453002D02*
X428759Y443577D01*
X438184Y453002D02*
X434414Y449232D01*
Y456772D01*
X433472Y457714D01*
X431587D01*
X429702Y455829D01*
X429702Y453944D01*
X430189Y416461D02*
Y418346D01*
X428304Y420231D01*
X426419Y420231D01*
X422649Y416461D01*
Y414576D01*
X424534Y412691D01*
X426419Y412691D01*
X427362Y409863D02*
X429247Y407978D01*
X428304Y408921D01*
X433959Y414576D01*
X432074Y414576D01*
X433017Y406093D02*
Y404208D01*
X434902Y402323D01*
X436787Y402323D01*
X440557Y406093D01*
Y407978D01*
X438672Y409863D01*
X436787Y409863D01*
X435844Y408921D01*
Y407035D01*
X438672Y404208D01*
X573543Y367847D02*
X565546D01*
Y371846D01*
X566878Y373179D01*
X569544D01*
X570877Y371846D01*
Y367847D01*
Y370513D02*
X573543Y373179D01*
Y375845D02*
Y378511D01*
Y377178D01*
X565546D01*
X566878Y375845D01*
X565546Y387841D02*
Y382509D01*
X569544D01*
X568211Y385175D01*
Y386508D01*
X569544Y387841D01*
X572210D01*
X573543Y386508D01*
Y383842D01*
X572210Y382509D01*
X559516Y368004D02*
X551518D01*
Y372003D01*
X552851Y373336D01*
X555517D01*
X556850Y372003D01*
Y368004D01*
Y370670D02*
X559516Y373336D01*
X558183Y376002D02*
X559516Y377335D01*
Y380001D01*
X558183Y381334D01*
X552851D01*
X551518Y380001D01*
Y377335D01*
X552851Y376002D01*
X554184D01*
X555517Y377335D01*
Y381334D01*
X547476Y369325D02*
X539479D01*
Y373324D01*
X540812Y374657D01*
X543477D01*
X544810Y373324D01*
Y369325D01*
Y371991D02*
X547476Y374657D01*
X540812Y377323D02*
X539479Y378656D01*
Y381321D01*
X540812Y382654D01*
X542145D01*
X543477Y381321D01*
X544810Y382654D01*
X546143D01*
X547476Y381321D01*
Y378656D01*
X546143Y377323D01*
X544810D01*
X543477Y378656D01*
X542145Y377323D01*
X540812D01*
X543477Y378656D02*
Y381321D01*
X533316Y368641D02*
X525318D01*
Y372640D01*
X526651Y373973D01*
X529317D01*
X530650Y372640D01*
Y368641D01*
Y371307D02*
X533316Y373973D01*
Y376638D02*
Y379304D01*
Y377971D01*
X525318D01*
X526651Y376638D01*
Y383303D02*
X525318Y384636D01*
Y387302D01*
X526651Y388635D01*
X531983D01*
X533316Y387302D01*
Y384636D01*
X531983Y383303D01*
X526651D01*
X495936Y442617D02*
X494603Y441284D01*
Y438618D01*
X495936Y437285D01*
X501268D01*
X502601Y438618D01*
Y441284D01*
X501268Y442617D01*
X502601Y450614D02*
Y445282D01*
X497269Y450614D01*
X495936D01*
X494603Y449281D01*
Y446615D01*
X495936Y445282D01*
X501268Y453280D02*
X502601Y454613D01*
Y457278D01*
X501268Y458611D01*
X495936D01*
X494603Y457278D01*
Y454613D01*
X495936Y453280D01*
X497269D01*
X498602Y454613D01*
Y458611D01*
X492743Y398817D02*
X491410Y400150D01*
X488745D01*
X487412Y398817D01*
Y393485D01*
X488745Y392152D01*
X491410D01*
X492743Y393485D01*
X500741Y392152D02*
X495409D01*
X500741Y397484D01*
Y398817D01*
X499408Y400150D01*
X496742D01*
X495409Y398817D01*
X503407D02*
X504739Y400150D01*
X507405D01*
X508738Y398817D01*
Y393485D01*
X507405Y392152D01*
X504739D01*
X503407Y393485D01*
Y398817D01*
X491031Y377357D02*
Y385354D01*
X495030D01*
X496362Y384021D01*
Y381356D01*
X495030Y380023D01*
X491031D01*
X493697D02*
X496362Y377357D01*
X499028D02*
X501694D01*
X500361D01*
Y385354D01*
X499028Y384021D01*
X511025Y385354D02*
X508359Y384021D01*
X505693Y381356D01*
Y378690D01*
X507026Y377357D01*
X509692D01*
X511025Y378690D01*
Y380023D01*
X509692Y381356D01*
X505693D01*
X496743Y354789D02*
X495410Y353456D01*
Y350791D01*
X496743Y349458D01*
X502074D01*
X503407Y350791D01*
Y353456D01*
X502074Y354789D01*
X503407Y357455D02*
Y360121D01*
Y358788D01*
X495410D01*
X496743Y357455D01*
X503407Y368118D02*
X495410D01*
X499408Y364120D01*
Y369451D01*
X477870Y355494D02*
X476538Y354161D01*
Y351496D01*
X477870Y350163D01*
X483202D01*
X484535Y351496D01*
Y354161D01*
X483202Y355494D01*
X484535Y358160D02*
Y360826D01*
Y359493D01*
X476538D01*
X477870Y358160D01*
X476538Y370156D02*
X477870Y367490D01*
X480536Y364824D01*
X483202D01*
X484535Y366157D01*
Y368823D01*
X483202Y370156D01*
X481869D01*
X480536Y368823D01*
Y364824D01*
X450580Y328592D02*
Y321927D01*
X451913Y320594D01*
X454579D01*
X455912Y321927D01*
Y328592D01*
X462576Y320594D02*
Y328592D01*
X458577Y324593D01*
X463909D01*
X423566Y318379D02*
X431563Y323710D01*
X423566D02*
X431563Y318379D01*
Y326376D02*
Y329042D01*
Y327709D01*
X423566D01*
X424899Y326376D01*
X547717Y283094D02*
X539720D01*
Y287093D01*
X541053Y288426D01*
X543719D01*
X545052Y287093D01*
Y283094D01*
Y285760D02*
X547717Y288426D01*
Y291091D02*
Y293757D01*
Y292424D01*
X539720D01*
X541053Y291091D01*
X546385Y297756D02*
X547717Y299089D01*
Y301754D01*
X546385Y303087D01*
X541053D01*
X539720Y301754D01*
Y299089D01*
X541053Y297756D01*
X542386D01*
X543719Y299089D01*
Y303087D01*
X547374Y254062D02*
X539377D01*
Y258061D01*
X540710Y259394D01*
X543376D01*
X544709Y258061D01*
Y254062D01*
Y256728D02*
X547374Y259394D01*
Y267391D02*
Y262059D01*
X542043Y267391D01*
X540710D01*
X539377Y266058D01*
Y263392D01*
X540710Y262059D01*
Y270057D02*
X539377Y271390D01*
Y274056D01*
X540710Y275388D01*
X546042D01*
X547374Y274056D01*
Y271390D01*
X546042Y270057D01*
X540710D01*
X611337Y249191D02*
Y242527D01*
X612669Y241194D01*
X615335D01*
X616668Y242527D01*
Y249191D01*
X619334Y247858D02*
X620667Y249191D01*
X623333D01*
X624666Y247858D01*
Y246525D01*
X623333Y245193D01*
X622000D01*
X623333D01*
X624666Y243860D01*
Y242527D01*
X623333Y241194D01*
X620667D01*
X619334Y242527D01*
X654477Y306942D02*
X653144Y305609D01*
Y302943D01*
X654477Y301610D01*
X659808D01*
X661141Y302943D01*
Y305609D01*
X659808Y306942D01*
X661141Y309608D02*
Y312274D01*
Y310941D01*
X653144D01*
X654477Y309608D01*
X661141Y321604D02*
Y316272D01*
X655809Y321604D01*
X654477D01*
X653144Y320271D01*
Y317605D01*
X654477Y316272D01*
X672409Y306479D02*
X671076Y305146D01*
Y302480D01*
X672409Y301147D01*
X677741D01*
X679073Y302480D01*
Y305146D01*
X677741Y306479D01*
X679073Y309144D02*
Y311810D01*
Y310477D01*
X671076D01*
X672409Y309144D01*
Y315809D02*
X671076Y317142D01*
Y319808D01*
X672409Y321141D01*
X673742D01*
X675075Y319808D01*
Y318475D01*
Y319808D01*
X676408Y321141D01*
X677741D01*
X679073Y319808D01*
Y317142D01*
X677741Y315809D01*
X656295Y242502D02*
Y250499D01*
X660294D01*
X661627Y249167D01*
Y246501D01*
X660294Y245168D01*
X656295D01*
X658961D02*
X661627Y242502D01*
X664293D02*
X666959D01*
X665626D01*
Y250499D01*
X664293Y249167D01*
X670957Y242502D02*
X673623D01*
X672290D01*
Y250499D01*
X670957Y249167D01*
X677673Y157402D02*
X675007D01*
X676340D01*
Y150737D01*
X675007Y149405D01*
X673674D01*
X672341Y150737D01*
X680338Y157402D02*
X685670D01*
Y156069D01*
X680338Y150737D01*
Y149405D01*
X653943Y138528D02*
X652610Y137195D01*
Y134529D01*
X653943Y133196D01*
X659275D01*
X660608Y134529D01*
Y137195D01*
X659275Y138528D01*
X660608Y146525D02*
Y141194D01*
X655276Y146525D01*
X653943D01*
X652610Y145192D01*
Y142526D01*
X653943Y141194D01*
Y149191D02*
X652610Y150524D01*
Y153190D01*
X653943Y154522D01*
X655276D01*
X656609Y153190D01*
Y151857D01*
Y153190D01*
X657942Y154522D01*
X659275D01*
X660608Y153190D01*
Y150524D01*
X659275Y149191D01*
X635693Y138877D02*
X634360Y137544D01*
Y134878D01*
X635693Y133545D01*
X641025D01*
X642358Y134878D01*
Y137544D01*
X641025Y138877D01*
X642358Y146874D02*
Y141543D01*
X637026Y146874D01*
X635693D01*
X634360Y145541D01*
Y142876D01*
X635693Y141543D01*
X642358Y154872D02*
Y149540D01*
X637026Y154872D01*
X635693D01*
X634360Y153539D01*
Y150873D01*
X635693Y149540D01*
X617793Y138680D02*
X616460Y137347D01*
Y134681D01*
X617793Y133348D01*
X623124D01*
X624457Y134681D01*
Y137347D01*
X623124Y138680D01*
X624457Y146677D02*
Y141345D01*
X619126Y146677D01*
X617793D01*
X616460Y145344D01*
Y142678D01*
X617793Y141345D01*
X624457Y149343D02*
Y152008D01*
Y150676D01*
X616460D01*
X617793Y149343D01*
X636550Y76548D02*
X635217Y77881D01*
X632551D01*
X631218Y76548D01*
Y71217D01*
X632551Y69884D01*
X635217D01*
X636550Y71217D01*
X639216Y76548D02*
X640549Y77881D01*
X643214D01*
X644547Y76548D01*
Y75215D01*
X643214Y73882D01*
X641882D01*
X643214D01*
X644547Y72549D01*
Y71217D01*
X643214Y69884D01*
X640549D01*
X639216Y71217D01*
X583549Y110253D02*
Y102256D01*
X587548D01*
X588881Y103589D01*
Y108920D01*
X587548Y110253D01*
X583549D01*
X596878Y102256D02*
X591546D01*
X596878Y107587D01*
Y108920D01*
X595545Y110253D01*
X592879D01*
X591546Y108920D01*
X564831Y145425D02*
X558166D01*
X556833Y144092D01*
Y141426D01*
X558166Y140093D01*
X564831D01*
Y132096D02*
Y137427D01*
X560832D01*
X562165Y134761D01*
Y133429D01*
X560832Y132096D01*
X558166D01*
X556833Y133429D01*
Y136094D01*
X558166Y137427D01*
X499078Y83913D02*
Y77249D01*
X500411Y75916D01*
X503077D01*
X504409Y77249D01*
Y83913D01*
X512407Y82581D02*
X511074Y83913D01*
X508408D01*
X507075Y82581D01*
Y81248D01*
X508408Y79915D01*
X511074D01*
X512407Y78582D01*
Y77249D01*
X511074Y75916D01*
X508408D01*
X507075Y77249D01*
X515073Y83913D02*
Y75916D01*
X519071D01*
X520404Y77249D01*
Y78582D01*
X519071Y79915D01*
X515073D01*
X519071D01*
X520404Y81248D01*
Y82581D01*
X519071Y83913D01*
X515073D01*
X523070Y75916D02*
X525736D01*
X524403D01*
Y83913D01*
X523070Y82581D01*
X675794Y489591D02*
Y497589D01*
X679792D01*
X681125Y496256D01*
Y493590D01*
X679792Y492257D01*
X675794D01*
X683791Y494923D02*
Y489591D01*
Y492257D01*
X685124Y493590D01*
X686457Y494923D01*
X687790D01*
X693121Y489591D02*
X695787D01*
X697120Y490924D01*
Y493590D01*
X695787Y494923D01*
X693121D01*
X691789Y493590D01*
Y490924D01*
X693121Y489591D01*
X702452Y486926D02*
X703785D01*
X705118Y488259D01*
Y494923D01*
X701119D01*
X699786Y493590D01*
Y490924D01*
X701119Y489591D01*
X705118D01*
X707783D02*
Y490924D01*
X709116D01*
Y489591D01*
X707783D01*
X645265Y645695D02*
Y653693D01*
X649263D01*
X650596Y652360D01*
Y649694D01*
X649263Y648361D01*
X645265D01*
X647930D02*
X650596Y645695D01*
X658594Y653693D02*
X653262D01*
Y649694D01*
X655928Y651027D01*
X657261D01*
X658594Y649694D01*
Y647028D01*
X657261Y645695D01*
X654595D01*
X653262Y647028D01*
X646964Y660998D02*
Y666330D01*
X645631Y667663D01*
X642965D01*
X641632Y666330D01*
Y660998D01*
X642965Y659665D01*
X645631D01*
X644298Y662331D02*
X646964Y659665D01*
X645631D02*
X646964Y660998D01*
X654961Y659665D02*
X649630D01*
X654961Y664997D01*
Y666330D01*
X653628Y667663D01*
X650963D01*
X649630Y666330D01*
X661152Y694453D02*
Y686456D01*
X665151D01*
X666484Y687789D01*
Y693120D01*
X665151Y694453D01*
X661152D01*
X674481D02*
X669150D01*
Y690455D01*
X671815Y691787D01*
X673148D01*
X674481Y690455D01*
Y687789D01*
X673148Y686456D01*
X670483D01*
X669150Y687789D01*
X705517Y648143D02*
X702852D01*
X704184D01*
Y641478D01*
X702852Y640145D01*
X701519D01*
X700186Y641478D01*
X713515Y648143D02*
X710849Y646810D01*
X708183Y644144D01*
Y641478D01*
X709516Y640145D01*
X712182D01*
X713515Y641478D01*
Y642811D01*
X712182Y644144D01*
X708183D01*
X605985Y645900D02*
X597988D01*
Y649898D01*
X599320Y651231D01*
X601986D01*
X603319Y649898D01*
Y645900D01*
Y648565D02*
X605985Y651231D01*
X597988Y653897D02*
Y659229D01*
X599320D01*
X604652Y653897D01*
X605985D01*
X595527Y667680D02*
X587529D01*
Y671679D01*
X588862Y673012D01*
X591528D01*
X592861Y671679D01*
Y667680D01*
Y670346D02*
X595527Y673012D01*
X587529Y681009D02*
X588862Y678343D01*
X591528Y675677D01*
X594194D01*
X595527Y677010D01*
Y679676D01*
X594194Y681009D01*
X592861D01*
X591528Y679676D01*
Y675677D01*
X564181Y636761D02*
Y644758D01*
X568180D01*
X569513Y643425D01*
Y640760D01*
X568180Y639427D01*
X564181D01*
X566847D02*
X569513Y636761D01*
X576178D02*
Y644758D01*
X572179Y640760D01*
X577510D01*
X540620Y661608D02*
Y666939D01*
X539287Y668272D01*
X536621D01*
X535288Y666939D01*
Y661608D01*
X536621Y660275D01*
X539287D01*
X537954Y662941D02*
X540620Y660275D01*
X539287D02*
X540620Y661608D01*
X543286Y660275D02*
X545952D01*
X544619D01*
Y668272D01*
X543286Y666939D01*
X510270Y695488D02*
Y687491D01*
X514269D01*
X515602Y688824D01*
Y694155D01*
X514269Y695488D01*
X510270D01*
X522266Y687491D02*
Y695488D01*
X518267Y691490D01*
X523599D01*
X591295Y900970D02*
Y898305D01*
Y899638D01*
X597959D01*
X599292Y898305D01*
Y896972D01*
X597959Y895639D01*
X599292Y908968D02*
Y903636D01*
X593960Y908968D01*
X592628D01*
X591295Y907635D01*
Y904969D01*
X592628Y903636D01*
X453556Y991252D02*
X450890D01*
X452223D01*
Y984588D01*
X450890Y983255D01*
X449557D01*
X448224Y984588D01*
X456222Y989919D02*
X457554Y991252D01*
X460220D01*
X461553Y989919D01*
Y988587D01*
X460220Y987254D01*
X458887D01*
X460220D01*
X461553Y985921D01*
Y984588D01*
X460220Y983255D01*
X457554D01*
X456222Y984588D01*
X692260Y904717D02*
X697915Y910372D01*
X700742Y907545D01*
Y905660D01*
X698857Y903775D01*
X696973Y903774D01*
X694145Y906602D01*
X696030Y904717D02*
Y900947D01*
X703570Y904717D02*
X697915Y899062D01*
X701685Y895292D01*
X707340Y889637D02*
X703570Y893407D01*
X711110D01*
X712053Y894350D01*
Y896235D01*
X710168Y898120D01*
X708283Y898120D01*
X564412Y904314D02*
X570067Y909969D01*
X572894Y907142D01*
Y905257D01*
X571009Y903372D01*
X569124Y903372D01*
X566297Y906199D01*
X568182Y904314D02*
Y900544D01*
X575722Y904314D02*
X570067Y898659D01*
X573837Y894889D01*
X575722Y893004D02*
X577607Y891119D01*
X576664Y892062D01*
X582319Y897717D01*
X580434Y897717D01*
X32365Y984988D02*
X27033D01*
X32365Y990320D01*
Y991653D01*
X31032Y992985D01*
X28366D01*
X27033Y991653D01*
X40362Y984988D02*
X35031D01*
X40362Y990320D01*
Y991653D01*
X39030Y992985D01*
X36364D01*
X35031Y991653D01*
X43028D02*
X44361Y992985D01*
X47027D01*
X48360Y991653D01*
Y986321D01*
X47027Y984988D01*
X44361D01*
X43028Y986321D01*
Y991653D01*
X51026Y992985D02*
Y987654D01*
X53691Y984988D01*
X56357Y987654D01*
Y992985D01*
X67020Y984988D02*
Y990320D01*
X69686Y992985D01*
X72352Y990320D01*
Y984988D01*
Y988987D01*
X67020D01*
X80349Y991653D02*
X79017Y992985D01*
X76351D01*
X75018Y991653D01*
Y986321D01*
X76351Y984988D01*
X79017D01*
X80349Y986321D01*
X134526Y569800D02*
X137192D01*
X135859D01*
Y577797D01*
X134526Y576464D01*
X146522Y569800D02*
X141191D01*
X146522Y575131D01*
Y576464D01*
X145189Y577797D01*
X142524D01*
X141191Y576464D01*
X149188Y577797D02*
Y572465D01*
X151854Y569800D01*
X154520Y572465D01*
Y577797D01*
X165183D02*
Y569800D01*
X169182D01*
X170515Y571133D01*
Y576464D01*
X169182Y577797D01*
X165183D01*
X178512Y576464D02*
X177179Y577797D01*
X174513D01*
X173180Y576464D01*
Y571133D01*
X174513Y569800D01*
X177179D01*
X178512Y571133D01*
X329075Y176934D02*
X323743D01*
Y172936D01*
X326409Y174268D01*
X327742D01*
X329075Y172936D01*
Y170270D01*
X327742Y168937D01*
X325076D01*
X323743Y170270D01*
X331741Y176934D02*
Y171603D01*
X334407Y168937D01*
X337072Y171603D01*
Y176934D01*
X347736D02*
Y168937D01*
X351734D01*
X353067Y170270D01*
Y175601D01*
X351734Y176934D01*
X347736D01*
X361065Y175601D02*
X359732Y176934D01*
X357066D01*
X355733Y175601D01*
Y170270D01*
X357066Y168937D01*
X359732D01*
X361065Y170270D01*
X323533Y194791D02*
X320867D01*
X322200D01*
Y188126D01*
X320867Y186793D01*
X319534D01*
X318202Y188126D01*
X330198Y186793D02*
Y194791D01*
X326199Y190792D01*
X331530D01*
X370651Y365039D02*
X378649D01*
Y369038D01*
X377316Y370371D01*
X371984D01*
X370651Y369038D01*
Y365039D01*
Y378368D02*
X371984Y375702D01*
X374650Y373036D01*
X377316D01*
X378649Y374369D01*
Y377035D01*
X377316Y378368D01*
X375983D01*
X374650Y377035D01*
Y373036D01*
X354839Y408812D02*
X353506Y410145D01*
X350840D01*
X349507Y408812D01*
Y403480D01*
X350840Y402147D01*
X353506D01*
X354839Y403480D01*
X357504Y408812D02*
X358837Y410145D01*
X361503D01*
X362836Y408812D01*
Y407479D01*
X361503Y406146D01*
X362836Y404813D01*
Y403480D01*
X361503Y402147D01*
X358837D01*
X357504Y403480D01*
Y404813D01*
X358837Y406146D01*
X357504Y407479D01*
Y408812D01*
X358837Y406146D02*
X361503D01*
X333606Y490929D02*
Y484265D01*
X334939Y482932D01*
X337605D01*
X338938Y484265D01*
Y490929D01*
X341603Y482932D02*
X344269D01*
X342936D01*
Y490929D01*
X341603Y489596D01*
X301343Y502874D02*
Y494876D01*
X305342D01*
X306675Y496209D01*
Y497542D01*
X305342Y498875D01*
X301343D01*
X305342D01*
X306675Y500208D01*
Y501541D01*
X305342Y502874D01*
X301343D01*
X309341Y494876D02*
Y502874D01*
X313340D01*
X314673Y501541D01*
Y498875D01*
X313340Y497542D01*
X309341D01*
X312007D02*
X314673Y494876D01*
X317338D02*
X320004D01*
X318671D01*
Y502874D01*
X317338Y501541D01*
X318784Y448742D02*
X317451Y447410D01*
Y444744D01*
X318784Y443411D01*
X324115D01*
X325448Y444744D01*
Y447410D01*
X324115Y448742D01*
X325448Y455407D02*
X317451D01*
X321450Y451408D01*
Y456740D01*
X300947Y448742D02*
X299614Y447410D01*
Y444744D01*
X300947Y443411D01*
X306278D01*
X307611Y444744D01*
Y447410D01*
X306278Y448742D01*
X299614Y456740D02*
Y451408D01*
X303612D01*
X302280Y454074D01*
Y455407D01*
X303612Y456740D01*
X306278D01*
X307611Y455407D01*
Y452741D01*
X306278Y451408D01*
X206826Y592212D02*
X201494D01*
Y588213D01*
X204160D01*
X201494D01*
Y584215D01*
X209492D02*
X212157D01*
X210825D01*
Y592212D01*
X209492Y590879D01*
X188571Y528246D02*
X196569D01*
Y532245D01*
X195236Y533578D01*
X189904D01*
X188571Y532245D01*
Y528246D01*
X196569Y536244D02*
Y538909D01*
Y537576D01*
X188571D01*
X189904Y536244D01*
X208517Y511066D02*
X207184Y512399D01*
X204518D01*
X203185Y511066D01*
Y505734D01*
X204518Y504401D01*
X207184D01*
X208517Y505734D01*
X211183Y504401D02*
X213849D01*
X212516D01*
Y512399D01*
X211183Y511066D01*
X217847D02*
X219180Y512399D01*
X221846D01*
X223179Y511066D01*
Y505734D01*
X221846Y504401D01*
X219180D01*
X217847Y505734D01*
Y511066D01*
X137980Y385688D02*
X136647Y384356D01*
Y381690D01*
X137980Y380357D01*
X143312D01*
X144645Y381690D01*
Y384356D01*
X143312Y385688D01*
X144645Y388354D02*
Y391020D01*
Y389687D01*
X136647D01*
X137980Y388354D01*
X136647Y400350D02*
Y395019D01*
X140646D01*
X139313Y397685D01*
Y399017D01*
X140646Y400350D01*
X143312D01*
X144645Y399017D01*
Y396352D01*
X143312Y395019D01*
X191447Y409677D02*
X190114Y408344D01*
Y405678D01*
X191447Y404346D01*
X196779D01*
X198112Y405678D01*
Y408344D01*
X196779Y409677D01*
X190114Y412343D02*
Y417675D01*
X191447D01*
X196779Y412343D01*
X198112D01*
X209253Y410014D02*
X207920Y408681D01*
Y406015D01*
X209253Y404682D01*
X214584D01*
X215917Y406015D01*
Y408681D01*
X214584Y410014D01*
X207920Y418011D02*
X209253Y415345D01*
X211919Y412680D01*
X214584D01*
X215917Y414012D01*
Y416678D01*
X214584Y418011D01*
X213251D01*
X211919Y416678D01*
Y412680D01*
X243684Y419905D02*
Y413240D01*
X245017Y411907D01*
X247683D01*
X249016Y413240D01*
Y419905D01*
X257013Y411907D02*
X251682D01*
X257013Y417239D01*
Y418572D01*
X255680Y419905D01*
X253015D01*
X251682Y418572D01*
X284697Y351706D02*
X283365Y353039D01*
X280699D01*
X279366Y351706D01*
Y346375D01*
X280699Y345042D01*
X283365D01*
X284697Y346375D01*
X287363Y345042D02*
X290029D01*
X288696D01*
Y353039D01*
X287363Y351706D01*
X294028Y345042D02*
X296693D01*
X295361D01*
Y353039D01*
X294028Y351706D01*
X322906Y313606D02*
X321573Y314939D01*
X318907D01*
X317574Y313606D01*
Y308275D01*
X318907Y306942D01*
X321573D01*
X322906Y308275D01*
X325572Y306942D02*
X328237D01*
X326905D01*
Y314939D01*
X325572Y313606D01*
X332236Y314939D02*
X337568D01*
Y313606D01*
X332236Y308275D01*
Y306942D01*
X251646Y301992D02*
Y293994D01*
X256978D01*
X259644D02*
X262310D01*
X260977D01*
Y301992D01*
X259644Y300659D01*
X203158Y352550D02*
Y344553D01*
X207157D01*
X208490Y345886D01*
Y351217D01*
X207157Y352550D01*
X203158D01*
X211156Y351217D02*
X212489Y352550D01*
X215155D01*
X216488Y351217D01*
Y349884D01*
X215155Y348551D01*
X213822D01*
X215155D01*
X216488Y347219D01*
Y345886D01*
X215155Y344553D01*
X212489D01*
X211156Y345886D01*
X166120Y285094D02*
X158123D01*
Y289093D01*
X159456Y290426D01*
X162122D01*
X163455Y289093D01*
Y285094D01*
Y287760D02*
X166120Y290426D01*
Y293092D02*
Y295757D01*
Y294424D01*
X158123D01*
X159456Y293092D01*
X166120Y305088D02*
Y299756D01*
X160789Y305088D01*
X159456D01*
X158123Y303755D01*
Y301089D01*
X159456Y299756D01*
X131630Y343714D02*
Y349046D01*
X130297Y350378D01*
X127631D01*
X126298Y349046D01*
Y343714D01*
X127631Y342381D01*
X130297D01*
X128964Y345047D02*
X131630Y342381D01*
X130297D02*
X131630Y343714D01*
X134296Y349046D02*
X135628Y350378D01*
X138294D01*
X139627Y349046D01*
Y347713D01*
X138294Y346380D01*
X136961D01*
X138294D01*
X139627Y345047D01*
Y343714D01*
X138294Y342381D01*
X135628D01*
X134296Y343714D01*
X290904Y67700D02*
X282907D01*
Y71699D01*
X284240Y73032D01*
X286906D01*
X288239Y71699D01*
Y67700D01*
Y70366D02*
X290904Y73032D01*
X284240Y75698D02*
X282907Y77031D01*
Y79696D01*
X284240Y81029D01*
X285573D01*
X286906Y79696D01*
Y78364D01*
Y79696D01*
X288239Y81029D01*
X289571D01*
X290904Y79696D01*
Y77031D01*
X289571Y75698D01*
X206561Y58711D02*
X205228Y60044D01*
X202562D01*
X201229Y58711D01*
Y57378D01*
X202562Y56045D01*
X205228D01*
X206561Y54712D01*
Y53379D01*
X205228Y52046D01*
X202562D01*
X201229Y53379D01*
X209227Y60044D02*
Y52046D01*
X211893Y54712D01*
X214558Y52046D01*
Y60044D01*
X217224Y52046D02*
X219890D01*
X218557D01*
Y60044D01*
X217224Y58711D01*
X180910Y12449D02*
X172912D01*
Y16448D01*
X174245Y17781D01*
X176911D01*
X178244Y16448D01*
Y12449D01*
Y15115D02*
X180910Y17781D01*
Y25778D02*
Y20446D01*
X175578Y25778D01*
X174245D01*
X172912Y24445D01*
Y21779D01*
X174245Y20446D01*
X168673Y38657D02*
X160676D01*
Y42656D01*
X162009Y43989D01*
X164674D01*
X166007Y42656D01*
Y38657D01*
Y41323D02*
X168673Y43989D01*
Y51986D02*
Y46655D01*
X163342Y51986D01*
X162009D01*
X160676Y50653D01*
Y47988D01*
X162009Y46655D01*
X168673Y59984D02*
Y54652D01*
X163342Y59984D01*
X162009D01*
X160676Y58651D01*
Y55985D01*
X162009Y54652D01*
X141237Y24353D02*
Y29685D01*
X139904Y31018D01*
X137239D01*
X135906Y29685D01*
Y24353D01*
X137239Y23021D01*
X139904D01*
X138572Y25686D02*
X141237Y23021D01*
X139904D02*
X141237Y24353D01*
X147902Y23021D02*
Y31018D01*
X143903Y27019D01*
X149235D01*
X110298Y41133D02*
X102300D01*
Y45132D01*
X103633Y46465D01*
X106299D01*
X107632Y45132D01*
Y41133D01*
Y43799D02*
X110298Y46465D01*
Y54462D02*
Y49131D01*
X104966Y54462D01*
X103633D01*
X102300Y53129D01*
Y50464D01*
X103633Y49131D01*
X110298Y57128D02*
Y59794D01*
Y58461D01*
X102300D01*
X103633Y57128D01*
X61528Y60254D02*
X60195Y61587D01*
X57529D01*
X56196Y60254D01*
Y54922D01*
X57529Y53590D01*
X60195D01*
X61528Y54922D01*
X64193Y60254D02*
X65526Y61587D01*
X68192D01*
X69525Y60254D01*
Y58921D01*
X68192Y57588D01*
X66859D01*
X68192D01*
X69525Y56255D01*
Y54922D01*
X68192Y53590D01*
X65526D01*
X64193Y54922D01*
X72191Y60254D02*
X73524Y61587D01*
X76189D01*
X77522Y60254D01*
Y54922D01*
X76189Y53590D01*
X73524D01*
X72191Y54922D01*
Y60254D01*
X65712Y39343D02*
X64379Y40676D01*
X61713D01*
X60380Y39343D01*
Y34012D01*
X61713Y32679D01*
X64379D01*
X65712Y34012D01*
X68377Y39343D02*
X69710Y40676D01*
X72376D01*
X73709Y39343D01*
Y38010D01*
X72376Y36678D01*
X71043D01*
X72376D01*
X73709Y35345D01*
Y34012D01*
X72376Y32679D01*
X69710D01*
X68377Y34012D01*
X76375Y32679D02*
X79041D01*
X77708D01*
Y40676D01*
X76375Y39343D01*
X60575Y21608D02*
X59242Y22941D01*
X56576D01*
X55243Y21608D01*
Y16276D01*
X56576Y14943D01*
X59242D01*
X60575Y16276D01*
X63241Y21608D02*
X64574Y22941D01*
X67240D01*
X68573Y21608D01*
Y20275D01*
X67240Y18942D01*
X65907D01*
X67240D01*
X68573Y17609D01*
Y16276D01*
X67240Y14943D01*
X64574D01*
X63241Y16276D01*
X76570Y14943D02*
X71238D01*
X76570Y20275D01*
Y21608D01*
X75237Y22941D01*
X72571D01*
X71238Y21608D01*
X17440Y267174D02*
Y260510D01*
X18773Y259177D01*
X21439D01*
X22772Y260510D01*
Y267174D01*
X25438D02*
X30769D01*
Y265842D01*
X25438Y260510D01*
Y259177D01*
X13790Y398556D02*
Y390559D01*
X17789D01*
X19122Y391892D01*
Y393224D01*
X17789Y394557D01*
X13790D01*
X17789D01*
X19122Y395890D01*
Y397223D01*
X17789Y398556D01*
X13790D01*
X21788D02*
X27119D01*
Y397223D01*
X21788Y391892D01*
Y390559D01*
X27119D01*
X29785D02*
X32451D01*
X31118D01*
Y398556D01*
X29785Y397223D01*
X170079Y596752D02*
X167413D01*
X168746D01*
Y590088D01*
X167413Y588755D01*
X166080D01*
X164747Y590088D01*
X178076Y596752D02*
X172745D01*
Y592753D01*
X175411Y594086D01*
X176744D01*
X178076Y592753D01*
Y590088D01*
X176744Y588755D01*
X174078D01*
X172745Y590088D01*
X16473Y708075D02*
X15140Y709408D01*
X12474D01*
X11141Y708075D01*
Y702743D01*
X12474Y701410D01*
X15140D01*
X16473Y702743D01*
X24470Y701410D02*
X19138D01*
X24470Y706742D01*
Y708075D01*
X23137Y709408D01*
X20471D01*
X19138Y708075D01*
X18485Y819841D02*
X17152Y821174D01*
X14486D01*
X13153Y819841D01*
Y814509D01*
X14486Y813176D01*
X17152D01*
X18485Y814509D01*
X21151Y813176D02*
X23816D01*
X22484D01*
Y821174D01*
X21151Y819841D01*
X178355Y898098D02*
X183686D01*
X181021D01*
Y890100D01*
X186352D02*
X189018D01*
X187685D01*
Y898098D01*
X186352Y896765D01*
X159387Y978651D02*
Y986648D01*
X163386D01*
X164719Y985316D01*
Y982650D01*
X163386Y981317D01*
X159387D01*
X162053D02*
X164719Y978651D01*
X167385D02*
X170051D01*
X168718D01*
Y986648D01*
X167385Y985316D01*
X72485Y853330D02*
X69819D01*
X71152D01*
Y846666D01*
X69819Y845333D01*
X68487D01*
X67154Y846666D01*
X75151Y845333D02*
X77817D01*
X76484D01*
Y853330D01*
X75151Y851997D01*
D19*
X814430Y299345D02*
X812764Y301011D01*
X809432D01*
X807766Y299345D01*
Y292680D01*
X809432Y291014D01*
X812764D01*
X814430Y292680D01*
Y296012D01*
X811098D01*
X852430Y278345D02*
X850764Y280011D01*
X847432D01*
X845766Y278345D01*
Y276679D01*
X847432Y275012D01*
X850764D01*
X852430Y273346D01*
Y271680D01*
X850764Y270014D01*
X847432D01*
X845766Y271680D01*
X819540Y250537D02*
Y240540D01*
X824538D01*
X826205Y242206D01*
Y248871D01*
X824538Y250537D01*
X819540D01*
X708837Y150294D02*
Y155372D01*
Y152833D01*
X693601D01*
X696141Y150294D01*
X337460Y517040D02*
X334921Y519579D01*
Y524657D01*
X332382Y527197D01*
X336460Y568040D02*
X333921Y570579D01*
Y575657D01*
X331382Y578197D01*
X402538Y601537D02*
X399206D01*
X397540Y599871D01*
Y593206D01*
X399206Y591540D01*
X402538D01*
X404204Y593206D01*
Y599871D01*
X402538Y601537D01*
X407537D02*
Y593206D01*
X409203Y591540D01*
X412535D01*
X414201Y593206D01*
Y601537D01*
X417534D02*
X424198D01*
X420866D01*
Y591540D01*
X427530D02*
Y601537D01*
X432529D01*
X434195Y599871D01*
Y596538D01*
X432529Y594872D01*
X427530D01*
X437527Y601537D02*
Y593206D01*
X439193Y591540D01*
X442525D01*
X444192Y593206D01*
Y601537D01*
X447524D02*
X454188D01*
X450856D01*
Y591540D01*
X125882Y900229D02*
X129215D01*
X127549D01*
Y890232D01*
X125882D01*
X129215D01*
X134213D02*
Y900229D01*
X140878Y890232D01*
Y900229D01*
X144210Y890232D02*
Y900229D01*
X149208D01*
X150874Y898562D01*
Y895230D01*
X149208Y893564D01*
X144210D01*
X154207Y900229D02*
Y891898D01*
X155873Y890232D01*
X159205D01*
X160871Y891898D01*
Y900229D01*
X164203D02*
X170868D01*
X167536D01*
Y890232D01*
D20*
X211224Y322582D02*
D03*
M02*
