G04*
G04 #@! TF.GenerationSoftware,Altium Limited,Altium Designer,22.10.1 (41)*
G04*
G04 Layer_Physical_Order=1*
G04 Layer_Color=255*
%FSLAX44Y44*%
%MOMM*%
G71*
G04*
G04 #@! TF.SameCoordinates,FF558BA5-466A-4189-8B58-D4AB7027BDE0*
G04*
G04*
G04 #@! TF.FilePolarity,Positive*
G04*
G01*
G75*
%ADD19C,0.2540*%
%ADD99C,2.1000*%
%ADD103R,0.7000X1.3000*%
%ADD104R,0.9652X0.7874*%
%ADD105R,1.1000X0.8000*%
G04:AMPARAMS|DCode=106|XSize=0.7874mm|YSize=0.9652mm|CornerRadius=0mm|HoleSize=0mm|Usage=FLASHONLY|Rotation=225.000|XOffset=0mm|YOffset=0mm|HoleType=Round|Shape=Rectangle|*
%AMROTATEDRECTD106*
4,1,4,-0.0629,0.6196,0.6196,-0.0629,0.0629,-0.6196,-0.6196,0.0629,-0.0629,0.6196,0.0*
%
%ADD106ROTATEDRECTD106*%

%ADD107R,0.3000X1.2000*%
%ADD108R,1.2000X0.3000*%
%ADD109R,1.3000X0.7000*%
G04:AMPARAMS|DCode=110|XSize=0.7874mm|YSize=0.9652mm|CornerRadius=0mm|HoleSize=0mm|Usage=FLASHONLY|Rotation=315.000|XOffset=0mm|YOffset=0mm|HoleType=Round|Shape=Rectangle|*
%AMROTATEDRECTD110*
4,1,4,-0.6196,-0.0629,0.0629,0.6196,0.6196,0.0629,-0.0629,-0.6196,-0.6196,-0.0629,0.0*
%
%ADD110ROTATEDRECTD110*%

G04:AMPARAMS|DCode=111|XSize=1.6mm|YSize=1.25mm|CornerRadius=0mm|HoleSize=0mm|Usage=FLASHONLY|Rotation=225.000|XOffset=0mm|YOffset=0mm|HoleType=Round|Shape=Rectangle|*
%AMROTATEDRECTD111*
4,1,4,0.1237,1.0076,1.0076,0.1237,-0.1237,-1.0076,-1.0076,-0.1237,0.1237,1.0076,0.0*
%
%ADD111ROTATEDRECTD111*%

%ADD112R,0.7874X0.9652*%
%ADD113R,1.5000X0.5000*%
%ADD114R,1.0000X0.5000*%
%ADD115R,1.0500X0.5500*%
%ADD116R,0.6000X1.3600*%
%ADD117R,0.4000X1.3500*%
%ADD118R,2.1000X1.6000*%
%ADD119R,1.9000X1.8000*%
%ADD120R,2.0000X1.1000*%
%ADD121R,3.3000X4.4000*%
%ADD122R,3.9000X6.2000*%
%ADD123R,0.5500X1.0500*%
%ADD124R,1.2000X1.6000*%
%ADD125R,3.3000X1.6000*%
%ADD126R,1.5500X1.2000*%
%ADD127R,1.6000X1.6000*%
%ADD128R,3.0000X2.0000*%
%ADD129R,1.3000X3.4000*%
%ADD130R,2.2500X2.1200*%
%ADD131R,0.7000X1.5000*%
%ADD132R,1.0000X0.8000*%
%ADD133R,0.9000X2.0000*%
%ADD134R,2.0000X0.9000*%
%ADD135R,1.3300X1.3300*%
%ADD136R,4.4000X3.3000*%
%ADD137R,6.2000X3.9000*%
%ADD138C,0.3810*%
%ADD139C,0.3741*%
%ADD140C,0.7620*%
%ADD141C,0.3048*%
%ADD142C,0.2794*%
%ADD143C,0.5080*%
%ADD144C,0.3493*%
%ADD145C,1.2700*%
%ADD146C,0.2032*%
%ADD147C,1.5240*%
%ADD148C,1.1430*%
%ADD149C,1.7780*%
%ADD150O,1.7000X1.2000*%
%ADD151C,1.0000*%
%ADD152C,3.0000*%
%ADD153C,2.5000*%
%ADD154O,3.6000X1.8000*%
%ADD155O,2.0000X4.0000*%
%ADD156O,4.0000X2.0000*%
%ADD157C,2.0000*%
%ADD158C,0.3000*%
%ADD159O,1.8000X3.6000*%
%ADD160C,0.5000*%
%ADD161C,0.4500*%
%ADD162C,0.6000*%
G36*
X625602Y681609D02*
X603758D01*
Y686943D01*
X625602D01*
Y681609D01*
D02*
G37*
G36*
X583946Y688086D02*
Y679704D01*
X574548D01*
X572262Y681990D01*
X559816D01*
Y690880D01*
X581152D01*
X583946Y688086D01*
D02*
G37*
G36*
X507238Y720788D02*
X507911Y679641D01*
X498221D01*
Y687768D01*
X494575Y692546D01*
X474853Y702246D01*
X474535Y722821D01*
X479933Y728218D01*
X498221D01*
X507238Y720788D01*
D02*
G37*
G36*
X709105Y720090D02*
Y704532D01*
X687197Y682625D01*
Y677482D01*
X677736D01*
Y721042D01*
X686245Y729551D01*
X699643D01*
X709105Y720090D01*
D02*
G37*
G36*
X551307Y679196D02*
Y674815D01*
X527431D01*
Y680148D01*
X551307D01*
Y679196D01*
D02*
G37*
G36*
X654500Y672333D02*
X639450D01*
Y677667D01*
X654500D01*
Y672333D01*
D02*
G37*
G36*
X583502Y665333D02*
X567667D01*
Y653000D01*
X562333D01*
Y670667D01*
X565000D01*
Y670667D01*
X583502D01*
Y665333D01*
D02*
G37*
G36*
X713486Y612394D02*
Y36068D01*
X689356Y11938D01*
X320040D01*
X309626Y22352D01*
Y98806D01*
X303385Y105047D01*
Y124282D01*
X382355Y203252D01*
X444500D01*
X445987Y203548D01*
X447247Y204390D01*
X477288Y234431D01*
X526015D01*
X526541Y233161D01*
X525999Y232619D01*
X525308Y230952D01*
Y229147D01*
X525999Y227480D01*
X526280Y227199D01*
X526880Y226279D01*
X526280Y225360D01*
X525999Y225079D01*
X525308Y223412D01*
Y221607D01*
X525999Y219940D01*
X527275Y218664D01*
X528942Y217973D01*
X530746D01*
X532413Y218664D01*
X532651Y218901D01*
X533424D01*
X543040Y209286D01*
Y153540D01*
X537921Y148421D01*
X537003Y147047D01*
X536680Y145425D01*
Y130503D01*
X536140D01*
Y113347D01*
X536680D01*
Y107003D01*
X536140D01*
Y89847D01*
X536680D01*
Y87144D01*
X537003Y85522D01*
X537921Y84147D01*
X543372Y78697D01*
Y70528D01*
X539040D01*
Y71290D01*
X536405D01*
Y62000D01*
Y52710D01*
X539040D01*
Y53472D01*
X564278D01*
Y61464D01*
X564385Y62000D01*
Y74513D01*
X565616Y75744D01*
X573659D01*
X575146Y76040D01*
X576406Y76882D01*
X579678Y80154D01*
X580520Y81414D01*
X580816Y82901D01*
Y86785D01*
X583959D01*
Y95841D01*
X569903D01*
Y86785D01*
X573046D01*
Y84510D01*
X572050Y83514D01*
X564007D01*
X563257Y84659D01*
X563833Y85522D01*
X564156Y87144D01*
Y89847D01*
X564696D01*
Y107003D01*
X564156D01*
Y113347D01*
X564696D01*
Y130503D01*
X564156D01*
Y145425D01*
X563833Y147047D01*
X562915Y148421D01*
X557796Y153540D01*
Y213642D01*
X557473Y215264D01*
X556555Y216639D01*
X540778Y232416D01*
X539663Y233161D01*
X539907Y234431D01*
X603504D01*
X604991Y234727D01*
X606251Y235569D01*
X622189Y251507D01*
X623031Y252767D01*
X623327Y254254D01*
Y327735D01*
X624501Y328221D01*
X632322Y320400D01*
Y317526D01*
X632149Y317353D01*
X631421Y315595D01*
Y313690D01*
X632149Y311931D01*
X633495Y310585D01*
X635255Y309856D01*
X637159D01*
X638918Y310585D01*
X640264Y311931D01*
X640993Y313690D01*
Y315595D01*
X640264Y317353D01*
X640091Y317526D01*
Y322009D01*
X639795Y323495D01*
X638953Y324755D01*
X616789Y346920D01*
X617023Y347400D01*
X617537Y347967D01*
X618807Y347715D01*
X628243D01*
X628415Y347542D01*
X630174Y346814D01*
X632079D01*
X633838Y347542D01*
X635184Y348889D01*
X635913Y350648D01*
Y352551D01*
X635184Y354310D01*
X633838Y355657D01*
X632079Y356385D01*
X630174D01*
X628415Y355657D01*
X628243Y355484D01*
X620417D01*
X613157Y362743D01*
X612584Y363776D01*
X615817Y367009D01*
X610608Y372217D01*
X613303Y374911D01*
X618511Y369703D01*
X621085Y372276D01*
X671814Y321548D01*
X673074Y320706D01*
X674560Y320410D01*
X700193D01*
X703124Y317478D01*
Y281581D01*
X683428Y261885D01*
X679104D01*
Y263715D01*
X665896D01*
Y252285D01*
X679104D01*
Y254115D01*
X685038D01*
X686524Y254411D01*
X687784Y255253D01*
X709756Y277225D01*
X710598Y278485D01*
X710894Y279972D01*
Y319088D01*
X710598Y320574D01*
X709756Y321834D01*
X704549Y327041D01*
X703289Y327883D01*
X701802Y328179D01*
X676170D01*
X595300Y409049D01*
X595786Y410222D01*
X608278D01*
Y419874D01*
X624332D01*
Y417785D01*
X637540D01*
Y429215D01*
X624332D01*
Y427126D01*
X608278D01*
Y438692D01*
X609548Y439218D01*
X610616Y438150D01*
X677926D01*
X682498Y442722D01*
Y455676D01*
X675894Y462280D01*
X647192D01*
Y462788D01*
X633984D01*
Y462280D01*
X631190D01*
Y462788D01*
X617982D01*
Y462280D01*
X610590D01*
X610213Y461903D01*
X609040Y462389D01*
Y465321D01*
X620510Y465434D01*
X620828Y465500D01*
X621147Y465556D01*
X621172Y465572D01*
X621202Y465578D01*
X621470Y465762D01*
X621744Y465936D01*
X623235Y467360D01*
X623247Y467377D01*
X623264Y467389D01*
X623450Y467666D01*
X623641Y467939D01*
X623646Y467960D01*
X623657Y467977D01*
X623722Y468304D01*
X623795Y468630D01*
X623791Y468650D01*
X623795Y468671D01*
Y492887D01*
X623657Y493581D01*
X623362Y494024D01*
Y494743D01*
X622973D01*
Y510501D01*
X633316D01*
Y511564D01*
X655563D01*
X656201Y511437D01*
X658580Y511910D01*
X660596Y513257D01*
X661944Y515273D01*
X662417Y517652D01*
X661944Y520031D01*
X660596Y522047D01*
X660469Y522174D01*
X658453Y523521D01*
X656074Y523994D01*
X633316D01*
Y525057D01*
X609760D01*
Y510501D01*
X610542D01*
Y494743D01*
X610154D01*
Y493972D01*
X610096Y493915D01*
X609703Y493327D01*
X609565Y492633D01*
Y471776D01*
X608278D01*
Y471778D01*
X596477D01*
X595991Y472951D01*
X598412Y475373D01*
X599226Y476591D01*
X599512Y478028D01*
Y533750D01*
X605186Y539424D01*
X609760D01*
Y535901D01*
X633316D01*
Y550457D01*
X609760D01*
Y546934D01*
X603631D01*
X602194Y546648D01*
X600976Y545834D01*
X593102Y537960D01*
X592288Y536742D01*
X592002Y535305D01*
Y479583D01*
X589951Y477533D01*
X588778Y478019D01*
Y481777D01*
X588969Y482063D01*
X589255Y483500D01*
Y547877D01*
X606202Y564824D01*
X609760D01*
Y561301D01*
X633316D01*
Y575857D01*
X609760D01*
Y572334D01*
X604647D01*
X603210Y572048D01*
X601992Y571234D01*
X585429Y554671D01*
X584255Y555157D01*
Y566753D01*
X607726Y590224D01*
X609760D01*
Y586701D01*
X633316D01*
Y601257D01*
X609760D01*
Y597734D01*
X606171D01*
X604734Y597448D01*
X603516Y596634D01*
X577845Y570963D01*
X577031Y569745D01*
X576745Y568308D01*
Y491278D01*
X574255D01*
Y592821D01*
X607728Y626293D01*
X608998Y625767D01*
Y621284D01*
X619633D01*
Y627419D01*
X610650D01*
X610124Y628689D01*
X612371Y630936D01*
X694944D01*
X713486Y612394D01*
D02*
G37*
G36*
X600576Y629763D02*
X570429Y599615D01*
X569255Y600101D01*
Y610554D01*
X583657Y624956D01*
X584471Y626174D01*
X584757Y627611D01*
Y630936D01*
X600090D01*
X600576Y629763D01*
D02*
G37*
G36*
X63754Y790956D02*
Y776478D01*
X64262Y669290D01*
Y646430D01*
X152908Y557784D01*
X199880D01*
X200252Y555914D01*
X201425Y554157D01*
X201466Y552904D01*
X201466Y552904D01*
X201466Y552904D01*
Y538848D01*
X210522D01*
Y552904D01*
X210522Y552904D01*
X210563Y554157D01*
X211736Y555914D01*
X212108Y557784D01*
X382947D01*
Y537285D01*
X376210Y530548D01*
X364588D01*
X364375Y530520D01*
X353000D01*
X350911Y530245D01*
X350870Y530228D01*
X343472D01*
Y514672D01*
X350870D01*
X350911Y514655D01*
X353000Y514380D01*
X364560D01*
X364773Y514408D01*
X376515D01*
X377274Y513825D01*
X379684Y512827D01*
X382270Y512486D01*
X384856Y512827D01*
X387266Y513825D01*
X389335Y515413D01*
X400003Y526081D01*
X401591Y528150D01*
X402589Y530560D01*
X402929Y533146D01*
Y557784D01*
X413258D01*
X486410Y630936D01*
X577247D01*
Y629166D01*
X562845Y614764D01*
X562031Y613546D01*
X561745Y612109D01*
Y526437D01*
X560475Y525887D01*
X558990Y526502D01*
X557086D01*
X555327Y525773D01*
X553981Y524427D01*
X553252Y522668D01*
Y520764D01*
X553849Y519322D01*
X553672Y518644D01*
X552448Y518184D01*
X552277Y518191D01*
X550608Y518882D01*
X548704D01*
X546945Y518153D01*
X545599Y516807D01*
X544989Y516686D01*
X536962Y524712D01*
X529025Y516774D01*
X527721Y516870D01*
X527125Y517748D01*
X530137Y520761D01*
X524929Y525969D01*
X519720Y531178D01*
X517125Y528582D01*
X516024Y528105D01*
X515330Y528243D01*
X441170D01*
X440476Y528105D01*
X439888Y527712D01*
X379598Y467422D01*
X379205Y466834D01*
X379067Y466140D01*
Y379965D01*
X379095Y379828D01*
X379088Y379688D01*
X379163Y379484D01*
X379205Y379272D01*
X379283Y379155D01*
X379331Y379024D01*
X379478Y378864D01*
X379598Y378683D01*
X379714Y378606D01*
X379809Y378503D01*
X381359Y377368D01*
X381556Y377276D01*
X381736Y377155D01*
X381873Y377128D01*
X382000Y377069D01*
X382217Y377060D01*
X382430Y377017D01*
X383838D01*
X384532Y377155D01*
X385120Y377548D01*
X385513Y378136D01*
X385543Y378290D01*
X392740D01*
X392743Y378276D01*
X392908Y378030D01*
X393056Y377773D01*
X393103Y377737D01*
X393136Y377688D01*
X393383Y377523D01*
X393618Y377343D01*
X393675Y377328D01*
X393724Y377295D01*
X394015Y377237D01*
X394301Y377161D01*
X395571Y377079D01*
X395630Y377087D01*
X395688Y377075D01*
X395979Y377133D01*
X396272Y377172D01*
X396324Y377202D01*
X396382Y377213D01*
X396628Y377378D01*
X396885Y377526D01*
X396921Y377573D01*
X396970Y377606D01*
X400462Y381098D01*
X400855Y381686D01*
X400993Y382380D01*
Y454139D01*
X406921Y460067D01*
X421070Y460067D01*
X421764Y460205D01*
X422352Y460598D01*
X422745Y461186D01*
X422883Y461880D01*
Y479069D01*
X453303Y509489D01*
X519201D01*
X519447Y509143D01*
X518793Y507873D01*
X516403D01*
Y503301D01*
X521864D01*
Y505915D01*
X523037Y506401D01*
X523896Y505542D01*
Y495681D01*
X527133D01*
Y493649D01*
X527133Y493649D01*
Y483500D01*
X527222Y483054D01*
Y475722D01*
X531460D01*
Y474960D01*
X536639D01*
Y458331D01*
X536935Y456844D01*
X537777Y455584D01*
X585413Y407948D01*
X584525Y407040D01*
X582405D01*
Y406278D01*
X582221D01*
Y398500D01*
X579404D01*
X579113Y399963D01*
X578778Y400464D01*
Y406278D01*
X578595D01*
Y407040D01*
X576460D01*
Y406278D01*
X527222D01*
Y400452D01*
X526911Y399987D01*
X526615Y398500D01*
Y380471D01*
X506137Y359993D01*
X467551D01*
X466064Y359697D01*
X464804Y358855D01*
X449564Y343615D01*
X448722Y342355D01*
X448426Y340868D01*
Y322771D01*
X448722Y321284D01*
X449564Y320024D01*
X452489Y317098D01*
X451963Y315828D01*
X434722D01*
Y315828D01*
X434278Y315278D01*
X420722D01*
Y306722D01*
X434278D01*
Y306722D01*
X434722Y307272D01*
X453278D01*
Y314513D01*
X454548Y315039D01*
X469127Y300460D01*
Y269643D01*
X438573Y239089D01*
X379412D01*
X377926Y238793D01*
X376666Y237951D01*
X351324Y212609D01*
X332698D01*
X309007Y236300D01*
X307747Y237142D01*
X306261Y237438D01*
X281686D01*
Y255016D01*
X268986Y267716D01*
X148885D01*
X148399Y268889D01*
X155089Y275579D01*
X290195D01*
X291682Y275875D01*
X292942Y276717D01*
X381466Y365241D01*
X383701D01*
X384600Y364346D01*
X384600Y363971D01*
Y350290D01*
X384855D01*
Y315206D01*
X378232Y308584D01*
X377306Y307197D01*
X376981Y305562D01*
Y289214D01*
X376536Y289095D01*
X373735Y287478D01*
X371447Y285191D01*
X369830Y282389D01*
X368993Y279264D01*
Y276029D01*
X369830Y272904D01*
X371447Y270103D01*
X373735Y267815D01*
X376536Y266198D01*
X379661Y265361D01*
X382896D01*
X386021Y266198D01*
X388823Y267815D01*
X391110Y270103D01*
X392727Y272904D01*
X392853Y273374D01*
X414934D01*
X416569Y273699D01*
X417955Y274625D01*
X425207Y281877D01*
X434722D01*
Y281872D01*
X453278D01*
Y290428D01*
X434722D01*
Y290423D01*
X423437D01*
X421802Y290098D01*
X420415Y289172D01*
X413164Y281920D01*
X392853D01*
X392727Y282389D01*
X391110Y285191D01*
X388823Y287478D01*
X386021Y289095D01*
X385527Y289228D01*
Y303792D01*
X392150Y310414D01*
X393076Y311801D01*
X393401Y313436D01*
Y350290D01*
X393656D01*
Y363971D01*
X393656Y364346D01*
X394555Y365241D01*
X496380D01*
X497866Y365537D01*
X499126Y366379D01*
X518247Y385499D01*
X519089Y386759D01*
X519385Y388246D01*
Y410222D01*
X523278D01*
Y420222D01*
Y429460D01*
X524040D01*
Y431595D01*
X523279D01*
Y431778D01*
X516995D01*
X516888Y431850D01*
X515500Y432126D01*
Y434874D01*
X516888Y435150D01*
X516995Y435221D01*
X523279D01*
Y435405D01*
X524040D01*
Y437540D01*
X523278D01*
Y450222D01*
Y460222D01*
Y471778D01*
X507722D01*
Y465222D01*
Y452255D01*
X504031D01*
X502865Y453421D01*
Y465455D01*
X502579Y466892D01*
X501765Y468110D01*
X487732Y482144D01*
X486513Y482958D01*
X485076Y483244D01*
X479300D01*
X477863Y482958D01*
X476645Y482144D01*
X471874Y477373D01*
X468853Y480394D01*
X467323Y478864D01*
X466165Y478593D01*
X458083Y486675D01*
X448743Y477336D01*
X456489Y469590D01*
X456511Y469341D01*
X456285Y468208D01*
X455416Y467790D01*
X452694Y470511D01*
X448833Y466649D01*
X452066Y463416D01*
X454288Y465638D01*
X455243Y466347D01*
X456079Y465511D01*
X466378Y455213D01*
X480206Y469041D01*
X477184Y472062D01*
X480856Y475733D01*
X483521D01*
X495355Y463900D01*
Y456629D01*
X494182Y456143D01*
X491972Y458353D01*
X484519Y450900D01*
X477066Y443447D01*
X478768Y441745D01*
X478282Y440572D01*
X467741D01*
X466304Y440286D01*
X465086Y439472D01*
X461267Y435653D01*
X458246Y438675D01*
X445316Y425745D01*
X445203Y425631D01*
X444564Y425470D01*
Y425470D01*
X444053Y425342D01*
X443579Y425815D01*
X440818Y428576D01*
X446321Y434078D01*
X440105Y440293D01*
X433890Y446509D01*
X427784Y440403D01*
X433032Y435155D01*
X430403Y432526D01*
X435611Y427317D01*
X440820Y422109D01*
X443155Y424444D01*
X443268Y424557D01*
X443543Y424626D01*
X444071Y424271D01*
X444244Y422659D01*
X436869Y415284D01*
X446208Y405944D01*
X454290Y414026D01*
X455466Y413798D01*
X455771Y413493D01*
X469599Y427322D01*
X466578Y430343D01*
X469296Y433061D01*
X481900D01*
X482387Y431888D01*
X478936Y428438D01*
X478150Y427262D01*
X477874Y425874D01*
X477874Y425874D01*
Y405778D01*
X476222D01*
Y389222D01*
X476222D01*
X476142Y387985D01*
X474896D01*
Y376555D01*
X488104D01*
Y387985D01*
X486858D01*
X486778Y389222D01*
X486778D01*
Y405778D01*
X485126D01*
Y424372D01*
X492112Y431358D01*
X493285Y430872D01*
Y421896D01*
X504715D01*
Y424874D01*
X507722D01*
Y420222D01*
Y410222D01*
X511615D01*
Y389855D01*
X494770Y373010D01*
X379857D01*
X378370Y372714D01*
X377110Y371872D01*
X288586Y283348D01*
X153479D01*
X151993Y283052D01*
X150733Y282210D01*
X140453Y271931D01*
X139611Y270671D01*
X139315Y269184D01*
Y267716D01*
X76708D01*
X15748Y328676D01*
Y800608D01*
X24384Y809244D01*
X45466D01*
X63754Y790956D01*
D02*
G37*
G36*
X535242Y506519D02*
Y497713D01*
X533867D01*
Y501396D01*
X533610Y502684D01*
X532881Y503777D01*
X531788Y504506D01*
X530500Y504763D01*
X529212Y504506D01*
X528119Y503777D01*
X527390Y502684D01*
X527133Y501396D01*
Y497713D01*
X525780D01*
Y506222D01*
X520700Y511302D01*
X452552D01*
X421070Y479820D01*
Y461880D01*
X406170Y461880D01*
X399180Y454890D01*
Y382380D01*
X395688Y378888D01*
X394418Y378970D01*
Y383413D01*
X389128D01*
X383838D01*
Y378830D01*
X382430D01*
X380880Y379965D01*
Y466140D01*
X441170Y526430D01*
X515330D01*
X535242Y506519D01*
D02*
G37*
G36*
X621982Y492887D02*
Y468671D01*
X620492Y467247D01*
X606235Y467106D01*
Y469963D01*
X610933D01*
X611378Y470598D01*
Y492633D01*
X612331Y493586D01*
X621284D01*
X621982Y492887D01*
D02*
G37*
G36*
X468408Y473297D02*
X462185Y467011D01*
X462121D01*
Y467074D01*
X455009Y474186D01*
Y474250D01*
X461232Y480473D01*
X468408Y473297D01*
D02*
G37*
G36*
X457136Y420052D02*
Y419989D01*
X457073D01*
X449961Y412877D01*
X449897D01*
X443675Y419100D01*
X450850Y426275D01*
X457136Y420052D01*
D02*
G37*
G36*
X586967Y474549D02*
X581481Y469063D01*
X580667Y467845D01*
X580381Y466408D01*
Y462534D01*
X580667Y461097D01*
X581481Y459879D01*
X585515Y455845D01*
X586734Y455031D01*
X588171Y454745D01*
X592722D01*
Y445222D01*
Y435222D01*
Y425222D01*
Y413286D01*
X591549Y412800D01*
X544409Y459940D01*
Y475722D01*
X586481D01*
X586967Y474549D01*
D02*
G37*
G36*
X484759Y382016D02*
X478155D01*
Y398018D01*
X484759Y398272D01*
Y382016D01*
D02*
G37*
G36*
X607060Y384810D02*
Y383794D01*
X601726Y378460D01*
X601218D01*
X586740Y392938D01*
X584454D01*
Y404368D01*
X587502D01*
X607060Y384810D01*
D02*
G37*
G36*
X565598Y367374D02*
X565072Y366104D01*
X564285D01*
Y352896D01*
X575715D01*
Y361697D01*
X576888Y362183D01*
X580823Y358248D01*
Y343471D01*
X581119Y341985D01*
X581961Y340725D01*
X604878Y317808D01*
Y317564D01*
X605606Y315805D01*
X606953Y314459D01*
X608712Y313730D01*
X610616D01*
X612374Y314459D01*
X613721Y315805D01*
X614288Y317174D01*
X615558Y316921D01*
Y255863D01*
X614702Y255008D01*
X613532Y255633D01*
X613548Y255714D01*
Y304292D01*
X613252Y305779D01*
X612410Y307039D01*
X588217Y331232D01*
X586957Y332074D01*
X585470Y332370D01*
X574887D01*
X573885Y333373D01*
Y336894D01*
X575715D01*
Y350102D01*
X564285D01*
Y336894D01*
X566115D01*
Y331763D01*
X566411Y330277D01*
X567253Y329017D01*
X568406Y327864D01*
X567920Y326691D01*
X565508D01*
X560738Y331461D01*
Y336894D01*
X562215D01*
Y350102D01*
X550785D01*
Y336894D01*
X552262D01*
Y329706D01*
X552508Y328469D01*
X551338Y327844D01*
X547738Y331444D01*
Y336894D01*
X549215D01*
Y350102D01*
X537785D01*
Y336894D01*
X539262D01*
Y329688D01*
X539477Y328610D01*
X538306Y327985D01*
X533738Y332553D01*
Y336894D01*
X535215D01*
Y350102D01*
X523785D01*
Y336894D01*
X525262D01*
Y330798D01*
X525585Y329176D01*
X526503Y327802D01*
X545616Y308689D01*
X545090Y307419D01*
X543525D01*
X542642Y307054D01*
X537718D01*
Y308737D01*
X526288D01*
Y295529D01*
X537718D01*
Y297213D01*
X542642D01*
X543525Y296847D01*
X545628D01*
X547570Y297652D01*
X549057Y299139D01*
X549862Y301082D01*
Y302647D01*
X551132Y303173D01*
X561293Y293012D01*
Y290923D01*
X560120Y290436D01*
X559987Y290569D01*
X558228Y291298D01*
X556324D01*
X554565Y290569D01*
X554428Y290433D01*
X537718D01*
Y292735D01*
X526288D01*
Y290242D01*
X524333D01*
X524237Y290261D01*
X508278D01*
Y290428D01*
X489722D01*
Y281872D01*
X508278D01*
Y282039D01*
X524160D01*
X524256Y282020D01*
X526288D01*
Y277542D01*
X524333D01*
X524237Y277561D01*
X508278D01*
Y277728D01*
X489722D01*
Y269172D01*
X508278D01*
Y269339D01*
X524160D01*
X524256Y269320D01*
X526288D01*
Y266827D01*
X537718D01*
Y269320D01*
X561151D01*
X561521Y268950D01*
X563464Y268145D01*
X565566D01*
X567509Y268950D01*
X568996Y270437D01*
X569801Y272379D01*
Y274482D01*
X568996Y276425D01*
X567509Y277912D01*
X565566Y278717D01*
X563464D01*
X561521Y277912D01*
X561151Y277542D01*
X537718D01*
Y282210D01*
X555155D01*
X556324Y281726D01*
X558228D01*
X559987Y282455D01*
X561333Y283801D01*
X561503Y284210D01*
X562946Y284374D01*
X566966Y280354D01*
X568341Y279435D01*
X569963Y279112D01*
X572722D01*
Y279072D01*
X591278D01*
Y287628D01*
X572722D01*
X572722Y287628D01*
Y287628D01*
X571518Y287788D01*
X569769Y289537D01*
Y294767D01*
X569446Y296389D01*
X568528Y297764D01*
X558239Y308052D01*
X558396Y308600D01*
X558865Y309222D01*
X559943Y309008D01*
X573809D01*
X577762Y305054D01*
Y300328D01*
X572722D01*
Y291772D01*
X591278D01*
Y300328D01*
X586238D01*
Y306810D01*
X585915Y308431D01*
X584997Y309806D01*
X578560Y316242D01*
X577508Y316945D01*
X577893Y318215D01*
X580159D01*
X595139Y303235D01*
Y277536D01*
X592543Y274940D01*
X591278Y274928D01*
Y274928D01*
X572722D01*
Y266372D01*
X591278D01*
Y266412D01*
X594246D01*
X595868Y266735D01*
X597243Y267654D01*
X602373Y272784D01*
X603292Y274159D01*
X603614Y275781D01*
Y303188D01*
X604788Y303674D01*
X605779Y302683D01*
Y257324D01*
X598466Y250011D01*
X538651D01*
X537718Y250825D01*
X537718Y251281D01*
Y264033D01*
X526288D01*
Y262381D01*
X518075D01*
X517116Y262778D01*
X515013D01*
X513070Y261974D01*
X511583Y260487D01*
X510779Y258544D01*
Y256441D01*
X511583Y254498D01*
X513070Y253011D01*
X515013Y252206D01*
X517116D01*
X517922Y252540D01*
X525390D01*
X525973Y251957D01*
X525936Y250518D01*
X525355Y250011D01*
X472884D01*
X471398Y249715D01*
X470138Y248873D01*
X439779Y218515D01*
X376428D01*
X374941Y218219D01*
X373681Y217377D01*
X286940Y130636D01*
X286098Y129376D01*
X285802Y127889D01*
Y124289D01*
X284629Y123803D01*
X281686Y126746D01*
Y229668D01*
X304651D01*
X328342Y205978D01*
X329602Y205136D01*
X331089Y204840D01*
X352933D01*
X354420Y205136D01*
X355680Y205978D01*
X381022Y231319D01*
X440182D01*
X441669Y231615D01*
X442929Y232457D01*
X475758Y265287D01*
X476600Y266547D01*
X476896Y268034D01*
Y302069D01*
X476600Y303556D01*
X475758Y304816D01*
X463833Y316742D01*
X464640Y317731D01*
X481908Y306325D01*
X482071Y306259D01*
X482218Y306161D01*
X482396Y306126D01*
X482563Y306058D01*
X482739Y306059D01*
X482912Y306025D01*
X504635Y306087D01*
X505930D01*
X506624Y306225D01*
X507212Y306618D01*
X507866Y307272D01*
X508278D01*
Y307684D01*
X509162Y308568D01*
X509555Y309156D01*
X509693Y309850D01*
Y327620D01*
X509555Y328314D01*
X509162Y328902D01*
X505992Y332072D01*
X505404Y332465D01*
X504710Y332603D01*
X461836D01*
X461142Y332465D01*
X460554Y332072D01*
X460161Y331484D01*
X460023Y330790D01*
Y322348D01*
X458753Y321822D01*
X456195Y324380D01*
Y339259D01*
X469160Y352223D01*
X507746D01*
X509233Y352519D01*
X510493Y353361D01*
X522515Y365383D01*
X523785Y364857D01*
Y352896D01*
X535215D01*
Y366104D01*
X533289D01*
X533194Y367374D01*
X538064Y372244D01*
X538064Y372244D01*
X538604Y373053D01*
X539874Y372668D01*
Y366104D01*
X537785D01*
Y352896D01*
X549215D01*
Y366104D01*
X547126D01*
Y371946D01*
X548396Y372472D01*
X552874Y367993D01*
Y366104D01*
X550785D01*
Y352896D01*
X562215D01*
Y366104D01*
X560126D01*
Y369495D01*
X560126Y369495D01*
X559850Y370882D01*
X559064Y372059D01*
X559064Y372059D01*
X554963Y376159D01*
X554972Y376203D01*
X556350Y376622D01*
X565598Y367374D01*
D02*
G37*
G36*
X615558Y330339D02*
Y320111D01*
X614288Y319858D01*
X613721Y321227D01*
X612374Y322573D01*
X610616Y323302D01*
X610371D01*
X588593Y345081D01*
Y355644D01*
X589766Y356130D01*
X615558Y330339D01*
D02*
G37*
G36*
X437579Y309181D02*
X431228D01*
Y313182D01*
X437579D01*
Y309181D01*
D02*
G37*
G36*
X507880Y327620D02*
Y309850D01*
X505930Y307900D01*
X504630D01*
X482907Y307838D01*
X461836Y321756D01*
Y330790D01*
X504710D01*
X507880Y327620D01*
D02*
G37*
G36*
X204059Y184625D02*
Y129190D01*
X194090Y119220D01*
X106203D01*
X96901Y109918D01*
Y93040D01*
X94305D01*
Y80500D01*
Y67960D01*
X96901D01*
Y12764D01*
X91040D01*
Y17595D01*
X85000D01*
X78960D01*
Y12764D01*
X72327D01*
X63843Y20733D01*
X64635Y21731D01*
X65148Y21388D01*
X65405Y21337D01*
Y26607D01*
Y31876D01*
X65148Y31825D01*
X63316Y30601D01*
X63183Y30401D01*
X61912Y30786D01*
Y35190D01*
X63183Y35575D01*
X63316Y35376D01*
X65148Y34151D01*
X65405Y34100D01*
Y39370D01*
Y44640D01*
X65148Y44589D01*
X63316Y43364D01*
X63183Y43165D01*
X61912Y43550D01*
Y47890D01*
X63183Y48275D01*
X63316Y48076D01*
X65148Y46851D01*
X65405Y46800D01*
Y52070D01*
Y57340D01*
X65148Y57289D01*
X63316Y56064D01*
X63183Y55865D01*
X61912Y56250D01*
Y60590D01*
X63183Y60975D01*
X63316Y60776D01*
X65148Y59551D01*
X65405Y59500D01*
Y64770D01*
Y70040D01*
X65148Y69989D01*
X63316Y68764D01*
X63183Y68565D01*
X61912Y68950D01*
Y73290D01*
X63183Y73675D01*
X63316Y73476D01*
X65148Y72251D01*
X65405Y72200D01*
Y77470D01*
Y82740D01*
X65148Y82689D01*
X63316Y81464D01*
X63183Y81264D01*
X61912Y81650D01*
Y115694D01*
X141448Y195230D01*
X192121Y196563D01*
X204059Y184625D01*
D02*
G37*
G36*
X122682Y60897D02*
X139890D01*
Y44704D01*
X127571D01*
Y49847D01*
X124714Y52705D01*
X113284D01*
Y90615D01*
X122555Y90678D01*
X122682Y60897D01*
D02*
G37*
G36*
X175578Y36131D02*
X157734D01*
Y43878D01*
X175578D01*
Y36131D01*
D02*
G37*
G36*
X109728Y90551D02*
Y70358D01*
X107633Y68263D01*
Y50165D01*
X109537Y48260D01*
X121412D01*
X122365Y47308D01*
X122365Y35266D01*
X124204Y32829D01*
X140970D01*
X143954Y29845D01*
Y27877D01*
X145923Y25908D01*
Y19177D01*
X143954Y17208D01*
Y12573D01*
X100647D01*
X100330Y90615D01*
X100647Y90932D01*
X109347D01*
X109728Y90551D01*
D02*
G37*
G36*
X912463Y347320D02*
Y12878D01*
X906977Y7391D01*
X729151D01*
X722655Y13887D01*
X721938Y348571D01*
X726300Y352933D01*
X906850D01*
X912463Y347320D01*
D02*
G37*
%LPC*%
G36*
X634078Y627419D02*
X623443D01*
Y621284D01*
X634078D01*
Y627419D01*
D02*
G37*
G36*
X657733Y616839D02*
Y613537D01*
X661035D01*
X660525Y614770D01*
X658966Y616329D01*
X657733Y616839D01*
D02*
G37*
G36*
X653923D02*
X652690Y616329D01*
X651131Y614770D01*
X650621Y613537D01*
X653923D01*
Y616839D01*
D02*
G37*
G36*
X634078Y617474D02*
X623443D01*
Y611339D01*
X634078D01*
Y617474D01*
D02*
G37*
G36*
X619633D02*
X608998D01*
Y611339D01*
X619633D01*
Y617474D01*
D02*
G37*
G36*
X661035Y609727D02*
X657733D01*
Y606425D01*
X658966Y606935D01*
X660525Y608494D01*
X661035Y609727D01*
D02*
G37*
G36*
X653923D02*
X650621D01*
X651131Y608494D01*
X652690Y606935D01*
X653923Y606425D01*
Y609727D01*
D02*
G37*
G36*
X688213Y583819D02*
Y580517D01*
X691515D01*
X691005Y581750D01*
X689446Y583309D01*
X688213Y583819D01*
D02*
G37*
G36*
X684403D02*
X683170Y583309D01*
X681611Y581750D01*
X681101Y580517D01*
X684403D01*
Y583819D01*
D02*
G37*
G36*
X691515Y576707D02*
X688213D01*
Y573405D01*
X689446Y573915D01*
X691005Y575474D01*
X691515Y576707D01*
D02*
G37*
G36*
X684403D02*
X681101D01*
X681611Y575474D01*
X683170Y573915D01*
X684403Y573405D01*
Y576707D01*
D02*
G37*
G36*
X658749Y548005D02*
Y544703D01*
X662051D01*
X661541Y545936D01*
X659982Y547495D01*
X658749Y548005D01*
D02*
G37*
G36*
X654939D02*
X653706Y547495D01*
X652147Y545936D01*
X651637Y544703D01*
X654939D01*
Y548005D01*
D02*
G37*
G36*
X662051Y540893D02*
X658749D01*
Y537591D01*
X659982Y538101D01*
X661541Y539660D01*
X662051Y540893D01*
D02*
G37*
G36*
X654939D02*
X651637D01*
X652147Y539660D01*
X653706Y538101D01*
X654939Y537591D01*
Y540893D01*
D02*
G37*
G36*
X640126Y495504D02*
X634664D01*
Y490933D01*
X640126D01*
Y495504D01*
D02*
G37*
G36*
X630854D02*
X625393D01*
Y490933D01*
X630854D01*
Y495504D01*
D02*
G37*
G36*
X688467Y492887D02*
Y489585D01*
X691769D01*
X691259Y490818D01*
X689700Y492377D01*
X688467Y492887D01*
D02*
G37*
G36*
X684657D02*
X683424Y492377D01*
X681865Y490818D01*
X681355Y489585D01*
X684657D01*
Y492887D01*
D02*
G37*
G36*
X691769Y485775D02*
X688467D01*
Y482473D01*
X689700Y482983D01*
X691259Y484542D01*
X691769Y485775D01*
D02*
G37*
G36*
X684657D02*
X681355D01*
X681865Y484542D01*
X683424Y482983D01*
X684657Y482473D01*
Y485775D01*
D02*
G37*
G36*
X640126Y487122D02*
X632760D01*
X625393D01*
Y482551D01*
X628719D01*
Y475933D01*
X634759D01*
X640799D01*
Y483068D01*
X640126D01*
Y487122D01*
D02*
G37*
G36*
X640799Y472122D02*
X636665D01*
Y464987D01*
X640799D01*
Y472122D01*
D02*
G37*
G36*
X632854D02*
X628719D01*
Y464987D01*
X632854D01*
Y472122D01*
D02*
G37*
G36*
X672465Y405003D02*
Y401701D01*
X675767D01*
X675257Y402934D01*
X673698Y404493D01*
X672465Y405003D01*
D02*
G37*
G36*
X668655D02*
X667422Y404493D01*
X665863Y402934D01*
X665353Y401701D01*
X668655D01*
Y405003D01*
D02*
G37*
G36*
X653542Y429215D02*
X640334D01*
Y417785D01*
X642018D01*
Y406429D01*
X641652Y405546D01*
Y403443D01*
X642457Y401501D01*
X643944Y400014D01*
X645887Y399209D01*
X647990D01*
X649932Y400014D01*
X651419Y401501D01*
X652224Y403443D01*
Y405546D01*
X651859Y406429D01*
Y417785D01*
X653542D01*
Y429215D01*
D02*
G37*
G36*
X675767Y397891D02*
X672465D01*
Y394589D01*
X673698Y395099D01*
X675257Y396658D01*
X675767Y397891D01*
D02*
G37*
G36*
X668655D02*
X665353D01*
X665863Y396658D01*
X667422Y395099D01*
X668655Y394589D01*
Y397891D01*
D02*
G37*
G36*
X654183Y390027D02*
X650894Y389594D01*
X647828Y388324D01*
X645196Y386304D01*
X643176Y383672D01*
X641906Y380607D01*
X641473Y377317D01*
X641906Y374027D01*
X643176Y370962D01*
X645196Y368330D01*
X647828Y366310D01*
X650894Y365040D01*
X654183Y364607D01*
X657473Y365040D01*
X660538Y366310D01*
X663171Y368330D01*
X665191Y370962D01*
X666460Y374027D01*
X666893Y377317D01*
X666460Y380607D01*
X665191Y383672D01*
X663171Y386304D01*
X660538Y388324D01*
X657473Y389594D01*
X654183Y390027D01*
D02*
G37*
G36*
X677291Y363855D02*
Y360553D01*
X680593D01*
X680083Y361786D01*
X678524Y363345D01*
X677291Y363855D01*
D02*
G37*
G36*
X673481D02*
X672248Y363345D01*
X670689Y361786D01*
X670179Y360553D01*
X673481D01*
Y363855D01*
D02*
G37*
G36*
X680593Y356743D02*
X677291D01*
Y353441D01*
X678524Y353951D01*
X680083Y355510D01*
X680593Y356743D01*
D02*
G37*
G36*
X673481D02*
X670179D01*
X670689Y355510D01*
X672248Y353951D01*
X673481Y353441D01*
Y356743D01*
D02*
G37*
G36*
X675849Y315441D02*
X673945D01*
X672186Y314712D01*
X670840Y313366D01*
X670111Y311607D01*
Y309703D01*
X670840Y307944D01*
X671374Y307409D01*
Y301278D01*
X668930D01*
X668928Y301278D01*
X650494D01*
X650492Y301278D01*
X648722D01*
Y300841D01*
X647483Y300484D01*
X646278Y300328D01*
X646278Y300328D01*
X646278Y300328D01*
X627722D01*
Y291772D01*
X646278D01*
X646278Y291772D01*
Y291772D01*
X647515Y291692D01*
X648722Y291289D01*
Y290722D01*
X665278D01*
Y290795D01*
X666722D01*
Y290722D01*
X683278D01*
Y301278D01*
X678626D01*
Y307615D01*
X678954Y307944D01*
X679683Y309703D01*
Y311607D01*
X678954Y313366D01*
X677608Y314712D01*
X675849Y315441D01*
D02*
G37*
G36*
X646278Y287628D02*
X627722D01*
Y279072D01*
X646278D01*
Y287628D01*
D02*
G37*
G36*
X684040Y283040D02*
X676905D01*
Y278905D01*
X684040D01*
Y283040D01*
D02*
G37*
G36*
X655095D02*
X647960D01*
Y278905D01*
X655095D01*
Y283040D01*
D02*
G37*
G36*
X684040Y275095D02*
X676905D01*
Y270960D01*
X684040D01*
Y275095D01*
D02*
G37*
G36*
X673095Y283040D02*
X658905D01*
Y277000D01*
Y270960D01*
X673095D01*
Y277000D01*
Y283040D01*
D02*
G37*
G36*
X655095Y275095D02*
X647960D01*
Y270960D01*
X655095D01*
Y275095D01*
D02*
G37*
G36*
X646278Y274928D02*
X627722D01*
Y266372D01*
X646278D01*
Y274928D01*
D02*
G37*
G36*
X663102Y263715D02*
X649894D01*
Y261576D01*
X646278D01*
Y262228D01*
X627722D01*
Y253672D01*
X646278D01*
Y254324D01*
X649894D01*
Y252285D01*
X663102D01*
Y263715D01*
D02*
G37*
G36*
X661543Y213995D02*
Y210693D01*
X664845D01*
X664335Y211926D01*
X662776Y213485D01*
X661543Y213995D01*
D02*
G37*
G36*
X657733D02*
X656500Y213485D01*
X654941Y211926D01*
X654431Y210693D01*
X657733D01*
Y213995D01*
D02*
G37*
G36*
X664845Y206883D02*
X661543D01*
Y203581D01*
X662776Y204091D01*
X664335Y205650D01*
X664845Y206883D01*
D02*
G37*
G36*
X657733D02*
X654431D01*
X654941Y205650D01*
X656500Y204091D01*
X657733Y203581D01*
Y206883D01*
D02*
G37*
G36*
X615061Y205867D02*
Y202565D01*
X618363D01*
X617853Y203798D01*
X616294Y205357D01*
X615061Y205867D01*
D02*
G37*
G36*
X611251D02*
X610018Y205357D01*
X608459Y203798D01*
X607949Y202565D01*
X611251D01*
Y205867D01*
D02*
G37*
G36*
X618363Y198755D02*
X615061D01*
Y195453D01*
X616294Y195963D01*
X617853Y197522D01*
X618363Y198755D01*
D02*
G37*
G36*
X611251D02*
X607949D01*
X608459Y197522D01*
X610018Y195963D01*
X611251Y195453D01*
Y198755D01*
D02*
G37*
G36*
X474599Y197739D02*
Y194437D01*
X477901D01*
X477391Y195670D01*
X475832Y197229D01*
X474599Y197739D01*
D02*
G37*
G36*
X470789D02*
X469556Y197229D01*
X467997Y195670D01*
X467487Y194437D01*
X470789D01*
Y197739D01*
D02*
G37*
G36*
X589915Y197485D02*
Y194183D01*
X593217D01*
X592707Y195416D01*
X591148Y196975D01*
X589915Y197485D01*
D02*
G37*
G36*
X586105D02*
X584872Y196975D01*
X583313Y195416D01*
X582803Y194183D01*
X586105D01*
Y197485D01*
D02*
G37*
G36*
X477901Y190627D02*
X474599D01*
Y187325D01*
X475832Y187835D01*
X477391Y189394D01*
X477901Y190627D01*
D02*
G37*
G36*
X470789D02*
X467487D01*
X467997Y189394D01*
X469556Y187835D01*
X470789Y187325D01*
Y190627D01*
D02*
G37*
G36*
X593217Y190373D02*
X589915D01*
Y187071D01*
X591148Y187581D01*
X592707Y189140D01*
X593217Y190373D01*
D02*
G37*
G36*
X586105D02*
X582803D01*
X583313Y189140D01*
X584872Y187581D01*
X586105Y187071D01*
Y190373D01*
D02*
G37*
G36*
X687197Y177673D02*
Y174371D01*
X690499D01*
X689989Y175604D01*
X688430Y177163D01*
X687197Y177673D01*
D02*
G37*
G36*
X683387D02*
X682154Y177163D01*
X680595Y175604D01*
X680085Y174371D01*
X683387D01*
Y177673D01*
D02*
G37*
G36*
X690499Y170561D02*
X687197D01*
Y167259D01*
X688430Y167769D01*
X689989Y169328D01*
X690499Y170561D01*
D02*
G37*
G36*
X683387D02*
X680085D01*
X680595Y169328D01*
X682154Y167769D01*
X683387Y167259D01*
Y170561D01*
D02*
G37*
G36*
X489585Y157099D02*
Y153797D01*
X492887D01*
X492377Y155030D01*
X490818Y156589D01*
X489585Y157099D01*
D02*
G37*
G36*
X485775D02*
X484542Y156589D01*
X482983Y155030D01*
X482473Y153797D01*
X485775D01*
Y157099D01*
D02*
G37*
G36*
X517271Y153035D02*
Y149733D01*
X520573D01*
X520063Y150966D01*
X518504Y152525D01*
X517271Y153035D01*
D02*
G37*
G36*
X513461D02*
X512228Y152525D01*
X510669Y150966D01*
X510159Y149733D01*
X513461D01*
Y153035D01*
D02*
G37*
G36*
X492887Y149987D02*
X489585D01*
Y146685D01*
X490818Y147195D01*
X492377Y148754D01*
X492887Y149987D01*
D02*
G37*
G36*
X485775D02*
X482473D01*
X482983Y148754D01*
X484542Y147195D01*
X485775Y146685D01*
Y149987D01*
D02*
G37*
G36*
X520573Y145923D02*
X517271D01*
Y142621D01*
X518504Y143131D01*
X520063Y144690D01*
X520573Y145923D01*
D02*
G37*
G36*
X513461D02*
X510159D01*
X510669Y144690D01*
X512228Y143131D01*
X513461Y142621D01*
Y145923D01*
D02*
G37*
G36*
X344805Y140081D02*
Y136779D01*
X348107D01*
X347597Y138012D01*
X346038Y139571D01*
X344805Y140081D01*
D02*
G37*
G36*
X340995D02*
X339762Y139571D01*
X338203Y138012D01*
X337693Y136779D01*
X340995D01*
Y140081D01*
D02*
G37*
G36*
X423778Y191278D02*
X387222D01*
Y159383D01*
X379000D01*
X376054Y158996D01*
X373308Y157858D01*
X370951Y156049D01*
X369142Y153692D01*
X368004Y150946D01*
X367617Y148000D01*
X368004Y145054D01*
X369142Y142308D01*
X370951Y139951D01*
X373308Y138142D01*
X376054Y137004D01*
X379000Y136617D01*
X397000D01*
X399946Y137004D01*
X402692Y138142D01*
X405049Y139951D01*
X406858Y142308D01*
X407444Y143722D01*
X423778D01*
Y191278D01*
D02*
G37*
G36*
X348107Y132969D02*
X344805D01*
Y129667D01*
X346038Y130177D01*
X347597Y131736D01*
X348107Y132969D01*
D02*
G37*
G36*
X340995D02*
X337693D01*
X338203Y131736D01*
X339762Y130177D01*
X340995Y129667D01*
Y132969D01*
D02*
G37*
G36*
X448905Y139397D02*
Y118905D01*
X459648D01*
Y127000D01*
X459217Y130274D01*
X457954Y133324D01*
X455944Y135944D01*
X453324Y137954D01*
X450274Y139217D01*
X448905Y139397D01*
D02*
G37*
G36*
X445095D02*
X443726Y139217D01*
X440676Y137954D01*
X438056Y135944D01*
X436046Y133324D01*
X434783Y130274D01*
X434352Y127000D01*
Y118905D01*
X445095D01*
Y139397D01*
D02*
G37*
G36*
X658216Y155586D02*
X618927D01*
X618233Y155448D01*
X617645Y155055D01*
X609275Y146685D01*
X608882Y146097D01*
X608744Y145403D01*
Y126653D01*
X608754Y126602D01*
X608747Y126551D01*
X608823Y126257D01*
X608882Y125960D01*
X608911Y125917D01*
X608924Y125866D01*
X609106Y125624D01*
X609275Y125372D01*
X609318Y125343D01*
X609349Y125301D01*
X613729Y121391D01*
X613986Y121240D01*
X614233Y121073D01*
X614289Y121061D01*
X614339Y121032D01*
X614634Y120991D01*
X614926Y120931D01*
X679395Y120559D01*
X679670Y119741D01*
X679742Y119287D01*
X678417Y117560D01*
X677556Y115483D01*
X677514Y115159D01*
X688376D01*
X699239D01*
X699197Y115483D01*
X698336Y117560D01*
X696967Y119344D01*
X695989Y120095D01*
X695879Y120310D01*
X695965Y121714D01*
X696786Y122344D01*
X697860Y123743D01*
X698158Y124042D01*
X698551Y124630D01*
X698689Y125323D01*
Y125463D01*
X698949Y126090D01*
X699234Y128253D01*
X698949Y130417D01*
X698689Y131044D01*
Y131933D01*
X698551Y132627D01*
X698158Y133215D01*
X695868Y135505D01*
X695280Y135898D01*
X694586Y136036D01*
X693739D01*
X693040Y136326D01*
X690876Y136611D01*
X685876D01*
X683713Y136326D01*
X683014Y136036D01*
X672517D01*
X667229Y141324D01*
Y146573D01*
X667091Y147267D01*
X666698Y147855D01*
X659498Y155055D01*
X658910Y155448D01*
X658216Y155586D01*
D02*
G37*
G36*
X664986Y115294D02*
X657851D01*
Y111159D01*
X664986D01*
Y115294D01*
D02*
G37*
G36*
X618541D02*
X611407D01*
Y111159D01*
X618541D01*
Y115294D01*
D02*
G37*
G36*
X636041D02*
X622351D01*
Y109254D01*
Y103214D01*
X636041D01*
Y109254D01*
Y115294D01*
D02*
G37*
G36*
X654041D02*
X639851D01*
Y109254D01*
Y103214D01*
X654041D01*
Y109254D01*
Y115294D01*
D02*
G37*
G36*
X636841Y246658D02*
X634937D01*
X633178Y245929D01*
X631832Y244583D01*
X631103Y242824D01*
Y240919D01*
X631832Y239160D01*
X632004Y238988D01*
Y192427D01*
X591359Y151781D01*
X590517Y150521D01*
X590221Y149035D01*
Y115633D01*
X590517Y114147D01*
X591359Y112887D01*
X607284Y96962D01*
X607244Y96867D01*
X606535Y95914D01*
X604931Y96234D01*
X603048Y95859D01*
X603021Y95841D01*
X597903D01*
Y86785D01*
X600010D01*
Y84753D01*
X600010Y84753D01*
Y82446D01*
X599653D01*
Y65890D01*
X600010D01*
Y51214D01*
X600145Y50538D01*
Y50262D01*
X600250Y50008D01*
X600385Y49331D01*
X600768Y48758D01*
X600874Y48503D01*
X601068Y48309D01*
X601452Y47735D01*
X602025Y47352D01*
X602220Y47157D01*
X602475Y47052D01*
X603048Y46669D01*
X603724Y46534D01*
X603979Y46428D01*
X604255D01*
X604931Y46294D01*
X605607Y46428D01*
X605883D01*
X606138Y46534D01*
X606814Y46669D01*
X607387Y47052D01*
X607642Y47157D01*
X607837Y47352D01*
X608410Y47735D01*
X608793Y48309D01*
X608988Y48503D01*
X609094Y48758D01*
X609477Y49331D01*
X609612Y50008D01*
X609717Y50262D01*
Y50538D01*
X609851Y51214D01*
Y65890D01*
X610209D01*
Y82446D01*
X609851D01*
Y84753D01*
X609851Y84753D01*
Y86785D01*
X611959D01*
Y90627D01*
X613132Y91114D01*
X615672Y88574D01*
X616932Y87732D01*
X618419Y87436D01*
X658375D01*
X659862Y87732D01*
X661122Y88574D01*
X666918Y94369D01*
X678517D01*
X678639Y94075D01*
X679967Y92344D01*
X681031Y91527D01*
Y89980D01*
X679967Y89163D01*
X678639Y87432D01*
X677804Y85417D01*
X677519Y83253D01*
X677804Y81090D01*
X678639Y79075D01*
X679967Y77344D01*
X681031Y76527D01*
Y74980D01*
X679967Y74163D01*
X678639Y72432D01*
X677804Y70417D01*
X677519Y68253D01*
X677804Y66090D01*
X678639Y64075D01*
X679967Y62344D01*
X681031Y61527D01*
Y59980D01*
X679967Y59163D01*
X678639Y57432D01*
X677804Y55417D01*
X677519Y53253D01*
X677804Y51090D01*
X678639Y49075D01*
X679967Y47344D01*
X681698Y46016D01*
X683713Y45181D01*
X685876Y44896D01*
X690876D01*
X693040Y45181D01*
X695055Y46016D01*
X696786Y47344D01*
X698114Y49075D01*
X698949Y51090D01*
X699234Y53253D01*
X698949Y55417D01*
X698114Y57432D01*
X696786Y59163D01*
X695722Y59980D01*
Y61527D01*
X696786Y62344D01*
X698114Y64075D01*
X698949Y66090D01*
X699234Y68253D01*
X698949Y70417D01*
X698114Y72432D01*
X696786Y74163D01*
X695722Y74980D01*
Y76527D01*
X696786Y77344D01*
X698114Y79075D01*
X698949Y81090D01*
X699234Y83253D01*
X698949Y85417D01*
X698114Y87432D01*
X696786Y89163D01*
X695722Y89980D01*
Y91527D01*
X696786Y92344D01*
X698114Y94075D01*
X698949Y96090D01*
X699234Y98253D01*
X698949Y100417D01*
X698114Y102432D01*
X696786Y104163D01*
X695965Y104793D01*
Y106394D01*
X696967Y107163D01*
X698336Y108947D01*
X699197Y111024D01*
X699239Y111348D01*
X688376D01*
X677514D01*
X677556Y111024D01*
X678417Y108947D01*
X679786Y107163D01*
X680788Y106394D01*
Y104793D01*
X679967Y104163D01*
X678639Y102432D01*
X678517Y102138D01*
X665587D01*
X665456Y102138D01*
X665088Y102982D01*
X664986Y103369D01*
X664986Y104145D01*
Y107348D01*
X657851D01*
Y103214D01*
X663781D01*
X663910Y103214D01*
X663913Y103213D01*
X664031Y103190D01*
X664223Y101960D01*
X664169Y101912D01*
X663822Y101842D01*
X662562Y101000D01*
X656766Y95205D01*
X620028D01*
X613193Y102040D01*
X613679Y103214D01*
X618541D01*
Y107348D01*
X611407D01*
Y105486D01*
X610233Y105000D01*
X597991Y117243D01*
Y147425D01*
X638636Y188071D01*
X639478Y189331D01*
X639774Y190818D01*
Y238988D01*
X639946Y239160D01*
X640675Y240919D01*
Y242824D01*
X639946Y244583D01*
X638600Y245929D01*
X636841Y246658D01*
D02*
G37*
G36*
X517525Y92837D02*
Y89535D01*
X520827D01*
X520317Y90768D01*
X518758Y92327D01*
X517525Y92837D01*
D02*
G37*
G36*
X513715D02*
X512482Y92327D01*
X510923Y90768D01*
X510413Y89535D01*
X513715D01*
Y92837D01*
D02*
G37*
G36*
X409000Y97648D02*
X400905D01*
Y86905D01*
X421397D01*
X421217Y88274D01*
X419954Y91324D01*
X417944Y93944D01*
X415324Y95954D01*
X412273Y97217D01*
X409000Y97648D01*
D02*
G37*
G36*
X397095D02*
X389000D01*
X385726Y97217D01*
X382676Y95954D01*
X380056Y93944D01*
X378046Y91324D01*
X376783Y88274D01*
X376603Y86905D01*
X397095D01*
Y97648D01*
D02*
G37*
G36*
X520827Y85725D02*
X517525D01*
Y82423D01*
X518758Y82933D01*
X520317Y84492D01*
X520827Y85725D01*
D02*
G37*
G36*
X513715D02*
X510413D01*
X510923Y84492D01*
X512482Y82933D01*
X513715Y82423D01*
Y85725D01*
D02*
G37*
G36*
X356540Y111540D02*
X336405D01*
Y79905D01*
X356540D01*
Y111540D01*
D02*
G37*
G36*
X332595D02*
X312460D01*
Y79905D01*
X332595D01*
Y111540D01*
D02*
G37*
G36*
X485540D02*
X465405D01*
Y79905D01*
X485540D01*
Y111540D01*
D02*
G37*
G36*
X459648Y115095D02*
X447000D01*
X434352D01*
Y107000D01*
X434783Y103726D01*
X436046Y100676D01*
X438056Y98056D01*
X440676Y96046D01*
X441460Y95722D01*
Y79905D01*
X461595D01*
Y111540D01*
X459648D01*
Y115095D01*
D02*
G37*
G36*
X629971Y83208D02*
X625836D01*
Y76073D01*
X629971D01*
Y83208D01*
D02*
G37*
G36*
X622026D02*
X617891D01*
Y76073D01*
X622026D01*
Y83208D01*
D02*
G37*
G36*
X421397Y83095D02*
X400905D01*
Y72352D01*
X409000D01*
X412273Y72783D01*
X415324Y74046D01*
X417944Y76056D01*
X419954Y78676D01*
X421217Y81726D01*
X421397Y83095D01*
D02*
G37*
G36*
X397095D02*
X376603D01*
X376783Y81726D01*
X378046Y78676D01*
X380056Y76056D01*
X382676Y74046D01*
X385726Y72783D01*
X389000Y72352D01*
X397095D01*
Y83095D01*
D02*
G37*
G36*
X629971Y72263D02*
X625836D01*
Y65128D01*
X629971D01*
Y72263D01*
D02*
G37*
G36*
X622026D02*
X617891D01*
Y65128D01*
X622026D01*
Y72263D01*
D02*
G37*
G36*
X590778Y70553D02*
X566222D01*
Y50997D01*
X590778D01*
Y70553D01*
D02*
G37*
G36*
X532595Y71290D02*
X529960D01*
Y70766D01*
X528778Y70553D01*
X528690Y70553D01*
X504222D01*
Y50997D01*
X528778D01*
Y52498D01*
X529960Y52710D01*
X530048Y52710D01*
X532595D01*
Y62000D01*
Y71290D01*
D02*
G37*
G36*
X658749Y52451D02*
Y49149D01*
X662051D01*
X661541Y50382D01*
X659982Y51941D01*
X658749Y52451D01*
D02*
G37*
G36*
X654939D02*
X653706Y51941D01*
X652147Y50382D01*
X651637Y49149D01*
X654939D01*
Y52451D01*
D02*
G37*
G36*
X485540Y76095D02*
X465405D01*
Y44460D01*
X485540D01*
Y76095D01*
D02*
G37*
G36*
X461595D02*
X441460D01*
Y44460D01*
X461595D01*
Y76095D01*
D02*
G37*
G36*
X356540Y76095D02*
X336405D01*
Y44460D01*
X356540D01*
Y76095D01*
D02*
G37*
G36*
X332595D02*
X312460D01*
Y44460D01*
X332595D01*
Y76095D01*
D02*
G37*
G36*
X662051Y45339D02*
X658749D01*
Y42037D01*
X659982Y42547D01*
X661541Y44106D01*
X662051Y45339D01*
D02*
G37*
G36*
X654939D02*
X651637D01*
X652147Y44106D01*
X653706Y42547D01*
X654939Y42037D01*
Y45339D01*
D02*
G37*
G36*
X400683Y52786D02*
X397317D01*
X394065Y51915D01*
X391149Y50231D01*
X388769Y47851D01*
X387085Y44935D01*
X386214Y41683D01*
Y38317D01*
X387085Y35065D01*
X388769Y32149D01*
X391149Y29769D01*
X394065Y28085D01*
X397317Y27214D01*
X400683D01*
X403935Y28085D01*
X406851Y29769D01*
X409231Y32149D01*
X410915Y35065D01*
X411786Y38317D01*
Y41683D01*
X410915Y44935D01*
X409231Y47851D01*
X406851Y50231D01*
X403935Y51915D01*
X400683Y52786D01*
D02*
G37*
G36*
X596778Y44278D02*
X574222D01*
Y22722D01*
X596778D01*
Y44278D01*
D02*
G37*
G36*
X520778D02*
X498222D01*
Y22722D01*
X520778D01*
Y44278D01*
D02*
G37*
%LPD*%
G36*
X654146Y382247D02*
X655140D01*
X656978Y381486D01*
X658384Y380079D01*
X659146Y378241D01*
X659146Y377247D01*
X659146D01*
Y376252D01*
X658384Y374414D01*
X656978Y373008D01*
X655140Y372247D01*
X653151D01*
X651313Y373008D01*
X649907Y374414D01*
X649146Y376252D01*
Y377247D01*
X649146Y378241D01*
X649907Y380079D01*
X651313Y381486D01*
X653151Y382247D01*
X654146Y382247D01*
D02*
G37*
G36*
X668928Y292608D02*
X650494D01*
X647446Y293626D01*
X629539D01*
Y298514D01*
X647192D01*
X650494Y299466D01*
X668928D01*
Y292608D01*
D02*
G37*
G36*
X665416Y146573D02*
Y140574D01*
X671767Y134223D01*
X694586D01*
X696877Y131933D01*
Y125323D01*
X693841Y122289D01*
X614936Y122744D01*
X610556Y126653D01*
Y145403D01*
X618927Y153773D01*
X658216D01*
X665416Y146573D01*
D02*
G37*
%LPC*%
G36*
X39905Y788472D02*
Y777905D01*
X50472D01*
X49685Y780840D01*
X48035Y783700D01*
X45700Y786034D01*
X42840Y787685D01*
X39905Y788472D01*
D02*
G37*
G36*
X36095Y788472D02*
X33160Y787685D01*
X30300Y786034D01*
X27966Y783700D01*
X26315Y780840D01*
X25528Y777905D01*
X36095D01*
Y788472D01*
D02*
G37*
G36*
Y774095D02*
X25528D01*
X26315Y771160D01*
X27966Y768300D01*
X30300Y765965D01*
X33160Y764315D01*
X36095Y763528D01*
Y774095D01*
D02*
G37*
G36*
X50472D02*
X39905D01*
Y763528D01*
X42840Y764315D01*
X45700Y765965D01*
X48035Y768300D01*
X49685Y771160D01*
X50472Y774095D01*
D02*
G37*
G36*
X39905Y673472D02*
Y662905D01*
X50472D01*
X49685Y665840D01*
X48035Y668700D01*
X45700Y671034D01*
X42840Y672685D01*
X39905Y673472D01*
D02*
G37*
G36*
X36095Y673472D02*
X33160Y672685D01*
X30300Y671034D01*
X27966Y668700D01*
X26315Y665840D01*
X25528Y662905D01*
X36095D01*
Y673472D01*
D02*
G37*
G36*
Y659095D02*
X25528D01*
X26315Y656160D01*
X27966Y653300D01*
X30300Y650965D01*
X33160Y649315D01*
X36095Y648528D01*
Y659095D01*
D02*
G37*
G36*
X50472D02*
X39905D01*
Y648528D01*
X42840Y649315D01*
X45700Y650965D01*
X48035Y653300D01*
X49685Y656160D01*
X50472Y659095D01*
D02*
G37*
G36*
X39751Y623951D02*
Y620649D01*
X43053D01*
X42543Y621882D01*
X40984Y623441D01*
X39751Y623951D01*
D02*
G37*
G36*
X35941D02*
X34708Y623441D01*
X33149Y621882D01*
X32639Y620649D01*
X35941D01*
Y623951D01*
D02*
G37*
G36*
X43053Y616839D02*
X39751D01*
Y613537D01*
X40984Y614047D01*
X42543Y615606D01*
X43053Y616839D01*
D02*
G37*
G36*
X35941D02*
X32639D01*
X33149Y615606D01*
X34708Y614047D01*
X35941Y613537D01*
Y616839D01*
D02*
G37*
G36*
X532003Y611505D02*
Y608203D01*
X535305D01*
X534795Y609436D01*
X533236Y610995D01*
X532003Y611505D01*
D02*
G37*
G36*
X528193D02*
X526960Y610995D01*
X525401Y609436D01*
X524891Y608203D01*
X528193D01*
Y611505D01*
D02*
G37*
G36*
X535305Y604393D02*
X532003D01*
Y601091D01*
X533236Y601601D01*
X534795Y603160D01*
X535305Y604393D01*
D02*
G37*
G36*
X528193D02*
X524891D01*
X525401Y603160D01*
X526960Y601601D01*
X528193Y601091D01*
Y604393D01*
D02*
G37*
G36*
X498729Y589915D02*
Y586613D01*
X502031D01*
X501521Y587846D01*
X499962Y589405D01*
X498729Y589915D01*
D02*
G37*
G36*
X494919D02*
X493686Y589405D01*
X492127Y587846D01*
X491617Y586613D01*
X494919D01*
Y589915D01*
D02*
G37*
G36*
X502031Y582803D02*
X498729D01*
Y579501D01*
X499962Y580011D01*
X501521Y581570D01*
X502031Y582803D01*
D02*
G37*
G36*
X494919D02*
X491617D01*
X492127Y581570D01*
X493686Y580011D01*
X494919Y579501D01*
Y582803D01*
D02*
G37*
G36*
X111540Y591040D02*
X79905D01*
Y570905D01*
X111540D01*
Y591040D01*
D02*
G37*
G36*
X76095D02*
X44460D01*
Y570905D01*
X76095D01*
Y591040D01*
D02*
G37*
G36*
X538099Y562991D02*
Y559689D01*
X541401D01*
X540891Y560922D01*
X539332Y562481D01*
X538099Y562991D01*
D02*
G37*
G36*
X534289D02*
X533056Y562481D01*
X531497Y560922D01*
X530987Y559689D01*
X534289D01*
Y562991D01*
D02*
G37*
G36*
X465709Y561975D02*
Y558673D01*
X469011D01*
X468501Y559906D01*
X466942Y561465D01*
X465709Y561975D01*
D02*
G37*
G36*
X461899D02*
X460666Y561465D01*
X459107Y559906D01*
X458597Y558673D01*
X461899D01*
Y561975D01*
D02*
G37*
G36*
X541401Y555879D02*
X538099D01*
Y552577D01*
X539332Y553087D01*
X540891Y554646D01*
X541401Y555879D01*
D02*
G37*
G36*
X534289D02*
X530987D01*
X531497Y554646D01*
X533056Y553087D01*
X534289Y552577D01*
Y555879D01*
D02*
G37*
G36*
X469011Y554863D02*
X465709D01*
Y551561D01*
X466942Y552071D01*
X468501Y553630D01*
X469011Y554863D01*
D02*
G37*
G36*
X461899D02*
X458597D01*
X459107Y553630D01*
X460666Y552071D01*
X461899Y551561D01*
Y554863D01*
D02*
G37*
G36*
X111540Y567095D02*
X79905D01*
Y546960D01*
X111540D01*
Y567095D01*
D02*
G37*
G36*
X76095D02*
X44460D01*
Y546960D01*
X76095D01*
Y567095D01*
D02*
G37*
G36*
X525647Y537105D02*
X522414Y533872D01*
X526276Y530010D01*
X529509Y533243D01*
X525647Y537105D01*
D02*
G37*
G36*
X275290Y530990D02*
X266905D01*
Y524355D01*
X275290D01*
Y530990D01*
D02*
G37*
G36*
X263095D02*
X254710D01*
Y524355D01*
X263095D01*
Y530990D01*
D02*
G37*
G36*
X308229Y527177D02*
Y523875D01*
X311531D01*
X311021Y525108D01*
X309462Y526667D01*
X308229Y527177D01*
D02*
G37*
G36*
X304419D02*
X303186Y526667D01*
X301627Y525108D01*
X301117Y523875D01*
X304419D01*
Y527177D01*
D02*
G37*
G36*
X532203Y530549D02*
X528970Y527316D01*
X532831Y523455D01*
X536064Y526688D01*
X532203Y530549D01*
D02*
G37*
G36*
X311531Y520065D02*
X308229D01*
Y516763D01*
X309462Y517273D01*
X311021Y518832D01*
X311531Y520065D01*
D02*
G37*
G36*
X304419D02*
X301117D01*
X301627Y518832D01*
X303186Y517273D01*
X304419Y516763D01*
Y520065D01*
D02*
G37*
G36*
X275290Y520545D02*
X266905D01*
Y513910D01*
X275290D01*
Y520545D01*
D02*
G37*
G36*
X263095D02*
X254710D01*
Y513910D01*
X263095D01*
Y520545D01*
D02*
G37*
G36*
X86905Y526897D02*
Y506405D01*
X97648D01*
Y514500D01*
X97217Y517774D01*
X95954Y520824D01*
X93944Y523444D01*
X91324Y525454D01*
X88274Y526717D01*
X86905Y526897D01*
D02*
G37*
G36*
X83095D02*
X81726Y526717D01*
X78676Y525454D01*
X76056Y523444D01*
X74046Y520824D01*
X72783Y517774D01*
X72352Y514500D01*
Y506405D01*
X83095D01*
Y526897D01*
D02*
G37*
G36*
X512593Y507873D02*
X507132D01*
Y503301D01*
X512593D01*
Y507873D01*
D02*
G37*
G36*
X237109Y506349D02*
Y503047D01*
X240411D01*
X239901Y504280D01*
X238342Y505839D01*
X237109Y506349D01*
D02*
G37*
G36*
X233299D02*
X232066Y505839D01*
X230507Y504280D01*
X229997Y503047D01*
X233299D01*
Y506349D01*
D02*
G37*
G36*
X477901Y505587D02*
Y502285D01*
X481203D01*
X480693Y503518D01*
X479134Y505077D01*
X477901Y505587D01*
D02*
G37*
G36*
X474091D02*
X472858Y505077D01*
X471299Y503518D01*
X470789Y502285D01*
X474091D01*
Y505587D01*
D02*
G37*
G36*
X502308Y506064D02*
X495173D01*
Y501929D01*
X502308D01*
Y506064D01*
D02*
G37*
G36*
X491363D02*
X484228D01*
Y501929D01*
X491363D01*
Y506064D01*
D02*
G37*
G36*
X240411Y499237D02*
X237109D01*
Y495935D01*
X238342Y496445D01*
X239901Y498004D01*
X240411Y499237D01*
D02*
G37*
G36*
X233299D02*
X229997D01*
X230507Y498004D01*
X232066Y496445D01*
X233299Y495935D01*
Y499237D01*
D02*
G37*
G36*
X481203Y498475D02*
X477901D01*
Y495173D01*
X479134Y495683D01*
X480693Y497242D01*
X481203Y498475D01*
D02*
G37*
G36*
X474091D02*
X470789D01*
X471299Y497242D01*
X472858Y495683D01*
X474091Y495173D01*
Y498475D01*
D02*
G37*
G36*
X521864Y499491D02*
X516403D01*
Y494919D01*
X521864D01*
Y499491D01*
D02*
G37*
G36*
X512593D02*
X507132D01*
Y494919D01*
X512593D01*
Y499491D01*
D02*
G37*
G36*
X385040Y503040D02*
X367905D01*
Y494405D01*
X385040D01*
Y503040D01*
D02*
G37*
G36*
X364095D02*
X346960D01*
Y494405D01*
X364095D01*
Y503040D01*
D02*
G37*
G36*
X502308Y498119D02*
X495173D01*
Y493984D01*
X502308D01*
Y498119D01*
D02*
G37*
G36*
X491363D02*
X484228D01*
Y493984D01*
X491363D01*
Y498119D01*
D02*
G37*
G36*
X41683Y517286D02*
X38317D01*
X35065Y516415D01*
X32149Y514731D01*
X29769Y512351D01*
X28085Y509435D01*
X27214Y506183D01*
Y502817D01*
X28085Y499565D01*
X29769Y496649D01*
X32149Y494269D01*
X35065Y492585D01*
X38317Y491714D01*
X41683D01*
X44935Y492585D01*
X47851Y494269D01*
X50231Y496649D01*
X51915Y499565D01*
X52786Y502817D01*
Y506183D01*
X51915Y509435D01*
X50231Y512351D01*
X47851Y514731D01*
X44935Y516415D01*
X41683Y517286D01*
D02*
G37*
G36*
X330040Y489540D02*
X322905D01*
Y485405D01*
X330040D01*
Y489540D01*
D02*
G37*
G36*
X301095D02*
X293960D01*
Y485405D01*
X301095D01*
Y489540D01*
D02*
G37*
G36*
X83095Y502595D02*
X72352D01*
Y494500D01*
X72783Y491226D01*
X74046Y488176D01*
X76056Y485556D01*
X78676Y483546D01*
X81726Y482283D01*
X83095Y482103D01*
Y502595D01*
D02*
G37*
G36*
X97648D02*
X86905D01*
Y482103D01*
X88274Y482283D01*
X91324Y483546D01*
X93944Y485556D01*
X95954Y488176D01*
X97217Y491226D01*
X97648Y494500D01*
Y502595D01*
D02*
G37*
G36*
X385040Y490595D02*
X367905D01*
Y481960D01*
X385040D01*
Y490595D01*
D02*
G37*
G36*
X364095D02*
X346960D01*
Y481960D01*
X364095D01*
Y490595D01*
D02*
G37*
G36*
X437769Y484505D02*
Y481203D01*
X441071D01*
X440561Y482436D01*
X439002Y483995D01*
X437769Y484505D01*
D02*
G37*
G36*
X433959D02*
X432726Y483995D01*
X431167Y482436D01*
X430657Y481203D01*
X433959D01*
Y484505D01*
D02*
G37*
G36*
X153924Y535975D02*
X139700D01*
X139006Y535837D01*
X138418Y535444D01*
X137148Y534174D01*
X136755Y533586D01*
X136617Y532892D01*
Y524504D01*
X136617Y524500D01*
Y506500D01*
X136617Y506496D01*
Y487680D01*
X136755Y486986D01*
X137148Y486398D01*
X143722Y479824D01*
Y479722D01*
X143860D01*
X144340Y479401D01*
X145034Y479263D01*
X189992D01*
X190686Y479401D01*
X191166Y479722D01*
X191278D01*
Y479800D01*
X191667Y480382D01*
X191805Y481076D01*
Y498613D01*
X203697Y510505D01*
X209042D01*
X209736Y510643D01*
X210042Y510848D01*
X210522D01*
Y511333D01*
X210717Y511624D01*
X210855Y512318D01*
Y523494D01*
X210717Y524188D01*
X210522Y524479D01*
Y524904D01*
X210132D01*
X209736Y525169D01*
X209042Y525307D01*
X164380D01*
X155268Y535378D01*
X155231Y535406D01*
X155206Y535444D01*
X154949Y535616D01*
X154700Y535800D01*
X154656Y535811D01*
X154618Y535837D01*
X154314Y535897D01*
X154015Y535973D01*
X153969Y535966D01*
X153924Y535975D01*
D02*
G37*
G36*
X330040Y481595D02*
X322905D01*
Y477460D01*
X330040D01*
Y481595D01*
D02*
G37*
G36*
X319095Y489540D02*
X304905D01*
Y483500D01*
Y477460D01*
X319095D01*
Y483500D01*
Y489540D01*
D02*
G37*
G36*
X441071Y477393D02*
X437769D01*
Y474091D01*
X439002Y474601D01*
X440561Y476160D01*
X441071Y477393D01*
D02*
G37*
G36*
X433959D02*
X430657D01*
X431167Y476160D01*
X432726Y474601D01*
X433959Y474091D01*
Y477393D01*
D02*
G37*
G36*
X446768Y476438D02*
X442906Y472576D01*
X446139Y469343D01*
X450000Y473205D01*
X446768Y476438D01*
D02*
G37*
G36*
X231540Y477040D02*
X215905D01*
Y466405D01*
X231540D01*
Y477040D01*
D02*
G37*
G36*
X212095D02*
X196460D01*
Y466405D01*
X212095D01*
Y477040D01*
D02*
G37*
G36*
X440212Y469882D02*
X436350Y466021D01*
X439583Y462788D01*
X443445Y466649D01*
X440212Y469882D01*
D02*
G37*
G36*
X127000Y469148D02*
X118905D01*
Y458405D01*
X139397D01*
X139217Y459774D01*
X137954Y462824D01*
X135944Y465444D01*
X133324Y467454D01*
X130274Y468717D01*
X127000Y469148D01*
D02*
G37*
G36*
X446139Y463955D02*
X442277Y460094D01*
X445510Y456861D01*
X449372Y460722D01*
X446139Y463955D01*
D02*
G37*
G36*
X431673Y459613D02*
Y456311D01*
X434975D01*
X434465Y457544D01*
X432906Y459103D01*
X431673Y459613D01*
D02*
G37*
G36*
X427863D02*
X426630Y459103D01*
X425071Y457544D01*
X424561Y456311D01*
X427863D01*
Y459613D01*
D02*
G37*
G36*
X484409Y465915D02*
X478303Y459809D01*
X483172Y454941D01*
X489277Y461047D01*
X484409Y465915D01*
D02*
G37*
G36*
X231540Y462595D02*
X215905D01*
Y451960D01*
X231540D01*
Y462595D01*
D02*
G37*
G36*
X212095D02*
X196460D01*
Y451960D01*
X212095D01*
Y462595D01*
D02*
G37*
G36*
X434975Y452501D02*
X431673D01*
Y449199D01*
X432906Y449709D01*
X434465Y451268D01*
X434975Y452501D01*
D02*
G37*
G36*
X427863D02*
X424561D01*
X425071Y451268D01*
X426630Y449709D01*
X427863Y449199D01*
Y452501D01*
D02*
G37*
G36*
X422476Y453232D02*
X415417D01*
Y449097D01*
X422552D01*
Y452647D01*
X422476Y453232D01*
D02*
G37*
G36*
X411607D02*
X404472D01*
Y449097D01*
X411607D01*
Y453232D01*
D02*
G37*
G36*
X475609Y457115D02*
X469503Y451010D01*
X474371Y446141D01*
X480477Y452247D01*
X475609Y457115D01*
D02*
G37*
G36*
X442690Y455309D02*
X436584Y449203D01*
X441452Y444334D01*
X447558Y450440D01*
X442690Y455309D01*
D02*
G37*
G36*
X139397Y454595D02*
X118905D01*
Y443852D01*
X127000D01*
X130274Y444283D01*
X133324Y445546D01*
X135944Y447556D01*
X137954Y450176D01*
X139217Y453226D01*
X139397Y454595D01*
D02*
G37*
G36*
X115095Y469148D02*
X107000D01*
X103726Y468717D01*
X100676Y467454D01*
X98056Y465444D01*
X96046Y462824D01*
X95722Y462040D01*
X79905D01*
Y441905D01*
X111540D01*
Y443852D01*
X115095D01*
Y456500D01*
Y469148D01*
D02*
G37*
G36*
X76095Y462040D02*
X44460D01*
Y441905D01*
X76095D01*
Y462040D01*
D02*
G37*
G36*
X422552Y445287D02*
X415417D01*
Y441152D01*
X422552D01*
Y445287D01*
D02*
G37*
G36*
X411607D02*
X404472D01*
Y441152D01*
X411607D01*
Y445287D01*
D02*
G37*
G36*
X538353Y443103D02*
Y439801D01*
X541655D01*
X541145Y441034D01*
X539586Y442593D01*
X538353Y443103D01*
D02*
G37*
G36*
X534543D02*
X533310Y442593D01*
X531751Y441034D01*
X531241Y439801D01*
X534543D01*
Y443103D01*
D02*
G37*
G36*
X450252Y447746D02*
X444146Y441640D01*
X449015Y436772D01*
X455121Y442878D01*
X450252Y447746D01*
D02*
G37*
G36*
X164465Y436753D02*
Y433451D01*
X167767D01*
X167257Y434684D01*
X165698Y436243D01*
X164465Y436753D01*
D02*
G37*
G36*
X160655D02*
X159422Y436243D01*
X157863Y434684D01*
X157353Y433451D01*
X160655D01*
Y436753D01*
D02*
G37*
G36*
X541655Y435991D02*
X538353D01*
Y432689D01*
X539586Y433199D01*
X541145Y434758D01*
X541655Y435991D01*
D02*
G37*
G36*
X534543D02*
X531241D01*
X531751Y434758D01*
X533310Y433199D01*
X534543Y432689D01*
Y435991D01*
D02*
G37*
G36*
X199771Y434721D02*
Y431419D01*
X203073D01*
X202563Y432652D01*
X201004Y434211D01*
X199771Y434721D01*
D02*
G37*
G36*
X195961D02*
X194728Y434211D01*
X193169Y432652D01*
X192659Y431419D01*
X195961D01*
Y434721D01*
D02*
G37*
G36*
X374540Y439040D02*
X367905D01*
Y430405D01*
X374540D01*
Y439040D01*
D02*
G37*
G36*
X364095D02*
X357460D01*
Y430405D01*
X364095D01*
Y439040D01*
D02*
G37*
G36*
X167767Y429641D02*
X164465D01*
Y426339D01*
X165698Y426849D01*
X167257Y428408D01*
X167767Y429641D01*
D02*
G37*
G36*
X160655D02*
X157353D01*
X157863Y428408D01*
X159422Y426849D01*
X160655Y426339D01*
Y429641D01*
D02*
G37*
G36*
X203073Y427609D02*
X199771D01*
Y424307D01*
X201004Y424817D01*
X202563Y426376D01*
X203073Y427609D01*
D02*
G37*
G36*
X195961D02*
X192659D01*
X193169Y426376D01*
X194728Y424817D01*
X195961Y424307D01*
Y427609D01*
D02*
G37*
G36*
X427709Y429832D02*
X424476Y426599D01*
X428337Y422737D01*
X431570Y425970D01*
X427709Y429832D01*
D02*
G37*
G36*
X564007Y423291D02*
Y419989D01*
X567309D01*
X566799Y421222D01*
X565240Y422781D01*
X564007Y423291D01*
D02*
G37*
G36*
X560197D02*
X558964Y422781D01*
X557405Y421222D01*
X556895Y419989D01*
X560197D01*
Y423291D01*
D02*
G37*
G36*
X260350Y484667D02*
X259656Y484529D01*
X259068Y484136D01*
X251448Y476516D01*
X251055Y475928D01*
X250917Y475234D01*
X250917Y421128D01*
X250974Y420842D01*
X251011Y420552D01*
X251043Y420497D01*
X251055Y420434D01*
X251217Y420192D01*
X251362Y419938D01*
X272797Y395304D01*
X272848Y395265D01*
X272883Y395212D01*
X273126Y395050D01*
X273357Y394871D01*
X273418Y394855D01*
X273471Y394819D01*
X273758Y394762D01*
X274039Y394686D01*
X274103Y394694D01*
X274165Y394681D01*
X280222D01*
Y386572D01*
X298778D01*
Y394681D01*
X303795D01*
X304003Y394473D01*
Y346114D01*
X301915Y343697D01*
X297374D01*
X296888Y344870D01*
X298462Y346444D01*
X298855Y347032D01*
X298993Y347726D01*
Y368046D01*
X298855Y368740D01*
X298778Y368855D01*
Y369728D01*
X298062D01*
X297954Y369836D01*
X297366Y370229D01*
X296672Y370367D01*
X281940D01*
X281652Y370309D01*
X281361Y370272D01*
X281307Y370241D01*
X281246Y370229D01*
X281002Y370066D01*
X280748Y369920D01*
X280528Y369728D01*
X280222D01*
Y369461D01*
X264761Y355963D01*
X263863Y355215D01*
X263397D01*
Y354826D01*
X263253Y354707D01*
X263201Y354642D01*
X263132Y354596D01*
X262980Y354369D01*
X262809Y354156D01*
X262785Y354077D01*
X262739Y354008D01*
X262686Y353740D01*
X262609Y353478D01*
X262617Y353396D01*
X262601Y353314D01*
Y345948D01*
X262739Y345254D01*
X263132Y344666D01*
X263397Y344401D01*
Y343785D01*
X264013D01*
X264148Y343650D01*
X264736Y343257D01*
X265430Y343119D01*
X266088D01*
X266133Y343073D01*
X266546Y342306D01*
X266657Y341849D01*
X266538Y341670D01*
X266538Y341667D01*
X266536Y341664D01*
X266471Y341323D01*
X266403Y340976D01*
X266404Y340973D01*
X266403Y340969D01*
X266665Y305295D01*
X266735Y304955D01*
X266803Y304614D01*
X266807Y304609D01*
X266808Y304602D01*
X266890Y304482D01*
Y303802D01*
X267532D01*
X267784Y303633D01*
X267791Y303632D01*
X267797Y303628D01*
X268137Y303563D01*
X268478Y303495D01*
X305308D01*
X306002Y303633D01*
X306590Y304026D01*
X328116Y325553D01*
X328509Y326141D01*
X328647Y326834D01*
Y417132D01*
X328509Y417825D01*
X328116Y418413D01*
X293852Y452677D01*
X293638Y452821D01*
X293441Y452986D01*
X292411Y453550D01*
X292316Y453580D01*
X292234Y453635D01*
X291981Y453685D01*
X291736Y453762D01*
X290778Y454628D01*
Y459579D01*
X294722D01*
Y459222D01*
X311278D01*
Y459579D01*
X312722D01*
Y459222D01*
X329278D01*
Y459579D01*
X332038D01*
X338079Y453538D01*
Y438278D01*
X335222D01*
Y418722D01*
X350778D01*
Y438278D01*
X347920D01*
Y455576D01*
X347546Y457459D01*
X346479Y459055D01*
X337555Y467979D01*
X335959Y469046D01*
X334076Y469421D01*
X329278D01*
Y469778D01*
X312722D01*
Y469421D01*
X311278D01*
Y469778D01*
X294722D01*
Y469421D01*
X290778D01*
Y475227D01*
X291084D01*
X291778Y475365D01*
X292366Y475758D01*
X292759Y476346D01*
X292886Y476986D01*
X293666Y477330D01*
X294009Y477460D01*
X294167Y477460D01*
X301095D01*
Y481595D01*
X293960D01*
Y480637D01*
X293756Y480497D01*
X292366Y480326D01*
X288556Y484136D01*
X287968Y484529D01*
X287274Y484667D01*
X260350Y484667D01*
D02*
G37*
G36*
X111540Y438095D02*
X79905D01*
Y417960D01*
X111540D01*
Y438095D01*
D02*
G37*
G36*
X76095D02*
X44460D01*
Y417960D01*
X76095D01*
Y438095D01*
D02*
G37*
G36*
X374540Y426595D02*
X367905D01*
Y417960D01*
X374540D01*
Y426595D01*
D02*
G37*
G36*
X364095D02*
X357460D01*
Y417960D01*
X364095D01*
Y426595D01*
D02*
G37*
G36*
X471551Y419989D02*
Y416687D01*
X474853D01*
X474343Y417920D01*
X472784Y419479D01*
X471551Y419989D01*
D02*
G37*
G36*
X467741D02*
X466508Y419479D01*
X464949Y417920D01*
X464439Y416687D01*
X467741D01*
Y419989D01*
D02*
G37*
G36*
X434264Y423276D02*
X431031Y420043D01*
X434893Y416182D01*
X438126Y419415D01*
X434264Y423276D01*
D02*
G37*
G36*
X505477Y419864D02*
X500905D01*
Y414403D01*
X505477D01*
Y419864D01*
D02*
G37*
G36*
X497095D02*
X492523D01*
Y414403D01*
X497095D01*
Y419864D01*
D02*
G37*
G36*
X567309Y416179D02*
X564007D01*
Y412877D01*
X565240Y413387D01*
X566799Y414946D01*
X567309Y416179D01*
D02*
G37*
G36*
X560197D02*
X556895D01*
X557405Y414946D01*
X558964Y413387D01*
X560197Y412877D01*
Y416179D01*
D02*
G37*
G36*
X474853Y412877D02*
X471551D01*
Y409575D01*
X472784Y410085D01*
X474343Y411644D01*
X474853Y412877D01*
D02*
G37*
G36*
X467741D02*
X464439D01*
X464949Y411644D01*
X466508Y410085D01*
X467741Y409575D01*
Y412877D01*
D02*
G37*
G36*
X376168Y415186D02*
X372033D01*
Y408051D01*
X376168D01*
Y415186D01*
D02*
G37*
G36*
X368223D02*
X364088D01*
Y408051D01*
X368223D01*
Y415186D01*
D02*
G37*
G36*
X505477Y410593D02*
X500905D01*
Y405132D01*
X505477D01*
Y410593D01*
D02*
G37*
G36*
X497095D02*
X492523D01*
Y405132D01*
X497095D01*
Y410593D01*
D02*
G37*
G36*
X162941Y407543D02*
Y404241D01*
X166243D01*
X165733Y405474D01*
X164174Y407033D01*
X162941Y407543D01*
D02*
G37*
G36*
X159131D02*
X157898Y407033D01*
X156339Y405474D01*
X155829Y404241D01*
X159131D01*
Y407543D01*
D02*
G37*
G36*
X468540Y406540D02*
X464405D01*
Y399405D01*
X468540D01*
Y406540D01*
D02*
G37*
G36*
X460595D02*
X456460D01*
Y399405D01*
X460595D01*
Y406540D01*
D02*
G37*
G36*
X243778Y407828D02*
X225222D01*
Y399272D01*
X243778D01*
Y407828D01*
D02*
G37*
G36*
X220622Y403246D02*
X213487D01*
Y399111D01*
X220622D01*
Y403246D01*
D02*
G37*
G36*
X192029D02*
X184894D01*
Y399111D01*
X192029D01*
Y403246D01*
D02*
G37*
G36*
X166243Y400431D02*
X162941D01*
Y397129D01*
X164174Y397639D01*
X165733Y399198D01*
X166243Y400431D01*
D02*
G37*
G36*
X159131D02*
X155829D01*
X156339Y399198D01*
X157898Y397639D01*
X159131Y397129D01*
Y400431D01*
D02*
G37*
G36*
X376168Y404241D02*
X372033D01*
Y397106D01*
X376168D01*
Y404241D01*
D02*
G37*
G36*
X368223D02*
X364088D01*
Y397106D01*
X368223D01*
Y404241D01*
D02*
G37*
G36*
X443865Y397129D02*
Y393827D01*
X447167D01*
X446657Y395060D01*
X445098Y396619D01*
X443865Y397129D01*
D02*
G37*
G36*
X440055D02*
X438822Y396619D01*
X437263Y395060D01*
X436753Y393827D01*
X440055D01*
Y397129D01*
D02*
G37*
G36*
X421259Y396621D02*
Y393319D01*
X424561D01*
X424051Y394552D01*
X422492Y396111D01*
X421259Y396621D01*
D02*
G37*
G36*
X417449D02*
X416216Y396111D01*
X414657Y394552D01*
X414147Y393319D01*
X417449D01*
Y396621D01*
D02*
G37*
G36*
X244540Y395890D02*
X236405D01*
Y392755D01*
X244540D01*
Y395890D01*
D02*
G37*
G36*
X232595D02*
X224460D01*
Y392755D01*
X232595D01*
Y395890D01*
D02*
G37*
G36*
X134027Y396866D02*
X129455D01*
Y391405D01*
X134027D01*
Y396866D01*
D02*
G37*
G36*
X125645D02*
X121073D01*
Y391405D01*
X125645D01*
Y396866D01*
D02*
G37*
G36*
X220622Y395301D02*
X213487D01*
Y391166D01*
X220622D01*
Y395301D01*
D02*
G37*
G36*
X209677Y403246D02*
X195839D01*
Y397206D01*
Y391166D01*
X209677D01*
Y397206D01*
Y403246D01*
D02*
G37*
G36*
X192029Y395301D02*
X184894D01*
Y391166D01*
X192029D01*
Y395301D01*
D02*
G37*
G36*
X447167Y390017D02*
X443865D01*
Y386715D01*
X445098Y387225D01*
X446657Y388784D01*
X447167Y390017D01*
D02*
G37*
G36*
X440055D02*
X436753D01*
X437263Y388784D01*
X438822Y387225D01*
X440055Y386715D01*
Y390017D01*
D02*
G37*
G36*
X424561Y389509D02*
X421259D01*
Y386207D01*
X422492Y386717D01*
X424051Y388276D01*
X424561Y389509D01*
D02*
G37*
G36*
X417449D02*
X414147D01*
X414657Y388276D01*
X416216Y386717D01*
X417449Y386207D01*
Y389509D01*
D02*
G37*
G36*
X244540Y388945D02*
X236405D01*
Y385810D01*
X244540D01*
Y388945D01*
D02*
G37*
G36*
X232595D02*
X224460D01*
Y385810D01*
X232595D01*
Y388945D01*
D02*
G37*
G36*
X468540Y395595D02*
X462500D01*
X456460D01*
Y388460D01*
X458132D01*
Y384175D01*
X465498D01*
X472864D01*
Y388747D01*
X468540D01*
Y395595D01*
D02*
G37*
G36*
X134027Y387595D02*
X129455D01*
Y382134D01*
X134027D01*
Y387595D01*
D02*
G37*
G36*
X125645D02*
X121073D01*
Y382134D01*
X125645D01*
Y387595D01*
D02*
G37*
G36*
X472864Y380365D02*
X467403D01*
Y375793D01*
X472864D01*
Y380365D01*
D02*
G37*
G36*
X463593D02*
X458132D01*
Y375793D01*
X463593D01*
Y380365D01*
D02*
G37*
G36*
X298778Y382428D02*
X280222D01*
Y373872D01*
X298778D01*
Y382428D01*
D02*
G37*
G36*
X65617Y385786D02*
X62382D01*
X59258Y384949D01*
X56456Y383331D01*
X54169Y381044D01*
X52551Y378242D01*
X51714Y375117D01*
Y371883D01*
X52551Y368758D01*
X54169Y365956D01*
X56456Y363669D01*
X59258Y362051D01*
X62382Y361214D01*
X65617D01*
X68742Y362051D01*
X71544Y363669D01*
X73831Y365956D01*
X75345Y368577D01*
X121835D01*
Y366894D01*
X133265D01*
Y368577D01*
X144695D01*
X145288Y368460D01*
X145964Y368594D01*
X146240D01*
X146495Y368699D01*
X147171Y368834D01*
X147744Y369217D01*
X147999Y369323D01*
X148194Y369518D01*
X148767Y369901D01*
X149150Y370474D01*
X149345Y370669D01*
X149451Y370924D01*
X149834Y371497D01*
X149969Y372173D01*
X150074Y372428D01*
Y372704D01*
X150209Y373380D01*
X150074Y374056D01*
Y374332D01*
X149969Y374587D01*
X149834Y375263D01*
X149451Y375836D01*
X149345Y376091D01*
X149150Y376286D01*
X148767Y376859D01*
X148649Y376977D01*
X148076Y377360D01*
X147999Y377437D01*
X147899Y377479D01*
X147053Y378044D01*
X145170Y378419D01*
X133265D01*
Y380102D01*
X121835D01*
Y378419D01*
X75347D01*
X73831Y381044D01*
X71544Y383331D01*
X68742Y384949D01*
X65617Y385786D01*
D02*
G37*
G36*
X218440Y383829D02*
X182880D01*
X182186Y383691D01*
X181598Y383298D01*
X181205Y382710D01*
X181067Y382016D01*
Y363982D01*
X181205Y363288D01*
X181598Y362700D01*
X182186Y362307D01*
X182880Y362169D01*
X211074D01*
X211768Y362307D01*
X212356Y362700D01*
X223255Y373599D01*
X227330Y373599D01*
X242570D01*
X243264Y373737D01*
X243465Y373872D01*
X243778D01*
Y374081D01*
X243852Y374130D01*
X244245Y374718D01*
X244383Y375412D01*
Y380492D01*
X244245Y381186D01*
X243852Y381774D01*
X243778Y381848D01*
Y382428D01*
X243125D01*
X242756Y382675D01*
X242062Y382813D01*
X220207D01*
X219860Y383160D01*
Y383484D01*
X219443D01*
X219134Y383691D01*
X218440Y383829D01*
D02*
G37*
G36*
X191043Y354028D02*
X188941D01*
X188058Y353662D01*
X169672D01*
X167789Y353288D01*
X166193Y352221D01*
X158319Y344347D01*
X157252Y342751D01*
X156877Y340868D01*
Y336550D01*
X156083D01*
Y323342D01*
X167513D01*
Y336550D01*
X166719D01*
Y338830D01*
X171710Y343821D01*
X188058D01*
X188941Y343456D01*
X191043D01*
X192986Y344261D01*
X194473Y345748D01*
X195278Y347691D01*
Y349794D01*
X194473Y351736D01*
X192986Y353223D01*
X191043Y354028D01*
D02*
G37*
G36*
X424307Y345059D02*
Y341757D01*
X427609D01*
X427099Y342990D01*
X425540Y344549D01*
X424307Y345059D01*
D02*
G37*
G36*
X420497D02*
X419264Y344549D01*
X417705Y342990D01*
X417195Y341757D01*
X420497D01*
Y345059D01*
D02*
G37*
G36*
X154490Y339540D02*
X148355D01*
Y334905D01*
X154490D01*
Y339540D01*
D02*
G37*
G36*
X144545D02*
X138410D01*
Y334905D01*
X144545D01*
Y339540D01*
D02*
G37*
G36*
X427609Y337947D02*
X424307D01*
Y334645D01*
X425540Y335155D01*
X427099Y336714D01*
X427609Y337947D01*
D02*
G37*
G36*
X420497D02*
X417195D01*
X417705Y336714D01*
X419264Y335155D01*
X420497Y334645D01*
Y337947D01*
D02*
G37*
G36*
X154490Y331095D02*
X148355D01*
Y326460D01*
X154490D01*
Y331095D01*
D02*
G37*
G36*
X144545D02*
X138410D01*
Y326460D01*
X144545D01*
Y331095D01*
D02*
G37*
G36*
X364871Y328041D02*
Y324739D01*
X368173D01*
X367663Y325972D01*
X366104Y327531D01*
X364871Y328041D01*
D02*
G37*
G36*
X361061D02*
X359828Y327531D01*
X358269Y325972D01*
X357759Y324739D01*
X361061D01*
Y328041D01*
D02*
G37*
G36*
X197166Y335720D02*
X185281D01*
Y324485D01*
X197166D01*
Y335720D01*
D02*
G37*
G36*
X181471D02*
X169586D01*
Y324485D01*
X181471D01*
Y335720D01*
D02*
G37*
G36*
X167513Y320548D02*
X156083D01*
Y319313D01*
X153728D01*
Y319778D01*
X139172D01*
Y308222D01*
X153728D01*
Y308575D01*
X156083D01*
Y307340D01*
X167513D01*
Y320548D01*
D02*
G37*
G36*
X65617Y335786D02*
X62382D01*
X59258Y334949D01*
X56456Y333331D01*
X54169Y331044D01*
X52551Y328242D01*
X51714Y325117D01*
Y321883D01*
X52551Y318758D01*
X54169Y315956D01*
X56456Y313669D01*
X59258Y312051D01*
X62382Y311214D01*
X65617D01*
X68742Y312051D01*
X71544Y313669D01*
X73831Y315956D01*
X75346Y318579D01*
X120272D01*
Y317722D01*
X134828D01*
Y329278D01*
X120272D01*
Y328420D01*
X75346D01*
X73831Y331044D01*
X71544Y333331D01*
X68742Y334949D01*
X65617Y335786D01*
D02*
G37*
G36*
X368173Y320929D02*
X364871D01*
Y317627D01*
X366104Y318137D01*
X367663Y319696D01*
X368173Y320929D01*
D02*
G37*
G36*
X361061D02*
X357759D01*
X358269Y319696D01*
X359828Y318137D01*
X361061Y317627D01*
Y320929D01*
D02*
G37*
G36*
X197166Y320675D02*
X185281D01*
Y309440D01*
X197166D01*
Y320675D01*
D02*
G37*
G36*
X181471D02*
X169586D01*
Y309440D01*
X181471D01*
Y320675D01*
D02*
G37*
G36*
X242316Y370113D02*
X226822D01*
X226128Y369975D01*
X225759Y369728D01*
X225222D01*
Y369106D01*
X225147Y368994D01*
X225009Y368300D01*
Y345683D01*
X214284Y334958D01*
X214048D01*
Y334691D01*
X213717Y334196D01*
X213579Y333502D01*
Y311404D01*
X213717Y310710D01*
X214048Y310215D01*
Y310202D01*
X214057D01*
X214110Y310122D01*
X220206Y304026D01*
X220794Y303633D01*
X221488Y303495D01*
X260858D01*
X261552Y303633D01*
X261804Y303802D01*
X262446D01*
Y304484D01*
X262533Y304614D01*
X262671Y305308D01*
Y339598D01*
X262533Y340292D01*
X262446Y340422D01*
Y341358D01*
X261662D01*
X260893Y342127D01*
Y353822D01*
X260755Y354516D01*
X260603Y354743D01*
Y355215D01*
X260196D01*
X259774Y355497D01*
X259080Y355635D01*
X251703D01*
X244129Y363209D01*
Y368300D01*
X243991Y368994D01*
X243778Y369312D01*
Y369728D01*
X243379D01*
X243010Y369975D01*
X242316Y370113D01*
D02*
G37*
G36*
X434278Y304278D02*
X420722D01*
Y295722D01*
X434278D01*
X434722Y294636D01*
Y294572D01*
X453278D01*
Y303128D01*
X434722D01*
X434278Y304214D01*
Y304278D01*
D02*
G37*
G36*
X332105Y294005D02*
Y290703D01*
X335407D01*
X334897Y291936D01*
X333338Y293495D01*
X332105Y294005D01*
D02*
G37*
G36*
X328295D02*
X327062Y293495D01*
X325503Y291936D01*
X324993Y290703D01*
X328295D01*
Y294005D01*
D02*
G37*
G36*
X335407Y286893D02*
X332105D01*
Y283591D01*
X333338Y284101D01*
X334897Y285660D01*
X335407Y286893D01*
D02*
G37*
G36*
X328295D02*
X324993D01*
X325503Y285660D01*
X327062Y284101D01*
X328295Y283591D01*
Y286893D01*
D02*
G37*
G36*
X454040Y278490D02*
X445905D01*
Y275355D01*
X454040D01*
Y278490D01*
D02*
G37*
G36*
X442095D02*
X433960D01*
Y275355D01*
X442095D01*
Y278490D01*
D02*
G37*
G36*
X454040Y271545D02*
X445905D01*
Y268410D01*
X454040D01*
Y271545D01*
D02*
G37*
G36*
X442095D02*
X433960D01*
Y268410D01*
X442095D01*
Y271545D01*
D02*
G37*
G36*
X309499Y266827D02*
Y263525D01*
X312801D01*
X312291Y264758D01*
X310732Y266317D01*
X309499Y266827D01*
D02*
G37*
G36*
X305689D02*
X304456Y266317D01*
X302897Y264758D01*
X302387Y263525D01*
X305689D01*
Y266827D01*
D02*
G37*
G36*
X413385Y259969D02*
Y256667D01*
X416687D01*
X416177Y257900D01*
X414618Y259459D01*
X413385Y259969D01*
D02*
G37*
G36*
X409575D02*
X408342Y259459D01*
X406783Y257900D01*
X406273Y256667D01*
X409575D01*
Y259969D01*
D02*
G37*
G36*
X312801Y259715D02*
X309499D01*
Y256413D01*
X310732Y256923D01*
X312291Y258482D01*
X312801Y259715D01*
D02*
G37*
G36*
X305689D02*
X302387D01*
X302897Y258482D01*
X304456Y256923D01*
X305689Y256413D01*
Y259715D01*
D02*
G37*
G36*
X416687Y252857D02*
X413385D01*
Y249555D01*
X414618Y250065D01*
X416177Y251624D01*
X416687Y252857D01*
D02*
G37*
G36*
X409575D02*
X406273D01*
X406783Y251624D01*
X408342Y250065D01*
X409575Y249555D01*
Y252857D01*
D02*
G37*
G36*
X347574Y254831D02*
X344272D01*
X341083Y253977D01*
X338451Y252457D01*
X345923Y244985D01*
X353395Y252457D01*
X350764Y253977D01*
X347574Y254831D01*
D02*
G37*
G36*
X356089Y249763D02*
X348617Y242291D01*
X356089Y234819D01*
X357609Y237451D01*
X358463Y240640D01*
Y243942D01*
X357609Y247132D01*
X356089Y249763D01*
D02*
G37*
G36*
X335757Y249763D02*
X334238Y247132D01*
X333383Y243942D01*
Y240640D01*
X334238Y237451D01*
X335757Y234819D01*
X343229Y242291D01*
X335757Y249763D01*
D02*
G37*
G36*
X345923Y239597D02*
X338451Y232125D01*
X341083Y230606D01*
X344272Y229751D01*
X347574D01*
X350764Y230606D01*
X353395Y232125D01*
X345923Y239597D01*
D02*
G37*
%LPD*%
G36*
X163576Y523494D02*
X209042D01*
Y512318D01*
X202946D01*
X189992Y499364D01*
Y481076D01*
X145034D01*
X138430Y487680D01*
Y532892D01*
X139700Y534162D01*
X153924D01*
X163576Y523494D01*
D02*
G37*
G36*
X297180Y368046D02*
Y347726D01*
X294386Y344932D01*
X265430D01*
X264414Y345948D01*
Y353314D01*
X265938Y354584D01*
X281940Y368554D01*
X296672D01*
X297180Y368046D01*
D02*
G37*
G36*
X287274Y482854D02*
X291084Y479044D01*
Y477040D01*
X275905D01*
Y464500D01*
Y451960D01*
X291540D01*
X291540Y451960D01*
Y451960D01*
X292570Y451396D01*
X326834Y417132D01*
Y326834D01*
X305308Y305308D01*
X268478D01*
X268216Y340983D01*
X269110Y341884D01*
X302745D01*
X305816Y345440D01*
Y395224D01*
X304546Y396494D01*
X274165D01*
X252730Y421128D01*
X252730Y475234D01*
X260350Y482854D01*
X287274Y482854D01*
D02*
G37*
%LPC*%
G36*
X272095Y477040D02*
X256460D01*
Y466405D01*
X272095D01*
Y477040D01*
D02*
G37*
G36*
Y462595D02*
X256460D01*
Y451960D01*
X272095D01*
Y462595D01*
D02*
G37*
G36*
X299540Y408590D02*
X291405D01*
Y405455D01*
X299540D01*
Y408590D01*
D02*
G37*
G36*
X287595D02*
X279460D01*
Y405455D01*
X287595D01*
Y408590D01*
D02*
G37*
G36*
X299540Y401645D02*
X291405D01*
Y398510D01*
X299540D01*
Y401645D01*
D02*
G37*
G36*
X287595D02*
X279460D01*
Y398510D01*
X287595D01*
Y401645D01*
D02*
G37*
G36*
X294005Y339725D02*
Y336423D01*
X297307D01*
X296797Y337656D01*
X295238Y339215D01*
X294005Y339725D01*
D02*
G37*
G36*
X290195D02*
X288962Y339215D01*
X287403Y337656D01*
X286893Y336423D01*
X290195D01*
Y339725D01*
D02*
G37*
G36*
X297307Y332613D02*
X294005D01*
Y329311D01*
X295238Y329821D01*
X296797Y331380D01*
X297307Y332613D01*
D02*
G37*
G36*
X290195D02*
X286893D01*
X287403Y331380D01*
X288962Y329821D01*
X290195Y329311D01*
Y332613D01*
D02*
G37*
G36*
X306959Y329565D02*
Y326263D01*
X310261D01*
X309751Y327496D01*
X308192Y329055D01*
X306959Y329565D01*
D02*
G37*
G36*
X303149D02*
X301916Y329055D01*
X300357Y327496D01*
X299847Y326263D01*
X303149D01*
Y329565D01*
D02*
G37*
G36*
X310261Y322453D02*
X306959D01*
Y319151D01*
X308192Y319661D01*
X309751Y321220D01*
X310261Y322453D01*
D02*
G37*
G36*
X303149D02*
X299847D01*
X300357Y321220D01*
X301916Y319661D01*
X303149Y319151D01*
Y322453D01*
D02*
G37*
G36*
X294005Y319405D02*
Y316103D01*
X297307D01*
X296797Y317336D01*
X295238Y318895D01*
X294005Y319405D01*
D02*
G37*
G36*
X290195D02*
X288962Y318895D01*
X287403Y317336D01*
X286893Y316103D01*
X290195D01*
Y319405D01*
D02*
G37*
G36*
X297307Y312293D02*
X294005D01*
Y308991D01*
X295238Y309501D01*
X296797Y311060D01*
X297307Y312293D01*
D02*
G37*
G36*
X290195D02*
X286893D01*
X287403Y311060D01*
X288962Y309501D01*
X290195Y308991D01*
Y312293D01*
D02*
G37*
%LPD*%
G36*
X219456Y381000D02*
X242062D01*
X242570Y380492D01*
Y375412D01*
X227330D01*
X222504Y375412D01*
X211074Y363982D01*
X182880D01*
Y382016D01*
X218440D01*
X219456Y381000D01*
D02*
G37*
G36*
X161798Y310388D02*
X146196D01*
Y317500D01*
X161798D01*
Y310388D01*
D02*
G37*
G36*
X242316Y362458D02*
X250952Y353822D01*
X259080D01*
Y341376D01*
X260858Y339598D01*
Y305308D01*
X221488D01*
X215392Y311404D01*
Y333502D01*
X226822Y344932D01*
Y368300D01*
X242316D01*
Y362458D01*
D02*
G37*
G36*
X437769Y297656D02*
X431419D01*
Y301180D01*
X437769D01*
Y297656D01*
D02*
G37*
%LPC*%
G36*
X502308Y525064D02*
X495173D01*
Y520929D01*
X502308D01*
Y525064D01*
D02*
G37*
G36*
X491363D02*
X484228D01*
Y520929D01*
X491363D01*
Y525064D01*
D02*
G37*
G36*
X502308Y517119D02*
X495173D01*
Y512984D01*
X502308D01*
Y517119D01*
D02*
G37*
G36*
X491363D02*
X484228D01*
Y512984D01*
X491363D01*
Y517119D01*
D02*
G37*
G36*
X427609Y503047D02*
Y499745D01*
X430911D01*
X430401Y500978D01*
X428842Y502537D01*
X427609Y503047D01*
D02*
G37*
G36*
X423799D02*
X422566Y502537D01*
X421007Y500978D01*
X420497Y499745D01*
X423799D01*
Y503047D01*
D02*
G37*
G36*
X430911Y495935D02*
X427609D01*
Y492633D01*
X428842Y493143D01*
X430401Y494702D01*
X430911Y495935D01*
D02*
G37*
G36*
X423799D02*
X420497D01*
X421007Y494702D01*
X422566Y493143D01*
X423799Y492633D01*
Y495935D01*
D02*
G37*
G36*
X417449Y492887D02*
Y489585D01*
X420751D01*
X420241Y490818D01*
X418682Y492377D01*
X417449Y492887D01*
D02*
G37*
G36*
X413639D02*
X412406Y492377D01*
X410847Y490818D01*
X410337Y489585D01*
X413639D01*
Y492887D01*
D02*
G37*
G36*
X420751Y485775D02*
X417449D01*
Y482473D01*
X418682Y482983D01*
X420241Y484542D01*
X420751Y485775D01*
D02*
G37*
G36*
X413639D02*
X410337D01*
X410847Y484542D01*
X412406Y482983D01*
X413639Y482473D01*
Y485775D01*
D02*
G37*
G36*
X407289Y482727D02*
Y479425D01*
X410591D01*
X410081Y480658D01*
X408522Y482217D01*
X407289Y482727D01*
D02*
G37*
G36*
X403479D02*
X402246Y482217D01*
X400687Y480658D01*
X400177Y479425D01*
X403479D01*
Y482727D01*
D02*
G37*
G36*
X410591Y475615D02*
X407289D01*
Y472313D01*
X408522Y472823D01*
X410081Y474382D01*
X410591Y475615D01*
D02*
G37*
G36*
X403479D02*
X400177D01*
X400687Y474382D01*
X402246Y472823D01*
X403479Y472313D01*
Y475615D01*
D02*
G37*
G36*
X397129Y472567D02*
Y469265D01*
X400431D01*
X399921Y470498D01*
X398362Y472057D01*
X397129Y472567D01*
D02*
G37*
G36*
X393319D02*
X392086Y472057D01*
X390527Y470498D01*
X390017Y469265D01*
X393319D01*
Y472567D01*
D02*
G37*
G36*
X400431Y465455D02*
X397129D01*
Y462153D01*
X398362Y462663D01*
X399921Y464222D01*
X400431Y465455D01*
D02*
G37*
G36*
X393319D02*
X390017D01*
X390527Y464222D01*
X392086Y462663D01*
X393319Y462153D01*
Y465455D01*
D02*
G37*
G36*
X392049Y460629D02*
Y457327D01*
X395351D01*
X394841Y458560D01*
X393282Y460119D01*
X392049Y460629D01*
D02*
G37*
G36*
X388239D02*
X387006Y460119D01*
X385447Y458560D01*
X384937Y457327D01*
X388239D01*
Y460629D01*
D02*
G37*
G36*
X395351Y453517D02*
X384937D01*
X385447Y452284D01*
X387006Y450725D01*
X387805Y450394D01*
Y449020D01*
X387006Y448689D01*
X385447Y447130D01*
X384937Y445897D01*
X395351D01*
X394841Y447130D01*
X393282Y448689D01*
X392483Y449020D01*
Y450394D01*
X393282Y450725D01*
X394841Y452284D01*
X395351Y453517D01*
D02*
G37*
G36*
Y442087D02*
X392049D01*
Y438785D01*
X393282Y439295D01*
X394841Y440854D01*
X395351Y442087D01*
D02*
G37*
G36*
X388239D02*
X384937D01*
X385447Y440854D01*
X387006Y439295D01*
X388239Y438785D01*
Y442087D01*
D02*
G37*
G36*
X395168Y415186D02*
X391033D01*
Y408051D01*
X395168D01*
Y415186D01*
D02*
G37*
G36*
X387223D02*
X383088D01*
Y408051D01*
X387223D01*
Y415186D01*
D02*
G37*
G36*
X395168Y404241D02*
X391033D01*
Y397106D01*
X395168D01*
Y404241D01*
D02*
G37*
G36*
X387223D02*
X383088D01*
Y397106D01*
X387223D01*
Y404241D01*
D02*
G37*
G36*
X394418Y393108D02*
X391033D01*
Y387223D01*
X394418D01*
Y393108D01*
D02*
G37*
G36*
X387223D02*
X383838D01*
Y387223D01*
X387223D01*
Y393108D01*
D02*
G37*
G36*
X560959Y462915D02*
Y459613D01*
X564261D01*
X563751Y460846D01*
X562192Y462405D01*
X560959Y462915D01*
D02*
G37*
G36*
X557149D02*
X555916Y462405D01*
X554357Y460846D01*
X553847Y459613D01*
X557149D01*
Y462915D01*
D02*
G37*
G36*
X564261Y455803D02*
X560959D01*
Y452501D01*
X562192Y453011D01*
X563751Y454570D01*
X564261Y455803D01*
D02*
G37*
G36*
X557149D02*
X553847D01*
X554357Y454570D01*
X555916Y453011D01*
X557149Y452501D01*
Y455803D01*
D02*
G37*
G36*
X573913Y449199D02*
Y445897D01*
X577215D01*
X576705Y447130D01*
X575146Y448689D01*
X573913Y449199D01*
D02*
G37*
G36*
X570103D02*
X568870Y448689D01*
X567311Y447130D01*
X566801Y445897D01*
X570103D01*
Y449199D01*
D02*
G37*
G36*
X577215Y442087D02*
X573913D01*
Y438785D01*
X575146Y439295D01*
X576705Y440854D01*
X577215Y442087D01*
D02*
G37*
G36*
X570103D02*
X566801D01*
X567311Y440854D01*
X568870Y439295D01*
X570103Y438785D01*
Y442087D01*
D02*
G37*
G36*
X585089Y437261D02*
Y433959D01*
X588391D01*
X587881Y435192D01*
X586322Y436751D01*
X585089Y437261D01*
D02*
G37*
G36*
X581279D02*
X580046Y436751D01*
X578487Y435192D01*
X577977Y433959D01*
X581279D01*
Y437261D01*
D02*
G37*
G36*
X588391Y430149D02*
X585089D01*
Y426847D01*
X586322Y427357D01*
X587881Y428916D01*
X588391Y430149D01*
D02*
G37*
G36*
X581279D02*
X577977D01*
X578487Y428916D01*
X580046Y427357D01*
X581279Y426847D01*
Y430149D01*
D02*
G37*
G36*
X518541Y350139D02*
Y346837D01*
X521843D01*
X521333Y348070D01*
X519774Y349629D01*
X518541Y350139D01*
D02*
G37*
G36*
X514731D02*
X513498Y349629D01*
X511939Y348070D01*
X511429Y346837D01*
X514731D01*
Y350139D01*
D02*
G37*
G36*
X508040Y350400D02*
X500905D01*
Y346265D01*
X508040D01*
Y350400D01*
D02*
G37*
G36*
X479595D02*
X472460D01*
Y346265D01*
X479595D01*
Y350400D01*
D02*
G37*
G36*
X521843Y343027D02*
X518541D01*
Y339725D01*
X519774Y340235D01*
X521333Y341794D01*
X521843Y343027D01*
D02*
G37*
G36*
X514731D02*
X511429D01*
X511939Y341794D01*
X513498Y340235D01*
X514731Y339725D01*
Y343027D01*
D02*
G37*
G36*
X508040Y342455D02*
X500905D01*
Y338320D01*
X508040D01*
Y342455D01*
D02*
G37*
G36*
X497095Y350400D02*
X483405D01*
Y344360D01*
Y338320D01*
X497095D01*
Y344360D01*
Y350400D01*
D02*
G37*
G36*
X479595Y342455D02*
X472460D01*
Y338320D01*
X479595D01*
Y342455D01*
D02*
G37*
G36*
X518541Y337439D02*
Y334137D01*
X521843D01*
X521333Y335370D01*
X519774Y336929D01*
X518541Y337439D01*
D02*
G37*
G36*
X514731D02*
X513498Y336929D01*
X511939Y335370D01*
X511429Y334137D01*
X514731D01*
Y337439D01*
D02*
G37*
G36*
X521843Y330327D02*
X518541D01*
Y327025D01*
X519774Y327535D01*
X521333Y329094D01*
X521843Y330327D01*
D02*
G37*
G36*
X514731D02*
X511429D01*
X511939Y329094D01*
X513498Y327535D01*
X514731Y327025D01*
Y330327D01*
D02*
G37*
G36*
X518541Y324739D02*
Y321437D01*
X521843D01*
X521333Y322670D01*
X519774Y324229D01*
X518541Y324739D01*
D02*
G37*
G36*
X514731D02*
X513498Y324229D01*
X511939Y322670D01*
X511429Y321437D01*
X514731D01*
Y324739D01*
D02*
G37*
G36*
X521843Y317627D02*
X518541D01*
Y314325D01*
X519774Y314835D01*
X521333Y316394D01*
X521843Y317627D01*
D02*
G37*
G36*
X514731D02*
X511429D01*
X511939Y316394D01*
X513498Y314835D01*
X514731Y314325D01*
Y317627D01*
D02*
G37*
G36*
X518541Y312039D02*
Y308737D01*
X521843D01*
X521333Y309970D01*
X519774Y311529D01*
X518541Y312039D01*
D02*
G37*
G36*
X514731D02*
X513498Y311529D01*
X511939Y309970D01*
X511429Y308737D01*
X514731D01*
Y312039D01*
D02*
G37*
G36*
X521843Y304927D02*
X518541D01*
Y301625D01*
X519774Y302135D01*
X521333Y303694D01*
X521843Y304927D01*
D02*
G37*
G36*
X514731D02*
X511429D01*
X511939Y303694D01*
X513498Y302135D01*
X514731Y301625D01*
Y304927D01*
D02*
G37*
G36*
X508278Y303128D02*
X489722D01*
Y294572D01*
X508278D01*
Y303128D01*
D02*
G37*
G36*
X592040Y262990D02*
X583905D01*
Y259855D01*
X592040D01*
Y262990D01*
D02*
G37*
G36*
X580095D02*
X571960D01*
Y259855D01*
X580095D01*
Y262990D01*
D02*
G37*
G36*
X592040Y256045D02*
X583905D01*
Y252910D01*
X592040D01*
Y256045D01*
D02*
G37*
G36*
X580095D02*
X571960D01*
Y252910D01*
X580095D01*
Y256045D01*
D02*
G37*
G36*
X307721Y217805D02*
Y214503D01*
X311023D01*
X310513Y215736D01*
X308954Y217295D01*
X307721Y217805D01*
D02*
G37*
G36*
X303911D02*
X302678Y217295D01*
X301119Y215736D01*
X300609Y214503D01*
X303911D01*
Y217805D01*
D02*
G37*
G36*
X311023Y210693D02*
X307721D01*
Y207391D01*
X308954Y207901D01*
X310513Y209460D01*
X311023Y210693D01*
D02*
G37*
G36*
X303911D02*
X300609D01*
X301119Y209460D01*
X302678Y207901D01*
X303911Y207391D01*
Y210693D01*
D02*
G37*
G36*
X320421Y192405D02*
Y189103D01*
X323723D01*
X323213Y190336D01*
X321654Y191895D01*
X320421Y192405D01*
D02*
G37*
G36*
X316611D02*
X315378Y191895D01*
X313819Y190336D01*
X313309Y189103D01*
X316611D01*
Y192405D01*
D02*
G37*
G36*
X323723Y185293D02*
X320421D01*
Y181991D01*
X321654Y182501D01*
X323213Y184060D01*
X323723Y185293D01*
D02*
G37*
G36*
X316611D02*
X313309D01*
X313819Y184060D01*
X315378Y182501D01*
X316611Y181991D01*
Y185293D01*
D02*
G37*
G36*
X295783Y181483D02*
Y178181D01*
X299085D01*
X298575Y179414D01*
X297016Y180973D01*
X295783Y181483D01*
D02*
G37*
G36*
X291973D02*
X290740Y180973D01*
X289181Y179414D01*
X288671Y178181D01*
X291973D01*
Y181483D01*
D02*
G37*
G36*
X299085Y174371D02*
X295783D01*
Y171069D01*
X297016Y171579D01*
X298575Y173138D01*
X299085Y174371D01*
D02*
G37*
G36*
X291973D02*
X288671D01*
X289181Y173138D01*
X290740Y171579D01*
X291973Y171069D01*
Y174371D01*
D02*
G37*
G36*
X295529Y163449D02*
Y160147D01*
X298831D01*
X298321Y161380D01*
X296762Y162939D01*
X295529Y163449D01*
D02*
G37*
G36*
X291719D02*
X290486Y162939D01*
X288927Y161380D01*
X288417Y160147D01*
X291719D01*
Y163449D01*
D02*
G37*
G36*
X298831Y156337D02*
X295529D01*
Y153035D01*
X296762Y153545D01*
X298321Y155104D01*
X298831Y156337D01*
D02*
G37*
G36*
X291719D02*
X288417D01*
X288927Y155104D01*
X290486Y153545D01*
X291719Y153035D01*
Y156337D01*
D02*
G37*
G36*
X194940Y183040D02*
X187655D01*
Y175755D01*
X194940D01*
Y183040D01*
D02*
G37*
G36*
X147145D02*
X139860D01*
Y175755D01*
X147145D01*
Y183040D01*
D02*
G37*
G36*
X183845D02*
X169305D01*
Y173850D01*
X165495D01*
Y183040D01*
X150955D01*
Y173850D01*
X149050D01*
Y171945D01*
X139860D01*
Y164660D01*
Y157405D01*
X149050D01*
Y153595D01*
X139860D01*
Y146310D01*
Y139055D01*
X149050D01*
Y137150D01*
X150955D01*
Y127960D01*
X165495D01*
Y137150D01*
X169305D01*
Y127960D01*
X183845D01*
Y137150D01*
X185750D01*
Y139055D01*
X194940D01*
Y146310D01*
Y153595D01*
X185750D01*
Y157405D01*
X194940D01*
Y164660D01*
Y171945D01*
X185750D01*
Y173850D01*
X183845D01*
Y183040D01*
D02*
G37*
G36*
X194940Y135245D02*
X187655D01*
Y127960D01*
X194940D01*
Y135245D01*
D02*
G37*
G36*
X147145D02*
X139860D01*
Y127960D01*
X147145D01*
Y135245D01*
D02*
G37*
G36*
X90495Y93040D02*
X85360D01*
Y82405D01*
X90495D01*
Y93040D01*
D02*
G37*
G36*
X69215Y82740D02*
Y79375D01*
X72580D01*
X72529Y79632D01*
X71304Y81464D01*
X69472Y82689D01*
X69215Y82740D01*
D02*
G37*
G36*
X72580Y75565D02*
X69215D01*
Y72200D01*
X69472Y72251D01*
X71304Y73476D01*
X72529Y75308D01*
X72580Y75565D01*
D02*
G37*
G36*
X90495Y78595D02*
X85360D01*
Y67960D01*
X90495D01*
Y78595D01*
D02*
G37*
G36*
X69215Y70040D02*
Y66675D01*
X72580D01*
X72529Y66932D01*
X71304Y68764D01*
X69472Y69989D01*
X69215Y70040D01*
D02*
G37*
G36*
X72580Y62865D02*
X69215D01*
Y59500D01*
X69472Y59551D01*
X71304Y60776D01*
X72529Y62608D01*
X72580Y62865D01*
D02*
G37*
G36*
X91040Y65540D02*
X86905D01*
Y58405D01*
X91040D01*
Y65540D01*
D02*
G37*
G36*
X83095D02*
X78960D01*
Y58405D01*
X83095D01*
Y65540D01*
D02*
G37*
G36*
X69215Y57340D02*
Y53975D01*
X72580D01*
X72529Y54232D01*
X71304Y56064D01*
X69472Y57289D01*
X69215Y57340D01*
D02*
G37*
G36*
X72580Y50165D02*
X69215D01*
Y46800D01*
X69472Y46851D01*
X71304Y48076D01*
X72529Y49908D01*
X72580Y50165D01*
D02*
G37*
G36*
X69215Y44640D02*
Y41275D01*
X72580D01*
X72529Y41532D01*
X71304Y43364D01*
X69472Y44589D01*
X69215Y44640D01*
D02*
G37*
G36*
X91040Y54595D02*
X85000D01*
X78960D01*
Y47810D01*
X78960Y47460D01*
Y46540D01*
X78960Y46190D01*
Y39405D01*
X85000D01*
X91040D01*
Y46190D01*
X91040Y46540D01*
Y47460D01*
X91040Y47810D01*
Y54595D01*
D02*
G37*
G36*
X72580Y37465D02*
X69215D01*
Y34100D01*
X69472Y34151D01*
X71304Y35376D01*
X72529Y37208D01*
X72580Y37465D01*
D02*
G37*
G36*
X69215Y31876D02*
Y28512D01*
X72580D01*
X72529Y28768D01*
X71304Y30601D01*
X69472Y31825D01*
X69215Y31876D01*
D02*
G37*
G36*
X91040Y35595D02*
X85000D01*
X78960D01*
Y28460D01*
Y21405D01*
X85000D01*
X91040D01*
Y28460D01*
Y35595D01*
D02*
G37*
G36*
X72580Y24701D02*
X69215D01*
Y21337D01*
X69472Y21388D01*
X71304Y22612D01*
X72529Y24445D01*
X72580Y24701D01*
D02*
G37*
G36*
X802905Y290296D02*
Y284905D01*
X808296D01*
X808026Y285910D01*
X807033Y287630D01*
X805630Y289034D01*
X803910Y290026D01*
X802905Y290296D01*
D02*
G37*
G36*
X799095D02*
X798090Y290026D01*
X796370Y289034D01*
X794967Y287630D01*
X793974Y285910D01*
X793705Y284905D01*
X799095D01*
Y290296D01*
D02*
G37*
G36*
X837959Y290286D02*
X836041D01*
X834188Y289789D01*
X832526Y288830D01*
X831170Y287474D01*
X830211Y285812D01*
X829714Y283959D01*
Y282041D01*
X830211Y280188D01*
X831170Y278526D01*
X832526Y277170D01*
X834188Y276210D01*
X836041Y275714D01*
X837959D01*
X839812Y276210D01*
X841474Y277170D01*
X842830Y278526D01*
X843789Y280188D01*
X844286Y282041D01*
Y283959D01*
X843789Y285812D01*
X842830Y287474D01*
X841474Y288830D01*
X839812Y289789D01*
X837959Y290286D01*
D02*
G37*
G36*
X808296Y281095D02*
X802905D01*
Y275704D01*
X803910Y275974D01*
X805630Y276966D01*
X807033Y278370D01*
X808026Y280090D01*
X808296Y281095D01*
D02*
G37*
G36*
X799095D02*
X793705D01*
X793974Y280090D01*
X794967Y278370D01*
X796370Y276966D01*
X798090Y275974D01*
X799095Y275704D01*
Y281095D01*
D02*
G37*
G36*
X837959Y254286D02*
X836041D01*
X834188Y253789D01*
X832526Y252830D01*
X831170Y251474D01*
X830211Y249812D01*
X829714Y247959D01*
Y246041D01*
X830211Y244188D01*
X831170Y242526D01*
X832526Y241170D01*
X834188Y240210D01*
X836041Y239714D01*
X837959D01*
X839812Y240210D01*
X841474Y241170D01*
X842830Y242526D01*
X843789Y244188D01*
X844286Y246041D01*
Y247959D01*
X843789Y249812D01*
X842830Y251474D01*
X841474Y252830D01*
X839812Y253789D01*
X837959Y254286D01*
D02*
G37*
G36*
X759777Y148995D02*
X757873D01*
X756428Y148396D01*
X736640D01*
X735609Y148823D01*
X733705D01*
X731946Y148094D01*
X730600Y146748D01*
X729871Y144989D01*
Y143085D01*
X730600Y141326D01*
X731946Y139980D01*
X733705Y139251D01*
X735609D01*
X737054Y139850D01*
X756842D01*
X757873Y139423D01*
X759777D01*
X761536Y140151D01*
X762882Y141497D01*
X763611Y143257D01*
Y145161D01*
X762882Y146919D01*
X761536Y148266D01*
X759777Y148995D01*
D02*
G37*
G36*
X823666Y188872D02*
X813110D01*
Y172316D01*
X814115D01*
Y158369D01*
X811784D01*
Y146939D01*
X824992D01*
Y158369D01*
X822661D01*
Y172316D01*
X823666D01*
Y188872D01*
D02*
G37*
G36*
X840994Y158369D02*
X827786D01*
Y146939D01*
X830117D01*
Y145280D01*
X829572Y144735D01*
X799592D01*
X797957Y144410D01*
X796570Y143484D01*
X796570Y143483D01*
X785884Y132797D01*
X749115D01*
X744702Y137210D01*
X744114Y137603D01*
X743420Y137741D01*
X733336D01*
X732642Y137603D01*
X732054Y137210D01*
X728714Y133870D01*
X728321Y133282D01*
X728183Y132588D01*
Y128809D01*
X728142Y128500D01*
X728183Y128191D01*
Y125476D01*
X728321Y124782D01*
X728714Y124194D01*
X730586Y122322D01*
X730746Y120902D01*
X728714Y118870D01*
X728321Y118282D01*
X728183Y117588D01*
Y115737D01*
X728180Y115729D01*
X728137Y115405D01*
X729996D01*
Y117588D01*
X732028Y119620D01*
X744728D01*
X749300Y115048D01*
Y112000D01*
X744474Y107174D01*
X733298D01*
X729996Y110476D01*
Y111595D01*
X728137D01*
X728180Y111271D01*
X728183Y111263D01*
Y110476D01*
X728321Y109782D01*
X728714Y109194D01*
X730113Y107795D01*
X730409Y107409D01*
X730552Y107300D01*
X730749Y105961D01*
X730746Y105902D01*
X728714Y103870D01*
X728321Y103282D01*
X728183Y102588D01*
Y98809D01*
X728142Y98500D01*
X728183Y98191D01*
Y95476D01*
X728321Y94782D01*
X728714Y94194D01*
X731330Y91578D01*
X731270Y89931D01*
X730590Y89410D01*
X729262Y87679D01*
X728427Y85663D01*
X728142Y83500D01*
X728427Y81337D01*
X729262Y79321D01*
X730590Y77590D01*
X731654Y76774D01*
Y75226D01*
X730590Y74410D01*
X729262Y72679D01*
X728427Y70663D01*
X728142Y68500D01*
X728427Y66337D01*
X729262Y64321D01*
X730590Y62590D01*
X731654Y61774D01*
Y60226D01*
X730590Y59410D01*
X729262Y57679D01*
X728427Y55663D01*
X728142Y53500D01*
X728427Y51337D01*
X729262Y49321D01*
X730590Y47590D01*
X732321Y46262D01*
X734337Y45427D01*
X736500Y45142D01*
X741500D01*
X743663Y45427D01*
X745679Y46262D01*
X747410Y47590D01*
X748738Y49321D01*
X749573Y51337D01*
X749857Y53500D01*
X749573Y55663D01*
X748738Y57679D01*
X747410Y59410D01*
X746346Y60226D01*
Y61774D01*
X747410Y62590D01*
X748738Y64321D01*
X749573Y66337D01*
X749857Y68500D01*
X749573Y70663D01*
X748738Y72679D01*
X747410Y74410D01*
X746346Y75226D01*
Y76774D01*
X747410Y77590D01*
X748738Y79321D01*
X749573Y81337D01*
X749857Y83500D01*
X749573Y85663D01*
X748738Y87679D01*
X747410Y89410D01*
X746650Y89993D01*
X746541Y91677D01*
X749091Y94227D01*
X810462D01*
X810723Y94279D01*
X812546D01*
Y92837D01*
X825754D01*
Y104267D01*
X812546D01*
Y102825D01*
X810514D01*
X810514Y102825D01*
X810253Y102773D01*
X749139D01*
X746651Y105260D01*
X746836Y106830D01*
X747591Y107409D01*
X748639Y108775D01*
X750582Y110718D01*
X750975Y111306D01*
X751113Y112000D01*
Y115048D01*
X750975Y115742D01*
X750582Y116330D01*
X748481Y118431D01*
X747591Y119591D01*
X746833Y120173D01*
X746608Y121290D01*
X746735Y121871D01*
X749115Y124251D01*
X787654D01*
X789289Y124576D01*
X790676Y125502D01*
X801362Y136189D01*
X827216D01*
Y132563D01*
X835256D01*
X843296D01*
Y137198D01*
X835917D01*
X835391Y138468D01*
X837411Y140488D01*
X837412Y140488D01*
X838338Y141875D01*
X838663Y143510D01*
X838663Y143510D01*
Y146939D01*
X840994D01*
Y158369D01*
D02*
G37*
G36*
X842666Y188872D02*
X832110D01*
Y172316D01*
X842666D01*
Y176321D01*
X845320D01*
X848913Y172728D01*
Y130548D01*
X844566Y126201D01*
X843296Y126727D01*
Y128753D01*
X835256D01*
X827216D01*
Y125431D01*
X823634D01*
Y126936D01*
X809078D01*
Y115380D01*
X823634D01*
Y116885D01*
X827978D01*
Y105880D01*
X828767D01*
Y104267D01*
X828548D01*
Y92837D01*
X841756D01*
Y104267D01*
X841537D01*
Y105880D01*
X842534D01*
Y116885D01*
X845566D01*
X847201Y117210D01*
X848588Y118136D01*
X856208Y125756D01*
X857134Y127143D01*
X857459Y128778D01*
Y174498D01*
X857134Y176133D01*
X856208Y177520D01*
X850112Y183616D01*
X848725Y184542D01*
X847090Y184867D01*
X842666D01*
Y188872D01*
D02*
G37*
%LPD*%
G36*
X749300Y130048D02*
Y127000D01*
X744474Y122174D01*
X733298D01*
X729996Y125476D01*
Y132588D01*
X733336Y135928D01*
X743420D01*
X749300Y130048D01*
D02*
G37*
G36*
Y100048D02*
Y97000D01*
X744474Y92174D01*
X733298D01*
X729996Y95476D01*
Y102588D01*
X732028Y104620D01*
X744728D01*
X749300Y100048D01*
D02*
G37*
G36*
X839724Y102108D02*
X830580D01*
Y108458D01*
X839724D01*
Y102108D01*
D02*
G37*
D19*
X675000Y296000D02*
Y310552D01*
X532130Y470320D02*
X535500Y473690D01*
X532130Y468630D02*
Y470320D01*
X535500Y473690D02*
Y483500D01*
X499000Y428500D02*
X515500D01*
X637000Y257950D02*
X656448D01*
X611936Y463500D02*
X612902Y462534D01*
X600500Y463500D02*
X611936D01*
X550418Y87884D02*
Y98425D01*
X167400Y164675D02*
Y173850D01*
Y155500D02*
Y164675D01*
Y146325D02*
Y155500D01*
Y137150D02*
Y146325D01*
X176575Y155500D02*
X185750D01*
X167400D02*
X176575D01*
X158225D02*
X167400D01*
X149050D02*
X158225D01*
X149050Y164675D02*
Y173850D01*
Y155500D02*
Y164675D01*
Y146325D02*
Y155500D01*
Y137150D02*
Y146325D01*
Y137150D02*
X158225D01*
X167400D02*
X176575D01*
X185750D01*
Y146325D01*
Y164675D02*
Y173850D01*
Y155500D02*
Y164675D01*
X176575Y173850D02*
X185750D01*
X158225D02*
X167400D01*
X529500Y368808D02*
X535500Y374808D01*
X529500Y359500D02*
Y368808D01*
X535500Y374808D02*
Y398500D01*
X550500Y375495D02*
X556500Y369495D01*
X550500Y375495D02*
Y398500D01*
X556500Y359500D02*
Y369495D01*
X555500Y382599D02*
Y398500D01*
Y382599D02*
X570000Y368099D01*
Y359500D02*
Y368099D01*
X600500Y423500D02*
X630936D01*
X481500Y425874D02*
X494126Y438500D01*
X515500D01*
X481500Y397500D02*
Y425874D01*
X537591Y516001D02*
X550500Y503092D01*
Y483500D02*
Y503092D01*
X540500Y379615D02*
X543500Y376615D01*
Y359500D02*
Y376615D01*
X540500Y379615D02*
Y398500D01*
X205994Y545876D02*
Y558292D01*
D99*
X399000Y40000D02*
D03*
X40000Y504500D02*
D03*
D103*
X818388Y180594D02*
D03*
X837388D02*
D03*
X615760Y474027D02*
D03*
X634759D02*
D03*
X481500Y397500D02*
D03*
X462500D02*
D03*
X604931Y74168D02*
D03*
X623931D02*
D03*
X389128Y406146D02*
D03*
X370128D02*
D03*
X104000Y56500D02*
D03*
X85000D02*
D03*
X104000Y37500D02*
D03*
X85000D02*
D03*
X104000Y19500D02*
D03*
X85000D02*
D03*
D104*
X834390Y152654D02*
D03*
X818388D02*
D03*
X835152Y98552D02*
D03*
X819150D02*
D03*
X530500Y501396D02*
D03*
X514498D02*
D03*
X616758Y489027D02*
D03*
X632760D02*
D03*
X640588Y457073D02*
D03*
X624586D02*
D03*
X640588Y444881D02*
D03*
X624586D02*
D03*
X646938Y423500D02*
D03*
X630936D02*
D03*
X481500Y382270D02*
D03*
X465498D02*
D03*
X656498Y258000D02*
D03*
X672500D02*
D03*
X636001Y650000D02*
D03*
X619999D02*
D03*
X581002Y653000D02*
D03*
X565000D02*
D03*
X270001Y349500D02*
D03*
X253999D02*
D03*
D105*
X816356Y121158D02*
D03*
X835256Y130658D02*
D03*
Y111658D02*
D03*
X639450Y675000D02*
D03*
X620550Y684500D02*
D03*
Y665500D02*
D03*
X546100Y677500D02*
D03*
X565000Y668000D02*
D03*
Y687000D02*
D03*
X127550Y323500D02*
D03*
X146450Y314000D02*
D03*
Y333000D02*
D03*
X133550Y49500D02*
D03*
X152450Y40000D02*
D03*
Y59000D02*
D03*
D106*
X537591Y516001D02*
D03*
X526276Y527316D02*
D03*
X600640Y384880D02*
D03*
X611956Y373564D02*
D03*
X445579Y414655D02*
D03*
X434264Y425970D02*
D03*
D107*
X530500Y483500D02*
D03*
X540500D02*
D03*
X545500D02*
D03*
X550500D02*
D03*
X555500D02*
D03*
X560500D02*
D03*
X565500D02*
D03*
X570500D02*
D03*
X575500D02*
D03*
X580500D02*
D03*
X585500D02*
D03*
Y398500D02*
D03*
X575500D02*
D03*
X570500D02*
D03*
X565500D02*
D03*
X560500D02*
D03*
X555500D02*
D03*
X550500D02*
D03*
X545500D02*
D03*
X540500D02*
D03*
X535500D02*
D03*
X530500D02*
D03*
X535500Y483500D02*
D03*
X580500Y398500D02*
D03*
D108*
X600500Y468500D02*
D03*
Y458500D02*
D03*
Y448500D02*
D03*
Y443500D02*
D03*
Y438500D02*
D03*
Y433500D02*
D03*
Y428500D02*
D03*
Y423500D02*
D03*
Y418500D02*
D03*
Y413500D02*
D03*
X515500D02*
D03*
Y418500D02*
D03*
Y423500D02*
D03*
Y428500D02*
D03*
Y438500D02*
D03*
Y443500D02*
D03*
Y448500D02*
D03*
Y453500D02*
D03*
Y458500D02*
D03*
Y463500D02*
D03*
Y468500D02*
D03*
X600500Y453500D02*
D03*
Y463500D02*
D03*
X515500Y433500D02*
D03*
D109*
X493268Y519024D02*
D03*
Y500024D02*
D03*
X413512Y466192D02*
D03*
Y447192D02*
D03*
X499000Y325360D02*
D03*
Y344360D02*
D03*
X481500Y325360D02*
D03*
Y344360D02*
D03*
X657000Y296000D02*
D03*
Y277000D02*
D03*
X675000Y296000D02*
D03*
Y277000D02*
D03*
X655947Y128253D02*
D03*
Y109254D02*
D03*
X637947Y128253D02*
D03*
Y109254D02*
D03*
X620447Y128253D02*
D03*
Y109254D02*
D03*
X303000Y464500D02*
D03*
Y483500D02*
D03*
X321000Y464500D02*
D03*
Y483500D02*
D03*
X193934Y378206D02*
D03*
Y397206D02*
D03*
X211582Y378206D02*
D03*
Y397206D02*
D03*
D110*
X457454Y477965D02*
D03*
X446139Y466649D02*
D03*
D111*
X467615Y467803D02*
D03*
X457009Y426084D02*
D03*
X483172Y452247D02*
D03*
X441452Y441640D02*
D03*
D112*
X570000Y343498D02*
D03*
Y359500D02*
D03*
X556500Y343498D02*
D03*
Y359500D02*
D03*
X543500Y343498D02*
D03*
Y359500D02*
D03*
X529500Y343498D02*
D03*
Y359500D02*
D03*
X499000Y428500D02*
D03*
Y412498D02*
D03*
X532003Y302133D02*
D03*
Y286131D02*
D03*
Y257429D02*
D03*
Y273431D02*
D03*
X606000Y683001D02*
D03*
Y666999D02*
D03*
X580263Y668020D02*
D03*
Y684022D02*
D03*
X127550Y373498D02*
D03*
Y389500D02*
D03*
X161798Y313944D02*
D03*
Y329946D02*
D03*
X299500Y66499D02*
D03*
Y82501D02*
D03*
X188500Y38500D02*
D03*
Y22498D02*
D03*
X175704Y40195D02*
D03*
Y56198D02*
D03*
X118000Y58501D02*
D03*
Y42499D02*
D03*
D113*
X444000Y311550D02*
D03*
Y298850D02*
D03*
Y286150D02*
D03*
X499000Y273450D02*
D03*
Y286150D02*
D03*
Y298850D02*
D03*
Y311550D02*
D03*
X444000Y273450D02*
D03*
X582000Y296050D02*
D03*
Y283350D02*
D03*
Y270650D02*
D03*
X637000Y257950D02*
D03*
Y270650D02*
D03*
Y283350D02*
D03*
Y296050D02*
D03*
X582000Y257950D02*
D03*
X234500Y365450D02*
D03*
Y378150D02*
D03*
Y403550D02*
D03*
X289500D02*
D03*
Y390850D02*
D03*
Y378150D02*
D03*
Y365450D02*
D03*
X234500Y390850D02*
D03*
D114*
X427500Y300000D02*
D03*
Y311000D02*
D03*
D115*
X604931Y91313D02*
D03*
X576931D02*
D03*
X682500Y675000D02*
D03*
X654500D02*
D03*
X503000Y677500D02*
D03*
X531000D02*
D03*
D116*
X559918Y98425D02*
D03*
X550418D02*
D03*
X540918D02*
D03*
Y121925D02*
D03*
X559918D02*
D03*
X550418D02*
D03*
D117*
X560500Y62000D02*
D03*
X554000D02*
D03*
X547500D02*
D03*
X541000D02*
D03*
X534500D02*
D03*
D118*
X516500Y60775D02*
D03*
X578500D02*
D03*
D119*
X509500Y33500D02*
D03*
X585500D02*
D03*
D120*
X621538Y517779D02*
D03*
Y543179D02*
D03*
Y568579D02*
D03*
Y593979D02*
D03*
Y619379D02*
D03*
D121*
X405500Y167500D02*
D03*
D122*
X334500Y78000D02*
D03*
X463500D02*
D03*
D123*
X389128Y385318D02*
D03*
Y357318D02*
D03*
X205994Y517876D02*
D03*
Y545876D02*
D03*
D124*
X343000Y428500D02*
D03*
X389000D02*
D03*
X366000D02*
D03*
D125*
Y492500D02*
D03*
D126*
X265000Y574550D02*
D03*
X353000D02*
D03*
Y522450D02*
D03*
X265000D02*
D03*
D127*
X206062Y574548D02*
D03*
X242062D02*
D03*
D128*
X274000Y464500D02*
D03*
X214000D02*
D03*
D129*
X254168Y322580D02*
D03*
X275168D02*
D03*
D130*
X227076D02*
D03*
X183376D02*
D03*
D131*
X218500Y38500D02*
D03*
X248500D02*
D03*
X263500D02*
D03*
D132*
X277500Y31000D02*
D03*
X204500D02*
D03*
X277500Y11000D02*
D03*
X204500D02*
D03*
D133*
X105100Y250500D02*
D03*
X117800D02*
D03*
X130500D02*
D03*
X143200D02*
D03*
X155900D02*
D03*
X168600D02*
D03*
X181300D02*
D03*
X194000D02*
D03*
X206700D02*
D03*
X219400D02*
D03*
X232100D02*
D03*
X244800D02*
D03*
X257500D02*
D03*
Y80500D02*
D03*
X244800D02*
D03*
X232100D02*
D03*
X219400D02*
D03*
X206700D02*
D03*
X194000D02*
D03*
X181300D02*
D03*
X168600D02*
D03*
X155900D02*
D03*
X143200D02*
D03*
X130500D02*
D03*
X117800D02*
D03*
X105100D02*
D03*
X92400D02*
D03*
Y250500D02*
D03*
D134*
X267500Y222650D02*
D03*
Y209950D02*
D03*
Y197250D02*
D03*
Y184550D02*
D03*
Y171850D02*
D03*
Y159150D02*
D03*
Y146450D02*
D03*
Y133750D02*
D03*
Y121050D02*
D03*
Y108350D02*
D03*
D135*
X149050Y137150D02*
D03*
Y155500D02*
D03*
Y173850D02*
D03*
X167400Y137150D02*
D03*
Y155500D02*
D03*
Y173850D02*
D03*
X185750Y137150D02*
D03*
Y155500D02*
D03*
Y173850D02*
D03*
D136*
X167500Y498000D02*
D03*
D137*
X78000Y569000D02*
D03*
Y440000D02*
D03*
D138*
X734657Y144037D02*
X734743Y144123D01*
X758417D01*
X799592Y140462D02*
X831342D01*
X834390Y143510D01*
Y152654D01*
X818388D02*
Y180594D01*
X787654Y128524D02*
X799592Y140462D01*
X739024Y128524D02*
X787654D01*
X739000Y128500D02*
X739024Y128524D01*
X837388Y180594D02*
X847090D01*
X853186Y128778D02*
Y174498D01*
X847090Y180594D02*
X853186Y174498D01*
X845566Y121158D02*
X853186Y128778D01*
X816356Y121158D02*
X845566D01*
X739000Y98500D02*
X810462D01*
X810514Y98552D01*
X819150D01*
X414934Y277647D02*
X423437Y286150D01*
X444000D01*
X381279Y277647D02*
X414934D01*
X381254Y277671D02*
Y305562D01*
X389128Y313436D01*
Y357318D01*
X593217Y678752D02*
X597467Y683001D01*
X606000D01*
X593217Y659257D02*
Y678752D01*
Y659257D02*
X602474Y650000D01*
X619999D01*
X381254Y277671D02*
X381279Y277647D01*
D139*
X529971Y229420D02*
X537781D01*
X553558Y213642D01*
X535179Y223139D02*
X547278Y211041D01*
X540918Y121925D02*
Y145425D01*
X529971Y223139D02*
X535179D01*
X553890Y81116D02*
X559918Y87144D01*
X553890Y62110D02*
Y81116D01*
X547610Y62110D02*
Y80452D01*
X559918Y87144D02*
Y98425D01*
Y121925D01*
X540918Y87144D02*
X547610Y80452D01*
X540918Y87144D02*
Y98425D01*
Y121925D01*
X563753Y322453D02*
X581914D01*
X599376Y304991D01*
Y275781D02*
Y304991D01*
X594246Y270650D02*
X599376Y275781D01*
X582000Y270650D02*
X594246D01*
X565531Y287782D02*
Y294767D01*
Y287782D02*
X569963Y283350D01*
X582000D01*
X529500Y330798D02*
Y343498D01*
Y330798D02*
X565531Y294767D01*
X671599Y453237D02*
X673530Y455168D01*
X649706Y446957D02*
X674406D01*
X649697Y446948D02*
X649706Y446957D01*
X642655Y446948D02*
X649697D01*
X645312Y453237D02*
X671599D01*
X641477Y457073D02*
X645312Y453237D01*
X673530Y455168D02*
X673735D01*
X640588Y457073D02*
X641477D01*
X640588Y444881D02*
X642655Y446948D01*
X559918Y121925D02*
Y145425D01*
X553558Y151785D02*
X559918Y145425D01*
X553558Y151785D02*
Y213642D01*
X553890Y62110D02*
X554000Y62000D01*
X547500D02*
X547610Y62110D01*
X547278Y151785D02*
Y211041D01*
X540918Y145425D02*
X547278Y151785D01*
X543500Y329688D02*
Y343498D01*
Y329688D02*
X559943Y313246D01*
X575564D01*
X556500Y329706D02*
X563753Y322453D01*
X556500Y329706D02*
Y343498D01*
X575564Y313246D02*
X582000Y306810D01*
Y296050D02*
Y306810D01*
D140*
X122568Y22498D02*
X188500D01*
X621538Y517779D02*
X656074D01*
X656201Y517652D01*
X616758Y489027D02*
Y516089D01*
X122364Y22701D02*
X122568Y22498D01*
X205994Y558292D02*
Y562670D01*
X206062Y562738D01*
Y574548D01*
D141*
X540524Y458331D02*
X674560Y324295D01*
X540524Y458331D02*
Y483476D01*
X175704Y56198D02*
X187706D01*
X193929Y62421D01*
X278003D01*
X594106Y115633D02*
Y149035D01*
X618419Y91320D02*
X658375D01*
X594106Y115633D02*
X618419Y91320D01*
X594106Y149035D02*
X635889Y190818D01*
X665309Y98253D02*
X688376D01*
X658375Y91320D02*
X665309Y98253D01*
X635889Y190818D02*
Y241871D01*
X636207Y314643D02*
Y322009D01*
X570500Y387715D02*
X636207Y322009D01*
X590593Y376237D02*
X594170D01*
X618807Y351600D01*
X631127D01*
X575524Y391306D02*
X590593Y376237D01*
X674560Y324295D02*
X701802D01*
X540500Y483500D02*
X540524Y483476D01*
X584708Y343471D02*
X609664Y318516D01*
X576931Y82901D02*
Y91313D01*
X573659Y79629D02*
X576931Y82901D01*
X564007Y79629D02*
X573659D01*
X299500Y82501D02*
Y125891D01*
X380746Y207137D02*
X444500D01*
X299500Y125891D02*
X380746Y207137D01*
X289687Y127889D02*
X376428Y214630D01*
X441389D01*
X289687Y74104D02*
Y127889D01*
X560500Y76122D02*
X564007Y79629D01*
X560500Y62000D02*
Y76122D01*
X153479Y279464D02*
X290195D01*
X379857Y369126D01*
X496380D01*
X515500Y388246D02*
Y413500D01*
X496380Y369126D02*
X515500Y388246D01*
X143200Y269184D02*
X153479Y279464D01*
X143200Y250500D02*
Y269184D01*
X530500Y378862D02*
Y398500D01*
X467551Y356108D02*
X507746D01*
X530500Y378862D01*
X452310Y340868D02*
X467551Y356108D01*
X452310Y322771D02*
X473012Y302069D01*
X452310Y322771D02*
Y340868D01*
X473012Y268034D02*
Y302069D01*
X440182Y235204D02*
X473012Y268034D01*
X379412Y235204D02*
X440182D01*
X352933Y208724D02*
X379412Y235204D01*
X331089Y208724D02*
X352933D01*
X306261Y233553D02*
X331089Y208724D01*
X253048Y233553D02*
X306261D01*
X241046Y221551D02*
X253048Y233553D01*
X134176Y221551D02*
X241046D01*
X130500Y225227D02*
X134176Y221551D01*
X130500Y225227D02*
Y250500D01*
X299466Y57829D02*
X299500Y57863D01*
X299466Y56388D02*
Y57829D01*
X299500Y57863D02*
Y66499D01*
X252729Y54039D02*
X297117D01*
X299466Y56388D01*
X248500Y49810D02*
X252729Y54039D01*
X248500Y38500D02*
Y49810D01*
X278003Y62421D02*
X289687Y74104D01*
X441389Y214630D02*
X472884Y246126D01*
X600075D01*
X609664Y255714D01*
Y304292D01*
X585470Y328485D02*
X609664Y304292D01*
X573278Y328485D02*
X585470D01*
X570000Y331763D02*
X573278Y328485D01*
X570000Y331763D02*
Y343498D01*
X619442Y254254D02*
Y331948D01*
X565500Y385890D02*
X619442Y331948D01*
X565500Y385890D02*
Y398500D01*
X570500Y387715D02*
Y398500D01*
X575524Y391306D02*
Y398476D01*
X584708Y343471D02*
Y359857D01*
X560500Y384065D02*
X584708Y359857D01*
X560500Y384065D02*
Y398500D01*
X603504Y238316D02*
X619442Y254254D01*
X475678Y238316D02*
X603504D01*
X444500Y207137D02*
X475678Y238316D01*
X575500Y398500D02*
X575524Y398476D01*
X701802Y324295D02*
X707009Y319088D01*
X685038Y258000D02*
X707009Y279972D01*
Y319088D01*
X672500Y258000D02*
X685038D01*
X600500Y448412D02*
X620166D01*
X600500Y453542D02*
X620166D01*
X623697Y457073D01*
X624586D01*
X623697Y444881D02*
X624586D01*
X620166Y448412D02*
X623697Y444881D01*
X617800Y713100D02*
X618950D01*
X639450Y692600D01*
Y675000D02*
Y692600D01*
X546100Y677500D02*
Y695100D01*
X564600Y713600D01*
D142*
X595757Y478028D02*
Y535305D01*
X603631Y543179D01*
X584137Y466408D02*
X595757Y478028D01*
X570500Y594376D02*
X610997Y634873D01*
X565500Y483500D02*
Y612109D01*
X580500Y483500D02*
Y568308D01*
X557923Y521601D02*
X558038Y521716D01*
X570500Y483500D02*
Y594376D01*
X580500Y568308D02*
X606171Y593979D01*
X557923Y512485D02*
Y521601D01*
X585500Y483500D02*
Y549432D01*
X565500Y612109D02*
X581002Y627611D01*
X557923Y512485D02*
X560500Y509908D01*
X585500Y549432D02*
X604647Y568579D01*
X188500Y38500D02*
X218500D01*
X584137Y462534D02*
Y466408D01*
Y462534D02*
X588171Y458500D01*
X600500D01*
X603631Y543179D02*
X621538D01*
X467615Y467803D02*
X479300Y479488D01*
X485076D01*
X499110Y465455D01*
Y451866D02*
Y465455D01*
Y451866D02*
X502476Y448500D01*
X515500D01*
X485267Y436816D02*
X491950Y443500D01*
X515500D01*
X467741Y436816D02*
X485267D01*
X457009Y426084D02*
X467741Y436816D01*
X610997Y634873D02*
X629031D01*
X636001Y641843D01*
X549846Y514096D02*
X555500Y508442D01*
X549656Y514096D02*
X549846D01*
X555500Y483500D02*
Y508442D01*
X560500Y483500D02*
Y509908D01*
X581002Y627611D02*
Y653000D01*
X636001Y641843D02*
Y650000D01*
X606171Y593979D02*
X621538D01*
X604647Y568579D02*
X621538D01*
D143*
X661924Y615950D02*
Y650494D01*
X650240Y662178D02*
X661924Y650494D01*
X631912Y662178D02*
X650240D01*
X628590Y665500D02*
X631912Y662178D01*
X620550Y665500D02*
X628590D01*
X606000Y666897D02*
Y666999D01*
Y666897D02*
X607397Y665500D01*
X620550D01*
X550418Y121925D02*
Y137668D01*
X92400Y230500D02*
X149050Y173850D01*
X92400Y230500D02*
Y250500D01*
X185750Y137150D02*
X214550Y108350D01*
X267500D01*
X164329Y59000D02*
X164401Y58928D01*
X152450Y59000D02*
X164329D01*
X516064Y257493D02*
X516096Y257461D01*
X531971D02*
X532003Y257429D01*
X516096Y257461D02*
X531971D01*
X604931Y51214D02*
Y74168D01*
Y84753D02*
X604931Y84753D01*
X604931Y74168D02*
Y84753D01*
X604931Y84753D02*
Y91313D01*
X694000Y713034D02*
Y713100D01*
X532003Y302133D02*
X544576D01*
X646938Y404495D02*
Y423500D01*
X161798Y329946D02*
Y340868D01*
X169672Y348742D01*
X189992D01*
X64000Y323500D02*
X127550D01*
X145170Y373498D02*
X145288Y373380D01*
X127550Y373498D02*
X145170D01*
X64000Y373500D02*
X64002Y373498D01*
X127550D01*
X334076Y464500D02*
X343000Y455576D01*
Y428500D02*
Y455576D01*
X321000Y464500D02*
X334076D01*
X274000D02*
X303000D01*
X321000D01*
D144*
X532193Y286322D02*
X557085D01*
X532003Y286131D02*
X532193Y286322D01*
X557085D02*
X557276Y286512D01*
X532003Y273431D02*
X564515D01*
X524237Y273450D02*
X524256Y273431D01*
X499000Y273450D02*
X524237D01*
X524256Y273431D02*
X532003D01*
X524237Y286150D02*
X524256Y286131D01*
X499000Y286150D02*
X524237D01*
X524256Y286131D02*
X532003D01*
D145*
X88000Y659025D02*
Y661000D01*
X91650Y654348D02*
Y655375D01*
Y654348D02*
X171450Y574548D01*
X88000Y659025D02*
X91650Y655375D01*
X171450Y574548D02*
X206062D01*
D146*
X530500Y483500D02*
Y493649D01*
X530500Y493649D01*
Y501396D01*
D147*
X88000Y661000D02*
Y776000D01*
X382270Y522478D02*
X392938Y533146D01*
Y623824D01*
X340000Y644000D02*
X372762D01*
X392938Y623824D01*
X240000Y644000D02*
X259224D01*
X328674Y574550D01*
X390000Y894000D02*
X440000Y944000D01*
X390000Y844000D02*
Y894000D01*
X60000Y893600D02*
X109600Y844000D01*
X190000D01*
X60200Y944200D02*
X139800D01*
X60000Y944400D02*
X60200Y944200D01*
X139800D02*
X140000Y944000D01*
D148*
X253442Y574548D02*
X253444Y574550D01*
X265000D01*
X242062Y574548D02*
X253442D01*
X364588Y522478D02*
X382270D01*
X353000Y522450D02*
X364560D01*
X328674Y574550D02*
X353000D01*
D149*
X657104Y854104D02*
Y883666D01*
X680300Y906862D01*
Y936500D01*
X618200Y815200D02*
X657104Y854104D01*
X488400Y815200D02*
X527304Y854104D01*
X550500Y906862D02*
Y936500D01*
X527304Y883666D02*
X550500Y906862D01*
X527304Y854104D02*
Y883666D01*
D150*
X739000Y128500D02*
D03*
Y113500D02*
D03*
Y98500D02*
D03*
Y83500D02*
D03*
Y68500D02*
D03*
Y53500D02*
D03*
X688376Y53253D02*
D03*
Y68253D02*
D03*
Y83253D02*
D03*
Y98253D02*
D03*
Y128253D02*
D03*
Y113253D02*
D03*
D151*
X801000Y283000D02*
D03*
X837000D02*
D03*
Y247000D02*
D03*
D152*
X680300Y936500D02*
D03*
X629500D02*
D03*
X550500D02*
D03*
X499700D02*
D03*
X60000Y944400D02*
D03*
Y893600D02*
D03*
D153*
X617800Y890900D02*
D03*
X694000Y865500D02*
D03*
Y713100D02*
D03*
X617800Y814700D02*
D03*
Y713100D02*
D03*
X488400Y891400D02*
D03*
X564600Y866000D02*
D03*
Y713600D02*
D03*
X488400Y815200D02*
D03*
Y713600D02*
D03*
D154*
X388000Y148000D02*
D03*
D155*
X447000Y117000D02*
D03*
X85000Y504500D02*
D03*
D156*
X399000Y85000D02*
D03*
X117000Y456500D02*
D03*
D157*
X381279Y277647D02*
D03*
X345923Y242291D02*
D03*
X64000Y373500D02*
D03*
Y323500D02*
D03*
X88000Y661000D02*
D03*
X38000D02*
D03*
X88000Y776000D02*
D03*
X38000D02*
D03*
X240000Y644000D02*
D03*
X340000D02*
D03*
X190000Y844000D02*
D03*
X390000D02*
D03*
X140000Y944000D02*
D03*
X440000D02*
D03*
D158*
X149050Y146325D02*
D03*
Y164675D02*
D03*
X158225Y137150D02*
D03*
Y155500D02*
D03*
Y173850D02*
D03*
X167400Y146325D02*
D03*
Y164675D02*
D03*
X176575Y137150D02*
D03*
Y155500D02*
D03*
Y173850D02*
D03*
X185750Y146325D02*
D03*
Y164675D02*
D03*
D159*
X148000Y515500D02*
D03*
D160*
X734657Y144037D02*
D03*
X674897Y310655D02*
D03*
X758825Y144208D02*
D03*
X499000Y428500D02*
D03*
X558038Y521716D02*
D03*
X164401Y58928D02*
D03*
X635889Y241871D02*
D03*
X636207Y314643D02*
D03*
X631127Y351600D02*
D03*
X609664Y318516D02*
D03*
X604931Y51214D02*
D03*
X557276Y286512D02*
D03*
X549656Y514096D02*
D03*
X145288Y373380D02*
D03*
D161*
X529844Y230049D02*
D03*
Y222509D02*
D03*
X550418Y137668D02*
D03*
Y87884D02*
D03*
X673735Y455168D02*
D03*
X674406Y446957D02*
D03*
D162*
X419354Y391414D02*
D03*
X422402Y339852D02*
D03*
X342900Y134874D02*
D03*
X463804Y556768D02*
D03*
X37846Y618744D02*
D03*
X306324Y521970D02*
D03*
X235204Y501142D02*
D03*
X197866Y429514D02*
D03*
X162560Y431546D02*
D03*
X161036Y402336D02*
D03*
X330200Y288798D02*
D03*
X362966Y322834D02*
D03*
X307594Y261620D02*
D03*
X318516Y187198D02*
D03*
X293878Y176276D02*
D03*
X305816Y212598D02*
D03*
X293624Y158242D02*
D03*
X411480Y254762D02*
D03*
X472694Y192532D02*
D03*
X515366Y147828D02*
D03*
X487680Y151892D02*
D03*
X515620Y87630D02*
D03*
X656844Y47244D02*
D03*
X588010Y192278D02*
D03*
X613156Y200660D02*
D03*
X685292Y172466D02*
D03*
X659638Y208788D02*
D03*
X559054Y457708D02*
D03*
X572008Y443992D02*
D03*
X583184Y432054D02*
D03*
X562102Y418084D02*
D03*
X536448Y437896D02*
D03*
X441960Y391922D02*
D03*
X469646Y414782D02*
D03*
X435864Y479298D02*
D03*
X429768Y454406D02*
D03*
X475996Y500380D02*
D03*
X536194Y557784D02*
D03*
X496824Y584708D02*
D03*
X530098Y606298D02*
D03*
X675386Y358648D02*
D03*
X670560Y399796D02*
D03*
X686562Y487680D02*
D03*
X656844Y542798D02*
D03*
X686308Y578612D02*
D03*
X655828Y611632D02*
D03*
X600640Y384880D02*
D03*
X516636Y344932D02*
D03*
Y332232D02*
D03*
Y306832D02*
D03*
Y319532D02*
D03*
X656201Y517652D02*
D03*
X425704Y497840D02*
D03*
X415544Y487680D02*
D03*
X405384Y477520D02*
D03*
X395224Y467360D02*
D03*
X390144Y455422D02*
D03*
Y443992D02*
D03*
X573024Y686562D02*
D03*
X67310Y77470D02*
D03*
Y64770D02*
D03*
Y52070D02*
D03*
Y39370D02*
D03*
Y26607D02*
D03*
X516064Y257493D02*
D03*
X137922Y17844D02*
D03*
Y27369D02*
D03*
X128397D02*
D03*
Y17844D02*
D03*
X118872D02*
D03*
Y27369D02*
D03*
X544576Y302133D02*
D03*
X564515Y273431D02*
D03*
X646938Y404495D02*
D03*
X189992Y348742D02*
D03*
X659066Y144844D02*
D03*
X646367D02*
D03*
X633666D02*
D03*
X475540Y318790D02*
D03*
X468030Y325120D02*
D03*
X292100Y334518D02*
D03*
Y314198D02*
D03*
X305054Y324358D02*
D03*
X186944Y369824D02*
D03*
X194564D02*
D03*
X202184D02*
D03*
X209804D02*
D03*
X176530Y493776D02*
D03*
X163830D02*
D03*
Y503936D02*
D03*
X176530D02*
D03*
Y514096D02*
D03*
X163830D02*
D03*
M02*
