G04*
G04 #@! TF.GenerationSoftware,Altium Limited,Altium Designer,22.10.1 (41)*
G04*
G04 Layer_Color=32896*
%FSLAX44Y44*%
%MOMM*%
G71*
G04*
G04 #@! TF.SameCoordinates,FF558BA5-466A-4189-8B58-D4AB7027BDE0*
G04*
G04*
G04 #@! TF.FilePolarity,Positive*
G04*
G01*
G75*
%ADD10C,0.2000*%
%ADD14C,0.1000*%
%ADD15C,0.2500*%
%ADD18C,0.1500*%
%ADD19C,0.2540*%
G36*
X750135Y168732D02*
X744135Y174732D01*
Y162732D01*
X750135Y168732D01*
D02*
G37*
D10*
X791929Y238000D02*
G03*
X806071Y238000I7071J0D01*
G01*
X817000D01*
X781000D02*
X791929D01*
X781000Y149000D02*
Y238000D01*
Y149000D02*
X817000D01*
Y238000D01*
D14*
X730999Y198000D02*
X758999D01*
Y208000D01*
X730999D02*
X758999D01*
X730999Y198000D02*
Y208000D01*
Y186000D02*
X758999D01*
Y196000D01*
X730999D02*
X758999D01*
X730999Y186000D02*
Y196000D01*
X750135Y163732D02*
Y173732D01*
X846000Y209999D02*
Y237999D01*
X836000D02*
X846000D01*
X836000Y209999D02*
Y237999D01*
Y209999D02*
X846000D01*
X859000D02*
Y237999D01*
X849000D02*
X859000D01*
X849000Y209999D02*
Y237999D01*
Y209999D02*
X859000D01*
X862000D02*
Y237999D01*
Y209999D02*
X872000D01*
Y237999D01*
X862000D02*
X872000D01*
X876000Y214500D02*
X892000D01*
X876000Y220500D02*
X892000D01*
X856868Y179930D02*
Y207930D01*
Y179930D02*
X866868D01*
Y207930D01*
X856868D02*
X866868D01*
X853868Y179929D02*
Y207929D01*
X843868D02*
X853868D01*
X843868Y179929D02*
Y207929D01*
Y179929D02*
X853868D01*
X870920Y174500D02*
X886920D01*
X870920Y168500D02*
X886920D01*
X866360Y149957D02*
Y177957D01*
X856360D02*
X866360D01*
X856360Y149957D02*
Y177957D01*
Y149957D02*
X866360D01*
X853360D02*
Y177957D01*
X843360D02*
X853360D01*
X843360Y149957D02*
Y177957D01*
Y149957D02*
X853360D01*
X804999Y148000D02*
X832999D01*
X804999Y138000D02*
Y148000D01*
Y138000D02*
X832999D01*
Y148000D01*
X760826Y116500D02*
X772826D01*
X760826Y121500D02*
X772826D01*
X777590Y116626D02*
X789590D01*
X777590Y121626D02*
X789590D01*
X794100D02*
X806100D01*
X794100Y116626D02*
X806100D01*
X790468Y59836D02*
Y87836D01*
X780468D02*
X790468D01*
X780468Y59836D02*
Y87836D01*
Y59836D02*
X790468D01*
X802968D02*
Y87836D01*
X792968D02*
X802968D01*
X792968Y59836D02*
Y87836D01*
Y59836D02*
X802968D01*
X776000Y44500D02*
Y56500D01*
X781000Y44500D02*
Y56500D01*
X805000Y28499D02*
Y56499D01*
X795000D02*
X805000D01*
X795000Y28499D02*
Y56499D01*
Y28499D02*
X805000D01*
X820500Y72500D02*
X835500D01*
X820500Y88500D02*
X835500D01*
X807500Y69500D02*
X835500D01*
X807500Y59500D02*
Y69500D01*
Y59500D02*
X835500D01*
Y69500D01*
X821000Y28500D02*
Y56500D01*
X833000D01*
Y28500D02*
Y56500D01*
X821000Y28500D02*
X833000D01*
X849218Y40020D02*
X861218D01*
X849218Y45020D02*
X861218D01*
X721967Y157748D02*
X731967D01*
X721967D02*
Y185748D01*
X731967D01*
Y157748D02*
Y185748D01*
X736000Y210001D02*
Y238001D01*
Y210001D02*
X746000D01*
Y238001D01*
X736000D02*
X746000D01*
X749000Y209999D02*
X759000D01*
X749000D02*
Y237999D01*
X759000D01*
Y209999D02*
Y237999D01*
X784414Y256636D02*
Y268636D01*
X779414Y256636D02*
Y268636D01*
X794401Y242396D02*
Y252396D01*
X766401Y242396D02*
X794401D01*
X766401D02*
Y252396D01*
X794401D01*
X896700Y179100D02*
X906700D01*
Y151100D02*
Y179100D01*
X896700Y151100D02*
X906700D01*
X896700D02*
Y179100D01*
X765906Y76566D02*
X777906D01*
X765906Y71566D02*
X777906D01*
D15*
X717000Y145000D02*
X754000D01*
Y37000D02*
Y145000D01*
X717000Y37000D02*
X754000D01*
X717000D02*
Y145000D01*
D18*
X761932Y199947D02*
X769929D01*
Y203946D01*
X768596Y205279D01*
X765931D01*
X764598Y203946D01*
Y199947D01*
Y202613D02*
X761932Y205279D01*
X768596Y207945D02*
X769929Y209278D01*
Y211943D01*
X768596Y213276D01*
X767264D01*
X765931Y211943D01*
Y210611D01*
Y211943D01*
X764598Y213276D01*
X763265D01*
X761932Y211943D01*
Y209278D01*
X763265Y207945D01*
X768596Y215942D02*
X769929Y217275D01*
Y219941D01*
X768596Y221274D01*
X763265D01*
X761932Y219941D01*
Y217275D01*
X763265Y215942D01*
X768596D01*
X761786Y172972D02*
X769783D01*
Y176971D01*
X768450Y178304D01*
X765785D01*
X764452Y176971D01*
Y172972D01*
Y175638D02*
X761786Y178304D01*
X768450Y180969D02*
X769783Y182302D01*
Y184968D01*
X768450Y186301D01*
X767117D01*
X765785Y184968D01*
Y183635D01*
Y184968D01*
X764452Y186301D01*
X763119D01*
X761786Y184968D01*
Y182302D01*
X763119Y180969D01*
X761786Y188967D02*
Y191632D01*
Y190300D01*
X769783D01*
X768450Y188967D01*
X755025Y184928D02*
Y176931D01*
X751026D01*
X749694Y178264D01*
Y183595D01*
X751026Y184928D01*
X755025D01*
X747028Y183595D02*
X745695Y184928D01*
X743029D01*
X741696Y183595D01*
Y182262D01*
X743029Y180929D01*
X741696Y179597D01*
Y178264D01*
X743029Y176931D01*
X745695D01*
X747028Y178264D01*
Y179597D01*
X745695Y180929D01*
X747028Y182262D01*
Y183595D01*
X745695Y180929D02*
X743029D01*
X799538Y162285D02*
Y155621D01*
X798205Y154288D01*
X795539D01*
X794207Y155621D01*
Y162285D01*
X791541Y160952D02*
X790208Y162285D01*
X787542D01*
X786209Y160952D01*
Y159619D01*
X787542Y158287D01*
X786209Y156954D01*
Y155621D01*
X787542Y154288D01*
X790208D01*
X791541Y155621D01*
Y156954D01*
X790208Y158287D01*
X791541Y159619D01*
Y160952D01*
X790208Y158287D02*
X787542D01*
X837173Y240206D02*
X845171D01*
Y244205D01*
X843838Y245538D01*
X841172D01*
X839839Y244205D01*
Y240206D01*
Y242872D02*
X837173Y245538D01*
Y253535D02*
Y248204D01*
X842505Y253535D01*
X843838D01*
X845171Y252202D01*
Y249536D01*
X843838Y248204D01*
Y256201D02*
X845171Y257534D01*
Y260200D01*
X843838Y261533D01*
X842505D01*
X841172Y260200D01*
Y258867D01*
Y260200D01*
X839839Y261533D01*
X838506D01*
X837173Y260200D01*
Y257534D01*
X838506Y256201D01*
X856525Y245538D02*
X857858Y244205D01*
Y241539D01*
X856525Y240206D01*
X851193D01*
X849860Y241539D01*
Y244205D01*
X851193Y245538D01*
X856525Y248204D02*
X857858Y249536D01*
Y252202D01*
X856525Y253535D01*
X855192D01*
X853859Y252202D01*
Y250869D01*
Y252202D01*
X852526Y253535D01*
X851193D01*
X849860Y252202D01*
Y249536D01*
X851193Y248204D01*
X856525Y256201D02*
X857858Y257534D01*
Y260200D01*
X856525Y261533D01*
X855192D01*
X853859Y260200D01*
Y258867D01*
Y260200D01*
X852526Y261533D01*
X851193D01*
X849860Y260200D01*
Y257534D01*
X851193Y256201D01*
X862694Y240486D02*
X870691D01*
Y244484D01*
X869358Y245817D01*
X866692D01*
X865359Y244484D01*
Y240486D01*
Y243151D02*
X862694Y245817D01*
Y253815D02*
Y248483D01*
X868025Y253815D01*
X869358D01*
X870691Y252482D01*
Y249816D01*
X869358Y248483D01*
X862694Y260479D02*
X870691D01*
X866692Y256480D01*
Y261812D01*
X886090Y243722D02*
X887423Y242389D01*
Y239723D01*
X886090Y238390D01*
X880759D01*
X879426Y239723D01*
Y242389D01*
X880759Y243722D01*
X886090Y246388D02*
X887423Y247720D01*
Y250386D01*
X886090Y251719D01*
X884758D01*
X883425Y250386D01*
Y249053D01*
Y250386D01*
X882092Y251719D01*
X880759D01*
X879426Y250386D01*
Y247720D01*
X880759Y246388D01*
X879426Y258384D02*
X887423D01*
X883425Y254385D01*
Y259716D01*
X885658Y197909D02*
X886990Y199242D01*
X889656D01*
X890989Y197909D01*
Y192578D01*
X889656Y191245D01*
X886990D01*
X885658Y192578D01*
X882992Y197909D02*
X881659Y199242D01*
X878993D01*
X877660Y197909D01*
Y196576D01*
X878993Y195243D01*
X880326D01*
X878993D01*
X877660Y193911D01*
Y192578D01*
X878993Y191245D01*
X881659D01*
X882992Y192578D01*
X869663Y199242D02*
X874994D01*
Y195243D01*
X872328Y196576D01*
X870996D01*
X869663Y195243D01*
Y192578D01*
X870996Y191245D01*
X873661D01*
X874994Y192578D01*
X833293Y183171D02*
X841291D01*
Y187169D01*
X839958Y188502D01*
X837292D01*
X835959Y187169D01*
Y183171D01*
Y185836D02*
X833293Y188502D01*
Y196500D02*
Y191168D01*
X838625Y196500D01*
X839958D01*
X841291Y195167D01*
Y192501D01*
X839958Y191168D01*
X841291Y199165D02*
Y204497D01*
X839958D01*
X834626Y199165D01*
X833293D01*
X881087Y132425D02*
X882420Y131092D01*
Y128427D01*
X881087Y127094D01*
X875755D01*
X874422Y128427D01*
Y131092D01*
X875755Y132425D01*
X881087Y135091D02*
X882420Y136424D01*
Y139090D01*
X881087Y140423D01*
X879754D01*
X878421Y139090D01*
Y137757D01*
Y139090D01*
X877088Y140423D01*
X875755D01*
X874422Y139090D01*
Y136424D01*
X875755Y135091D01*
Y143089D02*
X874422Y144421D01*
Y147087D01*
X875755Y148420D01*
X881087D01*
X882420Y147087D01*
Y144421D01*
X881087Y143089D01*
X879754D01*
X878421Y144421D01*
Y148420D01*
X864437Y133752D02*
X865770Y132419D01*
Y129753D01*
X864437Y128420D01*
X859105D01*
X857773Y129753D01*
Y132419D01*
X859105Y133752D01*
X857773Y140416D02*
X865770D01*
X861771Y136418D01*
Y141749D01*
X857773Y144415D02*
Y147081D01*
Y145748D01*
X865770D01*
X864437Y144415D01*
X844311Y125614D02*
X852308D01*
Y129613D01*
X850975Y130946D01*
X848309D01*
X846976Y129613D01*
Y125614D01*
Y128280D02*
X844311Y130946D01*
X850975Y133611D02*
X852308Y134944D01*
Y137610D01*
X850975Y138943D01*
X849642D01*
X848309Y137610D01*
Y136277D01*
Y137610D01*
X846976Y138943D01*
X845643D01*
X844311Y137610D01*
Y134944D01*
X845643Y133611D01*
X850975Y141609D02*
X852308Y142942D01*
Y145608D01*
X850975Y146941D01*
X849642D01*
X848309Y145608D01*
Y144275D01*
Y145608D01*
X846976Y146941D01*
X845643D01*
X844311Y145608D01*
Y142942D01*
X845643Y141609D01*
X831106Y155768D02*
X832439Y154435D01*
Y151769D01*
X831106Y150436D01*
X825774D01*
X824441Y151769D01*
Y154435D01*
X825774Y155768D01*
X824441Y162432D02*
X832439D01*
X828440Y158434D01*
Y163765D01*
X831106Y166431D02*
X832439Y167764D01*
Y170430D01*
X831106Y171763D01*
X825774D01*
X824441Y170430D01*
Y167764D01*
X825774Y166431D01*
X831106D01*
X767955Y139131D02*
X769288Y137798D01*
Y135132D01*
X767955Y133799D01*
X762624D01*
X761291Y135132D01*
Y137798D01*
X762624Y139131D01*
X761291Y145795D02*
X769288D01*
X765289Y141797D01*
Y147128D01*
X767955Y149794D02*
X769288Y151127D01*
Y153793D01*
X767955Y155126D01*
X766622D01*
X765289Y153793D01*
Y152460D01*
Y153793D01*
X763956Y155126D01*
X762624D01*
X761291Y153793D01*
Y151127D01*
X762624Y149794D01*
X792128Y141979D02*
X793461Y143311D01*
X796127D01*
X797460Y141979D01*
Y136647D01*
X796127Y135314D01*
X793461D01*
X792128Y136647D01*
X785464Y135314D02*
Y143311D01*
X789463Y139313D01*
X784131D01*
X777466Y135314D02*
Y143311D01*
X781465Y139313D01*
X776133D01*
X816444Y113909D02*
X817777Y112576D01*
Y109910D01*
X816444Y108577D01*
X811112D01*
X809779Y109910D01*
Y112576D01*
X811112Y113909D01*
X809779Y120573D02*
X817777D01*
X813778Y116574D01*
Y121906D01*
X817777Y129903D02*
Y124572D01*
X813778D01*
X815111Y127238D01*
Y128571D01*
X813778Y129903D01*
X811112D01*
X809779Y128571D01*
Y125905D01*
X811112Y124572D01*
X784506Y90337D02*
Y98334D01*
X780507D01*
X779174Y97001D01*
Y94336D01*
X780507Y93003D01*
X784506D01*
X781840D02*
X779174Y90337D01*
X776509Y97001D02*
X775176Y98334D01*
X772510D01*
X771177Y97001D01*
Y95668D01*
X772510Y94336D01*
X773843D01*
X772510D01*
X771177Y93003D01*
Y91670D01*
X772510Y90337D01*
X775176D01*
X776509Y91670D01*
X764512Y90337D02*
Y98334D01*
X768511Y94336D01*
X763179D01*
X812935Y91518D02*
Y99515D01*
X808936D01*
X807603Y98182D01*
Y95517D01*
X808936Y94184D01*
X812935D01*
X810269D02*
X807603Y91518D01*
X804938Y98182D02*
X803605Y99515D01*
X800939D01*
X799606Y98182D01*
Y96850D01*
X800939Y95517D01*
X802272D01*
X800939D01*
X799606Y94184D01*
Y92851D01*
X800939Y91518D01*
X803605D01*
X804938Y92851D01*
X791609Y99515D02*
X794274Y98182D01*
X796940Y95517D01*
Y92851D01*
X795607Y91518D01*
X792941D01*
X791609Y92851D01*
Y94184D01*
X792941Y95517D01*
X796940D01*
X783296Y39693D02*
X784628Y41026D01*
X787294D01*
X788627Y39693D01*
Y34361D01*
X787294Y33028D01*
X784628D01*
X783296Y34361D01*
X776631Y33028D02*
Y41026D01*
X780630Y37027D01*
X775298D01*
X767301Y41026D02*
X769967Y39693D01*
X772632Y37027D01*
Y34361D01*
X771299Y33028D01*
X768634D01*
X767301Y34361D01*
Y35694D01*
X768634Y37027D01*
X772632D01*
X808617Y16594D02*
Y24592D01*
X804618D01*
X803285Y23259D01*
Y20593D01*
X804618Y19260D01*
X808617D01*
X805951D02*
X803285Y16594D01*
X800620Y23259D02*
X799287Y24592D01*
X796621D01*
X795288Y23259D01*
Y21926D01*
X796621Y20593D01*
X797954D01*
X796621D01*
X795288Y19260D01*
Y17927D01*
X796621Y16594D01*
X799287D01*
X800620Y17927D01*
X787290Y24592D02*
X792622D01*
Y20593D01*
X789956Y21926D01*
X788623D01*
X787290Y20593D01*
Y17927D01*
X788623Y16594D01*
X791289D01*
X792622Y17927D01*
X841193Y91137D02*
Y99134D01*
X837194D01*
X835861Y97802D01*
Y95136D01*
X837194Y93803D01*
X841193D01*
X838527D02*
X835861Y91137D01*
X833196Y99134D02*
X827864D01*
X830530D01*
Y91137D01*
X825198D02*
X822532D01*
X823865D01*
Y99134D01*
X825198Y97802D01*
X859099Y59793D02*
Y67791D01*
X855101D01*
X853768Y66458D01*
Y63792D01*
X855101Y62459D01*
X859099D01*
X856434D02*
X853768Y59793D01*
X851102Y66458D02*
X849769Y67791D01*
X847103D01*
X845770Y66458D01*
Y65125D01*
X847103Y63792D01*
X848436D01*
X847103D01*
X845770Y62459D01*
Y61126D01*
X847103Y59793D01*
X849769D01*
X851102Y61126D01*
X843105Y67791D02*
X837773D01*
Y66458D01*
X843105Y61126D01*
Y59793D01*
X831720Y25100D02*
Y18435D01*
X830387Y17102D01*
X827721D01*
X826388Y18435D01*
Y25100D01*
X823723Y18435D02*
X822390Y17102D01*
X819724D01*
X818391Y18435D01*
Y23767D01*
X819724Y25100D01*
X822390D01*
X823723Y23767D01*
Y22434D01*
X822390Y21101D01*
X818391D01*
X861051Y25126D02*
X862384Y26459D01*
X865050D01*
X866383Y25126D01*
Y19794D01*
X865050Y18461D01*
X862384D01*
X861051Y19794D01*
X854387Y18461D02*
Y26459D01*
X858385Y22460D01*
X853054D01*
X845056Y18461D02*
X850388D01*
X845056Y23793D01*
Y25126D01*
X846389Y26459D01*
X849055D01*
X850388Y25126D01*
X725620Y31297D02*
X728286D01*
X726953D01*
Y24633D01*
X728286Y23300D01*
X729619D01*
X730952Y24633D01*
X722954Y29964D02*
X721621Y31297D01*
X718956D01*
X717623Y29964D01*
Y28632D01*
X718956Y27299D01*
X717623Y25966D01*
Y24633D01*
X718956Y23300D01*
X721621D01*
X722954Y24633D01*
Y25966D01*
X721621Y27299D01*
X722954Y28632D01*
Y29964D01*
X721621Y27299D02*
X718956D01*
X722625Y188485D02*
X730623D01*
Y192484D01*
X729290Y193817D01*
X726624D01*
X725291Y192484D01*
Y188485D01*
Y191151D02*
X722625Y193817D01*
Y201814D02*
Y196483D01*
X727957Y201814D01*
X729290D01*
X730623Y200482D01*
Y197816D01*
X729290Y196483D01*
Y204480D02*
X730623Y205813D01*
Y208479D01*
X729290Y209812D01*
X727957D01*
X726624Y208479D01*
X725291Y209812D01*
X723958D01*
X722625Y208479D01*
Y205813D01*
X723958Y204480D01*
X725291D01*
X726624Y205813D01*
X727957Y204480D01*
X729290D01*
X726624Y205813D02*
Y208479D01*
X743628Y246014D02*
X744961Y244681D01*
Y242015D01*
X743628Y240682D01*
X738297D01*
X736964Y242015D01*
Y244681D01*
X738297Y246014D01*
X743628Y248680D02*
X744961Y250013D01*
Y252679D01*
X743628Y254011D01*
X742295D01*
X740962Y252679D01*
Y251346D01*
Y252679D01*
X739630Y254011D01*
X738297D01*
X736964Y252679D01*
Y250013D01*
X738297Y248680D01*
X744961Y256677D02*
Y262009D01*
X743628D01*
X738297Y256677D01*
X736964D01*
X750597Y240517D02*
X758595D01*
Y244516D01*
X757262Y245849D01*
X754596D01*
X753263Y244516D01*
Y240517D01*
Y243183D02*
X750597Y245849D01*
Y253846D02*
Y248515D01*
X755929Y253846D01*
X757262D01*
X758595Y252514D01*
Y249848D01*
X757262Y248515D01*
X758595Y261844D02*
X757262Y259178D01*
X754596Y256512D01*
X751930D01*
X750597Y257845D01*
Y260511D01*
X751930Y261844D01*
X753263D01*
X754596Y260511D01*
Y256512D01*
X787683Y279367D02*
X789016Y280700D01*
X791682D01*
X793015Y279367D01*
Y274035D01*
X791682Y272703D01*
X789016D01*
X787683Y274035D01*
X785018Y279367D02*
X783685Y280700D01*
X781019D01*
X779686Y279367D01*
Y278034D01*
X781019Y276701D01*
X782352D01*
X781019D01*
X779686Y275368D01*
Y274035D01*
X781019Y272703D01*
X783685D01*
X785018Y274035D01*
X777020Y279367D02*
X775687Y280700D01*
X773021D01*
X771689Y279367D01*
Y278034D01*
X773021Y276701D01*
X771689Y275368D01*
Y274035D01*
X773021Y272703D01*
X775687D01*
X777020Y274035D01*
Y275368D01*
X775687Y276701D01*
X777020Y278034D01*
Y279367D01*
X775687Y276701D02*
X773021D01*
X814296Y250614D02*
X815629Y251947D01*
X818295D01*
X819628Y250614D01*
Y245283D01*
X818295Y243950D01*
X815629D01*
X814296Y245283D01*
X811630Y250614D02*
X810297Y251947D01*
X807632D01*
X806299Y250614D01*
Y249281D01*
X807632Y247948D01*
X808965D01*
X807632D01*
X806299Y246616D01*
Y245283D01*
X807632Y243950D01*
X810297D01*
X811630Y245283D01*
X798301Y251947D02*
X800967Y250614D01*
X803633Y247948D01*
Y245283D01*
X802300Y243950D01*
X799634D01*
X798301Y245283D01*
Y246616D01*
X799634Y247948D01*
X803633D01*
X897777Y180821D02*
X905775D01*
Y184820D01*
X904442Y186153D01*
X901776D01*
X900443Y184820D01*
Y180821D01*
Y183487D02*
X897777Y186153D01*
X904442Y188818D02*
X905775Y190151D01*
Y192817D01*
X904442Y194150D01*
X903109D01*
X901776Y192817D01*
Y191484D01*
Y192817D01*
X900443Y194150D01*
X899110D01*
X897777Y192817D01*
Y190151D01*
X899110Y188818D01*
X897777Y202147D02*
Y196816D01*
X903109Y202147D01*
X904442D01*
X905775Y200815D01*
Y198149D01*
X904442Y196816D01*
X763015Y68284D02*
X764348Y66951D01*
Y64285D01*
X763015Y62952D01*
X757683D01*
X756350Y64285D01*
Y66951D01*
X757683Y68284D01*
X756350Y74948D02*
X764348D01*
X760349Y70950D01*
Y76281D01*
X764348Y78947D02*
Y84279D01*
X763015D01*
X757683Y78947D01*
X756350D01*
D19*
X718540Y150540D02*
Y155618D01*
Y153079D01*
X733775D01*
X731236Y150540D01*
M02*
